<?xml version="1.0" standalone="no"?>
<!DOCTYPE svg PUBLIC "-//W3C//DTD SVG 20010904//EN"
 "http://www.w3.org/TR/2001/REC-SVG-20010904/DTD/svg10.dtd">
<svg version="1.0" xmlns="http://www.w3.org/2000/svg"
 width="512.000000pt" height="512.000000pt" viewBox="0 0 512.000000 512.000000"
 preserveAspectRatio="xMidYMid meet">
<metadata>
Created by potrace 1.14, written by Peter Selinger 2001-2017
</metadata>
<g transform="translate(0.000000,512.000000) scale(0.100000,-0.100000)"
fill="#000000" stroke="none">
<path d="M745 5030 c-3 -4 -7 -25 -10 -46 -7 -46 -16 -111 -21 -139 -2 -16
-39 -258 -79 -525 -2 -14 -9 -61 -16 -105 -6 -44 -13 -89 -14 -100 -17 -121
-62 -418 -75 -495 -5 -30 -12 -75 -15 -100 -3 -25 -9 -70 -15 -100 -5 -30 -11
-71 -14 -90 -4 -33 -31 -212 -42 -290 -3 -19 -12 -75 -19 -125 -8 -49 -16
-108 -19 -130 -4 -22 -8 -51 -11 -65 -2 -14 -7 -43 -10 -65 -14 -99 -25 -172
-29 -195 -3 -14 -7 -46 -10 -71 -4 -26 -19 -132 -35 -235 -16 -104 -32 -207
-35 -229 -3 -22 -12 -87 -21 -145 -9 -58 -18 -121 -21 -140 -7 -45 -33 -217
-39 -250 -2 -14 -7 -43 -10 -65 -2 -22 -7 -51 -9 -65 -3 -14 -7 -47 -11 -75
-3 -27 -9 -75 -15 -105 -12 -72 -15 -89 -40 -260 -25 -175 -30 -208 -35 -240
-2 -14 -9 -54 -14 -90 -6 -36 -13 -83 -16 -105 -2 -22 -6 -49 -9 -60 -2 -11
-7 -45 -11 -75 -4 -30 -9 -62 -10 -70 -1 -8 -6 -33 -9 -56 l-7 -41 100 1 c54
1 102 3 104 6 3 3 21 115 41 250 20 135 38 256 41 270 2 14 13 90 25 170 11
80 25 170 30 200 5 30 12 75 15 100 3 25 12 86 20 135 8 50 19 126 25 170 6
44 13 93 16 108 15 90 55 356 59 391 3 23 10 66 15 96 5 30 12 75 15 100 3 25
10 70 15 100 9 57 14 91 30 200 5 36 12 83 15 105 14 90 26 171 30 195 6 34
36 239 40 270 5 43 17 124 21 145 3 11 11 65 19 120 8 55 17 115 20 133 5 31
9 60 20 140 3 20 7 48 10 62 2 14 9 61 15 105 7 44 13 87 15 95 5 30 16 96 19
125 9 65 18 131 22 150 2 11 7 38 9 60 3 22 10 69 16 105 6 36 12 81 15 100 2
19 9 64 15 100 6 36 13 81 15 100 8 55 12 83 18 115 5 33 24 160 31 215 3 19
7 44 9 55 5 25 20 136 21 150 0 12 -193 16 -200 5z"/>
<path d="M1125 4992 c-3 -26 -9 -63 -11 -82 -3 -19 -7 -46 -10 -60 -2 -14 -6
-45 -10 -70 -3 -25 -9 -70 -14 -100 -5 -30 -12 -77 -15 -105 -4 -27 -8 -57
-10 -65 -2 -8 -7 -35 -10 -60 -6 -42 -8 -57 -19 -127 -3 -16 -12 -77 -21 -138
-9 -60 -18 -122 -20 -137 -10 -57 -14 -86 -30 -198 -20 -138 -24 -167 -30
-200 -8 -42 -14 -83 -20 -130 -3 -25 -7 -56 -10 -70 -4 -22 -9 -54 -20 -125
-1 -11 -6 -47 -10 -80 -4 -33 -9 -62 -10 -65 -2 -3 -6 -30 -10 -59 -3 -30 -7
-59 -8 -65 -2 -12 18 -12 268 -2 179 7 727 8 850 1 161 -8 301 -17 335 -20
125 -10 187 -17 200 -20 8 -2 35 -7 60 -10 25 -3 68 -10 95 -15 28 -5 62 -12
77 -14 56 -9 205 -59 248 -83 80 -44 125 -102 116 -149 -18 -88 -42 -137 -86
-179 -44 -40 -64 -89 -49 -116 12 -22 95 -65 144 -73 17 -3 41 -8 55 -10 125
-25 262 -31 655 -31 338 0 556 6 770 20 144 9 240 17 243 20 2 2 -41 90 -96
197 -55 106 -169 328 -253 494 l-153 301 134 169 c74 93 142 178 152 189 9 11
129 160 267 332 l250 312 -47 -4 c-45 -4 -162 -12 -282 -20 -371 -24 -1089
-25 -1230 -1 -14 3 -47 7 -75 10 -64 7 -158 32 -195 51 -69 36 -62 81 28 193
50 61 74 114 67 149 -2 10 -4 24 -4 31 -1 17 -49 64 -91 89 -61 36 -223 84
-335 98 -16 3 -48 7 -70 10 -67 11 -87 13 -160 20 -38 3 -86 8 -105 10 -33 4
-82 7 -330 21 -52 3 -334 7 -626 9 l-532 3 -7 -46z m1170 -237 c181 -155 316
-295 390 -405 86 -128 105 -217 73 -335 -22 -81 -51 -134 -105 -191 -38 -41
-113 -101 -113 -91 0 3 9 27 20 53 24 55 36 146 26 198 -11 56 -61 105 -151
147 -101 47 -264 93 -270 76 -3 -10 -79 -346 -90 -397 -30 -143 -68 -297 -79
-318 -21 -40 -69 -87 -118 -116 -166 -97 -439 -55 -538 84 -134 188 60 408
349 394 74 -3 169 -34 219 -71 23 -17 33 -21 36 -11 2 7 41 175 85 373 45 198
86 376 91 395 6 19 17 67 25 105 8 39 22 98 31 132 19 72 8 74 119 -22z"/>
</g>
</svg>
