<?xml version="1.0" standalone="no"?>
<!DOCTYPE svg PUBLIC "-//W3C//DTD SVG 20010904//EN"
 "http://www.w3.org/TR/2001/REC-SVG-20010904/DTD/svg10.dtd">
<svg version="1.0" xmlns="http://www.w3.org/2000/svg"
 width="700.000000pt" height="700.000000pt" viewBox="0 0 700.000000 700.000000"
 preserveAspectRatio="xMidYMid meet">
<metadata>
Created by potrace 1.14, written by Peter Selinger 2001-2017
</metadata>
<g transform="translate(0.000000,700.000000) scale(0.100000,-0.100000)"
fill="#000000" stroke="none">
<path d="M5175 5921 c6 -11 3 -13 -13 -9 -12 4 -25 2 -28 -3 -3 -5 -10 -7 -15
-3 -5 3 -8 0 -7 -8 2 -7 -4 -12 -12 -10 -12 3 -13 1 -2 -9 14 -15 16 -65 2
-74 -5 -3 -7 -12 -3 -20 3 -10 -1 -15 -13 -15 -16 0 -17 -2 -4 -10 13 -8 13
-10 -2 -10 -21 0 -32 -16 -17 -26 8 -4 9 -3 5 4 -4 7 -2 12 3 12 23 0 9 -22
-50 -81 -49 -49 -65 -60 -84 -55 -13 3 -27 1 -30 -4 -4 -6 -11 -8 -16 -4 -5 3
-8 0 -7 -7 2 -6 -3 -14 -11 -17 -8 -3 -11 0 -7 7 4 6 2 11 -3 11 -6 0 -11 -4
-11 -10 0 -5 -9 -10 -21 -10 -13 0 -18 4 -13 12 4 7 3 8 -5 4 -6 -4 -9 -12 -5
-18 4 -6 -3 -8 -17 -6 -14 2 -24 -2 -25 -9 -1 -7 -2 -18 -3 -24 0 -5 -5 -7
-11 -4 -5 3 -10 1 -10 -4 0 -6 6 -11 13 -11 7 0 19 -8 26 -19 9 -11 22 -17 35
-14 17 4 18 3 6 -6 -8 -6 -10 -11 -5 -11 6 0 16 5 22 11 16 16 47 3 39 -16 -3
-8 0 -17 6 -21 6 -4 8 -3 5 2 -3 6 -2 16 3 23 19 32 189 -100 175 -137 -2 -7
-1 -11 4 -8 13 9 23 -25 11 -39 -7 -9 -5 -16 7 -26 16 -13 17 -12 4 4 -7 9 -9
17 -3 17 16 0 22 -26 9 -40 -9 -10 -9 -11 1 -6 7 5 12 1 12 -9 0 -9 -4 -14 -9
-10 -5 3 -13 0 -17 -6 -4 -7 -3 -9 4 -5 13 8 21 -5 24 -38 1 -14 4 -23 6 -21
3 2 12 0 22 -5 10 -5 21 -6 25 -2 3 4 12 7 18 7 7 0 11 8 9 18 -2 11 4 17 15
18 15 0 15 2 3 7 -17 8 -25 32 -10 32 6 0 10 -5 10 -12 0 -6 3 -8 6 -5 4 4 2
13 -5 21 -18 22 -3 68 19 61 10 -3 21 -1 25 4 3 6 0 8 -8 5 -8 -3 -18 0 -22 6
-8 13 22 63 35 55 5 -3 12 0 16 6 4 8 3 9 -4 5 -23 -14 -12 10 16 37 27 26 49
36 37 18 -3 -5 -1 -12 4 -15 5 -4 8 2 6 11 -3 20 12 43 28 43 7 0 7 -4 -1 -12
-7 -7 -12 -17 -12 -22 0 -6 8 0 18 14 13 19 25 25 50 23 17 0 32 3 32 8 0 6
-4 7 -10 4 -5 -3 -10 -1 -10 4 0 16 26 14 63 -4 23 -12 27 -12 15 -2 -10 8
-15 17 -11 20 3 4 12 2 20 -4 7 -6 14 -9 14 -5 1 3 2 9 3 14 3 17 18 32 27 27
5 -4 9 -1 9 4 0 6 -6 11 -14 11 -8 0 -17 7 -20 16 -5 12 -2 15 9 10 9 -3 13
-2 10 4 -3 6 -18 7 -32 4 -20 -5 -24 -4 -18 6 6 10 4 11 -6 4 -20 -12 -40 -14
-33 -3 3 5 11 6 17 3 7 -4 8 -3 4 2 -11 11 -30 12 -38 1 -12 -16 -59 4 -60 27
-1 16 -2 17 -6 4 -4 -14 -8 -16 -24 -7 -11 5 -17 14 -14 19 3 6 0 7 -8 4 -29
-11 -138 129 -122 156 3 5 1 12 -5 15 -6 4 -8 16 -4 27 4 14 2 18 -5 14 -6 -4
-11 -2 -11 3 0 6 6 11 13 11 8 0 7 4 -3 10 -13 9 -7 14 13 11 4 0 7 4 7 10 0
6 -7 9 -15 5 -8 -3 -16 -1 -16 4 -1 6 -2 14 -3 19 0 5 -5 13 -10 18 -5 5 -6 2
-1 -6z m-250 -331 c-3 -5 -11 -10 -16 -10 -6 0 -7 5 -4 10 3 6 11 10 16 10 6
0 7 -4 4 -10z"/>
<path d="M5083 5835 c-7 -8 -9 -16 -4 -19 5 -3 12 1 15 10 8 22 4 25 -11 9z"/>
<path d="M5210 5806 c0 -2 7 -7 16 -10 8 -3 12 -2 9 4 -6 10 -25 14 -25 6z"/>
<path d="M4280 5789 c0 -6 -4 -7 -10 -4 -6 3 -7 -1 -4 -9 4 -10 1 -16 -9 -16
-9 0 -19 -4 -22 -10 -3 -6 1 -7 9 -4 12 5 16 -1 16 -25 0 -28 -8 -36 -33 -32
-5 1 -6 -3 -2 -9 3 -6 11 -8 16 -5 21 14 7 -25 -16 -43 -20 -16 -22 -21 -9
-26 8 -3 12 -2 9 3 -3 5 -1 12 5 16 16 10 12 -12 -11 -56 -14 -28 -25 -39 -35
-35 -9 3 -12 1 -9 -4 12 -20 -8 -52 -57 -91 -40 -31 -53 -37 -64 -28 -12 9
-13 9 -9 -3 6 -14 -23 -36 -55 -42 -8 -2 -28 -8 -45 -15 -33 -14 -86 -12 -97
4 -5 6 -8 5 -8 -3 0 -7 -5 -10 -12 -6 -6 4 -8 3 -4 -4 3 -6 2 -13 -4 -17 -5
-3 -10 -15 -10 -26 0 -14 -4 -18 -12 -13 -8 5 -8 1 2 -12 22 -29 24 -30 16
-10 -5 16 -4 17 9 6 8 -7 12 -17 8 -23 -4 -6 -1 -7 8 -1 19 12 68 13 66 1 -1
-5 4 -12 12 -15 8 -3 11 0 7 7 -4 6 -2 11 3 11 6 0 11 -4 11 -10 0 -5 5 -10
11 -10 5 0 7 4 4 10 -3 6 1 7 9 4 9 -3 13 -11 9 -17 -4 -7 0 -8 12 -4 21 9
109 -39 100 -53 -3 -6 0 -7 8 -4 14 5 85 -64 106 -105 9 -16 9 -21 -1 -22 -7
0 -3 -4 8 -9 22 -9 37 -53 23 -67 -5 -5 -3 -15 2 -23 9 -12 10 -11 4 5 -5 16
-4 18 6 8 7 -7 13 -38 13 -68 1 -36 6 -57 14 -60 7 -3 11 -9 8 -14 -3 -4 6 -7
19 -5 14 1 23 -2 19 -7 -3 -5 -1 -9 4 -9 6 0 13 16 16 35 5 24 11 33 19 28 8
-4 7 -1 -1 9 -9 12 -10 22 -4 35 5 10 7 25 4 33 -5 13 -3 13 12 1 16 -13 16
-12 5 12 -10 21 -9 32 5 61 9 20 21 36 27 36 6 0 7 5 3 12 -5 8 -2 9 11 4 14
-5 16 -4 6 7 -9 11 -8 17 2 26 8 6 17 8 21 4 4 -4 4 0 1 9 -8 20 59 78 131
112 61 29 79 33 50 11 -11 -8 -15 -15 -9 -15 7 0 14 4 18 10 3 5 11 8 18 6 7
-1 9 -1 5 1 -12 7 -9 20 5 21 6 0 36 3 65 6 29 3 50 1 47 -4 -3 -5 -1 -11 4
-15 6 -3 8 4 6 15 -5 26 4 52 16 44 5 -3 9 -1 9 4 0 6 -7 13 -16 16 -8 3 -13
9 -10 14 2 4 -5 9 -16 9 -11 1 -30 10 -41 20 -20 16 -20 16 -8 1 11 -15 11
-18 -2 -18 -32 0 -48 11 -36 26 6 8 8 14 4 14 -4 0 -13 -7 -20 -16 -13 -19
-59 -10 -52 10 3 7 -4 13 -16 14 -17 1 -19 -1 -7 -8 8 -5 10 -10 4 -10 -10 0
-81 45 -116 73 -11 9 -16 23 -12 40 2 15 0 27 -5 27 -6 0 -8 -10 -6 -21 4 -21
4 -21 -16 -3 -11 10 -17 24 -15 31 3 7 2 12 -2 10 -4 -1 -7 3 -7 8 0 6 4 9 8
7 5 -1 6 2 2 7 -3 6 -12 8 -19 5 -22 -8 -30 15 -12 35 14 15 14 18 1 18 -8 0
-12 -4 -9 -9 3 -4 1 -8 -4 -8 -15 0 -21 37 -9 49 8 8 6 11 -6 11 -20 0 -22 21
-4 39 10 10 9 11 -4 6 -11 -4 -16 1 -16 22 -2 43 -7 73 -11 68 -2 -2 -15 0
-28 5 -16 6 -24 6 -24 -1z"/>
<path d="M4350 5760 c0 -5 5 -10 11 -10 5 0 7 5 4 10 -3 6 -8 10 -11 10 -2 0
-4 -4 -4 -10z"/>
<path d="M4236 5713 c-6 -14 -5 -15 5 -6 7 7 10 15 7 18 -3 3 -9 -2 -12 -12z"/>
<path d="M4355 5720 c-3 -6 1 -7 9 -4 18 7 21 14 7 14 -6 0 -13 -4 -16 -10z"/>
<path d="M5247 5713 c3 -7 6 -13 8 -13 2 0 5 6 8 13 3 8 -1 14 -8 14 -7 0 -11
-6 -8 -14z"/>
<path d="M5270 5705 c0 -5 5 -17 10 -25 5 -8 10 -10 10 -5 0 6 -5 17 -10 25
-5 8 -10 11 -10 5z"/>
<path d="M4999 5653 c-13 -16 -12 -17 4 -4 9 7 17 15 17 17 0 8 -8 3 -21 -13z"/>
<path d="M5310 5650 c13 -24 17 -25 17 -5 0 8 -6 16 -14 19 -11 4 -11 1 -3
-14z"/>
<path d="M4955 5629 c-4 -6 -5 -12 -2 -15 2 -3 7 2 10 11 7 17 1 20 -8 4z"/>
<path d="M5435 5599 c-4 -6 -5 -12 -2 -15 2 -3 7 2 10 11 7 17 1 20 -8 4z"/>
<path d="M4186 5581 c-4 -5 3 -7 14 -4 23 6 26 13 6 13 -8 0 -17 -4 -20 -9z"/>
<path d="M3400 5548 c-5 -13 -9 -16 -9 -8 -1 11 -4 11 -13 2 -15 -15 -68 -16
-68 -1 0 6 -7 3 -16 -6 -14 -13 -19 -14 -25 -3 -7 11 -9 11 -9 0 0 -10 -10
-12 -39 -7 -24 4 -42 2 -46 -4 -9 -15 -35 -14 -31 2 1 6 1 9 -1 5 -2 -4 -11
-4 -19 -1 -8 3 -14 0 -14 -7 0 -6 5 -8 10 -5 6 3 10 1 10 -4 0 -6 -12 -11 -26
-11 -24 0 -25 2 -13 17 12 15 12 16 -1 8 -8 -6 -18 -10 -22 -10 -3 0 -10 -4
-15 -9 -5 -5 -3 -6 5 -2 6 4 12 2 12 -3 0 -19 -28 -12 -44 11 -9 12 -16 17
-16 11 0 -7 5 -15 10 -18 20 -12 10 -27 -15 -23 -14 3 -25 2 -25 -2 0 -4 -12
-11 -27 -14 -16 -4 -36 -9 -47 -13 -13 -4 -17 -1 -12 8 4 8 1 6 -7 -3 -16 -21
-31 -24 -22 -5 4 6 0 4 -8 -5 -14 -18 -33 -25 -23 -10 3 5 -1 9 -9 9 -8 0 -13
-5 -12 -11 1 -6 -6 -10 -17 -8 -10 2 -15 -1 -12 -6 3 -5 -10 -14 -29 -19 -31
-10 -33 -9 -30 10 3 11 1 16 -3 13 -7 -7 -8 -11 -11 -37 0 -6 -10 -9 -21 -6
-11 3 -18 1 -14 -4 5 -9 -9 -13 -33 -10 -7 1 -13 -2 -13 -7 0 -14 -80 -54 -96
-48 -8 3 -12 2 -9 -4 3 -5 -9 -17 -27 -26 -26 -14 -30 -14 -21 -2 10 12 10 15
-2 15 -8 0 -12 -4 -9 -8 3 -5 -3 -16 -13 -25 -27 -24 -216 -146 -208 -135 3 7
0 8 -9 5 -9 -3 -14 -10 -11 -14 2 -4 -4 -15 -14 -24 -14 -13 -21 -14 -27 -5
-4 7 -3 10 4 5 6 -3 13 -2 16 3 4 5 -2 8 -11 6 -10 -1 -17 -8 -15 -15 2 -7 -5
-21 -14 -31 -14 -15 -19 -17 -26 -7 -6 10 -8 9 -8 -2 0 -22 -146 -164 -159
-156 -6 4 -9 1 -5 -7 6 -16 -62 -81 -76 -72 -5 3 -11 1 -15 -4 -3 -6 4 -8 16
-6 l22 4 -23 -24 c-13 -13 -26 -22 -30 -20 -4 3 -13 -2 -20 -10 -11 -13 -10
-14 6 -8 14 5 9 -5 -16 -38 -20 -24 -48 -63 -64 -87 -16 -24 -35 -41 -41 -38
-6 2 -12 -2 -12 -10 0 -7 4 -11 10 -7 5 3 -5 -19 -22 -48 -18 -30 -48 -84 -67
-121 -20 -37 -40 -65 -45 -62 -5 3 -6 -2 -3 -10 6 -15 -34 -116 -46 -116 -4 0
-8 -6 -7 -12 1 -33 -4 -47 -20 -50 -9 -2 -17 -13 -18 -25 -1 -12 2 -20 7 -17
13 8 9 -10 -8 -34 -8 -12 -20 -19 -26 -16 -7 4 -8 2 -4 -5 4 -6 12 -9 17 -6 5
4 9 1 9 -4 0 -6 -4 -11 -8 -11 -5 0 -9 -14 -10 -31 0 -18 -6 -37 -13 -43 -9
-8 -10 -8 -5 2 10 17 1 15 -14 -4 -11 -12 -11 -15 0 -12 8 2 16 -5 18 -14 2
-10 -2 -18 -8 -18 -6 0 -8 6 -4 13 4 6 3 8 -1 4 -12 -10 -15 -38 -4 -31 5 3 9
-2 9 -11 0 -8 -7 -18 -16 -22 -13 -5 -13 -7 -2 -14 10 -6 9 -12 -7 -24 -17
-14 -17 -16 -2 -11 22 7 22 -3 0 -21 -10 -8 -12 -12 -6 -8 9 4 12 -2 11 -19
-1 -13 -6 -22 -10 -20 -5 3 -5 10 -2 16 4 7 2 8 -4 4 -8 -5 -9 -13 -3 -25 14
-25 10 -63 -6 -57 -7 3 -13 1 -13 -4 0 -6 5 -10 10 -10 6 0 10 -7 10 -16 0 -9
-5 -12 -12 -8 -10 6 -10 5 -1 -7 14 -17 15 -89 1 -89 -5 0 -6 5 -3 10 3 6 1
10 -5 10 -7 0 -9 -7 -6 -16 3 -9 6 -18 6 -20 0 -3 6 -2 13 2 7 5 7 1 -2 -10
-13 -15 -13 -19 0 -27 11 -7 11 -9 0 -9 -10 0 -11 -3 -3 -13 6 -7 7 -18 2 -26
-4 -8 -6 -20 -3 -27 2 -6 -1 -15 -7 -19 -9 -6 -9 -9 1 -15 6 -5 13 -25 15 -46
1 -25 -1 -33 -7 -23 -7 11 -9 11 -9 -3 0 -10 5 -18 10 -18 6 0 10 -14 10 -32
0 -30 -1 -31 -16 -12 -15 19 -15 19 -6 -1 5 -11 8 -30 6 -42 -3 -15 1 -23 11
-23 20 0 19 -14 -2 -31 -10 -8 -14 -9 -10 -2 4 6 2 15 -4 19 -8 4 -9 3 -5 -4
8 -14 -24 -47 -104 -106 -31 -23 -80 -62 -109 -86 -29 -25 -60 -44 -68 -42 -8
2 -12 -1 -9 -6 3 -5 -4 -18 -16 -28 -12 -11 -18 -14 -15 -7 4 6 4 14 -1 17 -4
2 -9 -4 -9 -15 -2 -26 -45 -62 -55 -46 -5 7 -8 2 -8 -12 0 -20 -2 -22 -15 -11
-13 11 -14 10 -10 -1 3 -9 -10 -29 -30 -49 -20 -19 -34 -28 -32 -20 2 8 2 12
0 7 -3 -4 -9 -5 -14 -2 -5 4 -6 -1 -3 -9 4 -10 -6 -27 -26 -46 -34 -32 -46
-38 -34 -17 4 7 3 9 -2 4 -5 -5 -9 -12 -9 -17 0 -14 -138 -152 -155 -155 -8
-1 -15 -9 -15 -17 0 -23 -54 -80 -67 -72 -6 4 -9 1 -6 -7 3 -8 -9 -32 -27 -54
-18 -22 -58 -80 -91 -130 -32 -49 -62 -92 -66 -93 -4 -2 -5 -9 -1 -15 4 -7 0
-8 -12 -3 -15 5 -16 4 -6 -8 10 -12 8 -19 -8 -35 -12 -12 -17 -21 -11 -21 5 0
10 -5 10 -11 0 -6 -7 -8 -16 -5 -14 5 -15 4 -4 -9 7 -8 10 -16 6 -16 -3 -1
-10 -2 -15 -3 -5 0 -13 -5 -18 -10 -5 -5 -3 -6 5 -2 7 4 15 1 18 -8 7 -18 -14
-59 -26 -51 -6 3 -7 -1 -3 -10 5 -13 8 -14 15 -3 5 8 7 -8 6 -42 -2 -39 -7
-54 -16 -52 -8 1 -11 -2 -7 -8 4 -6 14 -9 22 -6 10 4 13 2 10 -8 -3 -8 -1 -16
4 -18 5 -2 11 -13 12 -26 0 -12 5 -22 10 -22 5 0 6 -12 2 -27 -6 -27 -6 -27
10 -8 14 17 16 18 11 2 -3 -10 -2 -16 3 -13 4 3 24 -9 44 -27 19 -18 39 -33
44 -34 55 -15 137 -54 135 -64 -2 -9 2 -8 14 2 12 10 18 11 21 2 3 -7 19 -9
44 -7 23 3 38 1 36 -3 -3 -5 -1 -15 5 -23 8 -13 9 -12 5 2 -9 26 6 31 21 6 7
-13 11 -16 9 -8 -4 13 7 16 59 18 42 2 64 0 64 -8 0 -6 -5 -8 -12 -4 -7 5 -8
3 -3 -6 6 -10 11 -10 20 3 15 20 86 24 81 5 -1 -7 -1 -10 1 -5 3 4 13 7 23 7
10 0 21 6 23 13 4 9 6 9 6 0 1 -7 9 -13 19 -13 14 0 15 2 2 10 -8 5 -10 10 -4
10 5 0 16 -6 23 -13 11 -10 12 -9 6 2 -6 11 -3 13 16 8 13 -3 35 -8 48 -11 13
-3 31 -1 40 4 12 7 7 8 -16 5 -18 -2 -33 1 -33 6 0 5 18 10 40 10 22 1 43 2
48 3 58 14 105 16 118 5 12 -10 15 -10 12 1 -2 7 9 16 24 20 19 6 25 5 22 -4
-3 -7 2 -13 10 -13 8 0 12 6 9 14 -7 19 8 16 23 -4 12 -17 12 -17 11 1 -2 21
29 34 76 32 15 -1 27 2 27 7 0 5 9 7 20 4 10 -3 21 0 24 7 3 7 8 6 15 -4 9
-13 11 -12 11 4 0 11 3 17 6 13 3 -3 16 -2 28 2 40 15 82 22 66 12 -12 -8 -11
-10 7 -8 12 0 20 4 17 8 -2 4 3 9 11 13 8 3 17 0 21 -6 5 -7 11 -5 20 6 6 9
23 18 36 20 12 2 35 9 49 16 21 10 31 10 50 -1 22 -11 23 -11 10 4 -13 16 -2
25 13 10 10 -10 46 -11 40 -1 -4 5 -12 7 -20 4 -8 -3 -14 -2 -14 3 0 5 12 11
28 15 15 3 38 9 51 12 20 6 23 4 18 -9 -3 -9 -1 -18 6 -21 7 -3 2 -3 -10 0
-13 3 -23 2 -23 -3 0 -5 10 -9 21 -10 32 -3 36 -13 14 -30 -20 -15 -20 -15 3
-8 12 3 22 2 22 -3 0 -5 14 -29 31 -55 17 -26 27 -52 23 -58 -4 -7 -3 -9 3 -6
6 4 21 -6 34 -21 13 -14 17 -21 7 -14 -11 9 -18 10 -23 2 -4 -6 -1 -9 7 -8 7
2 12 -3 10 -10 -1 -8 2 -11 8 -7 5 3 18 1 27 -4 10 -6 14 -11 8 -11 -5 0 -1
-6 11 -13 71 -42 142 -96 136 -102 -4 -5 -2 -5 4 -2 13 8 74 -14 74 -26 0 -4
-4 -5 -10 -2 -6 3 -7 -1 -4 -10 6 -14 8 -14 20 2 9 12 13 14 14 5 0 -7 4 -10
10 -7 5 3 29 0 52 -6 24 -7 51 -11 61 -10 9 1 17 -2 17 -7 0 -5 12 -14 28 -21
l27 -12 -25 21 c-18 14 -21 20 -9 20 8 0 25 -9 37 -20 23 -21 32 -14 10 8 -9
9 -9 12 -1 12 7 0 15 -5 18 -10 3 -6 11 -10 16 -10 6 0 7 5 4 10 -4 7 7 11 32
11 83 0 103 2 97 10 -7 13 10 11 23 -2 8 -8 13 -7 18 2 5 8 4 10 -3 5 -7 -4
-12 -3 -12 2 0 12 53 32 98 38 17 3 32 0 32 -5 0 -6 -8 -8 -17 -5 -15 5 -15 4
-3 -4 8 -7 19 -7 25 -2 6 5 20 7 30 5 11 -2 29 -4 40 -4 17 -1 18 -3 5 -12
-11 -8 -8 -9 15 -5 17 3 46 2 65 -3 19 -5 29 -9 21 -10 -8 -1 -11 -4 -8 -7 4
-4 13 -1 22 6 8 7 15 8 15 2 0 -5 7 -13 16 -16 9 -3 12 -2 9 5 -5 7 9 8 42 3
26 -3 67 -5 91 -5 25 1 42 -3 42 -9 0 -6 5 -8 13 -3 20 12 47 14 47 2 0 -6 6
-7 12 -2 20 12 88 12 88 0 0 -7 4 -7 12 1 16 16 68 15 68 0 0 -10 2 -10 9 0 5
9 31 15 65 16 31 2 59 6 63 9 10 11 45 8 38 -2 -3 -5 0 -13 6 -17 8 -4 9 -3 5
4 -4 7 3 17 18 24 32 14 44 5 25 -19 -12 -16 -12 -17 2 -6 9 7 18 10 22 7 3
-3 3 5 0 18 -3 16 -2 19 5 9 8 -11 10 -11 14 0 4 11 9 12 26 2 16 -9 23 -10
28 -1 4 7 3 8 -4 4 -7 -4 -12 -3 -12 2 0 5 9 12 20 15 11 3 18 1 14 -4 -3 -5
0 -9 5 -9 6 0 11 5 11 11 0 5 5 7 10 4 6 -3 10 -2 10 2 0 12 137 46 151 37 7
-4 9 -3 6 3 -4 6 12 18 35 27 33 12 44 13 50 3 6 -9 8 -7 8 4 0 9 7 20 16 23
23 9 24 8 18 -11 -3 -11 0 -9 7 3 13 26 82 59 100 49 7 -5 10 -4 6 2 -4 6 20
25 53 42 51 27 61 30 66 17 3 -9 11 -13 16 -10 6 4 5 10 -3 15 -11 7 -11 12 4
26 14 14 19 15 26 5 6 -10 10 -9 14 7 4 17 11 20 36 17 18 -2 29 -1 26 2 -2 3
1 12 8 20 9 11 4 11 -15 -2 -16 -10 -28 -16 -28 -14 0 6 107 78 115 78 4 0 3
-4 0 -10 -3 -6 1 -7 10 -3 11 4 13 8 5 13 -17 11 -1 40 18 32 15 -5 15 -4 -1
12 -9 10 -15 21 -13 25 11 18 -59 9 -109 -15 -45 -20 -59 -23 -71 -13 -12 9
-13 9 -9 -2 4 -10 -6 -19 -26 -26 -28 -11 -34 -10 -45 5 -12 15 -13 15 -8 -4
5 -17 0 -23 -21 -28 -16 -4 -33 -2 -41 5 -12 10 -13 9 -8 -5 3 -9 1 -16 -5
-16 -6 0 -11 5 -11 12 0 6 -6 4 -13 -6 -8 -11 -46 -24 -112 -37 -113 -21 -126
-23 -105 -9 8 5 10 10 4 10 -5 0 -15 -5 -21 -11 -6 -6 -35 -12 -64 -13 -30 -1
-58 -4 -64 -8 -19 -11 -219 -7 -227 4 -4 9 -12 8 -24 -3 -16 -13 -17 -12 -11
5 6 16 5 17 -8 6 -14 -11 -19 -7 -16 12 0 5 -4 8 -10 8 -6 0 -9 -7 -5 -15 3
-9 0 -15 -9 -15 -8 0 -15 6 -15 14 0 8 -4 17 -9 20 -5 4 -7 -4 -4 -16 5 -23 5
-23 -11 -3 -10 11 -15 14 -11 8 3 -7 2 -13 -4 -13 -5 0 -12 6 -14 13 -4 9 -6
9 -6 0 -1 -7 -10 -13 -22 -13 -11 0 -18 4 -15 8 3 5 -15 8 -40 8 -26 -1 -48 4
-53 12 -4 7 -16 12 -27 11 -39 -4 -65 1 -59 11 4 7 -2 9 -19 4 -17 -4 -26 -2
-26 6 0 6 5 8 12 4 7 -4 8 -3 4 5 -4 6 -11 9 -16 6 -5 -3 -11 -1 -15 5 -3 5
-11 10 -18 10 -6 0 -2 -7 9 -16 17 -14 17 -15 1 -10 -10 3 -23 6 -28 6 -6 0
-7 10 -4 23 7 21 7 21 -8 2 -13 -16 -18 -17 -38 -7 -23 12 -23 12 6 7 17 -3
26 -2 20 2 -12 10 -12 33 0 53 8 13 7 13 -10 0 -17 -14 -18 -13 -12 3 4 10 7
27 7 38 0 10 4 19 10 19 5 0 7 -8 4 -18 -4 -13 -3 -13 7 2 9 15 9 21 1 24 -15
5 -16 62 -2 62 6 0 10 -5 10 -12 0 -6 2 -9 5 -6 9 8 -6 38 -16 32 -5 -3 -9 0
-9 5 0 6 4 11 9 11 14 0 20 26 9 41 -8 11 -9 11 -4 -3 3 -10 2 -19 -2 -22 -5
-3 -9 11 -10 30 -2 22 2 34 10 34 9 0 10 3 2 8 -6 4 -14 17 -18 29 -6 19 -4
22 11 17 13 -5 12 -2 -4 10 -22 16 -34 54 -13 41 6 -3 10 -1 10 4 0 6 -5 11
-11 11 -11 0 -7 44 7 92 5 17 68 44 93 39 7 -1 10 2 7 7 -8 13 47 32 74 27 12
-2 18 0 15 6 -4 5 -11 6 -17 3 -6 -4 -8 -2 -5 3 10 16 46 23 41 8 -3 -7 0 -16
7 -21 7 -4 10 -3 6 4 -9 14 3 43 14 36 5 -3 9 -1 9 3 0 8 82 53 96 53 4 0 -4
-8 -17 -18 -15 -13 -19 -21 -10 -26 7 -5 10 -2 9 6 -2 7 3 12 10 10 6 -1 12 3
12 9 0 5 4 7 10 4 5 -3 7 0 4 9 -4 10 8 21 43 36 26 11 51 20 56 20 4 0 16 9
28 21 11 11 27 18 35 15 8 -3 14 -1 14 5 0 6 5 7 10 4 6 -3 10 -2 10 4 0 6 7
8 15 4 10 -3 15 0 13 8 -2 8 4 13 15 13 9 -1 17 2 17 8 0 5 5 6 10 3 6 -4 8
-11 5 -16 -4 -5 -1 -9 5 -9 7 0 9 8 5 19 -5 16 4 24 46 45 29 14 56 23 61 20
4 -3 8 -1 8 4 0 14 109 74 120 67 6 -4 10 -2 10 4 0 6 10 15 22 22 17 9 20 9
15 -3 -3 -9 1 -15 9 -15 9 0 12 7 9 17 -3 11 1 20 10 24 11 4 14 2 10 -7 -4
-6 2 -2 12 9 23 27 52 41 80 39 12 -1 20 2 17 7 -3 4 -10 6 -15 3 -5 -4 -9 -4
-9 -1 0 10 78 45 85 38 3 -4 12 -7 18 -7 7 -1 11 -7 9 -14 -1 -7 2 -10 8 -6 6
3 8 10 5 15 -3 5 -1 11 5 15 15 9 12 -34 -4 -50 -7 -8 -17 -11 -22 -7 -5 4 -2
-1 5 -10 7 -10 9 -23 5 -30 -11 -18 -12 -48 -2 -42 5 4 7 12 4 20 -3 7 0 16 6
20 8 5 9 -3 5 -26 -4 -18 -7 -38 -7 -46 0 -7 -9 -16 -20 -19 -11 -4 -17 -11
-14 -17 4 -6 10 -5 15 3 7 11 9 10 9 -3 0 -10 -5 -18 -11 -18 -5 0 -7 -5 -4
-11 4 -5 2 -22 -4 -37 -6 -15 -15 -40 -21 -56 -9 -25 -12 -27 -27 -15 -15 13
-15 12 -4 -8 10 -19 7 -31 -18 -78 -16 -31 -33 -55 -36 -54 -4 0 -10 -3 -13
-7 -4 -4 -2 -4 5 0 12 7 37 -27 27 -36 -2 -3 8 -3 23 0 15 2 61 26 102 53 40
27 78 46 82 43 5 -3 8 0 7 7 -2 6 3 14 10 16 8 3 10 -2 6 -14 -5 -14 -4 -15 4
-3 6 8 9 17 7 20 -2 4 19 29 47 56 29 27 48 42 42 34 -6 -10 -3 -10 7 2 9 9
20 14 24 10 5 -4 5 -1 1 6 -10 16 22 54 37 45 5 -3 7 -1 4 4 -4 6 6 25 22 42
16 17 27 31 24 31 -3 0 0 7 7 15 10 12 16 13 29 3 14 -11 14 -11 4 3 -10 12
-5 30 29 95 23 43 45 81 50 82 4 2 6 8 2 13 -3 5 0 9 6 9 6 0 9 4 6 9 -7 11
13 71 23 71 4 0 13 12 20 28 11 26 11 26 -5 7 -15 -18 -16 -18 -10 -2 3 10 6
25 6 33 0 8 5 14 11 14 5 0 7 -5 3 -12 -5 -7 -3 -8 5 -3 9 5 10 10 2 18 -14
14 -14 37 0 37 5 0 8 -4 4 -9 -3 -5 -1 -12 4 -15 10 -7 9 20 -2 30 -9 9 -9 49
0 57 13 14 19 220 7 251 -4 10 -2 27 4 37 10 15 9 17 -3 13 -10 -4 -15 0 -15
11 0 9 5 13 10 10 6 -3 10 -1 10 4 0 6 -6 11 -14 11 -18 0 -28 40 -14 57 8 10
7 12 -4 8 -11 -4 -20 8 -33 42 -10 26 -28 66 -40 88 -12 22 -20 47 -17 55 2 8
1 12 -3 7 -5 -4 -16 5 -26 20 -16 24 -16 28 -2 38 14 11 14 12 -3 11 -10 -1
-20 3 -21 8 -1 5 -5 12 -10 15 -5 3 -22 24 -39 46 -16 22 -22 34 -13 28 13
-10 16 -10 16 2 0 8 -4 12 -8 10 -4 -3 -18 4 -30 16 -13 11 -17 18 -9 14 8 -4
3 3 -12 15 -16 13 -25 27 -21 36 3 8 1 14 -5 12 -16 -4 -83 74 -77 90 3 7 1
11 -4 7 -10 -6 -97 92 -93 106 1 5 -2 8 -7 7 -4 -2 -74 65 -155 148 -173 178
-164 169 -148 160 6 -4 12 -3 12 2 0 6 11 13 24 16 13 3 32 9 43 12 15 5 15 4
3 -5 -11 -8 -11 -11 -2 -11 7 0 15 7 18 15 4 8 10 15 16 15 5 0 7 -4 4 -9 -7
-11 21 -8 31 4 4 4 2 5 -6 0 -10 -6 -12 -4 -6 4 4 7 18 11 31 8 13 -2 21 -1
19 4 -3 4 4 11 16 14 14 5 25 2 30 -6 7 -11 9 -10 9 5 0 15 5 17 26 12 17 -5
23 -3 19 4 -3 5 0 10 9 10 8 0 22 3 32 7 10 4 15 2 11 -4 -3 -5 0 -10 8 -10 8
0 13 5 12 10 -2 9 113 47 143 47 13 0 13 -1 0 -10 -10 -7 -11 -10 -2 -10 7 0
15 7 18 15 7 18 34 20 34 3 0 -7 5 -6 13 4 15 20 95 39 126 31 17 -4 22 -3 17
5 -9 15 36 16 51 1 8 -8 13 -7 18 2 5 8 4 10 -3 5 -7 -4 -12 -2 -12 3 0 15 27
14 33 -1 3 -7 6 -4 6 7 1 16 3 17 10 5 6 -8 7 -18 4 -24 -3 -5 -1 -6 5 -2 6 4
9 13 5 21 -3 10 1 15 12 15 9 0 14 -4 11 -8 -3 -5 1 -9 9 -9 8 0 12 4 9 8 -2
4 5 11 17 14 15 5 25 2 31 -8 10 -19 38 -12 38 9 0 8 7 14 15 14 9 0 12 -6 8
-17 -5 -15 -3 -15 11 2 10 11 15 15 12 8 -4 -6 -2 -15 4 -18 6 -4 10 -3 9 2
-5 26 4 33 42 33 33 0 40 -3 35 -16 -3 -8 -2 -12 4 -9 6 3 10 14 10 23 1 13 5
11 16 -8 14 -24 15 -24 11 -2 -5 19 -1 22 29 22 20 0 34 -5 34 -12 0 -10 2
-10 9 0 10 17 57 11 53 -6 -1 -8 2 -11 7 -7 6 3 8 11 5 18 -3 8 4 13 15 13 13
0 17 -4 11 -11 -10 -12 44 -14 56 -3 4 4 -3 6 -15 3 -11 -2 -21 0 -21 6 0 5
10 7 23 5 12 -3 26 -5 30 -5 5 -1 6 -5 3 -9 -2 -4 4 -8 14 -8 12 0 16 4 10 11
-6 8 2 10 25 7 23 -3 32 -8 28 -16 -4 -6 0 -6 9 2 9 7 29 11 46 10 24 -2 29
-5 20 -15 -6 -8 -8 -16 -4 -20 3 -3 6 -2 6 4 0 14 43 25 64 17 9 -3 13 -11 9
-18 -3 -6 -3 -8 2 -4 4 4 14 3 21 -3 8 -7 14 -6 20 2 4 7 3 9 -4 5 -6 -3 -14
-1 -18 5 -10 18 48 2 62 -17 6 -7 17 -14 25 -14 11 0 11 2 -1 10 -22 14 -7 12
35 -6 27 -11 35 -19 31 -31 -5 -13 -4 -14 9 -3 12 10 21 8 49 -14 42 -32 80
-83 67 -90 -5 -4 -12 1 -14 9 -4 11 -4 10 -3 -2 1 -11 9 -17 19 -15 9 2 17 -1
17 -7 0 -5 3 -17 7 -27 4 -11 3 -15 -5 -10 -6 3 -14 1 -18 -5 -4 -7 -3 -9 4
-5 6 3 15 -2 21 -11 7 -14 4 -24 -12 -43 -12 -14 -15 -19 -7 -12 25 22 32 13
11 -14 -15 -20 -18 -30 -11 -39 13 -16 2 -67 -13 -58 -5 3 -7 1 -4 -4 7 -11
-19 -83 -29 -83 -3 0 -3 4 1 9 3 5 1 12 -4 16 -6 3 -8 -4 -6 -16 7 -33 -21
-80 -43 -72 -14 6 -15 4 -5 -8 9 -12 4 -25 -28 -67 -22 -28 -43 -51 -48 -49
-13 3 -70 -62 -57 -66 6 -3 -36 -52 -93 -110 -58 -58 -108 -104 -113 -101 -4
3 -8 0 -8 -5 0 -6 -14 -23 -32 -38 -18 -16 -51 -45 -75 -66 -25 -23 -47 -36
-54 -31 -7 4 -9 3 -6 -3 4 -6 0 -16 -7 -22 -11 -10 -16 -8 -24 5 -8 15 -9 15
-15 0 -4 -10 -3 -15 3 -11 18 11 11 -11 -9 -29 -11 -10 -25 -15 -31 -11 -6 3
-9 1 -8 -7 2 -7 -6 -13 -17 -13 -12 -1 -19 -7 -17 -15 4 -19 -20 -31 -35 -18
-10 8 -12 7 -8 -5 4 -10 -9 -27 -41 -51 -47 -36 -76 -48 -55 -22 9 11 9 16 0
22 -7 4 -9 3 -5 -4 3 -6 2 -13 -4 -17 -6 -4 -8 -10 -5 -15 8 -12 -23 -33 -37
-24 -7 4 -10 3 -5 -1 4 -5 0 -19 -9 -33 -9 -13 -12 -22 -7 -19 5 3 15 -3 22
-15 9 -15 10 -18 0 -13 -8 5 -10 4 -5 -3 11 -18 18 -15 85 28 34 22 67 38 72
34 5 -3 8 0 7 8 -2 8 6 12 22 10 17 -1 21 1 11 7 -10 6 -2 16 31 39 35 24 48
28 57 19 10 -9 11 -8 6 4 -7 17 19 44 33 35 6 -3 16 2 23 12 12 15 12 16 -1 7
-9 -5 -5 0 9 12 19 17 28 19 38 11 10 -8 12 -7 8 4 -3 8 1 21 10 28 8 7 15 10
15 8 0 -3 16 10 36 29 21 19 43 32 51 29 8 -3 12 -2 8 3 -8 14 71 72 89 65 9
-3 16 -1 16 6 0 6 -4 8 -10 5 -5 -3 -10 -2 -10 2 0 5 10 14 21 22 19 11 21 11
16 -3 -4 -10 -1 -13 8 -9 8 3 12 9 9 14 -9 15 16 39 40 39 12 0 16 3 10 8 -6
4 16 30 57 65 44 37 66 51 65 40 -2 -10 -1 -12 1 -5 3 7 9 9 15 6 7 -5 8 -2 3
5 -9 15 290 311 317 313 9 1 14 6 12 10 -3 4 0 8 7 8 7 0 9 3 6 6 -4 4 -15 1
-24 -7 -10 -7 -3 3 16 24 19 20 38 34 43 31 4 -3 8 0 8 6 0 6 5 8 12 4 7 -4 8
-3 4 5 -4 6 -12 8 -18 5 -6 -4 13 23 42 60 45 57 54 65 68 54 13 -11 14 -10 5
7 -9 17 -4 31 27 83 20 35 45 81 55 102 10 22 25 40 34 41 10 0 12 2 4 6 -20
8 -15 26 5 18 14 -5 15 -4 5 6 -7 7 -13 20 -13 28 0 11 4 10 16 -5 8 -10 13
-13 9 -7 -10 20 -14 74 -5 68 4 -3 11 2 14 11 3 8 2 12 -4 9 -6 -4 -10 9 -10
30 0 20 4 34 8 31 5 -3 9 1 9 9 0 8 -4 12 -8 10 -4 -3 -12 9 -18 27 -14 38
-14 48 -1 28 8 -11 9 -9 6 10 -3 14 -5 27 -6 30 -2 3 -2 9 -1 13 1 5 -3 6 -9
2 -8 -5 -7 -11 1 -21 6 -8 7 -14 2 -14 -10 0 -46 65 -46 85 0 8 -4 12 -9 9 -4
-3 -11 2 -14 10 -3 9 -11 16 -17 16 -6 0 0 -12 14 -27 19 -21 16 -20 -15 6
-22 18 -52 38 -68 43 -28 10 -39 28 -16 28 6 0 8 3 5 6 -4 4 -12 2 -19 -3 -9
-7 -21 -7 -38 -1 -14 6 -40 12 -58 14 -17 2 -49 16 -69 31 -20 15 -34 23 -30
16 4 -6 4 -13 0 -16 -5 -2 -3 -3 3 -1 6 1 17 -2 25 -7 10 -7 2 -9 -26 -8 -22
2 -45 7 -51 11 -7 5 -18 7 -25 6 -8 -2 -13 3 -11 10 1 8 -2 11 -8 7 -6 -3 -8
-11 -5 -16 8 -12 -101 -12 -125 1 -12 7 -21 6 -28 -3 -13 -15 -137 -23 -127
-7 3 6 0 7 -9 4 -9 -3 -14 -9 -12 -13 3 -4 -6 -8 -19 -9 -13 -1 -26 5 -29 13
-6 16 -36 10 -36 -7 0 -6 6 -5 15 2 10 9 15 9 15 1 0 -6 -3 -11 -7 -12 -5 0
-16 -2 -25 -4 -82 -16 -100 -17 -93 -5 4 7 -4 4 -19 -5 -15 -10 -47 -18 -75
-18 -28 0 -48 -4 -45 -9 3 -4 -2 -8 -11 -8 -9 0 -14 4 -10 9 3 5 0 13 -7 17
-7 4 -10 4 -6 -1 4 -4 0 -14 -9 -23 -12 -13 -19 -13 -35 -3 -11 7 -17 8 -14 2
8 -12 0 -17 -47 -25 -31 -6 -38 -4 -32 6 3 7 0 5 -8 -4 -16 -21 -38 -24 -33
-5 1 6 1 9 -1 4 -3 -4 -9 -5 -13 -2 -5 3 -12 0 -16 -6 -4 -8 -3 -9 4 -5 7 4
12 2 12 -5 0 -6 -8 -9 -20 -6 -11 3 -20 1 -20 -5 0 -6 -9 -8 -20 -5 -10 3 -21
0 -23 -7 -3 -7 -10 -4 -19 7 -14 18 -14 18 -29 0 -13 -16 -13 -17 4 -4 11 9
17 10 17 2 0 -6 -12 -16 -27 -22 -22 -8 -30 -7 -39 6 -11 14 -12 14 -18 0 -3
-9 -2 -13 4 -10 6 3 10 1 10 -4 0 -6 -6 -11 -14 -11 -8 0 -23 -3 -33 -6 -17
-6 -17 -6 0 8 18 13 17 14 -2 14 -11 0 -18 -2 -16 -5 3 -2 0 -10 -6 -18 -15
-17 -34 -17 -23 0 5 7 2 6 -6 -3 -17 -18 -89 -42 -102 -34 -4 3 -8 1 -8 -4 0
-15 -71 -32 -91 -22 -12 7 -20 6 -25 -2 -4 -6 -3 -8 4 -4 6 3 13 2 16 -3 8
-12 -49 -25 -65 -15 -7 4 -9 3 -6 -3 6 -10 -75 -44 -113 -47 -9 -1 -22 -6 -29
-11 -9 -5 -12 -4 -8 2 3 5 -6 9 -22 9 -17 0 -28 -5 -28 -13 0 -9 4 -10 11 -3
12 12 26 13 26 2 0 -5 -17 -14 -37 -21 -21 -7 -45 -15 -53 -17 -13 -5 -13 -4
0 5 12 8 10 10 -8 8 -13 -1 -21 -6 -18 -13 3 -7 -3 -14 -12 -17 -9 -3 -25 -8
-34 -12 -11 -4 -18 -3 -18 5 0 6 6 8 13 4 6 -4 8 -3 4 1 -15 17 -35 13 -30 -6
3 -12 0 -19 -8 -19 -8 0 -41 -11 -74 -25 -45 -18 -61 -21 -67 -12 -5 8 -8 6
-8 -7 0 -12 -5 -16 -16 -12 -9 3 -12 2 -9 -5 4 -6 -4 -8 -22 -4 -15 3 -22 2
-14 -1 9 -4 -8 -15 -44 -30 -61 -25 -81 -29 -87 -16 -1 4 -46 45 -98 92 -52
46 -104 93 -115 103 -11 11 -30 26 -42 34 -13 9 -20 22 -18 34 2 11 0 17 -6
14 -5 -4 -7 -11 -4 -16 4 -5 2 -9 -4 -9 -5 0 -11 4 -13 9 -1 5 -29 30 -61 56
-32 26 -56 53 -54 59 3 7 -1 13 -9 13 -7 0 -10 -5 -7 -11 4 -6 -1 -5 -11 3 -9
8 -13 17 -7 20 5 3 -15 6 -44 6 -29 0 -51 -4 -48 -8 3 -5 12 -6 22 -3 14 5 14
5 1 -6 -8 -7 -14 -23 -12 -35 2 -16 -2 -23 -12 -23 -9 0 -16 -5 -16 -11 0 -5
5 -7 10 -4 6 3 10 -1 10 -10 0 -8 -7 -18 -16 -22 -13 -5 -13 -7 -2 -14 10 -6
9 -12 -7 -24 -13 -11 -15 -15 -4 -12 14 4 13 -4 -3 -77 -10 -44 -20 -96 -23
-115 -2 -19 -8 -37 -12 -40 -5 -3 -9 -24 -10 -45 -2 -22 -11 -48 -20 -59 -10
-11 -12 -17 -5 -13 8 5 12 0 12 -16 0 -16 -3 -19 -9 -10 -7 11 -10 10 -15 -3
-9 -23 -8 -27 5 -20 11 7 4 -50 -12 -91 -4 -12 -5 -25 -1 -30 4 -4 1 -4 -6 0
-10 6 -13 2 -10 -13 2 -18 -13 -29 -97 -71 -84 -42 -101 -47 -108 -34 -7 12
-12 13 -23 3 -17 -14 -18 -29 -3 -29 5 0 8 4 4 9 -3 5 -1 12 5 16 5 3 10 -1
10 -9 0 -8 -9 -20 -19 -26 -25 -13 -34 -13 -26 0 3 6 -1 7 -10 4 -9 -4 -13 -9
-10 -12 3 -3 -1 -15 -8 -26 -20 -33 -15 -49 18 -53 16 -3 33 -10 37 -16 5 -8
8 -7 8 4 0 11 20 25 55 39 30 12 56 20 59 18 2 -1 12 4 22 12 11 8 28 20 39
26 18 10 21 9 23 -12 1 -13 -2 -25 -7 -29 -5 -3 -7 -14 -4 -25 3 -11 0 -20 -6
-20 -6 0 -10 3 -9 8 2 11 -13 42 -21 42 -4 0 -8 -6 -8 -14 0 -8 5 -14 11 -13
5 1 10 -3 11 -10 0 -6 3 -15 7 -19 4 -4 0 -13 -10 -21 -16 -12 -15 -13 3 -6
17 6 18 4 8 -9 -7 -8 -10 -17 -7 -21 9 -9 -7 -68 -17 -61 -5 3 -9 1 -9 -5 0
-5 4 -11 9 -13 5 -2 4 -14 -1 -28 -6 -14 -12 -43 -13 -64 -4 -39 -20 -60 -39
-49 -5 3 -6 1 -2 -6 4 -6 12 -9 17 -6 5 4 9 -1 9 -10 0 -10 -5 -13 -12 -9 -10
6 -10 4 -2 -7 16 -21 2 -64 -22 -62 -16 1 -17 0 -4 -10 21 -17 25 -41 6 -34
-9 4 -18 1 -22 -5 -4 -6 -3 -8 4 -4 20 12 24 -15 5 -36 -10 -12 -12 -18 -5
-14 15 9 17 -30 2 -39 -6 -4 -8 -11 -4 -16 3 -6 -2 -20 -13 -31 -10 -12 -12
-18 -5 -14 6 4 12 2 12 -3 0 -6 -5 -11 -12 -11 -9 0 -9 -3 -1 -11 14 -14 -4
-89 -26 -107 -9 -8 -10 -11 -3 -7 17 9 15 -20 -3 -38 -10 -11 -11 -17 -3 -19
7 -3 8 -9 3 -19 -5 -8 -10 -25 -11 -39 -3 -47 -4 -51 -13 -46 -13 9 -21 -20
-9 -32 16 -16 2 -43 -19 -36 -17 5 -17 5 0 -6 19 -12 23 -40 6 -40 -5 0 -7 5
-3 12 4 7 3 8 -4 4 -9 -5 -8 -12 1 -27 10 -17 9 -22 -7 -31 -14 -8 -15 -12 -5
-18 10 -7 10 -16 1 -48 -7 -22 -12 -49 -12 -60 0 -15 -5 -20 -15 -16 -13 5
-13 9 -3 23 10 13 10 14 -2 4 -17 -16 -22 -43 -7 -40 6 1 12 -8 13 -20 1 -15
-5 -23 -15 -24 -11 0 -12 -2 -3 -6 13 -5 7 -68 -9 -89 -5 -6 -6 -14 -3 -17 3
-3 3 -11 -2 -18 -4 -7 -9 -31 -10 -53 -2 -24 -10 -46 -21 -53 -9 -7 -11 -13
-5 -13 14 0 16 -26 2 -35 -6 -3 -7 1 -4 9 3 9 1 16 -5 16 -6 0 -10 -6 -9 -12
2 -7 -3 -12 -10 -10 -8 1 -11 -2 -7 -8 3 -6 11 -8 16 -5 12 8 23 -21 13 -36
-5 -9 -11 -7 -21 6 -11 16 -13 17 -13 2 0 -9 8 -21 18 -27 24 -15 5 -8 -41 15
-30 15 -37 24 -33 40 4 18 4 18 -7 4 -11 -15 -17 -15 -56 -2 -25 8 -51 21 -58
29 -19 18 -29 18 -14 0 10 -12 6 -13 -26 -4 -21 5 -46 9 -56 9 -9 0 -15 4 -12
9 3 5 1 12 -5 15 -6 4 -9 1 -8 -6 2 -6 -3 -14 -11 -17 -9 -3 -11 0 -6 7 5 9 2
9 -13 0 -17 -11 -24 -10 -38 2 -10 8 -15 9 -11 3 9 -15 -10 -22 -46 -18 -15 1
-25 -1 -22 -6 3 -4 -8 -7 -25 -6 -16 1 -31 -3 -34 -8 -2 -6 -10 -2 -18 8 -12
15 -17 16 -23 6 -5 -9 -4 -11 3 -6 7 4 12 1 12 -6 0 -15 -65 -43 -91 -40 -9 2
-19 -6 -22 -18 -7 -26 -24 -26 -37 3 -10 20 -10 21 3 4 9 -10 18 -14 21 -9 3
5 -6 15 -20 23 -14 7 -30 22 -36 32 -5 11 -6 17 -1 14 5 -4 10 0 10 7 0 8 -7
12 -15 8 -10 -3 -13 -1 -8 6 4 7 2 12 -3 12 -9 0 -31 40 -59 105 -2 6 6 -1 18
-15 15 -18 19 -20 11 -5 -5 11 -19 28 -30 37 -12 10 -21 23 -21 30 0 6 6 4 13
-6 12 -16 14 -16 14 -2 0 8 -8 18 -18 21 -23 7 -33 36 -17 47 10 6 9 8 -3 8
-18 0 -33 26 -23 41 3 5 0 9 -5 9 -6 0 -11 5 -11 10 0 7 7 7 23 0 21 -11 21
-10 3 4 -11 9 -23 16 -28 16 -4 0 -8 5 -8 11 0 5 5 7 10 4 15 -9 12 1 -4 18
-8 8 -16 25 -18 38 -2 13 -7 30 -11 37 -5 7 -5 22 -2 33 5 13 3 19 -3 15 -5
-3 -12 3 -15 15 -4 16 -3 18 9 8 19 -15 18 -4 -1 15 -8 8 -17 30 -19 50 -4 29
-2 34 12 29 11 -3 9 1 -5 11 -24 18 -34 74 -11 60 7 -5 8 -3 4 5 -5 7 0 18 10
27 18 14 18 14 0 7 -14 -5 -17 -3 -11 7 5 9 4 11 -4 6 -6 -4 -9 -11 -6 -16 3
-5 2 -11 -3 -14 -16 -10 -9 88 7 102 14 11 13 12 -6 7 -18 -5 -22 -3 -17 9 3
9 10 13 15 10 5 -3 6 2 3 10 -3 9 -10 16 -15 16 -5 0 -9 5 -9 11 0 6 7 9 14 6
10 -4 13 -1 9 9 -3 7 -9 14 -14 14 -5 0 -9 5 -9 11 0 5 5 7 10 4 6 -3 10 -1
10 4 0 6 -6 11 -12 11 -9 0 -8 4 2 10 13 9 13 11 0 20 -8 5 -10 10 -4 10 6 0
11 7 11 15 0 8 -4 15 -9 15 -5 0 -6 5 -3 10 4 6 11 7 17 4 7 -5 8 -2 3 6 -4 7
-2 16 6 22 11 8 10 9 -4 4 -15 -5 -17 1 -15 39 2 31 7 44 16 40 6 -2 12 0 12
5 0 6 -4 10 -10 10 -5 0 -10 11 -10 25 0 17 4 23 14 19 8 -3 17 0 22 7 4 7 3
10 -2 6 -6 -3 -16 -2 -24 4 -12 7 -9 9 10 10 19 1 20 3 7 6 -14 4 -17 10 -12
26 4 12 7 30 6 40 0 9 4 15 10 12 5 -4 9 -2 9 4 0 5 -5 11 -11 13 -7 2 -5 11
7 22 10 11 19 31 21 45 2 23 1 24 -7 6 -12 -27 -13 -2 -1 27 21 51 24 64 22
77 -2 13 -1 13 15 0 16 -13 16 -12 5 9 -13 24 -3 29 19 10 8 -7 7 -4 -3 8 -24
28 -21 41 11 59 15 9 19 14 10 11 -10 -3 -18 -1 -18 4 0 6 4 10 10 10 5 0 6 8
3 18 -6 15 -5 16 12 2 17 -14 17 -14 8 5 -9 16 -5 33 18 84 16 35 37 70 47 78
9 8 11 11 4 8 -17 -9 46 110 74 139 11 11 29 27 40 34 16 11 16 11 -5 1 -21
-10 -18 -3 20 51 24 34 52 68 64 76 11 8 19 17 17 19 -5 10 81 105 95 105 8 0
11 -5 7 -12 -4 -7 -3 -8 5 -4 8 6 9 12 2 20 -8 9 -4 19 16 37 14 13 23 18 18
10 -5 -9 -4 -12 3 -7 7 4 12 14 12 22 0 17 5 17 30 4 13 -7 21 -7 25 0 4 6 3
10 -2 9 -33 -6 -34 4 -3 36 24 25 37 32 46 24 9 -7 11 -5 10 8 0 10 5 17 12
15 8 -1 11 1 8 6 -6 10 23 32 129 103 100 66 130 80 143 67 7 -7 10 -5 9 7 -1
10 4 20 11 22 6 3 12 0 12 -7 0 -6 -5 -8 -12 -4 -7 4 -8 3 -4 -4 10 -17 16
-15 24 9 5 13 30 31 63 45 50 21 55 22 68 6 13 -16 13 -15 7 2 -4 12 -1 23 6
28 18 11 30 10 23 -2 -3 -5 -1 -10 4 -10 6 0 11 6 11 13 0 7 15 18 32 25 30
11 35 10 51 -10 l18 -23 -11 23 c-14 28 -6 40 14 23 10 -8 16 -9 21 -1 3 6 11
8 16 4 5 -3 8 0 7 6 -2 7 26 20 67 32 55 15 74 17 89 8 10 -6 15 -7 12 -1 -4
5 3 12 14 16 21 7 43 -2 36 -14 -3 -4 1 -8 9 -8 10 0 11 5 4 19 -8 15 -6 18
16 18 15 0 24 -4 21 -8 -2 -4 4 -8 14 -8 12 0 16 4 10 11 -5 6 5 11 31 13 30
2 37 -1 33 -12 -3 -8 -1 -17 5 -21 7 -3 8 0 5 9 -9 23 26 33 41 12 11 -15 13
-15 19 -1 4 11 2 14 -7 9 -6 -4 -9 -3 -4 1 10 12 87 15 87 5 0 -5 -9 -7 -20
-5 -18 3 -19 1 -9 -18 17 -32 22 -35 14 -7 -7 23 -7 24 10 10 11 -8 16 -10 12
-3 -5 8 0 11 13 10 27 -2 25 -15 -2 -27 -17 -6 -18 -9 -6 -9 9 -1 20 4 23 9 4
6 10 8 15 5 9 -6 32 29 37 55 10 60 9 63 -22 67 -16 2 -32 9 -36 14 -3 5 -14
7 -24 3 -12 -5 -22 -1 -31 11 -8 10 -14 13 -14 7 0 -7 -11 -12 -25 -12 -14 0
-25 4 -25 8 0 5 -15 9 -32 9 -91 1 -123 7 -136 22 -12 15 -13 15 -8 -1 5 -15
0 -17 -32 -12 -20 3 -45 6 -55 6 -11 -1 -15 4 -10 11 3 7 -2 4 -13 -5 -16 -14
-22 -14 -36 -4 -10 7 -14 17 -10 21 4 5 1 5 -6 1 -7 -4 -10 -12 -6 -17 3 -6
-5 -8 -20 -5 -13 2 -27 -1 -31 -7 -3 -7 -3 -2 -1 11 2 12 2 22 0 22 -3 0 -9
-10 -14 -22z m552 -152 c5 -8 8 -7 8 2 0 6 5 12 10 12 6 0 5 -8 -2 -20 -11
-16 -14 -17 -21 -5 -4 9 -12 13 -17 10 -5 -3 -11 -2 -14 3 -8 13 28 11 36 -2z
m-572 -70 c0 -3 -4 -8 -10 -11 -5 -3 -10 -1 -10 4 0 6 5 11 10 11 6 0 10 -2
10 -4z m1775 -565 c3 -5 1 -12 -5 -16 -5 -3 -10 1 -10 9 0 18 6 21 15 7z m985
-326 c0 -8 -4 -15 -10 -15 -5 0 -7 7 -4 15 4 8 8 15 10 15 2 0 4 -7 4 -15z
m-4620 -305 c0 -5 -2 -10 -4 -10 -3 0 -8 5 -11 10 -3 6 -1 10 4 10 6 0 11 -4
11 -10z m4403 -84 c-10 -14 -22 -26 -26 -26 -4 0 2 13 14 30 13 16 24 28 27
26 2 -3 -4 -16 -15 -30z m-2358 -576 c-2 -11 1 -22 6 -26 5 -3 9 -2 8 3 -4 21
2 33 16 33 8 0 15 -5 15 -11 0 -5 5 -7 10 -4 14 9 42 -14 33 -28 -3 -6 -1 -7
6 -3 6 4 9 12 6 17 -4 5 -1 9 5 9 6 0 15 -10 20 -22 7 -18 9 -19 9 -5 1 9 7
17 15 17 17 0 29 -27 19 -43 -4 -7 1 -6 11 2 13 11 14 16 4 23 -9 6 -6 7 10 4
55 -14 63 -19 77 -44 13 -23 15 -23 10 -4 -4 13 -2 22 4 22 6 0 11 -8 12 -17
0 -11 3 -13 6 -5 2 6 10 9 16 5 7 -4 17 -8 22 -8 34 -2 74 -18 68 -28 -4 -6 0
-8 11 -4 24 9 98 -22 92 -39 -3 -7 0 -16 6 -20 6 -4 8 -3 4 4 -3 6 -2 13 4 17
5 3 10 -2 10 -12 0 -13 2 -15 9 -5 6 10 13 11 35 1 20 -10 25 -17 20 -33 -6
-21 -6 -21 10 -1 16 20 21 13 17 -25 -2 -13 -1 -13 8 0 5 8 7 18 4 23 -8 13
32 -9 97 -53 65 -44 154 -136 145 -150 -3 -6 -2 -10 3 -10 14 0 22 -25 15 -48
-3 -13 -11 -19 -23 -17 -13 3 -17 -1 -13 -12 3 -8 9 -11 12 -6 3 4 15 9 26 11
17 2 16 0 -5 -12 -18 -10 -29 -11 -38 -4 -9 8 -11 7 -6 -6 5 -12 2 -15 -12 -9
-11 4 -15 3 -11 -4 4 -6 -27 -28 -74 -53 -45 -23 -79 -38 -76 -33 3 5 0 10 -7
10 -9 0 -12 -7 -8 -16 5 -14 4 -14 -11 -2 -15 12 -17 12 -10 -4 5 -15 3 -17
-11 -12 -9 4 -15 3 -12 -1 3 -5 -10 -15 -29 -24 -19 -8 -32 -11 -28 -5 3 5 1
7 -5 3 -5 -3 -13 0 -16 6 -3 7 -4 4 -1 -7 4 -17 -5 -26 -51 -48 -30 -15 -59
-25 -65 -22 -5 4 -9 2 -9 -4 0 -6 -7 -7 -17 -4 -10 4 -14 2 -9 -5 7 -11 -29
-28 -53 -23 -7 1 -10 -2 -6 -8 3 -6 4 -11 2 -11 -3 0 -21 -7 -42 -16 -28 -11
-35 -12 -30 -2 3 7 0 5 -8 -4 -22 -27 -138 -75 -174 -72 -18 1 -33 -2 -33 -8
0 -5 10 -6 23 -2 12 3 19 3 14 -2 -10 -10 -77 -36 -99 -37 -10 -1 -18 -4 -18
-8 0 -12 -101 -48 -117 -42 -10 4 -14 2 -10 -4 7 -11 -52 -38 -61 -28 -3 3 -1
5 5 5 6 0 8 12 5 28 -5 24 -4 26 11 13 19 -15 23 -26 7 -16 -5 3 -10 1 -10 -4
0 -6 6 -11 14 -11 8 0 14 9 13 19 0 11 -5 17 -9 15 -4 -3 -8 -2 -8 3 0 4 -3
18 -6 31 -5 17 -2 22 12 23 11 0 14 3 7 6 -29 11 -12 49 19 44 4 0 5 6 1 15
-5 13 -7 13 -14 2 -6 -9 -9 -6 -9 10 0 15 4 21 12 16 8 -5 9 -2 4 11 -11 28 4
85 23 86 10 0 11 2 4 6 -14 5 -18 35 -6 46 4 4 8 26 10 49 3 23 12 48 21 56 9
7 11 11 5 7 -8 -4 -13 0 -13 10 0 9 4 14 9 11 4 -3 7 8 5 25 -2 16 0 28 5 25
4 -3 7 6 5 20 -4 38 7 94 18 88 5 -3 6 5 2 20 -4 17 -2 26 6 26 6 0 8 -6 4
-12 -4 -7 -3 -10 1 -5 5 4 10 18 12 30 2 17 1 19 -7 7 -8 -13 -10 -12 -10 3 0
16 12 22 35 17 5 -1 2 7 -8 18 -18 19 -24 58 -8 47 5 -3 12 -1 16 5 3 5 1 10
-4 10 -6 0 -11 7 -11 15 0 8 7 15 15 15 8 0 15 3 16 8 0 4 2 15 4 25 2 9 -1
15 -6 11 -5 -3 -7 -9 -4 -14 3 -5 0 -12 -6 -16 -9 -5 -10 0 -5 17 4 13 8 31 8
39 0 8 8 24 17 34 9 11 11 16 4 13 -8 -5 -11 0 -10 12 1 16 4 18 16 8 12 -10
13 -9 2 11 -7 13 -10 30 -7 38 8 21 15 17 11 -6z m-2150 -249 c3 -5 2 -12 -3
-15 -5 -3 -9 1 -9 9 0 17 3 19 12 6z m25 -172 c0 -6 -4 -7 -10 -4 -5 3 -10 1
-10 -4 0 -6 -5 -10 -12 -8 -7 1 -13 -8 -14 -20 -1 -12 2 -20 7 -17 4 2 6 10 3
18 -3 7 2 13 11 13 8 0 15 -4 15 -9 0 -5 5 -6 10 -3 6 3 10 -3 10 -14 0 -26
-3 -14 27 -113 32 -107 42 -148 36 -148 -2 0 3 -7 12 -16 10 -10 13 -24 9 -36
-4 -14 -2 -18 5 -14 6 4 11 3 11 -3 0 -5 -6 -12 -12 -14 -8 -3 -5 -6 5 -6 10
-1 15 -5 12 -11 -3 -5 -2 -10 3 -10 5 0 14 -12 21 -27 10 -21 9 -28 -1 -34 -9
-6 -8 -9 6 -9 20 0 20 0 0 -16 -19 -15 -19 -15 2 -9 14 4 24 0 28 -10 4 -11 2
-14 -7 -10 -6 4 -5 1 4 -7 9 -7 31 -40 49 -73 18 -33 46 -80 61 -105 19 -31
25 -48 18 -56 -7 -8 -6 -15 2 -20 8 -4 9 -3 5 4 -4 7 -3 12 2 12 15 0 93 -111
86 -122 -4 -6 -3 -8 3 -5 6 4 29 -16 52 -43 22 -27 38 -51 34 -53 -15 -9 -58
-11 -70 -4 -8 5 -13 4 -13 -2 0 -6 -7 -11 -15 -11 -8 0 -15 6 -15 13 0 8 -3 8
-9 -2 -13 -20 -101 -27 -112 -10 -7 11 -9 9 -9 -6 -1 -18 -2 -17 -16 5 -8 14
-13 18 -10 8 7 -24 -5 -30 -21 -10 -12 16 -13 16 -7 0 5 -15 0 -18 -26 -18
-20 0 -29 4 -24 11 5 8 1 8 -13 0 -11 -6 -23 -7 -27 -4 -12 12 -35 11 -30 -1
3 -9 -4 -11 -25 -8 -20 3 -28 8 -24 16 4 6 -1 5 -10 -3 -14 -11 -17 -11 -18 0
0 10 -2 11 -6 2 -2 -7 -9 -13 -14 -13 -6 0 -7 5 -4 10 3 6 1 10 -4 10 -6 0
-11 -4 -11 -10 0 -5 -18 -10 -40 -10 -22 0 -40 3 -40 8 0 4 -20 6 -44 6 -35
-2 -43 1 -39 12 3 8 1 14 -5 14 -6 0 -12 -5 -14 -11 -2 -6 -14 -8 -31 -4 -20
5 -26 12 -22 23 4 12 3 13 -9 3 -18 -15 -56 -5 -56 14 0 17 -25 26 -38 13 -16
-16 -73 28 -65 50 5 14 3 15 -7 5 -11 -10 -17 -9 -32 3 -14 13 -15 21 -6 38
10 19 10 20 -5 7 -15 -12 -19 -9 -32 22 -23 55 -24 134 -2 121 8 -5 8 -2 -2 9
-20 25 3 103 32 111 12 3 18 8 14 12 -4 4 -2 13 3 20 15 18 21 56 8 48 -6 -4
-3 7 7 24 10 17 22 29 27 26 4 -3 5 1 2 9 -3 8 9 28 25 46 16 18 30 34 29 37
-1 12 64 84 72 79 4 -3 11 2 14 11 3 8 11 12 17 8 8 -4 9 -3 5 5 -6 9 -12 9
-24 0 -43 -32 196 207 263 264 29 24 45 26 45 6z m3050 -181 c0 -6 -3 -9 -6
-5 -4 3 -13 -1 -21 -9 -9 -8 -18 -12 -21 -9 -6 5 27 34 41 35 4 0 7 -5 7 -12z
m-3542 -370 c-7 -13 -11 -26 -10 -30 1 -5 -2 -8 -8 -8 -13 0 -13 3 2 35 6 14
15 25 20 25 5 0 3 -10 -4 -22z m127 -418 c3 -5 1 -10 -4 -10 -6 0 -11 5 -11
10 0 6 2 10 4 10 3 0 8 -4 11 -10z m2225 -284 c0 -3 -4 -8 -10 -11 -5 -3 -10
-1 -10 4 0 6 5 11 10 11 6 0 10 -2 10 -4z"/>
<path d="M3610 3439 c0 -5 5 -7 10 -4 6 3 10 8 10 11 0 2 -4 4 -10 4 -5 0 -10
-5 -10 -11z"/>
<path d="M3775 3411 c-3 -5 0 -13 6 -17 8 -4 9 -3 5 4 -10 16 6 15 24 0 12
-11 12 -10 1 5 -15 19 -27 22 -36 8z"/>
<path d="M3994 3338 c-4 -6 -3 -8 4 -4 6 3 16 1 24 -6 14 -13 38 -22 38 -13 0
2 -13 11 -29 20 -22 11 -32 12 -37 3z"/>
<path d="M4141 3274 c0 -11 3 -14 6 -6 3 7 2 16 -1 19 -3 4 -6 -2 -5 -13z"/>
<path d="M4219 3223 c-13 -16 -12 -17 4 -4 16 13 21 21 13 21 -2 0 -10 -8 -17
-17z"/>
<path d="M3510 3226 c0 -2 7 -7 16 -10 8 -3 12 -2 9 4 -6 10 -25 14 -25 6z"/>
<path d="M4267 3207 c-3 -8 1 -14 8 -14 7 0 11 6 8 14 -3 7 -6 13 -8 13 -2 0
-5 -6 -8 -13z"/>
<path d="M4320 3171 c0 -10 19 -25 25 -20 1 2 -3 10 -11 17 -8 7 -14 8 -14 3z"/>
<path d="M4396 3107 c3 -10 9 -15 12 -12 3 3 0 11 -7 18 -10 9 -11 8 -5 -6z"/>
<path d="M4417 3076 c-3 -8 1 -22 9 -33 14 -17 15 -17 6 2 -5 11 -7 26 -5 33
6 17 -4 15 -10 -2z"/>
<path d="M3479 3058 c-5 -18 -6 -38 -1 -34 7 8 12 36 6 36 -2 0 -4 -1 -5 -2z"/>
<path d="M4440 3015 c-11 -13 -10 -14 4 -9 9 3 16 10 16 15 0 13 -6 11 -20 -6z"/>
<path d="M4343 2923 c0 -9 4 -10 14 -2 7 6 13 12 13 14 0 1 -6 2 -13 2 -8 0
-14 -6 -14 -14z"/>
<path d="M4286 2898 c3 -4 9 -8 15 -8 5 0 9 4 9 8 0 5 -7 9 -15 9 -8 0 -12 -4
-9 -9z"/>
<path d="M3423 2785 c0 -7 6 -11 14 -8 7 3 13 6 13 8 0 2 -6 5 -13 8 -8 3 -14
-1 -14 -8z"/>
<path d="M3410 2719 c-7 -11 -10 -23 -7 -25 2 -2 9 7 15 21 14 30 7 33 -8 4z"/>
<path d="M3906 2708 c3 -5 10 -6 15 -3 13 9 11 12 -6 12 -8 0 -12 -4 -9 -9z"/>
<path d="M3736 2631 c-4 -5 3 -7 14 -4 23 6 26 13 6 13 -8 0 -17 -4 -20 -9z"/>
<path d="M3666 2598 c3 -4 11 -5 19 -1 21 7 19 12 -4 10 -11 0 -18 -5 -15 -9z"/>
<path d="M3565 2560 c-4 -6 -11 -7 -17 -4 -7 4 -8 2 -4 -5 6 -9 11 -9 22 0 14
11 18 19 10 19 -3 0 -8 -5 -11 -10z"/>
<path d="M3470 2520 c-9 -6 -10 -10 -3 -10 6 0 15 5 18 10 8 12 4 12 -15 0z"/>
<path d="M3430 2499 c0 -5 5 -7 10 -4 6 3 10 8 10 11 0 2 -4 4 -10 4 -5 0 -10
-5 -10 -11z"/>
<path d="M1360 2999 c0 -5 5 -7 10 -4 6 3 10 8 10 11 0 2 -4 4 -10 4 -5 0 -10
-5 -10 -11z"/>
<path d="M1306 2941 c-4 -5 3 -7 14 -4 23 6 26 13 6 13 -8 0 -17 -4 -20 -9z"/>
<path d="M1446 2922 c-2 -4 2 -18 11 -32 9 -16 12 -18 7 -5 -3 11 -7 26 -7 33
0 14 -4 15 -11 4z"/>
<path d="M1255 2901 c-3 -5 -2 -12 3 -15 5 -3 9 1 9 9 0 17 -3 19 -12 6z"/>
<path d="M1230 2876 c0 -2 8 -10 18 -17 15 -13 16 -12 3 4 -13 16 -21 21 -21
13z"/>
<path d="M1468 2837 c-3 -14 0 -24 7 -24 7 0 10 10 7 24 -2 13 -6 23 -7 23 -1
0 -5 -10 -7 -23z"/>
<path d="M1199 2848 c-5 -18 -6 -38 -1 -34 7 8 12 36 6 36 -2 0 -4 -1 -5 -2z"/>
<path d="M1171 2804 c0 -11 3 -14 6 -6 3 7 2 16 -1 19 -3 4 -6 -2 -5 -13z"/>
<path d="M1479 2783 c-13 -16 -12 -17 4 -4 9 7 17 15 17 17 0 8 -8 3 -21 -13z"/>
<path d="M1093 2728 c-20 -26 -22 -35 -8 -35 8 0 12 4 9 9 -3 5 0 15 6 23 7 8
10 15 7 15 -2 0 -9 -6 -14 -12z"/>
<path d="M1507 2706 c-4 -10 -1 -13 8 -9 8 3 12 9 9 14 -7 12 -11 11 -17 -5z"/>
<path d="M1030 2640 c-9 -6 -10 -10 -3 -10 6 0 15 5 18 10 8 12 4 12 -15 0z"/>
<path d="M1010 2609 c0 -5 5 -7 10 -4 6 3 10 8 10 11 0 2 -4 4 -10 4 -5 0 -10
-5 -10 -11z"/>
<path d="M975 2561 c-6 -11 13 -26 22 -17 4 3 1 6 -6 6 -7 0 -9 5 -6 10 3 6 4
10 1 10 -3 0 -7 -4 -11 -9z"/>
<path d="M1613 2471 c0 -11 5 -18 9 -15 4 3 5 11 1 19 -7 21 -12 19 -10 -4z"/>
<path d="M1630 2441 c0 -6 4 -12 8 -15 5 -3 9 1 9 9 0 8 -4 15 -9 15 -4 0 -8
-4 -8 -9z"/>
<path d="M920 2425 c-7 -9 -11 -17 -9 -20 3 -2 10 5 17 15 14 24 10 26 -8 5z"/>
<path d="M1662 2390 c7 -10 14 -18 15 -16 6 6 -9 36 -18 36 -5 0 -4 -9 3 -20z"/>
<path d="M904 2379 c-3 -6 -1 -16 5 -22 9 -9 10 -7 5 7 -6 15 -4 17 6 11 9 -5
11 -4 6 3 -9 15 -13 15 -22 1z"/>
<path d="M1685 2349 c-4 -6 -5 -12 -2 -15 2 -3 7 2 10 11 7 17 1 20 -8 4z"/>
<path d="M1700 2310 c-12 -7 -10 -9 7 -7 12 0 19 5 17 9 -6 10 -6 10 -24 -2z"/>
<path d="M893 2295 c0 -8 4 -12 9 -9 4 3 8 9 8 15 0 5 -4 9 -8 9 -5 0 -9 -7
-9 -15z"/>
<path d="M901 2257 c-2 -16 20 -47 32 -47 8 0 8 3 -2 9 -8 5 -10 14 -6 21 5 8
4 11 -3 6 -5 -3 -13 0 -15 6 -3 7 -6 9 -6 5z"/>
<path d="M1764 2224 c9 -8 13 -20 10 -26 -4 -7 -2 -8 4 -4 14 8 -2 46 -19 46
-6 0 -3 -7 5 -16z"/>
<path d="M1806 2171 c-4 -5 -2 -12 3 -15 5 -4 12 -2 15 3 4 5 2 12 -3 15 -5 4
-12 2 -15 -3z"/>
<path d="M946 2158 c3 -4 9 -8 15 -8 5 0 9 4 9 8 0 5 -7 9 -15 9 -8 0 -12 -4
-9 -9z"/>
<path d="M1000 2119 c0 -5 5 -7 10 -4 6 3 10 8 10 11 0 2 -4 4 -10 4 -5 0 -10
-5 -10 -11z"/>
<path d="M1850 2121 c0 -8 10 -26 23 -39 15 -17 17 -23 6 -20 -9 4 -16 1 -16
-6 0 -8 11 -10 30 -8 l29 5 -25 21 c-14 11 -30 30 -36 41 -7 13 -11 15 -11 6z"/>
<path d="M1026 2098 c3 -5 10 -6 15 -3 13 9 11 12 -6 12 -8 0 -12 -4 -9 -9z"/>
<path d="M1110 2070 c0 -5 5 -10 11 -10 5 0 7 5 4 10 -3 6 -8 10 -11 10 -2 0
-4 -4 -4 -10z"/>
<path d="M1174 2059 c-8 -14 14 -19 25 -6 8 10 7 14 -5 14 -8 0 -17 -4 -20 -8z"/>
<path d="M1816 2057 c3 -10 9 -15 12 -12 3 3 0 11 -7 18 -10 9 -11 8 -5 -6z"/>
<path d="M1755 2049 c-4 -6 -5 -12 -2 -15 2 -3 7 2 10 11 7 17 1 20 -8 4z"/>
<path d="M3602 5554 c-7 -8 -8 -14 -3 -14 10 0 25 19 20 25 -2 1 -10 -3 -17
-11z"/>
<path d="M3230 5540 c0 -5 5 -10 11 -10 5 0 7 5 4 10 -3 6 -8 10 -11 10 -2 0
-4 -4 -4 -10z"/>
<path d="M3770 5540 c0 -5 5 -10 11 -10 5 0 7 5 4 10 -3 6 -8 10 -11 10 -2 0
-4 -4 -4 -10z"/>
<path d="M3830 5530 c-13 -8 -12 -10 3 -10 9 0 17 5 17 10 0 12 -1 12 -20 0z"/>
<path d="M3936 5517 c3 -10 9 -15 12 -12 3 3 0 11 -7 18 -10 9 -11 8 -5 -6z"/>
<path d="M4151 5520 c3 -23 -12 -51 -24 -43 -5 3 -7 1 -3 -5 3 -6 -3 -14 -15
-17 -11 -4 -18 -9 -16 -12 9 -8 43 15 60 40 10 16 12 28 6 38 -8 12 -10 12 -8
-1z"/>
<path d="M2955 5491 c-3 -6 -11 -9 -16 -6 -5 4 -9 1 -9 -4 0 -13 10 -14 30 -1
8 5 12 12 8 15 -3 4 -9 1 -13 -4z"/>
<path d="M4004 5459 c-3 -6 -2 -15 3 -20 5 -5 9 -1 9 11 0 23 -2 24 -12 9z"/>
<path d="M4490 5445 c0 -2 6 -8 13 -14 10 -8 14 -7 14 2 0 8 -6 14 -14 14 -7
0 -13 -1 -13 -2z"/>
<path d="M4915 5441 c-3 -5 0 -13 5 -16 17 -11 60 -13 54 -3 -3 5 -11 8 -17 7
-25 -3 -38 1 -32 11 3 6 4 10 1 10 -3 0 -7 -4 -11 -9z"/>
<path d="M2750 5419 c0 -5 5 -7 10 -4 6 3 10 8 10 11 0 2 -4 4 -10 4 -5 0 -10
-5 -10 -11z"/>
<path d="M4530 5421 c0 -6 4 -12 8 -15 5 -3 9 1 9 9 0 8 -4 15 -9 15 -4 0 -8
-4 -8 -9z"/>
<path d="M4016 5405 c-9 -26 -7 -32 5 -12 6 10 9 21 6 23 -2 3 -7 -2 -11 -11z"/>
<path d="M4990 5400 c0 -5 5 -10 11 -10 5 0 8 -4 5 -8 -3 -5 1 -9 9 -9 13 0
12 4 -2 19 -18 21 -23 22 -23 8z"/>
<path d="M3715 5380 c3 -5 8 -10 11 -10 2 0 4 5 4 10 0 6 -5 10 -11 10 -5 0
-7 -4 -4 -10z"/>
<path d="M3836 5382 c-3 -5 1 -9 9 -9 8 0 12 4 9 9 -3 4 -7 8 -9 8 -2 0 -6 -4
-9 -8z"/>
<path d="M4630 5370 c0 -5 5 -10 10 -10 6 0 10 5 10 10 0 6 -4 10 -10 10 -5 0
-10 -4 -10 -10z"/>
<path d="M5027 5346 c-4 -10 -3 -15 3 -11 6 3 10 1 10 -6 0 -7 3 -10 6 -6 3 3
2 13 -4 22 -8 16 -9 16 -15 1z"/>
<path d="M2566 5338 c3 -4 11 -5 19 -1 21 7 19 12 -4 10 -11 0 -18 -5 -15 -9z"/>
<path d="M3790 5340 c0 -5 5 -10 11 -10 5 0 7 5 4 10 -3 6 -8 10 -11 10 -2 0
-4 -4 -4 -10z"/>
<path d="M2537 5329 c7 -7 15 -10 18 -7 3 3 -2 9 -12 12 -14 6 -15 5 -6 -5z"/>
<path d="M3415 5320 c3 -5 8 -10 11 -10 2 0 4 5 4 10 0 6 -5 10 -11 10 -5 0
-7 -4 -4 -10z"/>
<path d="M5237 5311 c-10 -12 -9 -13 3 -6 8 5 21 10 28 11 24 4 25 13 3 11
-12 -1 -28 -8 -34 -16z"/>
<path d="M3284 5286 c-10 -8 -17 -16 -14 -19 3 -2 14 4 24 14 23 22 18 25 -10
5z"/>
<path d="M5065 5290 c-4 -6 -11 -7 -17 -4 -7 4 -8 2 -4 -5 6 -9 11 -9 22 0 14
11 18 19 10 19 -3 0 -8 -5 -11 -10z"/>
<path d="M2372 5252 c2 -6 -5 -17 -16 -25 -15 -11 -16 -14 -3 -14 9 0 19 7 21
14 3 8 10 12 15 8 5 -3 13 0 17 7 4 7 4 10 -1 6 -4 -4 -14 -3 -22 4 -10 8 -13
8 -11 0z"/>
<path d="M5214 5249 c-3 -6 -2 -15 3 -20 5 -5 9 -1 9 11 0 23 -2 24 -12 9z"/>
<path d="M4730 5241 c0 -6 4 -13 10 -16 6 -3 7 1 4 9 -7 18 -14 21 -14 7z"/>
<path d="M3145 5229 c-11 -16 -1 -19 13 -3 7 8 8 14 3 14 -5 0 -13 -5 -16 -11z"/>
<path d="M2314 5195 c-4 -8 -11 -12 -17 -8 -6 3 -7 1 -3 -5 10 -16 14 -15 26
8 6 11 8 20 5 20 -3 0 -8 -7 -11 -15z"/>
<path d="M4004 5203 c4 -4 16 -8 28 -10 28 -4 18 6 -12 12 -12 2 -20 1 -16 -2z"/>
<path d="M5913 5195 c0 -8 4 -12 9 -9 5 3 6 10 3 15 -9 13 -12 11 -12 -6z"/>
<path d="M5970 5202 c0 -6 -8 -13 -17 -15 -16 -4 -16 -5 -1 -6 18 -1 34 16 24
26 -3 4 -6 1 -6 -5z"/>
<path d="M6126 5202 c-3 -5 1 -9 9 -9 8 0 12 4 9 9 -3 4 -7 8 -9 8 -2 0 -6 -4
-9 -8z"/>
<path d="M4553 5185 c0 -7 6 -11 14 -8 7 3 13 6 13 8 0 2 -6 5 -13 8 -8 3 -14
-1 -14 -8z"/>
<path d="M6335 5180 c-3 -5 -1 -10 4 -10 6 0 11 5 11 10 0 6 -2 10 -4 10 -3 0
-8 -4 -11 -10z"/>
<path d="M2268 5173 c6 -2 9 -10 6 -15 -4 -7 -2 -8 5 -4 13 9 5 26 -12 25 -9
0 -8 -2 1 -6z"/>
<path d="M6367 5169 c7 -7 15 -10 18 -7 3 3 -2 9 -12 12 -14 6 -15 5 -6 -5z"/>
<path d="M5715 5160 c-3 -5 -1 -10 4 -10 6 0 11 5 11 10 0 6 -2 10 -4 10 -3 0
-8 -4 -11 -10z"/>
<path d="M6430 5166 c0 -2 7 -9 15 -16 13 -11 14 -10 9 4 -5 14 -24 23 -24 12z"/>
<path d="M4095 5150 c-3 -5 -1 -10 4 -10 6 0 11 5 11 10 0 6 -2 10 -4 10 -3 0
-8 -4 -11 -10z"/>
<path d="M4469 5134 c-12 -13 -18 -24 -13 -24 5 0 15 9 22 21 7 11 19 18 27
15 8 -3 16 -2 19 2 12 20 -35 8 -55 -14z"/>
<path d="M5645 5150 c-3 -6 1 -7 9 -4 18 7 21 14 7 14 -6 0 -13 -4 -16 -10z"/>
<path d="M2970 5140 c0 -5 5 -10 11 -10 5 0 7 5 4 10 -3 6 -8 10 -11 10 -2 0
-4 -4 -4 -10z"/>
<path d="M5590 5140 c0 -5 5 -10 10 -10 6 0 10 5 10 10 0 6 -4 10 -10 10 -5 0
-10 -4 -10 -10z"/>
<path d="M2929 5113 c-17 -20 -18 -23 -3 -10 11 9 23 15 26 12 2 -3 5 2 5 10
0 19 1 20 -28 -12z"/>
<path d="M6536 5113 c-6 -14 -5 -15 5 -6 7 7 10 15 7 18 -3 3 -9 -2 -12 -12z"/>
<path d="M4136 5112 c-3 -5 4 -16 15 -25 10 -9 19 -12 19 -7 0 6 -7 13 -15 16
-8 4 -12 10 -9 15 3 5 3 9 0 9 -3 0 -7 -4 -10 -8z"/>
<path d="M2890 5091 c0 -6 4 -13 10 -16 6 -3 7 1 4 9 -7 18 -14 21 -14 7z"/>
<path d="M2140 5081 c0 -6 4 -13 10 -16 6 -3 7 1 4 9 -7 18 -14 21 -14 7z"/>
<path d="M3590 5080 c-9 -6 -10 -10 -3 -10 6 0 15 5 18 10 8 12 4 12 -15 0z"/>
<path d="M2832 5057 c-6 -7 -8 -18 -4 -24 6 -9 11 -6 20 7 13 22 0 36 -16 17z"/>
<path d="M2796 5031 c-3 -5 1 -11 9 -14 9 -4 12 -1 8 9 -6 16 -10 17 -17 5z"/>
<path d="M4396 5022 c-2 -4 -1 -14 4 -22 7 -11 9 -9 7 8 -1 24 -3 26 -11 14z"/>
<path d="M6628 5023 c7 -3 16 -2 19 1 4 3 -2 6 -13 5 -11 0 -14 -3 -6 -6z"/>
<path d="M2078 5013 c7 -3 16 -2 19 1 4 3 -2 6 -13 5 -11 0 -14 -3 -6 -6z"/>
<path d="M3670 5016 c0 -2 8 -10 18 -17 15 -13 16 -12 3 4 -13 16 -21 21 -21
13z"/>
<path d="M4211 5012 c-1 -8 -6 -10 -13 -6 -10 5 -10 4 -1 -6 15 -16 28 -8 20
12 -4 11 -6 11 -6 0z"/>
<path d="M2053 4995 c0 -7 6 -11 14 -8 7 3 13 6 13 8 0 2 -6 5 -13 8 -8 3 -14
-1 -14 -8z"/>
<path d="M2770 5000 c0 -5 5 -10 10 -10 6 0 10 5 10 10 0 6 -4 10 -10 10 -5 0
-10 -4 -10 -10z"/>
<path d="M2832 4998 c2 -7 -3 -12 -9 -10 -7 1 -13 -2 -13 -8 0 -5 5 -10 10
-10 6 0 10 -15 10 -32 0 -25 -3 -29 -10 -18 -8 13 -11 13 -22 1 -7 -8 -8 -11
-2 -8 7 4 14 0 18 -8 7 -19 -13 -77 -25 -69 -5 3 -6 -1 -4 -8 10 -25 -98 -138
-131 -138 -4 0 7 11 24 24 26 19 29 25 17 30 -9 3 -14 2 -11 -3 7 -11 -20 -34
-32 -27 -6 3 -16 -2 -23 -11 -10 -12 -10 -14 -1 -9 6 4 12 3 12 -2 0 -5 -10
-12 -22 -16 -36 -9 -50 -7 -43 7 4 6 0 4 -9 -7 -9 -11 -24 -17 -38 -15 -15 3
-32 -4 -48 -20 -14 -13 -20 -22 -15 -18 6 3 16 -6 23 -21 10 -23 17 -27 51
-26 65 3 149 -38 209 -101 53 -57 68 -85 33 -63 -10 6 -17 17 -15 23 7 16 -22
39 -31 25 -4 -6 -1 -9 7 -8 8 2 12 -5 11 -19 -2 -15 3 -23 13 -23 8 0 12 -5 9
-10 -4 -6 -3 -10 2 -9 22 4 32 -4 42 -32 14 -41 15 -111 1 -89 -6 9 -10 10
-10 3 0 -7 9 -17 21 -23 17 -10 18 -14 7 -28 -12 -15 -11 -16 4 -3 10 7 29 11
42 9 18 -4 23 -1 18 10 -3 10 -1 13 6 8 8 -5 10 -2 6 9 -5 11 -2 14 12 9 17
-6 17 -5 -1 10 -13 11 -16 19 -8 22 6 3 10 16 7 29 -2 13 0 27 6 30 6 4 8 11
5 16 -4 5 -1 9 4 9 6 0 10 3 10 8 -4 27 7 48 50 93 32 33 54 49 62 44 7 -5 10
-4 6 2 -6 9 59 44 81 43 10 -1 -31 -24 -46 -26 -8 -2 -17 -5 -20 -8 -14 -15
37 2 71 23 23 14 47 21 62 18 14 -2 25 0 25 5 0 5 5 6 12 2 6 -4 8 -3 4 4 -3
6 -2 13 3 16 11 7 2 46 -11 46 -5 0 -7 4 -4 9 3 4 -4 17 -17 27 l-22 19 19
-23 20 -23 -36 3 c-27 1 -34 6 -30 17 3 9 1 12 -5 8 -6 -4 -13 -4 -16 0 -2 5
-2 2 -1 -4 2 -7 -4 -13 -12 -13 -8 0 -13 4 -10 9 3 5 -6 9 -20 9 -30 0 -104
50 -120 81 -6 11 -13 18 -16 16 -3 -3 -8 1 -12 10 -3 9 -2 13 4 10 6 -3 7 1 4
9 -3 9 -10 13 -15 10 -16 -9 -39 63 -44 136 l-3 45 -41 3 c-30 2 -41 0 -39
-10z"/>
<path d="M4377 4987 c-3 -8 -2 -20 3 -26 5 -9 8 -4 8 13 0 29 -3 32 -11 13z"/>
<path d="M2026 4963 c2 -7 -1 -14 -6 -14 -6 -1 -14 -2 -19 -3 -19 -2 -20 -12
-1 -13 10 -1 26 8 37 19 10 12 13 18 6 15 -6 -4 -13 -4 -16 0 -2 5 -2 2 -1 -4z"/>
<path d="M2705 4961 c-6 -11 13 -26 22 -17 4 3 1 6 -6 6 -7 0 -9 5 -6 10 3 6
4 10 1 10 -3 0 -7 -4 -11 -9z"/>
<path d="M3735 4960 c3 -5 8 -10 11 -10 2 0 4 5 4 10 0 6 -5 10 -11 10 -5 0
-7 -4 -4 -10z"/>
<path d="M4873 4957 c-3 -5 -2 -11 1 -14 3 -4 6 -1 6 6 0 7 4 9 10 6 5 -3 18
-2 27 4 14 7 12 9 -11 8 -15 -1 -30 -6 -33 -10z"/>
<path d="M2925 4940 c-3 -5 -2 -10 4 -10 5 0 13 5 16 10 3 6 2 10 -4 10 -5 0
-13 -4 -16 -10z"/>
<path d="M4234 4906 c1 -8 5 -18 8 -22 4 -3 5 1 4 10 -1 8 -5 18 -8 22 -4 3
-5 -1 -4 -10z"/>
<path d="M3815 4900 c3 -5 8 -10 11 -10 2 0 4 5 4 10 0 6 -5 10 -11 10 -5 0
-7 -4 -4 -10z"/>
<path d="M4710 4899 c0 -5 5 -7 10 -4 6 3 10 8 10 11 0 2 -4 4 -10 4 -5 0 -10
-5 -10 -11z"/>
<path d="M1938 4888 c10 -13 10 -17 0 -21 -9 -4 -9 -6 -1 -6 20 -2 24 16 5 30
-15 13 -16 12 -4 -3z"/>
<path d="M2792 4887 c-8 -9 -8 -17 0 -27 8 -13 9 -12 5 1 -3 9 0 22 6 28 6 6
8 11 5 11 -3 0 -10 -6 -16 -13z"/>
<path d="M4355 4891 c-3 -5 -2 -12 3 -15 5 -3 9 1 9 9 0 17 -3 19 -12 6z"/>
<path d="M4640 4880 c18 -12 30 -13 30 -2 0 4 -10 9 -22 9 -18 2 -20 0 -8 -7z"/>
<path d="M2590 4855 c-11 -13 -10 -14 4 -9 9 3 16 10 16 15 0 13 -6 11 -20 -6z"/>
<path d="M2946 4858 c3 -4 9 -8 15 -8 5 0 9 4 9 8 0 5 -7 9 -15 9 -8 0 -12 -4
-9 -9z"/>
<path d="M3477 4839 c4 -13 8 -18 11 -10 2 7 -1 18 -6 23 -8 8 -9 4 -5 -13z"/>
<path d="M6681 4844 c0 -11 3 -14 6 -6 3 7 2 16 -1 19 -3 4 -6 -2 -5 -13z"/>
<path d="M1906 4838 c3 -5 10 -6 15 -3 13 9 11 12 -6 12 -8 0 -12 -4 -9 -9z"/>
<path d="M3880 4840 c0 -5 5 -10 11 -10 5 0 7 5 4 10 -3 6 -8 10 -11 10 -2 0
-4 -4 -4 -10z"/>
<path d="M4346 4822 c-3 -5 1 -9 9 -9 8 0 12 4 9 9 -3 4 -7 8 -9 8 -2 0 -6 -4
-9 -8z"/>
<path d="M4455 4821 c-3 -5 -2 -12 3 -15 5 -3 9 1 9 9 0 17 -3 19 -12 6z"/>
<path d="M2541 4806 c-10 -12 -8 -17 11 -26 20 -10 21 -10 6 3 -13 10 -15 16
-6 25 7 7 9 12 6 12 -3 0 -11 -6 -17 -14z"/>
<path d="M3927 4799 c7 -7 15 -10 18 -7 3 3 -2 9 -12 12 -14 6 -15 5 -6 -5z"/>
<path d="M3955 4781 c-3 -6 3 -14 13 -20 14 -7 19 -6 19 4 0 7 -7 11 -15 7
-10 -3 -13 -1 -8 6 4 7 5 12 2 12 -3 0 -7 -4 -11 -9z"/>
<path d="M2726 4769 c2 -4 -2 -10 -8 -12 -8 -4 -9 -6 -2 -6 6 -1 17 5 23 12 8
10 7 14 -4 14 -8 0 -12 -4 -9 -8z"/>
<path d="M3006 4772 c-3 -5 1 -9 9 -9 8 0 12 4 9 9 -3 4 -7 8 -9 8 -2 0 -6 -4
-9 -8z"/>
<path d="M5430 4771 c0 -5 5 -13 10 -16 6 -3 10 -2 10 4 0 5 -4 13 -10 16 -5
3 -10 2 -10 -4z"/>
<path d="M5695 4770 c-3 -6 1 -7 9 -4 18 7 21 14 7 14 -6 0 -13 -4 -16 -10z"/>
<path d="M3464 4761 c4 -5 1 -12 -4 -14 -6 -3 -5 -4 2 -3 15 3 23 26 8 26 -6
0 -9 -4 -6 -9z"/>
<path d="M5247 4753 c3 -7 6 -13 8 -13 2 0 5 6 8 13 3 8 -1 14 -8 14 -7 0 -11
-6 -8 -14z"/>
<path d="M4216 4747 c3 -10 9 -15 12 -12 3 3 0 11 -7 18 -10 9 -11 8 -5 -6z"/>
<path d="M2481 4736 c-9 -11 -9 -16 1 -22 7 -4 10 -4 6 1 -4 4 -3 14 3 22 6 7
9 13 6 13 -2 0 -10 -6 -16 -14z"/>
<path d="M3056 4742 c-2 -4 -1 -14 4 -22 7 -11 9 -9 7 8 -1 24 -3 26 -11 14z"/>
<path d="M4005 4741 c-3 -5 -2 -12 3 -15 5 -3 9 1 9 9 0 17 -3 19 -12 6z"/>
<path d="M3459 4728 c-6 -21 -5 -38 1 -38 5 0 8 9 7 20 -1 17 -5 26 -8 18z"/>
<path d="M4030 4710 c0 -5 5 -10 11 -10 5 0 7 5 4 10 -3 6 -8 10 -11 10 -2 0
-4 -4 -4 -10z"/>
<path d="M1798 4703 c7 -3 16 -2 19 1 4 3 -2 6 -13 5 -11 0 -14 -3 -6 -6z"/>
<path d="M2595 4701 c-3 -5 -2 -12 3 -15 5 -3 9 1 9 9 0 17 -3 19 -12 6z"/>
<path d="M4160 4701 c0 -7 -5 -9 -12 -5 -7 5 -8 3 -3 -5 5 -9 10 -10 18 -2 6
6 8 14 4 18 -4 3 -7 1 -7 -6z"/>
<path d="M4870 4700 c0 -5 5 -10 10 -10 6 0 10 5 10 10 0 6 -4 10 -10 10 -5 0
-10 -4 -10 -10z"/>
<path d="M4948 4703 c7 -3 16 -2 19 1 4 3 -2 6 -13 5 -11 0 -14 -3 -6 -6z"/>
<path d="M2476 4684 c1 -6 -3 -18 -9 -25 -7 -7 -2 -5 11 5 22 19 30 32 13 22
-5 -4 -11 -3 -14 1 -2 5 -3 3 -1 -3z"/>
<path d="M4825 4691 c-3 -5 -2 -12 3 -15 5 -3 9 1 9 9 0 17 -3 19 -12 6z"/>
<path d="M6004 4689 c-4 -7 -3 -9 4 -5 5 3 13 0 15 -6 4 -9 6 -10 6 -1 1 17
-16 25 -25 12z"/>
<path d="M1776 4678 c3 -5 10 -6 15 -3 13 9 11 12 -6 12 -8 0 -12 -4 -9 -9z"/>
<path d="M2426 4661 c-20 -21 -24 -31 -15 -36 7 -5 10 -4 6 2 -7 12 16 36 26
28 4 -3 5 -2 2 2 -3 3 0 12 6 20 21 24 3 13 -25 -16z"/>
<path d="M2535 4680 c-3 -5 -1 -10 4 -10 6 0 11 5 11 10 0 6 -2 10 -4 10 -3 0
-8 -4 -11 -10z"/>
<path d="M3437 4679 c7 -7 15 -10 18 -7 3 3 -2 9 -12 12 -14 6 -15 5 -6 -5z"/>
<path d="M4074 4673 c21 -11 31 -12 40 -3 8 8 6 9 -8 4 -11 -4 -17 -3 -14 2 4
5 -6 10 -20 11 l-27 1 29 -15z"/>
<path d="M6049 4667 c6 -8 7 -18 3 -22 -4 -5 -1 -5 6 -1 10 6 10 11 1 22 -6 8
-14 14 -16 14 -3 0 0 -6 6 -13z"/>
<path d="M1755 4660 c-3 -5 -1 -10 4 -10 6 0 11 5 11 10 0 6 -2 10 -4 10 -3 0
-8 -4 -11 -10z"/>
<path d="M4673 4660 c-13 -5 -23 -11 -23 -14 0 -7 40 6 46 15 6 10 6 10 -23
-1z"/>
<path d="M6636 4662 c-2 -4 -1 -14 4 -22 7 -11 9 -9 7 8 -1 24 -3 26 -11 14z"/>
<path d="M3270 4640 c0 -5 5 -10 11 -10 5 0 7 5 4 10 -3 6 -8 10 -11 10 -2 0
-4 -4 -4 -10z"/>
<path d="M6617 4625 c-4 -8 -3 -16 1 -19 4 -3 9 4 9 15 2 23 -3 25 -10 4z"/>
<path d="M1730 4620 c0 -5 5 -10 11 -10 5 0 7 5 4 10 -3 6 -8 10 -11 10 -2 0
-4 -4 -4 -10z"/>
<path d="M2386 4612 c-3 -5 1 -9 9 -9 8 0 12 4 9 9 -3 4 -7 8 -9 8 -2 0 -6 -4
-9 -8z"/>
<path d="M6597 4587 c-3 -8 1 -14 8 -14 7 0 11 6 8 14 -3 7 -6 13 -8 13 -2 0
-5 -6 -8 -13z"/>
<path d="M2475 4580 c-3 -5 -1 -10 4 -10 6 0 11 5 11 10 0 6 -2 10 -4 10 -3 0
-8 -4 -11 -10z"/>
<path d="M1693 4551 c0 -11 5 -18 9 -15 4 3 5 11 1 19 -7 21 -12 19 -10 -4z"/>
<path d="M2570 4560 c0 -5 5 -10 11 -10 5 0 7 5 4 10 -3 6 -8 10 -11 10 -2 0
-4 -4 -4 -10z"/>
<path d="M3175 4561 c-3 -5 -2 -12 3 -15 5 -3 9 1 9 9 0 17 -3 19 -12 6z"/>
<path d="M6100 4559 c0 -5 5 -7 10 -4 6 3 10 8 10 11 0 2 -4 4 -10 4 -5 0 -10
-5 -10 -11z"/>
<path d="M2596 4543 c-6 -14 -5 -15 5 -6 7 7 10 15 7 18 -3 3 -9 -2 -12 -12z"/>
<path d="M6575 4550 c-3 -6 1 -7 9 -4 18 7 21 14 7 14 -6 0 -13 -4 -16 -10z"/>
<path d="M2346 4538 c3 -5 10 -6 15 -3 13 9 11 12 -6 12 -8 0 -12 -4 -9 -9z"/>
<path d="M4260 4539 c0 -6 -4 -8 -9 -4 -16 9 -22 -12 -7 -24 10 -8 16 -9 21
-1 3 5 3 10 -2 11 -4 0 1 4 11 8 18 7 18 8 3 14 -9 3 -17 2 -17 -4z"/>
<path d="M2325 4520 c-3 -5 -1 -10 4 -10 6 0 11 5 11 10 0 6 -2 10 -4 10 -3 0
-8 -4 -11 -10z"/>
<path d="M6586 4518 c3 -5 10 -6 15 -3 13 9 11 12 -6 12 -8 0 -12 -4 -9 -9z"/>
<path d="M1668 4495 c-6 -13 -15 -22 -21 -18 -6 3 -7 1 -3 -5 10 -17 14 -15
31 18 9 17 13 30 10 30 -3 0 -10 -11 -17 -25z"/>
<path d="M2680 4516 c0 -2 7 -7 16 -10 8 -3 12 -2 9 4 -6 10 -25 14 -25 6z"/>
<path d="M3030 4500 c-11 -7 -11 -10 -2 -10 7 0 10 -5 6 -12 -4 -7 -3 -8 5 -4
6 4 9 11 6 16 -3 4 1 11 7 13 7 3 9 6 3 6 -5 0 -17 -4 -25 -9z"/>
<path d="M4280 4500 c-12 -7 -12 -11 -2 -20 6 -5 10 -7 7 -4 -3 4 0 13 6 21
13 15 10 16 -11 3z"/>
<path d="M2304 4489 c-3 -6 -3 -13 0 -16 3 -4 6 -1 6 5 0 6 7 9 15 6 8 -4 15
-4 15 -1 0 11 -30 16 -36 6z"/>
<path d="M6541 4484 c0 -11 3 -14 6 -6 3 7 2 16 -1 19 -3 4 -6 -2 -5 -13z"/>
<path d="M2997 4468 c-12 -10 -14 -17 -6 -28 9 -13 10 -13 6 0 -2 8 3 20 12
27 9 7 13 13 10 13 -3 0 -13 -6 -22 -12z"/>
<path d="M3400 4470 c-9 -6 -10 -10 -3 -10 6 0 15 5 18 10 8 12 4 12 -15 0z"/>
<path d="M4300 4461 c0 -6 4 -13 10 -16 6 -3 7 1 4 9 -7 18 -14 21 -14 7z"/>
<path d="M2279 4433 c-13 -16 -12 -17 4 -4 16 13 21 21 13 21 -2 0 -10 -8 -17
-17z"/>
<path d="M3395 4441 c-3 -5 -2 -12 3 -15 5 -3 9 1 9 9 0 17 -3 19 -12 6z"/>
<path d="M1619 4425 c-1 -3 -2 -8 -3 -12 -3 -19 -18 -33 -29 -27 -7 4 -7 1 1
-7 11 -12 15 -11 23 3 5 10 9 21 9 24 -1 4 4 11 12 15 10 7 10 9 1 9 -7 0 -14
-2 -14 -5z"/>
<path d="M4355 4411 c-3 -5 -2 -12 3 -15 5 -3 9 1 9 9 0 17 -3 19 -12 6z"/>
<path d="M3376 4398 c3 -5 10 -6 15 -3 13 9 11 12 -6 12 -8 0 -12 -4 -9 -9z"/>
<path d="M6102 4405 c4 -4 3 -14 -3 -22 -7 -8 -8 -13 -1 -13 15 0 23 28 9 36
-7 4 -9 4 -5 -1z"/>
<path d="M6470 4388 c-12 -22 -12 -22 6 -6 10 10 15 20 12 24 -4 3 -12 -5 -18
-18z"/>
<path d="M2245 4370 c-3 -6 1 -7 9 -4 18 7 21 14 7 14 -6 0 -13 -4 -16 -10z"/>
<path d="M2793 4365 c0 -8 4 -15 9 -15 4 0 8 4 8 9 0 6 -4 12 -8 15 -5 3 -9
-1 -9 -9z"/>
<path d="M4395 4360 c3 -5 8 -10 11 -10 2 0 4 5 4 10 0 6 -5 10 -11 10 -5 0
-7 -4 -4 -10z"/>
<path d="M3366 4352 c-3 -5 1 -9 9 -9 8 0 12 4 9 9 -3 4 -7 8 -9 8 -2 0 -6 -4
-9 -8z"/>
<path d="M2936 4338 c3 -5 10 -6 15 -3 13 9 11 12 -6 12 -8 0 -12 -4 -9 -9z"/>
<path d="M3335 4340 c-3 -5 -1 -10 4 -10 6 0 11 5 11 10 0 6 -2 10 -4 10 -3 0
-8 -4 -11 -10z"/>
<path d="M6076 4335 c-9 -26 -7 -32 5 -12 6 10 9 21 6 23 -2 3 -7 -2 -11 -11z"/>
<path d="M2790 4336 c0 -2 7 -7 16 -10 8 -3 12 -2 9 4 -6 10 -25 14 -25 6z"/>
<path d="M4420 4336 c0 -3 9 -10 20 -16 11 -6 20 -8 20 -6 0 3 -9 10 -20 16
-11 6 -20 8 -20 6z"/>
<path d="M3305 4319 c-4 -6 -5 -12 -2 -15 2 -3 7 2 10 11 7 17 1 20 -8 4z"/>
<path d="M2217 4313 c-10 -9 -9 -23 1 -23 5 0 9 7 9 15 0 17 -1 18 -10 8z"/>
<path d="M1561 4287 c-1 -10 -5 -15 -11 -12 -6 4 -7 -1 -3 -11 6 -15 7 -15 15
0 5 9 7 22 4 29 -2 7 -5 4 -5 -6z"/>
<path d="M3232 4284 c-7 -8 -8 -14 -3 -14 10 0 25 19 20 25 -2 1 -10 -3 -17
-11z"/>
<path d="M6395 4289 c-4 -6 -5 -12 -2 -15 2 -3 7 2 10 11 7 17 1 20 -8 4z"/>
<path d="M4482 4282 c-9 -6 -7 -13 10 -27 13 -11 17 -13 11 -5 -16 18 -17 34
-1 24 7 -4 8 -3 4 4 -8 14 -8 14 -24 4z"/>
<path d="M6039 4263 c0 -5 -2 -16 -4 -26 -2 -11 -1 -16 3 -13 8 8 14 46 7 46
-3 0 -5 -3 -6 -7z"/>
<path d="M3351 4202 c-1 -7 -5 -10 -11 -7 -6 3 -7 -1 -4 -10 4 -11 10 -13 16
-7 6 6 8 16 5 24 -4 10 -6 10 -6 0z"/>
<path d="M6320 4199 c0 -5 5 -7 10 -4 6 3 10 8 10 11 0 2 -4 4 -10 4 -5 0 -10
-5 -10 -11z"/>
<path d="M6291 4177 c-13 -21 -12 -21 5 -5 10 10 16 20 13 22 -3 3 -11 -5 -18
-17z"/>
<path d="M4572 4171 c7 -9 13 -18 15 -20 1 -2 1 5 0 16 0 11 -7 20 -14 20 -10
0 -10 -4 -1 -16z"/>
<path d="M5999 4173 c-13 -16 -12 -17 4 -4 16 13 21 21 13 21 -2 0 -10 -8 -17
-17z"/>
<path d="M3235 4150 c-4 -6 -10 -8 -15 -5 -5 3 -11 1 -14 -4 -5 -8 15 -8 34
-1 3 1 9 2 13 1 5 -1 6 3 2 9 -8 13 -12 13 -20 0z"/>
<path d="M5973 4145 c0 -8 4 -12 9 -9 5 3 6 10 3 15 -9 13 -12 11 -12 -6z"/>
<path d="M6256 4152 c-3 -5 1 -9 9 -9 8 0 12 4 9 9 -3 4 -7 8 -9 8 -2 0 -6 -4
-9 -8z"/>
<path d="M4606 4142 c-3 -5 1 -9 9 -9 8 0 12 4 9 9 -3 4 -7 8 -9 8 -2 0 -6 -4
-9 -8z"/>
<path d="M6224 4118 c-4 -5 -3 -12 0 -15 3 -4 6 -1 6 6 0 7 4 10 9 6 5 -3 12
-2 15 3 3 5 -2 9 -10 9 -8 0 -17 -4 -20 -9z"/>
<path d="M1470 4079 c0 -5 5 -7 10 -4 6 3 10 8 10 11 0 2 -4 4 -10 4 -5 0 -10
-5 -10 -11z"/>
<path d="M4650 4081 c0 -16 28 -33 35 -21 4 6 1 9 -7 8 -7 -2 -12 3 -10 10 1
6 -2 12 -8 12 -5 0 -10 -4 -10 -9z"/>
<path d="M6179 4078 c-5 -18 -6 -38 -1 -34 7 8 12 36 6 36 -2 0 -4 -1 -5 -2z"/>
<path d="M2116 4033 c-6 -14 -5 -15 5 -6 7 7 10 15 7 18 -3 3 -9 -2 -12 -12z"/>
<path d="M3313 4035 c0 -8 4 -12 9 -9 4 3 8 9 8 15 0 5 -4 9 -8 9 -5 0 -9 -7
-9 -15z"/>
<path d="M4686 4042 c-3 -5 1 -9 9 -9 8 0 12 4 9 9 -3 4 -7 8 -9 8 -2 0 -6 -4
-9 -8z"/>
<path d="M6120 4020 c-8 -5 -12 -12 -9 -15 4 -3 12 1 19 10 14 17 11 19 -10 5z"/>
<path d="M1430 4006 c0 -2 7 -7 16 -10 8 -3 12 -2 9 4 -6 10 -25 14 -25 6z"/>
<path d="M5850 4000 c0 -5 5 -10 10 -10 6 0 10 5 10 10 0 6 -4 10 -10 10 -5 0
-10 -4 -10 -10z"/>
<path d="M6080 3985 c-7 -9 -8 -15 -2 -15 5 0 12 7 16 15 3 8 4 15 2 15 -2 0
-9 -7 -16 -15z"/>
<path d="M3295 3981 c4 -8 2 -17 -6 -22 -9 -6 -10 -9 -2 -9 19 0 27 21 13 33
-10 9 -11 9 -5 -2z"/>
<path d="M4746 3978 c3 -5 10 -6 15 -3 13 9 11 12 -6 12 -8 0 -12 -4 -9 -9z"/>
<path d="M5835 3970 c-4 -6 -10 -8 -14 -6 -4 3 -8 -1 -8 -9 0 -13 4 -12 19 2
18 16 22 23 14 23 -3 0 -8 -5 -11 -10z"/>
<path d="M5770 3946 c0 -2 8 -10 18 -17 15 -13 16 -12 3 4 -13 16 -21 21 -21
13z"/>
<path d="M3290 3901 c0 -7 -5 -9 -12 -5 -7 5 -8 3 -3 -5 5 -9 10 -10 18 -2 6
6 8 14 4 18 -4 3 -7 1 -7 -6z"/>
<path d="M5749 3893 c-13 -17 -13 -17 6 -3 11 8 22 16 24 17 2 2 0 3 -6 3 -6
0 -17 -8 -24 -17z"/>
<path d="M4795 3891 c-3 -5 -2 -12 3 -15 5 -3 9 1 9 9 0 17 -3 19 -12 6z"/>
<path d="M5961 3881 c-25 -19 -36 -47 -21 -56 5 -3 7 3 5 12 -1 10 9 28 24 40
32 27 26 30 -8 4z"/>
<path d="M5713 3856 c1 -6 -4 -10 -11 -8 -8 1 -11 -2 -7 -8 5 -8 13 -6 26 6
23 21 23 21 5 21 -8 0 -14 -5 -13 -11z"/>
<path d="M5675 3820 c3 -5 8 -10 11 -10 2 0 4 5 4 10 0 6 -5 10 -11 10 -5 0
-7 -4 -4 -10z"/>
<path d="M5855 3791 c-3 -5 -2 -12 3 -15 5 -3 9 1 9 9 0 17 -3 19 -12 6z"/>
<path d="M5619 3783 c-1 -5 -1 -11 0 -15 1 -11 -38 -30 -49 -23 -5 3 -11 1
-14 -4 -8 -13 43 -6 57 8 11 11 19 41 11 41 -2 0 -5 -3 -5 -7z"/>
<path d="M3261 3764 c0 -11 3 -14 6 -6 3 7 2 16 -1 19 -3 4 -6 -2 -5 -13z"/>
<path d="M4867 3769 c7 -7 15 -10 18 -7 3 3 -2 9 -12 12 -14 6 -15 5 -6 -5z"/>
<path d="M1390 3721 c0 -6 4 -13 10 -16 6 -3 7 1 4 9 -7 18 -14 21 -14 7z"/>
<path d="M5745 3704 c-19 -16 -22 -22 -9 -15 12 6 25 7 29 3 3 -4 5 0 3 8 -2
8 3 14 10 12 8 -1 11 2 7 8 -8 13 -5 14 -40 -16z"/>
<path d="M5555 3710 c-4 -6 -11 -7 -17 -4 -7 4 -8 2 -4 -5 6 -9 11 -9 22 0 14
11 18 19 10 19 -3 0 -8 -5 -11 -10z"/>
<path d="M4910 3699 c0 -5 5 -7 10 -4 6 3 10 8 10 11 0 2 -4 4 -10 4 -5 0 -10
-5 -10 -11z"/>
<path d="M2050 3679 c0 -5 5 -7 10 -4 6 3 10 8 10 11 0 2 -4 4 -10 4 -5 0 -10
-5 -10 -11z"/>
<path d="M4930 3659 c0 -5 5 -7 10 -4 6 3 10 8 10 11 0 2 -4 4 -10 4 -5 0 -10
-5 -10 -11z"/>
<path d="M5657 3635 c-15 -14 -24 -25 -19 -25 5 0 19 11 32 25 30 32 23 32
-13 0z"/>
<path d="M4957 3623 c-4 -3 -7 -11 -7 -17 0 -6 5 -5 12 2 6 6 9 14 7 17 -3 3
-9 2 -12 -2z"/>
<path d="M5430 3609 c0 -5 5 -7 10 -4 6 3 10 8 10 11 0 2 -4 4 -10 4 -5 0 -10
-5 -10 -11z"/>
<path d="M4965 3580 c-3 -5 -1 -10 4 -10 6 0 11 5 11 10 0 6 -2 10 -4 10 -3 0
-8 -4 -11 -10z"/>
<path d="M5555 3551 c-3 -5 -2 -12 3 -15 5 -3 9 1 9 9 0 17 -3 19 -12 6z"/>
<path d="M4996 3513 c-6 -14 -5 -15 5 -6 7 7 10 15 7 18 -3 3 -9 -2 -12 -12z"/>
<path d="M5306 3514 c-5 -14 -4 -15 9 -4 17 14 19 20 6 20 -5 0 -12 -7 -15
-16z"/>
<path d="M3195 3501 c-3 -5 0 -13 6 -17 7 -4 9 -3 5 4 -3 5 0 13 6 15 9 4 10
6 1 6 -6 1 -14 -3 -18 -8z"/>
<path d="M5486 3498 c3 -5 10 -6 15 -3 13 9 11 12 -6 12 -8 0 -12 -4 -9 -9z"/>
<path d="M5260 3479 c0 -5 5 -7 10 -4 6 3 10 8 10 11 0 2 -4 4 -10 4 -5 0 -10
-5 -10 -11z"/>
<path d="M1376 3458 c3 -5 10 -6 15 -3 13 9 11 12 -6 12 -8 0 -12 -4 -9 -9z"/>
<path d="M5010 3406 c0 -2 7 -7 16 -10 8 -3 12 -2 9 4 -6 10 -25 14 -25 6z"/>
<path d="M2056 3373 c-6 -14 -5 -15 5 -6 7 7 10 15 7 18 -3 3 -9 -2 -12 -12z"/>
<path d="M5300 3371 c0 -6 4 -13 10 -16 6 -3 7 1 4 9 -7 18 -14 21 -14 7z"/>
<path d="M5272 3361 c-11 -7 -11 -9 0 -14 9 -3 15 1 15 9 0 8 -1 14 -1 14 -1
0 -7 -4 -14 -9z"/>
<path d="M5229 3323 c-13 -16 -12 -17 4 -4 16 13 21 21 13 21 -2 0 -10 -8 -17
-17z"/>
<path d="M5030 3320 c-9 -6 -10 -10 -3 -10 6 0 15 5 18 10 8 12 4 12 -15 0z"/>
<path d="M3150 3300 c0 -5 5 -10 11 -10 5 0 7 5 4 10 -3 6 -8 10 -11 10 -2 0
-4 -4 -4 -10z"/>
<path d="M2068 3253 c7 -3 16 -2 19 1 4 3 -2 6 -13 5 -11 0 -14 -3 -6 -6z"/>
<path d="M5026 3238 c3 -5 10 -6 15 -3 13 9 11 12 -6 12 -8 0 -12 -4 -9 -9z"/>
<path d="M5014 3199 c-3 -6 -2 -15 3 -20 5 -5 9 -1 9 11 0 23 -2 24 -12 9z"/>
<path d="M2078 3183 c7 -3 16 -2 19 1 4 3 -2 6 -13 5 -11 0 -14 -3 -6 -6z"/>
<path d="M5004 3133 c2 -9 8 -18 15 -19 6 -1 7 0 1 3 -5 2 -8 9 -5 13 3 5 1
11 -4 14 -5 4 -8 -2 -7 -11z"/>
<path d="M1279 3105 c-1 -3 -2 -10 -3 -15 0 -6 -8 -15 -16 -20 -9 -6 -10 -10
-3 -10 13 0 26 17 29 38 2 11 -5 18 -7 7z"/>
<path d="M3105 3051 c4 -8 2 -17 -6 -22 -9 -6 -10 -9 -2 -9 19 0 27 21 13 33
-10 9 -11 9 -5 -2z"/>
<path d="M1205 3040 c-3 -6 1 -7 9 -4 18 7 21 14 7 14 -6 0 -13 -4 -16 -10z"/>
<path d="M1179 3025 c-1 -3 -2 -9 -3 -14 -2 -14 -11 -21 -36 -26 -12 -2 -25
-7 -29 -10 -3 -4 7 -4 23 -1 33 6 49 19 52 41 2 13 -4 22 -7 10z"/>
<path d="M1106 2948 c3 -5 10 -6 15 -3 13 9 11 12 -6 12 -8 0 -12 -4 -9 -9z"/>
<path d="M4950 2941 c0 -6 4 -13 10 -16 6 -3 7 1 4 9 -7 18 -14 21 -14 7z"/>
<path d="M1019 2873 c-13 -16 -12 -17 4 -4 9 7 17 15 17 17 0 8 -8 3 -21 -13z"/>
<path d="M4420 2829 c0 -5 -4 -8 -8 -5 -4 2 -14 0 -22 -5 -11 -7 -9 -8 9 -6
21 3 45 27 27 27 -3 0 -6 -5 -6 -11z"/>
<path d="M3050 2821 c0 -6 4 -12 8 -15 5 -3 9 1 9 9 0 8 -4 15 -9 15 -4 0 -8
-4 -8 -9z"/>
<path d="M4899 2813 c-13 -17 -13 -17 6 -3 11 8 22 16 24 17 2 2 0 3 -6 3 -6
0 -17 -8 -24 -17z"/>
<path d="M920 2800 c-9 -6 -10 -10 -3 -10 6 0 15 5 18 10 8 12 4 12 -15 0z"/>
<path d="M826 2721 c-4 -5 3 -7 14 -4 23 6 26 13 6 13 -8 0 -17 -4 -20 -9z"/>
<path d="M3039 2728 c-5 -18 -6 -38 -1 -34 7 8 12 36 6 36 -2 0 -4 -1 -5 -2z"/>
<path d="M2243 2695 c0 -8 4 -12 9 -9 5 3 6 10 3 15 -9 13 -12 11 -12 -6z"/>
<path d="M4144 2685 c-10 -8 -14 -15 -7 -15 6 0 15 5 18 10 4 6 11 7 17 4 7
-4 8 -2 4 4 -9 15 -8 15 -32 -3z"/>
<path d="M4436 2682 c-3 -5 1 -9 9 -9 8 0 12 4 9 9 -3 4 -7 8 -9 8 -2 0 -6 -4
-9 -8z"/>
<path d="M770 2660 c0 -5 5 -10 11 -10 5 0 7 5 4 10 -3 6 -8 10 -11 10 -2 0
-4 -4 -4 -10z"/>
<path d="M4082 2644 c-7 -8 -8 -14 -3 -14 10 0 25 19 20 25 -2 1 -10 -3 -17
-11z"/>
<path d="M753 2645 c4 -5 -5 -17 -20 -27 -16 -10 -23 -18 -18 -18 6 0 21 9 34
19 19 14 21 20 10 26 -8 5 -11 4 -6 0z"/>
<path d="M2512 2641 c-11 -7 -11 -9 0 -14 9 -3 15 1 15 9 0 8 -1 14 -1 14 -1
0 -7 -4 -14 -9z"/>
<path d="M2756 2638 c3 -5 10 -6 15 -3 13 9 11 12 -6 12 -8 0 -12 -4 -9 -9z"/>
<path d="M2830 2625 c0 -7 30 -13 34 -7 3 4 -4 9 -15 9 -10 1 -19 0 -19 -2z"/>
<path d="M2415 2611 c-3 -5 -2 -12 3 -15 5 -3 9 1 9 9 0 17 -3 19 -12 6z"/>
<path d="M4025 2610 c-4 -6 -10 -8 -15 -5 -5 3 -11 1 -14 -4 -8 -13 22 -7 36
7 7 7 9 12 6 12 -4 0 -10 -5 -13 -10z"/>
<path d="M2300 2600 c0 -5 5 -10 11 -10 5 0 7 5 4 10 -3 6 -8 10 -11 10 -2 0
-4 -4 -4 -10z"/>
<path d="M4423 2595 c0 -8 4 -12 9 -9 5 3 6 10 3 15 -9 13 -12 11 -12 -6z"/>
<path d="M2962 2581 c-11 -7 -11 -9 0 -14 9 -3 15 1 15 9 0 8 -1 14 -1 14 -1
0 -7 -4 -14 -9z"/>
<path d="M4725 2570 c-3 -6 1 -7 9 -4 18 7 21 14 7 14 -6 0 -13 -4 -16 -10z"/>
<path d="M4410 2541 c0 -7 -4 -9 -10 -6 -6 4 -7 -1 -3 -11 6 -15 7 -15 15 1 6
9 7 19 4 22 -3 4 -6 1 -6 -6z"/>
<path d="M4650 2495 c-11 -13 -10 -14 4 -9 9 3 16 10 16 15 0 13 -6 11 -20 -6z"/>
<path d="M620 2490 c-9 -6 -10 -10 -3 -10 6 0 15 5 18 10 8 12 4 12 -15 0z"/>
<path d="M3780 2480 c-9 -6 -10 -10 -3 -10 6 0 15 5 18 10 8 12 4 12 -15 0z"/>
<path d="M4371 2473 c4 -21 -2 -34 -13 -27 -7 5 -8 3 -3 -6 5 -8 2 -18 -9 -26
-9 -6 -13 -15 -8 -18 5 -3 19 12 31 34 14 25 18 41 11 45 -6 4 -10 3 -9 -2z"/>
<path d="M590 2459 c0 -5 5 -7 10 -4 6 3 10 8 10 11 0 2 -4 4 -10 4 -5 0 -10
-5 -10 -11z"/>
<path d="M4616 2461 c-3 -5 2 -15 12 -22 15 -12 16 -12 5 2 -7 9 -10 19 -6 22
3 4 4 7 0 7 -3 0 -8 -4 -11 -9z"/>
<path d="M533 2405 c4 -5 0 -19 -9 -33 -9 -13 -11 -21 -5 -18 21 13 32 44 19
52 -7 4 -10 3 -5 -1z"/>
<path d="M4535 2399 c-4 -6 -4 -13 -1 -16 3 -4 6 -1 6 6 0 7 5 9 12 5 7 -4 8
-3 4 4 -9 15 -13 15 -21 1z"/>
<path d="M3565 2389 c-4 -6 -5 -12 -2 -15 2 -3 7 2 10 11 7 17 1 20 -8 4z"/>
<path d="M4495 2369 c-4 -6 -5 -12 -2 -15 2 -3 7 2 10 11 7 17 1 20 -8 4z"/>
<path d="M4440 2320 c-6 -11 -8 -20 -6 -20 3 0 10 9 16 20 6 11 8 20 6 20 -3
0 -10 -9 -16 -20z"/>
<path d="M461 2312 c-7 -13 -6 -19 2 -19 7 0 13 9 13 19 0 10 -1 18 -3 18 -1
0 -7 -8 -12 -18z"/>
<path d="M3375 2301 c-6 -5 -17 -11 -25 -13 -8 -2 -21 -9 -29 -16 -11 -11 -11
-16 -1 -25 10 -9 11 -9 6 0 -4 7 5 18 23 28 16 8 33 19 36 25 8 13 2 13 -10 1z"/>
<path d="M441 2271 c-8 -5 -9 -11 -3 -15 5 -3 12 1 16 9 6 17 6 18 -13 6z"/>
<path d="M405 2213 c-5 -10 -9 -20 -9 -23 -1 -3 -5 -12 -11 -20 -8 -13 -7 -13
8 -1 10 8 15 16 12 19 -3 3 0 11 7 19 6 7 9 16 6 19 -3 3 -9 -3 -13 -13z"/>
<path d="M3303 2215 c-3 -9 -3 -19 1 -22 3 -4 6 1 6 11 0 10 5 14 12 10 7 -4
8 -3 4 4 -10 16 -15 15 -23 -3z"/>
<path d="M313 1985 c0 -8 4 -12 9 -9 5 3 6 10 3 15 -9 13 -12 11 -12 -6z"/>
<path d="M303 1885 c0 -8 4 -15 9 -15 4 0 8 4 8 9 0 6 -4 12 -8 15 -5 3 -9 -1
-9 -9z"/>
<path d="M4684 1834 c-18 -14 -18 -15 4 -4 12 6 22 13 22 15 0 8 -5 6 -26 -11z"/>
<path d="M4628 1814 c-38 -20 -36 -28 2 -9 17 9 30 18 30 20 0 7 -1 6 -32 -11z"/>
<path d="M4450 1746 c4 -4 16 -4 26 2 16 9 14 10 -8 9 -15 -1 -23 -6 -18 -11z"/>
<path d="M1900 1740 c8 -5 20 -10 25 -10 6 0 3 5 -5 10 -8 5 -19 10 -25 10 -5
0 -3 -5 5 -10z"/>
<path d="M4333 1725 c-9 -10 -6 -12 13 -12 13 0 29 7 36 16 12 14 11 15 -5 2
-13 -10 -21 -11 -25 -4 -5 7 -11 7 -19 -2z"/>
<path d="M3536 1713 c-6 -14 -5 -15 5 -6 7 7 10 15 7 18 -3 3 -9 -2 -12 -12z"/>
<path d="M4716 1722 c-3 -5 1 -9 9 -9 8 0 12 4 9 9 -3 4 -7 8 -9 8 -2 0 -6 -4
-9 -8z"/>
<path d="M4210 1695 c-11 -13 -10 -14 4 -9 9 3 16 10 16 15 0 13 -6 11 -20 -6z"/>
<path d="M4693 1695 c0 -8 4 -12 9 -9 5 3 6 10 3 15 -9 13 -12 11 -12 -6z"/>
<path d="M3558 1693 c7 -3 16 -2 19 1 4 3 -2 6 -13 5 -11 0 -14 -3 -6 -6z"/>
<path d="M1670 1680 c0 -5 7 -7 15 -4 8 4 15 8 15 10 0 2 -7 4 -15 4 -8 0 -15
-4 -15 -10z"/>
<path d="M3817 1679 c7 -7 15 -10 18 -7 3 3 -2 9 -12 12 -14 6 -15 5 -6 -5z"/>
<path d="M3855 1680 c-11 -18 26 -24 41 -6 8 9 9 11 2 6 -16 -13 -41 -13 -33
0 3 6 4 10 1 10 -3 0 -8 -5 -11 -10z"/>
<path d="M3937 1683 c-10 -9 -9 -23 1 -23 5 0 9 7 9 15 0 17 -1 18 -10 8z"/>
<path d="M434 1666 c1 -8 5 -18 8 -22 4 -3 5 1 4 10 -1 8 -5 18 -8 22 -4 3 -5
-1 -4 -10z"/>
<path d="M2096 1647 c3 -10 9 -15 12 -12 3 3 0 11 -7 18 -10 9 -11 8 -5 -6z"/>
<path d="M1486 1642 c-3 -5 1 -9 9 -9 8 0 12 4 9 9 -3 4 -7 8 -9 8 -2 0 -6 -4
-9 -8z"/>
<path d="M4610 1639 c0 -5 5 -7 10 -4 6 3 10 8 10 11 0 2 -4 4 -10 4 -5 0 -10
-5 -10 -11z"/>
<path d="M476 1631 c6 -6 21 -13 34 -16 12 -2 21 -3 19 -1 -2 3 -8 5 -14 6 -5
1 -19 7 -30 12 -15 8 -17 8 -9 -1z"/>
<path d="M1366 1603 c-6 -14 -5 -15 5 -6 7 7 10 15 7 18 -3 3 -9 -2 -12 -12z"/>
<path d="M2117 1603 c3 -7 6 -13 8 -13 2 0 5 6 8 13 3 8 -1 14 -8 14 -7 0 -11
-6 -8 -14z"/>
<path d="M1275 1600 c-3 -5 -1 -10 4 -10 6 0 11 5 11 10 0 6 -2 10 -4 10 -3 0
-8 -4 -11 -10z"/>
<path d="M4500 1585 c-7 -8 -17 -12 -23 -8 -6 3 -7 1 -3 -6 6 -8 12 -9 20 -2
7 6 15 9 18 6 2 -3 5 2 5 10 0 19 -2 19 -17 0z"/>
<path d="M816 1558 c3 -5 10 -6 15 -3 13 9 11 12 -6 12 -8 0 -12 -4 -9 -9z"/>
<path d="M850 1561 c0 -6 4 -13 10 -16 6 -3 7 1 4 9 -7 18 -14 21 -14 7z"/>
<path d="M930 1561 c0 -6 4 -13 10 -16 6 -3 7 1 4 9 -7 18 -14 21 -14 7z"/>
<path d="M4445 1560 c-3 -5 -1 -10 4 -10 6 0 11 5 11 10 0 6 -2 10 -4 10 -3 0
-8 -4 -11 -10z"/>
<path d="M4395 1520 c3 -5 8 -10 11 -10 2 0 4 5 4 10 0 6 -5 10 -11 10 -5 0
-7 -4 -4 -10z"/>
<path d="M4345 1509 c-4 -6 -4 -13 -1 -16 3 -4 6 -1 6 6 0 7 5 9 12 5 7 -4 8
-3 4 4 -9 15 -13 15 -21 1z"/>
<path d="M2235 1491 c-3 -5 -2 -12 3 -15 5 -3 9 1 9 9 0 17 -3 19 -12 6z"/>
<path d="M2310 1431 c0 -6 4 -12 8 -15 5 -3 9 1 9 9 0 8 -4 15 -9 15 -4 0 -8
-4 -8 -9z"/>
<path d="M4110 1420 c0 -5 7 -7 15 -4 8 4 15 8 15 10 0 2 -7 4 -15 4 -8 0 -15
-4 -15 -10z"/>
<path d="M4045 1400 c3 -5 11 -10 16 -10 6 0 7 5 4 10 -3 6 -11 10 -16 10 -6
0 -7 -4 -4 -10z"/>
<path d="M2929 1383 c-13 -17 -13 -17 6 -3 11 8 22 16 24 17 2 2 0 3 -6 3 -6
0 -17 -8 -24 -17z"/>
<path d="M2375 1380 c-3 -6 1 -7 9 -4 18 7 21 14 7 14 -6 0 -13 -4 -16 -10z"/>
<path d="M3047 1369 c4 -13 8 -18 11 -10 2 7 -1 18 -6 23 -8 8 -9 4 -5 -13z"/>
<path d="M3110 1366 c0 -2 9 -6 20 -9 11 -3 18 -1 14 4 -5 9 -34 13 -34 5z"/>
<path d="M3930 1359 c0 -5 5 -7 10 -4 6 3 10 8 10 11 0 2 -4 4 -10 4 -5 0 -10
-5 -10 -11z"/>
<path d="M2490 1356 c0 -2 7 -7 16 -10 8 -3 12 -2 9 4 -6 10 -25 14 -25 6z"/>
<path d="M2530 1339 c0 -5 5 -7 10 -4 6 3 10 8 10 11 0 2 -4 4 -10 4 -5 0 -10
-5 -10 -11z"/>
<path d="M3270 1342 c0 -4 10 -9 22 -9 18 -2 20 0 8 7 -18 12 -30 13 -30 2z"/>
<path d="M3700 1340 c-9 -6 -10 -10 -3 -10 6 0 15 5 18 10 8 12 4 12 -15 0z"/>
<path d="M3730 1339 c0 -5 5 -7 10 -4 6 3 10 8 10 11 0 2 -4 4 -10 4 -5 0 -10
-5 -10 -11z"/>
<path d="M3451 1324 c0 -11 3 -14 6 -6 3 7 2 16 -1 19 -3 4 -6 -2 -5 -13z"/>
<path d="M3501 1331 c-8 -5 -9 -11 -3 -15 5 -3 12 1 16 9 6 17 6 18 -13 6z"/>
<path d="M3551 1324 c0 -11 3 -14 6 -6 3 7 2 16 -1 19 -3 4 -6 -2 -5 -13z"/>
<path d="M3600 1330 c-9 -6 -10 -10 -3 -10 6 0 15 5 18 10 8 12 4 12 -15 0z"/>
<path d="M3335 1320 c3 -5 8 -10 11 -10 2 0 4 5 4 10 0 6 -5 10 -11 10 -5 0
-7 -4 -4 -10z"/>
</g>
</svg>
