<svg xmlns="http://www.w3.org/2000/svg" width="960" height="360" viewBox="0 0 960 360" role="img" aria-labelledby="title desc">
  <title id="title">active ethereum instances</title>
  <desc id="desc">Line chart for SekaiCTF 2026 telemetry over one weekend.</desc>
  <rect width="100%" height="100%" fill="#ffffff"/>
  <rect x="74" y="56" width="858" height="252" fill="#f9fafb" stroke="#d1d5db"/>
  <text x="74" y="30" font-size="20" font-weight="700" fill="#111827">active ethereum instances</text>
  <line x1="74" y1="308.0" x2="932" y2="308.0" stroke="#e5e7eb" stroke-width="1"/><text x="62" y="312.0" text-anchor="end" font-size="12" fill="#4b5563">0</text><line x1="74" y1="257.6" x2="932" y2="257.6" stroke="#e5e7eb" stroke-width="1"/><text x="62" y="261.6" text-anchor="end" font-size="12" fill="#4b5563">18</text><line x1="74" y1="207.2" x2="932" y2="207.2" stroke="#e5e7eb" stroke-width="1"/><text x="62" y="211.2" text-anchor="end" font-size="12" fill="#4b5563">36</text><line x1="74" y1="156.8" x2="932" y2="156.8" stroke="#e5e7eb" stroke-width="1"/><text x="62" y="160.8" text-anchor="end" font-size="12" fill="#4b5563">54</text><line x1="74" y1="106.4" x2="932" y2="106.4" stroke="#e5e7eb" stroke-width="1"/><text x="62" y="110.4" text-anchor="end" font-size="12" fill="#4b5563">72</text><line x1="74" y1="56.0" x2="932" y2="56.0" stroke="#e5e7eb" stroke-width="1"/><text x="62" y="60.0" text-anchor="end" font-size="12" fill="#4b5563">90</text><line x1="74.0" y1="56" x2="74.0" y2="308" stroke="#f3f4f6" stroke-width="1"/><text x="74.0" y="342" text-anchor="middle" font-size="12" fill="#4b5563">0h</text><line x1="279.9" y1="56" x2="279.9" y2="308" stroke="#f3f4f6" stroke-width="1"/><text x="279.9" y="342" text-anchor="middle" font-size="12" fill="#4b5563">12h</text><line x1="485.8" y1="56" x2="485.8" y2="308" stroke="#f3f4f6" stroke-width="1"/><text x="485.8" y="342" text-anchor="middle" font-size="12" fill="#4b5563">24h</text><line x1="691.8" y1="56" x2="691.8" y2="308" stroke="#f3f4f6" stroke-width="1"/><text x="691.8" y="342" text-anchor="middle" font-size="12" fill="#4b5563">36h</text><line x1="897.7" y1="56" x2="897.7" y2="308" stroke="#f3f4f6" stroke-width="1"/><text x="897.7" y="342" text-anchor="middle" font-size="12" fill="#4b5563">48h</text>
  <line x1="91.2" y1="56" x2="91.2" y2="308" stroke="#f97316" stroke-width="1.5" stroke-dasharray="5 5"/><text x="95.2" y="46" font-size="12" fill="#9a3412">CTF start</text><line x1="511.6" y1="56" x2="511.6" y2="308" stroke="#f97316" stroke-width="1.5" stroke-dasharray="5 5"/><text x="515.6" y="46" font-size="12" fill="#9a3412">wave 2</text><line x1="914.8" y1="56" x2="914.8" y2="308" stroke="#f97316" stroke-width="1.5" stroke-dasharray="5 5"/><text x="918.8" y="46" font-size="12" fill="#9a3412">CTF end</text>
  <polyline fill="none" stroke="#9333ea" stroke-width="2.25" stroke-linejoin="round" stroke-linecap="round" points="75.4,308.0 76.9,308.0 78.3,308.0 79.7,308.0 81.2,308.0 82.6,308.0 84.0,308.0 85.4,308.0 86.9,308.0 88.3,308.0 89.7,308.0 91.2,308.0 92.6,285.6 94.0,201.6 95.5,140.0 96.9,106.4 98.3,86.8 99.7,89.6 101.2,92.4 102.6,114.8 104.0,134.4 105.5,123.2 106.9,154.0 108.3,165.2 109.8,190.4 111.2,201.6 112.6,204.4 114.0,198.8 115.5,190.4 116.9,196.0 118.3,198.8 119.8,207.2 121.2,218.4 122.6,204.4 124.0,196.0 125.5,196.0 126.9,207.2 128.3,212.8 129.8,212.8 131.2,212.8 132.6,207.2 134.1,210.0 135.5,224.0 136.9,240.8 138.3,240.8 139.8,254.8 141.2,257.6 142.6,246.4 144.1,252.0 145.5,254.8 146.9,268.8 148.4,263.2 149.8,263.2 151.2,266.0 152.7,271.6 154.1,280.0 155.5,280.0 156.9,268.8 158.4,266.0 159.8,268.8 161.2,268.8 162.7,266.0 164.1,285.6 165.5,277.2 166.9,282.8 168.4,274.4 169.8,268.8 171.2,268.8 172.7,268.8 174.1,271.6 175.5,268.8 177.0,268.8 178.4,252.0 179.8,260.4 181.2,266.0 182.7,274.4 184.1,282.8 185.5,263.2 187.0,260.4 188.4,266.0 189.8,263.2 191.3,254.8 192.7,257.6 194.1,254.8 195.6,254.8 197.0,260.4 198.4,263.2 199.8,254.8 201.3,263.2 202.7,268.8 204.1,257.6 205.6,257.6 207.0,260.4 208.4,260.4 209.8,268.8 211.3,266.0 212.7,274.4 214.1,271.6 215.6,277.2 217.0,271.6 218.4,268.8 219.9,280.0 221.3,280.0 222.7,282.8 224.2,285.6 225.6,282.8 227.0,285.6 228.4,285.6 229.9,280.0 231.3,285.6 232.7,282.8 234.2,274.4 235.6,268.8 237.0,268.8 238.4,268.8 239.9,271.6 241.3,274.4 242.7,271.6 244.2,274.4 245.6,274.4 247.0,280.0 248.5,280.0 249.9,282.8 251.3,277.2 252.8,277.2 254.2,282.8 255.6,282.8 257.0,288.4 258.5,282.8 259.9,285.6 261.3,288.4 262.8,291.2 264.2,285.6 265.6,288.4 267.1,288.4 268.5,285.6 269.9,291.2 271.3,288.4 272.8,285.6 274.2,285.6 275.6,282.8 277.1,285.6 278.5,282.8 279.9,282.8 281.4,285.6 282.8,277.2 284.2,274.4 285.6,274.4 287.1,280.0 288.5,282.8 289.9,280.0 291.4,280.0 292.8,274.4 294.2,277.2 295.6,285.6 297.1,291.2 298.5,294.0 299.9,288.4 301.4,291.2 302.8,296.8 304.2,288.4 305.7,288.4 307.1,285.6 308.5,285.6 309.9,288.4 311.4,291.2 312.8,291.2 314.2,288.4 315.7,288.4 317.1,288.4 318.5,291.2 320.0,291.2 321.4,291.2 322.8,294.0 324.2,294.0 325.7,291.2 327.1,299.6 328.5,299.6 330.0,296.8 331.4,302.4 332.8,302.4 334.3,302.4 335.7,302.4 337.1,296.8 338.6,296.8 340.0,294.0 341.4,291.2 342.8,302.4 344.3,302.4 345.7,305.2 347.1,302.4 348.6,299.6 350.0,299.6 351.4,296.8 352.9,296.8 354.3,299.6 355.7,299.6 357.1,296.8 358.6,296.8 360.0,296.8 361.4,294.0 362.9,296.8 364.3,296.8 365.7,299.6 367.1,299.6 368.6,299.6 370.0,302.4 371.4,302.4 372.9,302.4 374.3,305.2 375.7,299.6 377.2,299.6 378.6,291.2 380.0,294.0 381.4,296.8 382.9,296.8 384.3,296.8 385.7,299.6 387.2,302.4 388.6,302.4 390.0,302.4 391.5,296.8 392.9,294.0 394.3,291.2 395.8,294.0 397.2,299.6 398.6,302.4 400.0,296.8 401.5,302.4 402.9,299.6 404.3,299.6 405.8,302.4 407.2,305.2 408.6,305.2 410.1,305.2 411.5,302.4 412.9,302.4 414.3,305.2 415.8,305.2 417.2,302.4 418.6,299.6 420.1,296.8 421.5,294.0 422.9,285.6 424.4,291.2 425.8,294.0 427.2,299.6 428.6,305.2 430.1,305.2 431.5,305.2 432.9,305.2 434.4,308.0 435.8,308.0 437.2,305.2 438.6,302.4 440.1,302.4 441.5,305.2 442.9,305.2 444.4,308.0 445.8,302.4 447.2,302.4 448.7,305.2 450.1,302.4 451.5,299.6 452.9,302.4 454.4,299.6 455.8,299.6 457.2,299.6 458.7,299.6 460.1,302.4 461.5,305.2 463.0,305.2 464.4,299.6 465.8,296.8 467.2,299.6 468.7,296.8 470.1,305.2 471.5,305.2 473.0,305.2 474.4,302.4 475.8,302.4 477.3,302.4 478.7,302.4 480.1,302.4 481.6,302.4 483.0,302.4 484.4,299.6 485.8,299.6 487.3,296.8 488.7,294.0 490.1,294.0 491.6,294.0 493.0,296.8 494.4,302.4 495.9,296.8 497.3,296.8 498.7,294.0 500.1,288.4 501.6,288.4 503.0,291.2 504.4,263.2 505.9,224.0 507.3,198.8 508.7,170.8 510.1,162.4 511.6,193.2 513.0,187.6 514.4,190.4 515.9,196.0 517.3,218.4 518.7,240.8 520.2,229.6 521.6,226.8 523.0,232.4 524.5,235.2 525.9,212.8 527.3,212.8 528.7,221.2 530.2,226.8 531.6,252.0 533.0,249.2 534.5,249.2 535.9,243.6 537.3,238.0 538.8,243.6 540.2,243.6 541.6,246.4 543.0,254.8 544.5,246.4 545.9,254.8 547.3,263.2 548.8,271.6 550.2,277.2 551.6,274.4 553.0,268.8 554.5,271.6 555.9,268.8 557.3,266.0 558.8,266.0 560.2,277.2 561.6,285.6 563.1,285.6 564.5,268.8 565.9,268.8 567.4,268.8 568.8,277.2 570.2,280.0 571.6,274.4 573.1,271.6 574.5,280.0 575.9,282.8 577.4,291.2 578.8,291.2 580.2,291.2 581.6,291.2 583.1,294.0 584.5,294.0 585.9,285.6 587.4,285.6 588.8,288.4 590.2,285.6 591.7,285.6 593.1,285.6 594.5,288.4 596.0,285.6 597.4,282.8 598.8,277.2 600.2,277.2 601.7,280.0 603.1,280.0 604.5,277.2 606.0,274.4 607.4,271.6 608.8,268.8 610.2,268.8 611.7,263.2 613.1,271.6 614.5,274.4 616.0,285.6 617.4,291.2 618.8,282.8 620.3,282.8 621.7,280.0 623.1,277.2 624.5,288.4 626.0,282.8 627.4,291.2 628.8,294.0 630.3,296.8 631.7,285.6 633.1,282.8 634.6,282.8 636.0,274.4 637.4,280.0 638.9,282.8 640.3,288.4 641.7,291.2 643.1,294.0 644.6,291.2 646.0,288.4 647.4,288.4 648.9,280.0 650.3,277.2 651.7,274.4 653.1,280.0 654.6,282.8 656.0,288.4 657.4,299.6 658.9,291.2 660.3,285.6 661.7,285.6 663.2,288.4 664.6,291.2 666.0,296.8 667.5,299.6 668.9,299.6 670.3,305.2 671.7,305.2 673.2,302.4 674.6,296.8 676.0,294.0 677.5,294.0 678.9,294.0 680.3,296.8 681.8,291.2 683.2,294.0 684.6,291.2 686.0,288.4 687.5,294.0 688.9,296.8 690.3,296.8 691.8,296.8 693.2,299.6 694.6,296.8 696.0,299.6 697.5,296.8 698.9,299.6 700.3,302.4 701.8,302.4 703.2,302.4 704.6,299.6 706.1,299.6 707.5,302.4 708.9,302.4 710.4,302.4 711.8,305.2 713.2,305.2 714.6,305.2 716.1,308.0 717.5,308.0 718.9,308.0 720.4,308.0 721.8,308.0 723.2,305.2 724.6,299.6 726.1,302.4 727.5,294.0 728.9,296.8 730.4,302.4 731.8,302.4 733.2,302.4 734.7,302.4 736.1,299.6 737.5,299.6 739.0,302.4 740.4,302.4 741.8,299.6 743.2,299.6 744.7,305.2 746.1,302.4 747.5,305.2 749.0,305.2 750.4,299.6 751.8,299.6 753.2,294.0 754.7,294.0 756.1,291.2 757.5,294.0 759.0,294.0 760.4,296.8 761.8,299.6 763.3,302.4 764.7,302.4 766.1,302.4 767.5,302.4 769.0,299.6 770.4,296.8 771.8,296.8 773.3,299.6 774.7,305.2 776.1,302.4 777.6,299.6 779.0,296.8 780.4,296.8 781.9,299.6 783.3,305.2 784.7,302.4 786.1,302.4 787.6,299.6 789.0,299.6 790.4,299.6 791.9,305.2 793.3,308.0 794.7,308.0 796.1,308.0 797.6,305.2 799.0,305.2 800.4,305.2 801.9,305.2 803.3,308.0 804.7,308.0 806.2,308.0 807.6,308.0 809.0,308.0 810.5,302.4 811.9,305.2 813.3,305.2 814.7,302.4 816.2,302.4 817.6,302.4 819.0,299.6 820.5,302.4 821.9,302.4 823.3,302.4 824.8,299.6 826.2,296.8 827.6,294.0 829.0,296.8 830.5,299.6 831.9,305.2 833.3,302.4 834.8,302.4 836.2,302.4 837.6,299.6 839.0,305.2 840.5,305.2 841.9,299.6 843.3,299.6 844.8,296.8 846.2,302.4 847.6,302.4 849.1,302.4 850.5,305.2 851.9,302.4 853.4,299.6 854.8,294.0 856.2,291.2 857.6,288.4 859.1,288.4 860.5,285.6 861.9,288.4 863.4,288.4 864.8,285.6 866.2,285.6 867.6,291.2 869.1,291.2 870.5,294.0 871.9,296.8 873.4,296.8 874.8,299.6 876.2,296.8 877.7,291.2 879.1,294.0 880.5,294.0 882.0,299.6 883.4,299.6 884.8,296.8 886.2,291.2 887.7,291.2 889.1,291.2 890.5,291.2 892.0,296.8 893.4,299.6 894.8,302.4 896.2,299.6 897.7,294.0 899.1,296.8 900.5,296.8 902.0,296.8 903.4,288.4 904.8,291.2 906.3,291.2 907.7,294.0 909.1,296.8 910.5,296.8 912.0,296.8 913.4,294.0 914.8,299.6 916.3,302.4 917.7,302.4 919.1,308.0 920.6,305.2 922.0,302.4 923.4,305.2 924.9,305.2 926.3,305.2 927.7,308.0 929.1,308.0 930.6,308.0 932.0,308.0"/>
  <circle cx="98.3" cy="86.8" r="4" fill="#dc2626"/><text x="108.3" y="76.8" font-size="12" font-weight="600" fill="#991b1b">peak 79 instances</text>
  <text x="503.0" y="356" text-anchor="middle" font-size="12" fill="#6b7280">hours since telemetry start</text>
</svg>
