<svg height="280" width="860" xmlns="http://www.w3.org/2000/svg" viewBox="0 0 860 280" class="chart-svg" role="img" aria-label="active instances">

  <style>
    .grid {
      stroke: #b4b4aa;
      vector-effect: non-scaling-stroke;
      opacity: 0.5;
    }
    .axis {
      fill: #78786e;
      font-family: monospace;
      font-size: 12px;
    }
    .area {
      opacity: 0.12;
    }
    .line {
      stroke-width: 1.6;
      stroke-linejoin: round;
      stroke-linecap: round;
      vector-effect: non-scaling-stroke;
    }
    .event {
      stroke: #1e1e1e;
      stroke-dasharray: 3 3;
      vector-effect: non-scaling-stroke;
      opacity: 0.55;
    }
    .event-label,
    .peak-label,
    .spike-label {
      fill: #1e1e1e;
      font-family: monospace;
      font-size: 12px;
      font-weight: 600;
    }
  </style>
  <title>active instances</title>
  <rect x="0.5" y="0.5" width="859" height="279" fill="#fafaf5" stroke="#b4b4aa"/>

 <g>
 <line class="grid" x1="48" x2="844" y1="254" y2="254"></line>
 <text class="axis" x="41" y="254" dy="0.32em" text-anchor="end">0</text>
 </g><g>
 <line class="grid" x1="48" x2="844" y1="210.15384615384616" y2="210.15384615384616"></line>
 <text class="axis" x="41" y="210.15384615384616" dy="0.32em" text-anchor="end">50</text>
 </g><g>
 <line class="grid" x1="48" x2="844" y1="166.30769230769232" y2="166.30769230769232"></line>
 <text class="axis" x="41" y="166.30769230769232" dy="0.32em" text-anchor="end">100</text>
 </g><g>
 <line class="grid" x1="48" x2="844" y1="122.46153846153848" y2="122.46153846153848"></line>
 <text class="axis" x="41" y="122.46153846153848" dy="0.32em" text-anchor="end">150</text>
 </g><g>
 <line class="grid" x1="48" x2="844" y1="78.61538461538461" y2="78.61538461538461"></line>
 <text class="axis" x="41" y="78.61538461538461" dy="0.32em" text-anchor="end">200</text>
 </g><g>
 <line class="grid" x1="48" x2="844" y1="34.76923076923076" y2="34.76923076923076"></line>
 <text class="axis" x="41" y="34.76923076923076" dy="0.32em" text-anchor="end">250</text>
 </g>
 <text class="axis" x="318.64000000000004" y="272" text-anchor="middle">06-28</text><text class="axis" x="700.7199999999999" y="272" text-anchor="middle">06-29</text>
 <path d="M49.327,253.123L50.653,253.123L51.98,253.123L53.307,253.123L54.633,253.123L55.96,253.123L57.287,253.123L58.613,253.123L59.94,253.123L61.267,252.246L62.593,252.246L63.92,252.246L65.247,236.462L66.573,202.262L67.9,183.846L69.227,183.846L70.553,182.092L71.88,114.569L73.207,98.785L74.533,97.031L75.86,92.646L77.187,83.877L78.513,77.738L79.84,69.846L81.167,75.985L82.493,71.6L83.82,73.354L85.147,75.108L86.473,78.615L87.8,75.108L89.127,75.985L90.453,69.846L91.78,83.877L93.107,83.877L94.433,88.262L95.76,90.892L97.087,84.754L98.413,87.385L99.74,88.262L101.067,83L102.393,91.769L103.72,96.154L105.047,102.292L106.373,103.169L107.7,103.169L109.027,110.185L110.353,111.062L111.68,106.677L113.007,112.815L114.333,116.323L115.66,119.831L116.987,121.585L118.313,125.092L119.64,130.354L120.967,137.369L122.293,135.615L123.62,130.354L124.947,125.969L126.273,132.108L127.6,135.615L128.927,133.862L130.253,132.985L131.58,132.108L132.907,137.369L134.233,140L135.56,135.615L136.887,139.123L138.213,142.631L139.54,145.262L140.867,145.262L142.193,148.769L143.52,142.631L144.847,144.385L146.173,135.615L147.5,137.369L148.827,133.862L150.153,128.6L151.48,131.231L152.807,128.6L154.133,125.092L155.46,130.354L156.787,125.969L158.113,122.462L159.44,127.723L160.767,128.6L162.093,127.723L163.42,127.723L164.747,127.723L166.073,122.462L167.4,128.6L168.727,121.585L170.053,125.969L171.38,133.862L172.707,137.369L174.033,144.385L175.36,148.769L176.687,146.138L178.013,149.646L179.34,146.138L180.667,140.877L181.993,140L183.32,144.385L184.647,144.385L185.973,143.508L187.3,142.631L188.627,137.369L189.953,138.246L191.28,140L192.607,137.369L193.933,138.246L195.26,144.385L196.587,146.138L197.913,154.908L199.24,152.277L200.567,151.4L201.893,147.892L203.22,146.138L204.547,143.508L205.873,143.508L207.2,148.769L208.527,151.4L209.853,150.523L211.18,156.662L212.507,158.415L213.833,155.785L215.16,160.169L216.487,158.415L217.813,161.923L219.14,156.662L220.467,150.523L221.793,154.031L223.12,158.415L224.447,155.785L225.773,156.662L227.1,161.046L228.427,168.062L229.753,167.185L231.08,165.431L232.407,164.554L233.733,168.938L235.06,170.692L236.387,171.569L237.713,181.215L239.04,173.323L240.367,170.692L241.693,172.446L243.02,175.077L244.347,172.446L245.673,173.323L247,171.569L248.327,178.585L249.653,176.831L250.98,176.831L252.307,180.338L253.633,178.585L254.96,181.215L256.287,182.969L257.613,190.862L258.94,196.123L260.267,190.862L261.593,190.862L262.92,195.246L264.247,190.862L265.573,189.108L266.9,189.985L268.227,186.477L269.553,189.985L270.88,190.862L272.207,192.615L273.533,193.492L274.86,197.877L276.187,194.369L277.513,199.631L278.84,200.508L280.167,199.631L281.493,200.508L282.82,198.754L284.147,201.385L285.473,204.015L286.8,201.385L288.127,198.754L289.453,198.754L290.78,197L292.107,198.754L293.433,202.262L294.76,203.138L296.087,200.508L297.413,204.015L298.74,204.892L300.067,200.508L301.393,199.631L302.72,200.508L304.047,200.508L305.373,197.877L306.7,200.508L308.027,204.892L309.353,205.769L310.68,206.646L312.007,204.015L313.333,199.631L314.66,199.631L315.987,198.754L317.313,197.877L318.64,194.369L319.967,196.123L321.293,197L322.62,196.123L323.947,196.123L325.273,194.369L326.6,194.369L327.927,195.246L329.253,193.492L330.58,191.738L331.907,190.862L333.233,191.738L334.56,190.862L335.887,185.6L337.213,189.985L338.54,189.108L339.867,191.738L341.193,194.369L342.52,190.862L343.847,189.985L345.173,192.615L346.5,190.862L347.827,189.108L349.153,187.354L350.48,184.723L351.807,188.231L353.133,188.231L354.46,188.231L355.787,196.123L357.113,188.231L358.44,188.231L359.767,188.231L361.093,185.6L362.42,184.723L363.747,182.969L365.073,182.092L366.4,192.615L367.727,192.615L369.053,186.477L370.38,188.231L371.707,182.969L373.033,181.215L374.36,185.6L375.687,189.108L377.013,188.231L378.34,189.108L379.667,188.231L380.993,189.985L382.32,189.108L383.647,190.862L384.973,188.231L386.3,188.231L387.627,187.354L388.953,190.862L390.28,192.615L391.607,192.615L392.933,189.985L394.26,188.231L395.587,186.477L396.913,188.231L398.24,183.846L399.567,182.969L400.893,183.846L402.22,184.723L403.547,182.092L404.873,182.092L406.2,182.092L407.527,185.6L408.853,186.477L410.18,185.6L411.507,187.354L412.833,189.108L414.16,194.369L415.487,194.369L416.813,189.108L418.14,186.477L419.467,184.723L420.793,188.231L422.12,183.846L423.447,178.585L424.773,180.338L426.1,182.092L427.427,182.969L428.753,181.215L430.08,182.092L431.407,183.846L432.733,179.462L434.06,174.2L435.387,171.569L436.713,167.185L438.04,169.815L439.367,167.185L440.693,175.954L442.02,179.462L443.347,178.585L444.673,183.846L446,182.092L447.327,178.585L448.653,175.077L449.98,174.2L451.307,172.446L452.633,155.785L453.96,152.277L455.287,148.769L456.613,142.631L457.94,150.523L459.267,151.4L460.593,152.277L461.92,167.185L463.247,168.062L464.573,171.569L465.9,173.323L467.227,172.446L468.553,166.308L469.88,161.923L471.207,162.8L472.533,163.677L473.86,162.8L475.187,166.308L476.513,164.554L477.84,168.938L479.167,172.446L480.493,169.815L481.82,167.185L483.147,169.815L484.473,169.815L485.8,168.062L487.127,159.292L488.453,161.046L489.78,159.292L491.107,156.662L492.433,149.646L493.76,148.769L495.087,151.4L496.413,153.154L497.74,154.031L499.067,151.4L500.393,154.031L501.72,157.538L503.047,158.415L504.373,161.046L505.7,162.8L507.027,172.446L508.353,169.815L509.68,167.185L511.007,161.923L512.333,160.169L513.66,159.292L514.987,161.046L516.313,159.292L517.64,159.292L518.967,158.415L520.293,160.169L521.62,163.677L522.947,165.431L524.273,161.923L525.6,161.046L526.927,160.169L528.253,154.031L529.58,157.538L530.907,157.538L532.233,159.292L533.56,162.8L534.887,169.815L536.213,169.815L537.54,171.569L538.867,168.938L540.193,168.938L541.52,167.185L542.847,168.062L544.173,161.046L545.5,158.415L546.827,162.8L548.153,154.031L549.48,156.662L550.807,154.908L552.133,159.292L553.46,156.662L554.787,155.785L556.113,150.523L557.44,140.877L558.767,142.631L560.093,143.508L561.42,141.754L562.747,137.369L564.073,137.369L565.4,143.508L566.727,143.508L568.053,138.246L569.38,136.492L570.707,147.892L572.033,150.523L573.36,138.246L574.687,143.508L576.013,139.123L577.34,140L578.667,135.615L579.993,138.246L581.32,136.492L582.647,132.108L583.973,131.231L585.3,140.877L586.627,140L587.953,137.369L589.28,144.385L590.607,156.662L591.933,151.4L593.26,154.031L594.587,145.262L595.913,140.877L597.24,140L598.567,145.262L599.893,145.262L601.22,147.015L602.547,145.262L603.873,147.892L605.2,147.015L606.527,154.908L607.853,149.646L609.18,150.523L610.507,149.646L611.833,148.769L613.16,144.385L614.487,149.646L615.813,154.031L617.14,155.785L618.467,164.554L619.793,166.308L621.12,169.815L622.447,173.323L623.773,168.062L625.1,167.185L626.427,166.308L627.753,157.538L629.08,162.8L630.407,173.323L631.733,167.185L633.06,167.185L634.387,166.308L635.713,171.569L637.04,176.831L638.367,166.308L639.693,165.431L641.02,166.308L642.347,166.308L643.673,161.923L645,161.046L646.327,161.923L647.653,168.062L648.98,169.815L650.307,168.938L651.633,161.923L652.96,164.554L654.287,175.954L655.613,173.323L656.94,174.2L658.267,175.077L659.593,170.692L660.92,163.677L662.247,165.431L663.573,169.815L664.9,170.692L666.227,166.308L667.553,164.554L668.88,163.677L670.207,167.185L671.533,164.554L672.86,162.8L674.187,171.569L675.513,171.569L676.84,170.692L678.167,174.2L679.493,174.2L680.82,176.831L682.147,173.323L683.473,176.831L684.8,178.585L686.127,174.2L687.453,170.692L688.78,176.831L690.107,170.692L691.433,163.677L692.76,167.185L694.087,175.954L695.413,178.585L696.74,175.077L698.067,183.846L699.393,181.215L700.72,176.831L702.047,182.969L703.373,178.585L704.7,180.338L706.027,180.338L707.353,179.462L708.68,175.077L710.007,172.446L711.333,168.062L712.66,172.446L713.987,174.2L715.313,173.323L716.64,176.831L717.967,172.446L719.293,172.446L720.62,172.446L721.947,174.2L723.273,171.569L724.6,172.446L725.927,176.831L727.253,177.708L728.58,163.677L729.907,163.677L731.233,172.446L732.56,167.185L733.887,167.185L735.213,167.185L736.54,155.785L737.867,164.554L739.193,172.446L740.52,165.431L741.847,156.662L743.173,154.908L744.5,161.046L745.827,158.415L747.153,161.923L748.48,157.538L749.807,154.908L751.133,156.662L752.46,150.523L753.787,148.769L755.113,153.154L756.44,161.046L757.767,150.523L759.093,140L760.42,142.631L761.747,146.138L763.073,145.262L764.4,140.877L765.727,147.015L767.053,132.108L768.38,136.492L769.707,144.385L771.033,140L772.36,135.615L773.687,141.754L775.013,149.646L776.34,147.015L777.667,140L778.993,141.754L780.32,148.769L781.647,144.385L782.973,144.385L784.3,146.138L785.627,143.508L786.953,132.108L788.28,125.969L789.607,125.969L790.933,122.462L792.26,123.338L793.587,125.969L794.913,132.985L796.24,141.754L797.567,138.246L798.893,135.615L800.22,143.508L801.547,138.246L802.873,134.738L804.2,132.985L805.527,132.985L806.853,138.246L808.18,128.6L809.507,122.462L810.833,118.077L812.16,123.338L813.487,122.462L814.813,125.092L816.14,125.092L817.467,121.585L818.793,127.723L820.12,132.985L821.447,134.738L822.773,129.477L824.1,128.6L825.427,136.492L826.753,147.892L828.08,161.923L829.407,183.846L830.733,194.369L832.06,197.877L833.387,208.4L834.713,221.554L836.04,227.692L837.367,236.462L838.693,237.338L840.02,237.338L841.347,239.969L842.673,241.723L844,243.477L844,254L842.673,254L841.347,254L840.02,254L838.693,254L837.367,254L836.04,254L834.713,254L833.387,254L832.06,254L830.733,254L829.407,254L828.08,254L826.753,254L825.427,254L824.1,254L822.773,254L821.447,254L820.12,254L818.793,254L817.467,254L816.14,254L814.813,254L813.487,254L812.16,254L810.833,254L809.507,254L808.18,254L806.853,254L805.527,254L804.2,254L802.873,254L801.547,254L800.22,254L798.893,254L797.567,254L796.24,254L794.913,254L793.587,254L792.26,254L790.933,254L789.607,254L788.28,254L786.953,254L785.627,254L784.3,254L782.973,254L781.647,254L780.32,254L778.993,254L777.667,254L776.34,254L775.013,254L773.687,254L772.36,254L771.033,254L769.707,254L768.38,254L767.053,254L765.727,254L764.4,254L763.073,254L761.747,254L760.42,254L759.093,254L757.767,254L756.44,254L755.113,254L753.787,254L752.46,254L751.133,254L749.807,254L748.48,254L747.153,254L745.827,254L744.5,254L743.173,254L741.847,254L740.52,254L739.193,254L737.867,254L736.54,254L735.213,254L733.887,254L732.56,254L731.233,254L729.907,254L728.58,254L727.253,254L725.927,254L724.6,254L723.273,254L721.947,254L720.62,254L719.293,254L717.967,254L716.64,254L715.313,254L713.987,254L712.66,254L711.333,254L710.007,254L708.68,254L707.353,254L706.027,254L704.7,254L703.373,254L702.047,254L700.72,254L699.393,254L698.067,254L696.74,254L695.413,254L694.087,254L692.76,254L691.433,254L690.107,254L688.78,254L687.453,254L686.127,254L684.8,254L683.473,254L682.147,254L680.82,254L679.493,254L678.167,254L676.84,254L675.513,254L674.187,254L672.86,254L671.533,254L670.207,254L668.88,254L667.553,254L666.227,254L664.9,254L663.573,254L662.247,254L660.92,254L659.593,254L658.267,254L656.94,254L655.613,254L654.287,254L652.96,254L651.633,254L650.307,254L648.98,254L647.653,254L646.327,254L645,254L643.673,254L642.347,254L641.02,254L639.693,254L638.367,254L637.04,254L635.713,254L634.387,254L633.06,254L631.733,254L630.407,254L629.08,254L627.753,254L626.427,254L625.1,254L623.773,254L622.447,254L621.12,254L619.793,254L618.467,254L617.14,254L615.813,254L614.487,254L613.16,254L611.833,254L610.507,254L609.18,254L607.853,254L606.527,254L605.2,254L603.873,254L602.547,254L601.22,254L599.893,254L598.567,254L597.24,254L595.913,254L594.587,254L593.26,254L591.933,254L590.607,254L589.28,254L587.953,254L586.627,254L585.3,254L583.973,254L582.647,254L581.32,254L579.993,254L578.667,254L577.34,254L576.013,254L574.687,254L573.36,254L572.033,254L570.707,254L569.38,254L568.053,254L566.727,254L565.4,254L564.073,254L562.747,254L561.42,254L560.093,254L558.767,254L557.44,254L556.113,254L554.787,254L553.46,254L552.133,254L550.807,254L549.48,254L548.153,254L546.827,254L545.5,254L544.173,254L542.847,254L541.52,254L540.193,254L538.867,254L537.54,254L536.213,254L534.887,254L533.56,254L532.233,254L530.907,254L529.58,254L528.253,254L526.927,254L525.6,254L524.273,254L522.947,254L521.62,254L520.293,254L518.967,254L517.64,254L516.313,254L514.987,254L513.66,254L512.333,254L511.007,254L509.68,254L508.353,254L507.027,254L505.7,254L504.373,254L503.047,254L501.72,254L500.393,254L499.067,254L497.74,254L496.413,254L495.087,254L493.76,254L492.433,254L491.107,254L489.78,254L488.453,254L487.127,254L485.8,254L484.473,254L483.147,254L481.82,254L480.493,254L479.167,254L477.84,254L476.513,254L475.187,254L473.86,254L472.533,254L471.207,254L469.88,254L468.553,254L467.227,254L465.9,254L464.573,254L463.247,254L461.92,254L460.593,254L459.267,254L457.94,254L456.613,254L455.287,254L453.96,254L452.633,254L451.307,254L449.98,254L448.653,254L447.327,254L446,254L444.673,254L443.347,254L442.02,254L440.693,254L439.367,254L438.04,254L436.713,254L435.387,254L434.06,254L432.733,254L431.407,254L430.08,254L428.753,254L427.427,254L426.1,254L424.773,254L423.447,254L422.12,254L420.793,254L419.467,254L418.14,254L416.813,254L415.487,254L414.16,254L412.833,254L411.507,254L410.18,254L408.853,254L407.527,254L406.2,254L404.873,254L403.547,254L402.22,254L400.893,254L399.567,254L398.24,254L396.913,254L395.587,254L394.26,254L392.933,254L391.607,254L390.28,254L388.953,254L387.627,254L386.3,254L384.973,254L383.647,254L382.32,254L380.993,254L379.667,254L378.34,254L377.013,254L375.687,254L374.36,254L373.033,254L371.707,254L370.38,254L369.053,254L367.727,254L366.4,254L365.073,254L363.747,254L362.42,254L361.093,254L359.767,254L358.44,254L357.113,254L355.787,254L354.46,254L353.133,254L351.807,254L350.48,254L349.153,254L347.827,254L346.5,254L345.173,254L343.847,254L342.52,254L341.193,254L339.867,254L338.54,254L337.213,254L335.887,254L334.56,254L333.233,254L331.907,254L330.58,254L329.253,254L327.927,254L326.6,254L325.273,254L323.947,254L322.62,254L321.293,254L319.967,254L318.64,254L317.313,254L315.987,254L314.66,254L313.333,254L312.007,254L310.68,254L309.353,254L308.027,254L306.7,254L305.373,254L304.047,254L302.72,254L301.393,254L300.067,254L298.74,254L297.413,254L296.087,254L294.76,254L293.433,254L292.107,254L290.78,254L289.453,254L288.127,254L286.8,254L285.473,254L284.147,254L282.82,254L281.493,254L280.167,254L278.84,254L277.513,254L276.187,254L274.86,254L273.533,254L272.207,254L270.88,254L269.553,254L268.227,254L266.9,254L265.573,254L264.247,254L262.92,254L261.593,254L260.267,254L258.94,254L257.613,254L256.287,254L254.96,254L253.633,254L252.307,254L250.98,254L249.653,254L248.327,254L247,254L245.673,254L244.347,254L243.02,254L241.693,254L240.367,254L239.04,254L237.713,254L236.387,254L235.06,254L233.733,254L232.407,254L231.08,254L229.753,254L228.427,254L227.1,254L225.773,254L224.447,254L223.12,254L221.793,254L220.467,254L219.14,254L217.813,254L216.487,254L215.16,254L213.833,254L212.507,254L211.18,254L209.853,254L208.527,254L207.2,254L205.873,254L204.547,254L203.22,254L201.893,254L200.567,254L199.24,254L197.913,254L196.587,254L195.26,254L193.933,254L192.607,254L191.28,254L189.953,254L188.627,254L187.3,254L185.973,254L184.647,254L183.32,254L181.993,254L180.667,254L179.34,254L178.013,254L176.687,254L175.36,254L174.033,254L172.707,254L171.38,254L170.053,254L168.727,254L167.4,254L166.073,254L164.747,254L163.42,254L162.093,254L160.767,254L159.44,254L158.113,254L156.787,254L155.46,254L154.133,254L152.807,254L151.48,254L150.153,254L148.827,254L147.5,254L146.173,254L144.847,254L143.52,254L142.193,254L140.867,254L139.54,254L138.213,254L136.887,254L135.56,254L134.233,254L132.907,254L131.58,254L130.253,254L128.927,254L127.6,254L126.273,254L124.947,254L123.62,254L122.293,254L120.967,254L119.64,254L118.313,254L116.987,254L115.66,254L114.333,254L113.007,254L111.68,254L110.353,254L109.027,254L107.7,254L106.373,254L105.047,254L103.72,254L102.393,254L101.067,254L99.74,254L98.413,254L97.087,254L95.76,254L94.433,254L93.107,254L91.78,254L90.453,254L89.127,254L87.8,254L86.473,254L85.147,254L83.82,254L82.493,254L81.167,254L79.84,254L78.513,254L77.187,254L75.86,254L74.533,254L73.207,254L71.88,254L70.553,254L69.227,254L67.9,254L66.573,254L65.247,254L63.92,254L62.593,254L61.267,254L59.94,254L58.613,254L57.287,254L55.96,254L54.633,254L53.307,254L51.98,254L50.653,254L49.327,254Z" class="area" fill="#0066cc"></path>
 <path d="M49.327,253.123L50.653,253.123L51.98,253.123L53.307,253.123L54.633,253.123L55.96,253.123L57.287,253.123L58.613,253.123L59.94,253.123L61.267,252.246L62.593,252.246L63.92,252.246L65.247,236.462L66.573,202.262L67.9,183.846L69.227,183.846L70.553,182.092L71.88,114.569L73.207,98.785L74.533,97.031L75.86,92.646L77.187,83.877L78.513,77.738L79.84,69.846L81.167,75.985L82.493,71.6L83.82,73.354L85.147,75.108L86.473,78.615L87.8,75.108L89.127,75.985L90.453,69.846L91.78,83.877L93.107,83.877L94.433,88.262L95.76,90.892L97.087,84.754L98.413,87.385L99.74,88.262L101.067,83L102.393,91.769L103.72,96.154L105.047,102.292L106.373,103.169L107.7,103.169L109.027,110.185L110.353,111.062L111.68,106.677L113.007,112.815L114.333,116.323L115.66,119.831L116.987,121.585L118.313,125.092L119.64,130.354L120.967,137.369L122.293,135.615L123.62,130.354L124.947,125.969L126.273,132.108L127.6,135.615L128.927,133.862L130.253,132.985L131.58,132.108L132.907,137.369L134.233,140L135.56,135.615L136.887,139.123L138.213,142.631L139.54,145.262L140.867,145.262L142.193,148.769L143.52,142.631L144.847,144.385L146.173,135.615L147.5,137.369L148.827,133.862L150.153,128.6L151.48,131.231L152.807,128.6L154.133,125.092L155.46,130.354L156.787,125.969L158.113,122.462L159.44,127.723L160.767,128.6L162.093,127.723L163.42,127.723L164.747,127.723L166.073,122.462L167.4,128.6L168.727,121.585L170.053,125.969L171.38,133.862L172.707,137.369L174.033,144.385L175.36,148.769L176.687,146.138L178.013,149.646L179.34,146.138L180.667,140.877L181.993,140L183.32,144.385L184.647,144.385L185.973,143.508L187.3,142.631L188.627,137.369L189.953,138.246L191.28,140L192.607,137.369L193.933,138.246L195.26,144.385L196.587,146.138L197.913,154.908L199.24,152.277L200.567,151.4L201.893,147.892L203.22,146.138L204.547,143.508L205.873,143.508L207.2,148.769L208.527,151.4L209.853,150.523L211.18,156.662L212.507,158.415L213.833,155.785L215.16,160.169L216.487,158.415L217.813,161.923L219.14,156.662L220.467,150.523L221.793,154.031L223.12,158.415L224.447,155.785L225.773,156.662L227.1,161.046L228.427,168.062L229.753,167.185L231.08,165.431L232.407,164.554L233.733,168.938L235.06,170.692L236.387,171.569L237.713,181.215L239.04,173.323L240.367,170.692L241.693,172.446L243.02,175.077L244.347,172.446L245.673,173.323L247,171.569L248.327,178.585L249.653,176.831L250.98,176.831L252.307,180.338L253.633,178.585L254.96,181.215L256.287,182.969L257.613,190.862L258.94,196.123L260.267,190.862L261.593,190.862L262.92,195.246L264.247,190.862L265.573,189.108L266.9,189.985L268.227,186.477L269.553,189.985L270.88,190.862L272.207,192.615L273.533,193.492L274.86,197.877L276.187,194.369L277.513,199.631L278.84,200.508L280.167,199.631L281.493,200.508L282.82,198.754L284.147,201.385L285.473,204.015L286.8,201.385L288.127,198.754L289.453,198.754L290.78,197L292.107,198.754L293.433,202.262L294.76,203.138L296.087,200.508L297.413,204.015L298.74,204.892L300.067,200.508L301.393,199.631L302.72,200.508L304.047,200.508L305.373,197.877L306.7,200.508L308.027,204.892L309.353,205.769L310.68,206.646L312.007,204.015L313.333,199.631L314.66,199.631L315.987,198.754L317.313,197.877L318.64,194.369L319.967,196.123L321.293,197L322.62,196.123L323.947,196.123L325.273,194.369L326.6,194.369L327.927,195.246L329.253,193.492L330.58,191.738L331.907,190.862L333.233,191.738L334.56,190.862L335.887,185.6L337.213,189.985L338.54,189.108L339.867,191.738L341.193,194.369L342.52,190.862L343.847,189.985L345.173,192.615L346.5,190.862L347.827,189.108L349.153,187.354L350.48,184.723L351.807,188.231L353.133,188.231L354.46,188.231L355.787,196.123L357.113,188.231L358.44,188.231L359.767,188.231L361.093,185.6L362.42,184.723L363.747,182.969L365.073,182.092L366.4,192.615L367.727,192.615L369.053,186.477L370.38,188.231L371.707,182.969L373.033,181.215L374.36,185.6L375.687,189.108L377.013,188.231L378.34,189.108L379.667,188.231L380.993,189.985L382.32,189.108L383.647,190.862L384.973,188.231L386.3,188.231L387.627,187.354L388.953,190.862L390.28,192.615L391.607,192.615L392.933,189.985L394.26,188.231L395.587,186.477L396.913,188.231L398.24,183.846L399.567,182.969L400.893,183.846L402.22,184.723L403.547,182.092L404.873,182.092L406.2,182.092L407.527,185.6L408.853,186.477L410.18,185.6L411.507,187.354L412.833,189.108L414.16,194.369L415.487,194.369L416.813,189.108L418.14,186.477L419.467,184.723L420.793,188.231L422.12,183.846L423.447,178.585L424.773,180.338L426.1,182.092L427.427,182.969L428.753,181.215L430.08,182.092L431.407,183.846L432.733,179.462L434.06,174.2L435.387,171.569L436.713,167.185L438.04,169.815L439.367,167.185L440.693,175.954L442.02,179.462L443.347,178.585L444.673,183.846L446,182.092L447.327,178.585L448.653,175.077L449.98,174.2L451.307,172.446L452.633,155.785L453.96,152.277L455.287,148.769L456.613,142.631L457.94,150.523L459.267,151.4L460.593,152.277L461.92,167.185L463.247,168.062L464.573,171.569L465.9,173.323L467.227,172.446L468.553,166.308L469.88,161.923L471.207,162.8L472.533,163.677L473.86,162.8L475.187,166.308L476.513,164.554L477.84,168.938L479.167,172.446L480.493,169.815L481.82,167.185L483.147,169.815L484.473,169.815L485.8,168.062L487.127,159.292L488.453,161.046L489.78,159.292L491.107,156.662L492.433,149.646L493.76,148.769L495.087,151.4L496.413,153.154L497.74,154.031L499.067,151.4L500.393,154.031L501.72,157.538L503.047,158.415L504.373,161.046L505.7,162.8L507.027,172.446L508.353,169.815L509.68,167.185L511.007,161.923L512.333,160.169L513.66,159.292L514.987,161.046L516.313,159.292L517.64,159.292L518.967,158.415L520.293,160.169L521.62,163.677L522.947,165.431L524.273,161.923L525.6,161.046L526.927,160.169L528.253,154.031L529.58,157.538L530.907,157.538L532.233,159.292L533.56,162.8L534.887,169.815L536.213,169.815L537.54,171.569L538.867,168.938L540.193,168.938L541.52,167.185L542.847,168.062L544.173,161.046L545.5,158.415L546.827,162.8L548.153,154.031L549.48,156.662L550.807,154.908L552.133,159.292L553.46,156.662L554.787,155.785L556.113,150.523L557.44,140.877L558.767,142.631L560.093,143.508L561.42,141.754L562.747,137.369L564.073,137.369L565.4,143.508L566.727,143.508L568.053,138.246L569.38,136.492L570.707,147.892L572.033,150.523L573.36,138.246L574.687,143.508L576.013,139.123L577.34,140L578.667,135.615L579.993,138.246L581.32,136.492L582.647,132.108L583.973,131.231L585.3,140.877L586.627,140L587.953,137.369L589.28,144.385L590.607,156.662L591.933,151.4L593.26,154.031L594.587,145.262L595.913,140.877L597.24,140L598.567,145.262L599.893,145.262L601.22,147.015L602.547,145.262L603.873,147.892L605.2,147.015L606.527,154.908L607.853,149.646L609.18,150.523L610.507,149.646L611.833,148.769L613.16,144.385L614.487,149.646L615.813,154.031L617.14,155.785L618.467,164.554L619.793,166.308L621.12,169.815L622.447,173.323L623.773,168.062L625.1,167.185L626.427,166.308L627.753,157.538L629.08,162.8L630.407,173.323L631.733,167.185L633.06,167.185L634.387,166.308L635.713,171.569L637.04,176.831L638.367,166.308L639.693,165.431L641.02,166.308L642.347,166.308L643.673,161.923L645,161.046L646.327,161.923L647.653,168.062L648.98,169.815L650.307,168.938L651.633,161.923L652.96,164.554L654.287,175.954L655.613,173.323L656.94,174.2L658.267,175.077L659.593,170.692L660.92,163.677L662.247,165.431L663.573,169.815L664.9,170.692L666.227,166.308L667.553,164.554L668.88,163.677L670.207,167.185L671.533,164.554L672.86,162.8L674.187,171.569L675.513,171.569L676.84,170.692L678.167,174.2L679.493,174.2L680.82,176.831L682.147,173.323L683.473,176.831L684.8,178.585L686.127,174.2L687.453,170.692L688.78,176.831L690.107,170.692L691.433,163.677L692.76,167.185L694.087,175.954L695.413,178.585L696.74,175.077L698.067,183.846L699.393,181.215L700.72,176.831L702.047,182.969L703.373,178.585L704.7,180.338L706.027,180.338L707.353,179.462L708.68,175.077L710.007,172.446L711.333,168.062L712.66,172.446L713.987,174.2L715.313,173.323L716.64,176.831L717.967,172.446L719.293,172.446L720.62,172.446L721.947,174.2L723.273,171.569L724.6,172.446L725.927,176.831L727.253,177.708L728.58,163.677L729.907,163.677L731.233,172.446L732.56,167.185L733.887,167.185L735.213,167.185L736.54,155.785L737.867,164.554L739.193,172.446L740.52,165.431L741.847,156.662L743.173,154.908L744.5,161.046L745.827,158.415L747.153,161.923L748.48,157.538L749.807,154.908L751.133,156.662L752.46,150.523L753.787,148.769L755.113,153.154L756.44,161.046L757.767,150.523L759.093,140L760.42,142.631L761.747,146.138L763.073,145.262L764.4,140.877L765.727,147.015L767.053,132.108L768.38,136.492L769.707,144.385L771.033,140L772.36,135.615L773.687,141.754L775.013,149.646L776.34,147.015L777.667,140L778.993,141.754L780.32,148.769L781.647,144.385L782.973,144.385L784.3,146.138L785.627,143.508L786.953,132.108L788.28,125.969L789.607,125.969L790.933,122.462L792.26,123.338L793.587,125.969L794.913,132.985L796.24,141.754L797.567,138.246L798.893,135.615L800.22,143.508L801.547,138.246L802.873,134.738L804.2,132.985L805.527,132.985L806.853,138.246L808.18,128.6L809.507,122.462L810.833,118.077L812.16,123.338L813.487,122.462L814.813,125.092L816.14,125.092L817.467,121.585L818.793,127.723L820.12,132.985L821.447,134.738L822.773,129.477L824.1,128.6L825.427,136.492L826.753,147.892L828.08,161.923L829.407,183.846L830.733,194.369L832.06,197.877L833.387,208.4L834.713,221.554L836.04,227.692L837.367,236.462L838.693,237.338L840.02,237.338L841.347,239.969L842.673,241.723L844,243.477" class="line" fill="none" stroke="#0066cc"></path>
 <g>
 <line class="event" x1="63.92" x2="63.92" y1="26" y2="254"></line>
 <text class="event-label" x="68.92" y="37" text-anchor="start">CTF start</text>
 </g><g>
 <line class="event" x1="453.96" x2="453.96" y1="26" y2="254"></line>
 <text class="event-label" x="448.96" y="37" text-anchor="end">wave 2</text>
 </g><g>
 <line class="event" x1="828.08" x2="828.08" y1="26" y2="254"></line>
 <text class="event-label" x="823.08" y="37" text-anchor="end">CTF end</text>
 </g>
 <g>
 <circle class="peak" cx="79.84" cy="69.84615384615384" r="3.5" fill="#0066cc"></circle>
 <text class="peak-label" x="86.84" y="69.84615384615384" dy="0.32em" text-anchor="start">peak 210 instances</text>
 </g>
</svg>
