<svg height="280" width="860" xmlns="http://www.w3.org/2000/svg" viewBox="0 0 860 280" class="chart-svg" role="img" aria-label="active ethereum instances">

  <style>
    .grid {
      stroke: #b4b4aa;
      vector-effect: non-scaling-stroke;
      opacity: 0.5;
    }
    .axis {
      fill: #78786e;
      font-family: monospace;
      font-size: 12px;
    }
    .area {
      opacity: 0.12;
    }
    .line {
      stroke-width: 1.6;
      stroke-linejoin: round;
      stroke-linecap: round;
      vector-effect: non-scaling-stroke;
    }
    .event {
      stroke: #1e1e1e;
      stroke-dasharray: 3 3;
      vector-effect: non-scaling-stroke;
      opacity: 0.55;
    }
    .event-label,
    .peak-label,
    .spike-label {
      fill: #1e1e1e;
      font-family: monospace;
      font-size: 12px;
      font-weight: 600;
    }
  </style>
  <title>active ethereum instances</title>
  <rect x="0.5" y="0.5" width="859" height="279" fill="#fafaf5" stroke="#b4b4aa"/>

 <g>
 <line class="grid" x1="48" x2="844" y1="254" y2="254"></line>
 <text class="axis" x="41" y="254" dy="0.32em" text-anchor="end">0</text>
 </g><g>
 <line class="grid" x1="48" x2="844" y1="203.33333333333334" y2="203.33333333333334"></line>
 <text class="axis" x="41" y="203.33333333333334" dy="0.32em" text-anchor="end">20</text>
 </g><g>
 <line class="grid" x1="48" x2="844" y1="152.66666666666666" y2="152.66666666666666"></line>
 <text class="axis" x="41" y="152.66666666666666" dy="0.32em" text-anchor="end">40</text>
 </g><g>
 <line class="grid" x1="48" x2="844" y1="102" y2="102"></line>
 <text class="axis" x="41" y="102" dy="0.32em" text-anchor="end">60</text>
 </g><g>
 <line class="grid" x1="48" x2="844" y1="51.33333333333334" y2="51.33333333333334"></line>
 <text class="axis" x="41" y="51.33333333333334" dy="0.32em" text-anchor="end">80</text>
 </g>
 <text class="axis" x="318.64000000000004" y="272" text-anchor="middle">06-28</text><text class="axis" x="700.7199999999999" y="272" text-anchor="middle">06-29</text>
 <path d="M49.327,254L50.653,254L51.98,254L53.307,254L54.633,254L55.96,254L57.287,254L58.613,254L59.94,254L61.267,254L62.593,254L63.92,254L65.247,233.733L66.573,157.733L67.9,102L69.227,71.6L70.553,53.867L71.88,56.4L73.207,58.933L74.533,79.2L75.86,96.933L77.187,86.8L78.513,114.667L79.84,124.8L81.167,147.6L82.493,157.733L83.82,160.267L85.147,155.2L86.473,147.6L87.8,152.667L89.127,155.2L90.453,162.8L91.78,172.933L93.107,160.267L94.433,152.667L95.76,152.667L97.087,162.8L98.413,167.867L99.74,167.867L101.067,167.867L102.393,162.8L103.72,165.333L105.047,178L106.373,193.2L107.7,193.2L109.027,205.867L110.353,208.4L111.68,198.267L113.007,203.333L114.333,205.867L115.66,218.533L116.987,213.467L118.313,213.467L119.64,216L120.967,221.067L122.293,228.667L123.62,228.667L124.947,218.533L126.273,216L127.6,218.533L128.927,218.533L130.253,216L131.58,233.733L132.907,226.133L134.233,231.2L135.56,223.6L136.887,218.533L138.213,218.533L139.54,218.533L140.867,221.067L142.193,218.533L143.52,218.533L144.847,203.333L146.173,210.933L147.5,216L148.827,223.6L150.153,231.2L151.48,213.467L152.807,210.933L154.133,216L155.46,213.467L156.787,205.867L158.113,208.4L159.44,205.867L160.767,205.867L162.093,210.933L163.42,213.467L164.747,205.867L166.073,213.467L167.4,218.533L168.727,208.4L170.053,208.4L171.38,210.933L172.707,210.933L174.033,218.533L175.36,216L176.687,223.6L178.013,221.067L179.34,226.133L180.667,221.067L181.993,218.533L183.32,228.667L184.647,228.667L185.973,231.2L187.3,233.733L188.627,231.2L189.953,233.733L191.28,233.733L192.607,228.667L193.933,233.733L195.26,231.2L196.587,223.6L197.913,218.533L199.24,218.533L200.567,218.533L201.893,221.067L203.22,223.6L204.547,221.067L205.873,223.6L207.2,223.6L208.527,228.667L209.853,228.667L211.18,231.2L212.507,226.133L213.833,226.133L215.16,231.2L216.487,231.2L217.813,236.267L219.14,231.2L220.467,233.733L221.793,236.267L223.12,238.8L224.447,233.733L225.773,236.267L227.1,236.267L228.427,233.733L229.753,238.8L231.08,236.267L232.407,233.733L233.733,233.733L235.06,231.2L236.387,233.733L237.713,231.2L239.04,231.2L240.367,233.733L241.693,226.133L243.02,223.6L244.347,223.6L245.673,228.667L247,231.2L248.327,228.667L249.653,228.667L250.98,223.6L252.307,226.133L253.633,233.733L254.96,238.8L256.287,241.333L257.613,236.267L258.94,238.8L260.267,243.867L261.593,236.267L262.92,236.267L264.247,233.733L265.573,233.733L266.9,236.267L268.227,238.8L269.553,238.8L270.88,236.267L272.207,236.267L273.533,236.267L274.86,238.8L276.187,238.8L277.513,238.8L278.84,241.333L280.167,241.333L281.493,238.8L282.82,246.4L284.147,246.4L285.473,243.867L286.8,248.933L288.127,248.933L289.453,248.933L290.78,248.933L292.107,243.867L293.433,243.867L294.76,241.333L296.087,238.8L297.413,248.933L298.74,248.933L300.067,251.467L301.393,248.933L302.72,246.4L304.047,246.4L305.373,243.867L306.7,243.867L308.027,246.4L309.353,246.4L310.68,243.867L312.007,243.867L313.333,243.867L314.66,241.333L315.987,243.867L317.313,243.867L318.64,246.4L319.967,246.4L321.293,246.4L322.62,248.933L323.947,248.933L325.273,248.933L326.6,251.467L327.927,246.4L329.253,246.4L330.58,238.8L331.907,241.333L333.233,243.867L334.56,243.867L335.887,243.867L337.213,246.4L338.54,248.933L339.867,248.933L341.193,248.933L342.52,243.867L343.847,241.333L345.173,238.8L346.5,241.333L347.827,246.4L349.153,248.933L350.48,243.867L351.807,248.933L353.133,246.4L354.46,246.4L355.787,248.933L357.113,251.467L358.44,251.467L359.767,251.467L361.093,248.933L362.42,248.933L363.747,251.467L365.073,251.467L366.4,248.933L367.727,246.4L369.053,243.867L370.38,241.333L371.707,233.733L373.033,238.8L374.36,241.333L375.687,246.4L377.013,251.467L378.34,251.467L379.667,251.467L380.993,251.467L382.32,254L383.647,254L384.973,251.467L386.3,248.933L387.627,248.933L388.953,251.467L390.28,251.467L391.607,254L392.933,248.933L394.26,248.933L395.587,251.467L396.913,248.933L398.24,246.4L399.567,248.933L400.893,246.4L402.22,246.4L403.547,246.4L404.873,246.4L406.2,248.933L407.527,251.467L408.853,251.467L410.18,246.4L411.507,243.867L412.833,246.4L414.16,243.867L415.487,251.467L416.813,251.467L418.14,251.467L419.467,248.933L420.793,248.933L422.12,248.933L423.447,248.933L424.773,248.933L426.1,248.933L427.427,248.933L428.753,246.4L430.08,246.4L431.407,243.867L432.733,241.333L434.06,241.333L435.387,241.333L436.713,243.867L438.04,248.933L439.367,243.867L440.693,243.867L442.02,241.333L443.347,236.267L444.673,236.267L446,238.8L447.327,213.467L448.653,178L449.98,155.2L451.307,129.867L452.633,122.267L453.96,150.133L455.287,145.067L456.613,147.6L457.94,152.667L459.267,172.933L460.593,193.2L461.92,183.067L463.247,180.533L464.573,185.6L465.9,188.133L467.227,167.867L468.553,167.867L469.88,175.467L471.207,180.533L472.533,203.333L473.86,200.8L475.187,200.8L476.513,195.733L477.84,190.667L479.167,195.733L480.493,195.733L481.82,198.267L483.147,205.867L484.473,198.267L485.8,205.867L487.127,213.467L488.453,221.067L489.78,226.133L491.107,223.6L492.433,218.533L493.76,221.067L495.087,218.533L496.413,216L497.74,216L499.067,226.133L500.393,233.733L501.72,233.733L503.047,218.533L504.373,218.533L505.7,218.533L507.027,226.133L508.353,228.667L509.68,223.6L511.007,221.067L512.333,228.667L513.66,231.2L514.987,238.8L516.313,238.8L517.64,238.8L518.967,238.8L520.293,241.333L521.62,241.333L522.947,233.733L524.273,233.733L525.6,236.267L526.927,233.733L528.253,233.733L529.58,233.733L530.907,236.267L532.233,233.733L533.56,231.2L534.887,226.133L536.213,226.133L537.54,228.667L538.867,228.667L540.193,226.133L541.52,223.6L542.847,221.067L544.173,218.533L545.5,218.533L546.827,213.467L548.153,221.067L549.48,223.6L550.807,233.733L552.133,238.8L553.46,231.2L554.787,231.2L556.113,228.667L557.44,226.133L558.767,236.267L560.093,231.2L561.42,238.8L562.747,241.333L564.073,243.867L565.4,233.733L566.727,231.2L568.053,231.2L569.38,223.6L570.707,228.667L572.033,231.2L573.36,236.267L574.687,238.8L576.013,241.333L577.34,238.8L578.667,236.267L579.993,236.267L581.32,228.667L582.647,226.133L583.973,223.6L585.3,228.667L586.627,231.2L587.953,236.267L589.28,246.4L590.607,238.8L591.933,233.733L593.26,233.733L594.587,236.267L595.913,238.8L597.24,243.867L598.567,246.4L599.893,246.4L601.22,251.467L602.547,251.467L603.873,248.933L605.2,243.867L606.527,241.333L607.853,241.333L609.18,241.333L610.507,243.867L611.833,238.8L613.16,241.333L614.487,238.8L615.813,236.267L617.14,241.333L618.467,243.867L619.793,243.867L621.12,243.867L622.447,246.4L623.773,243.867L625.1,246.4L626.427,243.867L627.753,246.4L629.08,248.933L630.407,248.933L631.733,248.933L633.06,246.4L634.387,246.4L635.713,248.933L637.04,248.933L638.367,248.933L639.693,251.467L641.02,251.467L642.347,251.467L643.673,254L645,254L646.327,254L647.653,254L648.98,254L650.307,251.467L651.633,246.4L652.96,248.933L654.287,241.333L655.613,243.867L656.94,248.933L658.267,248.933L659.593,248.933L660.92,248.933L662.247,246.4L663.573,246.4L664.9,248.933L666.227,248.933L667.553,246.4L668.88,246.4L670.207,251.467L671.533,248.933L672.86,251.467L674.187,251.467L675.513,246.4L676.84,246.4L678.167,241.333L679.493,241.333L680.82,238.8L682.147,241.333L683.473,241.333L684.8,243.867L686.127,246.4L687.453,248.933L688.78,248.933L690.107,248.933L691.433,248.933L692.76,246.4L694.087,243.867L695.413,243.867L696.74,246.4L698.067,251.467L699.393,248.933L700.72,246.4L702.047,243.867L703.373,243.867L704.7,246.4L706.027,251.467L707.353,248.933L708.68,248.933L710.007,246.4L711.333,246.4L712.66,246.4L713.987,251.467L715.313,254L716.64,254L717.967,254L719.293,251.467L720.62,251.467L721.947,251.467L723.273,251.467L724.6,254L725.927,254L727.253,254L728.58,254L729.907,254L731.233,248.933L732.56,251.467L733.887,251.467L735.213,248.933L736.54,248.933L737.867,248.933L739.193,246.4L740.52,248.933L741.847,248.933L743.173,248.933L744.5,246.4L745.827,243.867L747.153,241.333L748.48,243.867L749.807,246.4L751.133,251.467L752.46,248.933L753.787,248.933L755.113,248.933L756.44,246.4L757.767,251.467L759.093,251.467L760.42,246.4L761.747,246.4L763.073,243.867L764.4,248.933L765.727,248.933L767.053,248.933L768.38,251.467L769.707,248.933L771.033,246.4L772.36,241.333L773.687,238.8L775.013,236.267L776.34,236.267L777.667,233.733L778.993,236.267L780.32,236.267L781.647,233.733L782.973,233.733L784.3,238.8L785.627,238.8L786.953,241.333L788.28,243.867L789.607,243.867L790.933,246.4L792.26,243.867L793.587,238.8L794.913,241.333L796.24,241.333L797.567,246.4L798.893,246.4L800.22,243.867L801.547,238.8L802.873,238.8L804.2,238.8L805.527,238.8L806.853,243.867L808.18,246.4L809.507,248.933L810.833,246.4L812.16,241.333L813.487,243.867L814.813,243.867L816.14,243.867L817.467,236.267L818.793,238.8L820.12,238.8L821.447,241.333L822.773,243.867L824.1,243.867L825.427,243.867L826.753,241.333L828.08,246.4L829.407,248.933L830.733,248.933L832.06,254L833.387,251.467L834.713,248.933L836.04,251.467L837.367,251.467L838.693,251.467L840.02,254L841.347,254L842.673,254L844,254L844,254L842.673,254L841.347,254L840.02,254L838.693,254L837.367,254L836.04,254L834.713,254L833.387,254L832.06,254L830.733,254L829.407,254L828.08,254L826.753,254L825.427,254L824.1,254L822.773,254L821.447,254L820.12,254L818.793,254L817.467,254L816.14,254L814.813,254L813.487,254L812.16,254L810.833,254L809.507,254L808.18,254L806.853,254L805.527,254L804.2,254L802.873,254L801.547,254L800.22,254L798.893,254L797.567,254L796.24,254L794.913,254L793.587,254L792.26,254L790.933,254L789.607,254L788.28,254L786.953,254L785.627,254L784.3,254L782.973,254L781.647,254L780.32,254L778.993,254L777.667,254L776.34,254L775.013,254L773.687,254L772.36,254L771.033,254L769.707,254L768.38,254L767.053,254L765.727,254L764.4,254L763.073,254L761.747,254L760.42,254L759.093,254L757.767,254L756.44,254L755.113,254L753.787,254L752.46,254L751.133,254L749.807,254L748.48,254L747.153,254L745.827,254L744.5,254L743.173,254L741.847,254L740.52,254L739.193,254L737.867,254L736.54,254L735.213,254L733.887,254L732.56,254L731.233,254L729.907,254L728.58,254L727.253,254L725.927,254L724.6,254L723.273,254L721.947,254L720.62,254L719.293,254L717.967,254L716.64,254L715.313,254L713.987,254L712.66,254L711.333,254L710.007,254L708.68,254L707.353,254L706.027,254L704.7,254L703.373,254L702.047,254L700.72,254L699.393,254L698.067,254L696.74,254L695.413,254L694.087,254L692.76,254L691.433,254L690.107,254L688.78,254L687.453,254L686.127,254L684.8,254L683.473,254L682.147,254L680.82,254L679.493,254L678.167,254L676.84,254L675.513,254L674.187,254L672.86,254L671.533,254L670.207,254L668.88,254L667.553,254L666.227,254L664.9,254L663.573,254L662.247,254L660.92,254L659.593,254L658.267,254L656.94,254L655.613,254L654.287,254L652.96,254L651.633,254L650.307,254L648.98,254L647.653,254L646.327,254L645,254L643.673,254L642.347,254L641.02,254L639.693,254L638.367,254L637.04,254L635.713,254L634.387,254L633.06,254L631.733,254L630.407,254L629.08,254L627.753,254L626.427,254L625.1,254L623.773,254L622.447,254L621.12,254L619.793,254L618.467,254L617.14,254L615.813,254L614.487,254L613.16,254L611.833,254L610.507,254L609.18,254L607.853,254L606.527,254L605.2,254L603.873,254L602.547,254L601.22,254L599.893,254L598.567,254L597.24,254L595.913,254L594.587,254L593.26,254L591.933,254L590.607,254L589.28,254L587.953,254L586.627,254L585.3,254L583.973,254L582.647,254L581.32,254L579.993,254L578.667,254L577.34,254L576.013,254L574.687,254L573.36,254L572.033,254L570.707,254L569.38,254L568.053,254L566.727,254L565.4,254L564.073,254L562.747,254L561.42,254L560.093,254L558.767,254L557.44,254L556.113,254L554.787,254L553.46,254L552.133,254L550.807,254L549.48,254L548.153,254L546.827,254L545.5,254L544.173,254L542.847,254L541.52,254L540.193,254L538.867,254L537.54,254L536.213,254L534.887,254L533.56,254L532.233,254L530.907,254L529.58,254L528.253,254L526.927,254L525.6,254L524.273,254L522.947,254L521.62,254L520.293,254L518.967,254L517.64,254L516.313,254L514.987,254L513.66,254L512.333,254L511.007,254L509.68,254L508.353,254L507.027,254L505.7,254L504.373,254L503.047,254L501.72,254L500.393,254L499.067,254L497.74,254L496.413,254L495.087,254L493.76,254L492.433,254L491.107,254L489.78,254L488.453,254L487.127,254L485.8,254L484.473,254L483.147,254L481.82,254L480.493,254L479.167,254L477.84,254L476.513,254L475.187,254L473.86,254L472.533,254L471.207,254L469.88,254L468.553,254L467.227,254L465.9,254L464.573,254L463.247,254L461.92,254L460.593,254L459.267,254L457.94,254L456.613,254L455.287,254L453.96,254L452.633,254L451.307,254L449.98,254L448.653,254L447.327,254L446,254L444.673,254L443.347,254L442.02,254L440.693,254L439.367,254L438.04,254L436.713,254L435.387,254L434.06,254L432.733,254L431.407,254L430.08,254L428.753,254L427.427,254L426.1,254L424.773,254L423.447,254L422.12,254L420.793,254L419.467,254L418.14,254L416.813,254L415.487,254L414.16,254L412.833,254L411.507,254L410.18,254L408.853,254L407.527,254L406.2,254L404.873,254L403.547,254L402.22,254L400.893,254L399.567,254L398.24,254L396.913,254L395.587,254L394.26,254L392.933,254L391.607,254L390.28,254L388.953,254L387.627,254L386.3,254L384.973,254L383.647,254L382.32,254L380.993,254L379.667,254L378.34,254L377.013,254L375.687,254L374.36,254L373.033,254L371.707,254L370.38,254L369.053,254L367.727,254L366.4,254L365.073,254L363.747,254L362.42,254L361.093,254L359.767,254L358.44,254L357.113,254L355.787,254L354.46,254L353.133,254L351.807,254L350.48,254L349.153,254L347.827,254L346.5,254L345.173,254L343.847,254L342.52,254L341.193,254L339.867,254L338.54,254L337.213,254L335.887,254L334.56,254L333.233,254L331.907,254L330.58,254L329.253,254L327.927,254L326.6,254L325.273,254L323.947,254L322.62,254L321.293,254L319.967,254L318.64,254L317.313,254L315.987,254L314.66,254L313.333,254L312.007,254L310.68,254L309.353,254L308.027,254L306.7,254L305.373,254L304.047,254L302.72,254L301.393,254L300.067,254L298.74,254L297.413,254L296.087,254L294.76,254L293.433,254L292.107,254L290.78,254L289.453,254L288.127,254L286.8,254L285.473,254L284.147,254L282.82,254L281.493,254L280.167,254L278.84,254L277.513,254L276.187,254L274.86,254L273.533,254L272.207,254L270.88,254L269.553,254L268.227,254L266.9,254L265.573,254L264.247,254L262.92,254L261.593,254L260.267,254L258.94,254L257.613,254L256.287,254L254.96,254L253.633,254L252.307,254L250.98,254L249.653,254L248.327,254L247,254L245.673,254L244.347,254L243.02,254L241.693,254L240.367,254L239.04,254L237.713,254L236.387,254L235.06,254L233.733,254L232.407,254L231.08,254L229.753,254L228.427,254L227.1,254L225.773,254L224.447,254L223.12,254L221.793,254L220.467,254L219.14,254L217.813,254L216.487,254L215.16,254L213.833,254L212.507,254L211.18,254L209.853,254L208.527,254L207.2,254L205.873,254L204.547,254L203.22,254L201.893,254L200.567,254L199.24,254L197.913,254L196.587,254L195.26,254L193.933,254L192.607,254L191.28,254L189.953,254L188.627,254L187.3,254L185.973,254L184.647,254L183.32,254L181.993,254L180.667,254L179.34,254L178.013,254L176.687,254L175.36,254L174.033,254L172.707,254L171.38,254L170.053,254L168.727,254L167.4,254L166.073,254L164.747,254L163.42,254L162.093,254L160.767,254L159.44,254L158.113,254L156.787,254L155.46,254L154.133,254L152.807,254L151.48,254L150.153,254L148.827,254L147.5,254L146.173,254L144.847,254L143.52,254L142.193,254L140.867,254L139.54,254L138.213,254L136.887,254L135.56,254L134.233,254L132.907,254L131.58,254L130.253,254L128.927,254L127.6,254L126.273,254L124.947,254L123.62,254L122.293,254L120.967,254L119.64,254L118.313,254L116.987,254L115.66,254L114.333,254L113.007,254L111.68,254L110.353,254L109.027,254L107.7,254L106.373,254L105.047,254L103.72,254L102.393,254L101.067,254L99.74,254L98.413,254L97.087,254L95.76,254L94.433,254L93.107,254L91.78,254L90.453,254L89.127,254L87.8,254L86.473,254L85.147,254L83.82,254L82.493,254L81.167,254L79.84,254L78.513,254L77.187,254L75.86,254L74.533,254L73.207,254L71.88,254L70.553,254L69.227,254L67.9,254L66.573,254L65.247,254L63.92,254L62.593,254L61.267,254L59.94,254L58.613,254L57.287,254L55.96,254L54.633,254L53.307,254L51.98,254L50.653,254L49.327,254Z" class="area" fill="#0066cc"></path>
 <path d="M49.327,254L50.653,254L51.98,254L53.307,254L54.633,254L55.96,254L57.287,254L58.613,254L59.94,254L61.267,254L62.593,254L63.92,254L65.247,233.733L66.573,157.733L67.9,102L69.227,71.6L70.553,53.867L71.88,56.4L73.207,58.933L74.533,79.2L75.86,96.933L77.187,86.8L78.513,114.667L79.84,124.8L81.167,147.6L82.493,157.733L83.82,160.267L85.147,155.2L86.473,147.6L87.8,152.667L89.127,155.2L90.453,162.8L91.78,172.933L93.107,160.267L94.433,152.667L95.76,152.667L97.087,162.8L98.413,167.867L99.74,167.867L101.067,167.867L102.393,162.8L103.72,165.333L105.047,178L106.373,193.2L107.7,193.2L109.027,205.867L110.353,208.4L111.68,198.267L113.007,203.333L114.333,205.867L115.66,218.533L116.987,213.467L118.313,213.467L119.64,216L120.967,221.067L122.293,228.667L123.62,228.667L124.947,218.533L126.273,216L127.6,218.533L128.927,218.533L130.253,216L131.58,233.733L132.907,226.133L134.233,231.2L135.56,223.6L136.887,218.533L138.213,218.533L139.54,218.533L140.867,221.067L142.193,218.533L143.52,218.533L144.847,203.333L146.173,210.933L147.5,216L148.827,223.6L150.153,231.2L151.48,213.467L152.807,210.933L154.133,216L155.46,213.467L156.787,205.867L158.113,208.4L159.44,205.867L160.767,205.867L162.093,210.933L163.42,213.467L164.747,205.867L166.073,213.467L167.4,218.533L168.727,208.4L170.053,208.4L171.38,210.933L172.707,210.933L174.033,218.533L175.36,216L176.687,223.6L178.013,221.067L179.34,226.133L180.667,221.067L181.993,218.533L183.32,228.667L184.647,228.667L185.973,231.2L187.3,233.733L188.627,231.2L189.953,233.733L191.28,233.733L192.607,228.667L193.933,233.733L195.26,231.2L196.587,223.6L197.913,218.533L199.24,218.533L200.567,218.533L201.893,221.067L203.22,223.6L204.547,221.067L205.873,223.6L207.2,223.6L208.527,228.667L209.853,228.667L211.18,231.2L212.507,226.133L213.833,226.133L215.16,231.2L216.487,231.2L217.813,236.267L219.14,231.2L220.467,233.733L221.793,236.267L223.12,238.8L224.447,233.733L225.773,236.267L227.1,236.267L228.427,233.733L229.753,238.8L231.08,236.267L232.407,233.733L233.733,233.733L235.06,231.2L236.387,233.733L237.713,231.2L239.04,231.2L240.367,233.733L241.693,226.133L243.02,223.6L244.347,223.6L245.673,228.667L247,231.2L248.327,228.667L249.653,228.667L250.98,223.6L252.307,226.133L253.633,233.733L254.96,238.8L256.287,241.333L257.613,236.267L258.94,238.8L260.267,243.867L261.593,236.267L262.92,236.267L264.247,233.733L265.573,233.733L266.9,236.267L268.227,238.8L269.553,238.8L270.88,236.267L272.207,236.267L273.533,236.267L274.86,238.8L276.187,238.8L277.513,238.8L278.84,241.333L280.167,241.333L281.493,238.8L282.82,246.4L284.147,246.4L285.473,243.867L286.8,248.933L288.127,248.933L289.453,248.933L290.78,248.933L292.107,243.867L293.433,243.867L294.76,241.333L296.087,238.8L297.413,248.933L298.74,248.933L300.067,251.467L301.393,248.933L302.72,246.4L304.047,246.4L305.373,243.867L306.7,243.867L308.027,246.4L309.353,246.4L310.68,243.867L312.007,243.867L313.333,243.867L314.66,241.333L315.987,243.867L317.313,243.867L318.64,246.4L319.967,246.4L321.293,246.4L322.62,248.933L323.947,248.933L325.273,248.933L326.6,251.467L327.927,246.4L329.253,246.4L330.58,238.8L331.907,241.333L333.233,243.867L334.56,243.867L335.887,243.867L337.213,246.4L338.54,248.933L339.867,248.933L341.193,248.933L342.52,243.867L343.847,241.333L345.173,238.8L346.5,241.333L347.827,246.4L349.153,248.933L350.48,243.867L351.807,248.933L353.133,246.4L354.46,246.4L355.787,248.933L357.113,251.467L358.44,251.467L359.767,251.467L361.093,248.933L362.42,248.933L363.747,251.467L365.073,251.467L366.4,248.933L367.727,246.4L369.053,243.867L370.38,241.333L371.707,233.733L373.033,238.8L374.36,241.333L375.687,246.4L377.013,251.467L378.34,251.467L379.667,251.467L380.993,251.467L382.32,254L383.647,254L384.973,251.467L386.3,248.933L387.627,248.933L388.953,251.467L390.28,251.467L391.607,254L392.933,248.933L394.26,248.933L395.587,251.467L396.913,248.933L398.24,246.4L399.567,248.933L400.893,246.4L402.22,246.4L403.547,246.4L404.873,246.4L406.2,248.933L407.527,251.467L408.853,251.467L410.18,246.4L411.507,243.867L412.833,246.4L414.16,243.867L415.487,251.467L416.813,251.467L418.14,251.467L419.467,248.933L420.793,248.933L422.12,248.933L423.447,248.933L424.773,248.933L426.1,248.933L427.427,248.933L428.753,246.4L430.08,246.4L431.407,243.867L432.733,241.333L434.06,241.333L435.387,241.333L436.713,243.867L438.04,248.933L439.367,243.867L440.693,243.867L442.02,241.333L443.347,236.267L444.673,236.267L446,238.8L447.327,213.467L448.653,178L449.98,155.2L451.307,129.867L452.633,122.267L453.96,150.133L455.287,145.067L456.613,147.6L457.94,152.667L459.267,172.933L460.593,193.2L461.92,183.067L463.247,180.533L464.573,185.6L465.9,188.133L467.227,167.867L468.553,167.867L469.88,175.467L471.207,180.533L472.533,203.333L473.86,200.8L475.187,200.8L476.513,195.733L477.84,190.667L479.167,195.733L480.493,195.733L481.82,198.267L483.147,205.867L484.473,198.267L485.8,205.867L487.127,213.467L488.453,221.067L489.78,226.133L491.107,223.6L492.433,218.533L493.76,221.067L495.087,218.533L496.413,216L497.74,216L499.067,226.133L500.393,233.733L501.72,233.733L503.047,218.533L504.373,218.533L505.7,218.533L507.027,226.133L508.353,228.667L509.68,223.6L511.007,221.067L512.333,228.667L513.66,231.2L514.987,238.8L516.313,238.8L517.64,238.8L518.967,238.8L520.293,241.333L521.62,241.333L522.947,233.733L524.273,233.733L525.6,236.267L526.927,233.733L528.253,233.733L529.58,233.733L530.907,236.267L532.233,233.733L533.56,231.2L534.887,226.133L536.213,226.133L537.54,228.667L538.867,228.667L540.193,226.133L541.52,223.6L542.847,221.067L544.173,218.533L545.5,218.533L546.827,213.467L548.153,221.067L549.48,223.6L550.807,233.733L552.133,238.8L553.46,231.2L554.787,231.2L556.113,228.667L557.44,226.133L558.767,236.267L560.093,231.2L561.42,238.8L562.747,241.333L564.073,243.867L565.4,233.733L566.727,231.2L568.053,231.2L569.38,223.6L570.707,228.667L572.033,231.2L573.36,236.267L574.687,238.8L576.013,241.333L577.34,238.8L578.667,236.267L579.993,236.267L581.32,228.667L582.647,226.133L583.973,223.6L585.3,228.667L586.627,231.2L587.953,236.267L589.28,246.4L590.607,238.8L591.933,233.733L593.26,233.733L594.587,236.267L595.913,238.8L597.24,243.867L598.567,246.4L599.893,246.4L601.22,251.467L602.547,251.467L603.873,248.933L605.2,243.867L606.527,241.333L607.853,241.333L609.18,241.333L610.507,243.867L611.833,238.8L613.16,241.333L614.487,238.8L615.813,236.267L617.14,241.333L618.467,243.867L619.793,243.867L621.12,243.867L622.447,246.4L623.773,243.867L625.1,246.4L626.427,243.867L627.753,246.4L629.08,248.933L630.407,248.933L631.733,248.933L633.06,246.4L634.387,246.4L635.713,248.933L637.04,248.933L638.367,248.933L639.693,251.467L641.02,251.467L642.347,251.467L643.673,254L645,254L646.327,254L647.653,254L648.98,254L650.307,251.467L651.633,246.4L652.96,248.933L654.287,241.333L655.613,243.867L656.94,248.933L658.267,248.933L659.593,248.933L660.92,248.933L662.247,246.4L663.573,246.4L664.9,248.933L666.227,248.933L667.553,246.4L668.88,246.4L670.207,251.467L671.533,248.933L672.86,251.467L674.187,251.467L675.513,246.4L676.84,246.4L678.167,241.333L679.493,241.333L680.82,238.8L682.147,241.333L683.473,241.333L684.8,243.867L686.127,246.4L687.453,248.933L688.78,248.933L690.107,248.933L691.433,248.933L692.76,246.4L694.087,243.867L695.413,243.867L696.74,246.4L698.067,251.467L699.393,248.933L700.72,246.4L702.047,243.867L703.373,243.867L704.7,246.4L706.027,251.467L707.353,248.933L708.68,248.933L710.007,246.4L711.333,246.4L712.66,246.4L713.987,251.467L715.313,254L716.64,254L717.967,254L719.293,251.467L720.62,251.467L721.947,251.467L723.273,251.467L724.6,254L725.927,254L727.253,254L728.58,254L729.907,254L731.233,248.933L732.56,251.467L733.887,251.467L735.213,248.933L736.54,248.933L737.867,248.933L739.193,246.4L740.52,248.933L741.847,248.933L743.173,248.933L744.5,246.4L745.827,243.867L747.153,241.333L748.48,243.867L749.807,246.4L751.133,251.467L752.46,248.933L753.787,248.933L755.113,248.933L756.44,246.4L757.767,251.467L759.093,251.467L760.42,246.4L761.747,246.4L763.073,243.867L764.4,248.933L765.727,248.933L767.053,248.933L768.38,251.467L769.707,248.933L771.033,246.4L772.36,241.333L773.687,238.8L775.013,236.267L776.34,236.267L777.667,233.733L778.993,236.267L780.32,236.267L781.647,233.733L782.973,233.733L784.3,238.8L785.627,238.8L786.953,241.333L788.28,243.867L789.607,243.867L790.933,246.4L792.26,243.867L793.587,238.8L794.913,241.333L796.24,241.333L797.567,246.4L798.893,246.4L800.22,243.867L801.547,238.8L802.873,238.8L804.2,238.8L805.527,238.8L806.853,243.867L808.18,246.4L809.507,248.933L810.833,246.4L812.16,241.333L813.487,243.867L814.813,243.867L816.14,243.867L817.467,236.267L818.793,238.8L820.12,238.8L821.447,241.333L822.773,243.867L824.1,243.867L825.427,243.867L826.753,241.333L828.08,246.4L829.407,248.933L830.733,248.933L832.06,254L833.387,251.467L834.713,248.933L836.04,251.467L837.367,251.467L838.693,251.467L840.02,254L841.347,254L842.673,254L844,254" class="line" fill="none" stroke="#0066cc"></path>
 <g>
 <line class="event" x1="63.92" x2="63.92" y1="26" y2="254"></line>
 <text class="event-label" x="68.92" y="37" text-anchor="start">CTF start</text>
 </g><g>
 <line class="event" x1="453.96" x2="453.96" y1="26" y2="254"></line>
 <text class="event-label" x="448.96" y="37" text-anchor="end">wave 2</text>
 </g><g>
 <line class="event" x1="828.08" x2="828.08" y1="26" y2="254"></line>
 <text class="event-label" x="823.08" y="37" text-anchor="end">CTF end</text>
 </g>
 <g>
 <circle class="peak" cx="70.55333333333333" cy="53.866666666666674" r="3.5" fill="#0066cc"></circle>
 <text class="peak-label" x="77.55333333333333" y="53.866666666666674" dy="0.32em" text-anchor="start">peak 79 instances</text>
 </g>
</svg>
