<svg xmlns="http://www.w3.org/2000/svg" width="960" height="360" viewBox="0 0 960 360" role="img" aria-labelledby="title desc">
  <title id="title">active instances</title>
  <desc id="desc">Line chart for SekaiCTF 2026 telemetry over one weekend.</desc>
  <rect width="100%" height="100%" fill="#ffffff"/>
  <rect x="74" y="56" width="858" height="252" fill="#f9fafb" stroke="#d1d5db"/>
  <text x="74" y="30" font-size="20" font-weight="700" fill="#111827">active instances</text>
  <line x1="74" y1="308.0" x2="932" y2="308.0" stroke="#e5e7eb" stroke-width="1"/><text x="62" y="312.0" text-anchor="end" font-size="12" fill="#4b5563">0</text><line x1="74" y1="257.6" x2="932" y2="257.6" stroke="#e5e7eb" stroke-width="1"/><text x="62" y="261.6" text-anchor="end" font-size="12" fill="#4b5563">50</text><line x1="74" y1="207.2" x2="932" y2="207.2" stroke="#e5e7eb" stroke-width="1"/><text x="62" y="211.2" text-anchor="end" font-size="12" fill="#4b5563">100</text><line x1="74" y1="156.8" x2="932" y2="156.8" stroke="#e5e7eb" stroke-width="1"/><text x="62" y="160.8" text-anchor="end" font-size="12" fill="#4b5563">150</text><line x1="74" y1="106.4" x2="932" y2="106.4" stroke="#e5e7eb" stroke-width="1"/><text x="62" y="110.4" text-anchor="end" font-size="12" fill="#4b5563">200</text><line x1="74" y1="56.0" x2="932" y2="56.0" stroke="#e5e7eb" stroke-width="1"/><text x="62" y="60.0" text-anchor="end" font-size="12" fill="#4b5563">250</text><line x1="74.0" y1="56" x2="74.0" y2="308" stroke="#f3f4f6" stroke-width="1"/><text x="74.0" y="342" text-anchor="middle" font-size="12" fill="#4b5563">0h</text><line x1="279.9" y1="56" x2="279.9" y2="308" stroke="#f3f4f6" stroke-width="1"/><text x="279.9" y="342" text-anchor="middle" font-size="12" fill="#4b5563">12h</text><line x1="485.8" y1="56" x2="485.8" y2="308" stroke="#f3f4f6" stroke-width="1"/><text x="485.8" y="342" text-anchor="middle" font-size="12" fill="#4b5563">24h</text><line x1="691.8" y1="56" x2="691.8" y2="308" stroke="#f3f4f6" stroke-width="1"/><text x="691.8" y="342" text-anchor="middle" font-size="12" fill="#4b5563">36h</text><line x1="897.7" y1="56" x2="897.7" y2="308" stroke="#f3f4f6" stroke-width="1"/><text x="897.7" y="342" text-anchor="middle" font-size="12" fill="#4b5563">48h</text>
  <line x1="91.2" y1="56" x2="91.2" y2="308" stroke="#f97316" stroke-width="1.5" stroke-dasharray="5 5"/><text x="95.2" y="46" font-size="12" fill="#9a3412">CTF start</text><line x1="511.6" y1="56" x2="511.6" y2="308" stroke="#f97316" stroke-width="1.5" stroke-dasharray="5 5"/><text x="515.6" y="46" font-size="12" fill="#9a3412">wave 2</text><line x1="914.8" y1="56" x2="914.8" y2="308" stroke="#f97316" stroke-width="1.5" stroke-dasharray="5 5"/><text x="918.8" y="46" font-size="12" fill="#9a3412">CTF end</text>
  <polyline fill="none" stroke="#2563eb" stroke-width="2.25" stroke-linejoin="round" stroke-linecap="round" points="75.4,307.0 76.9,307.0 78.3,307.0 79.7,307.0 81.2,307.0 82.6,307.0 84.0,307.0 85.4,307.0 86.9,307.0 88.3,306.0 89.7,306.0 91.2,306.0 92.6,287.8 94.0,248.5 95.5,227.4 96.9,227.4 98.3,225.3 99.7,147.7 101.2,129.6 102.6,127.6 104.0,122.5 105.5,112.4 106.9,105.4 108.3,96.3 109.8,103.4 111.2,98.3 112.6,100.4 114.0,102.4 115.5,106.4 116.9,102.4 118.3,103.4 119.8,96.3 121.2,112.4 122.6,112.4 124.0,117.5 125.5,120.5 126.9,113.5 128.3,116.5 129.8,117.5 131.2,111.4 132.6,121.5 134.1,126.6 135.5,133.6 136.9,134.6 138.3,134.6 139.8,142.7 141.2,143.7 142.6,138.7 144.1,145.7 145.5,149.7 146.9,153.8 148.4,155.8 149.8,159.8 151.2,165.9 152.7,173.9 154.1,171.9 155.5,165.9 156.9,160.8 158.4,167.9 159.8,171.9 161.2,169.9 162.7,168.9 164.1,167.9 165.5,173.9 166.9,177.0 168.4,171.9 169.8,176.0 171.2,180.0 172.7,183.0 174.1,183.0 175.5,187.0 177.0,180.0 178.4,182.0 179.8,171.9 181.2,173.9 182.7,169.9 184.1,163.9 185.5,166.9 187.0,163.9 188.4,159.8 189.8,165.9 191.3,160.8 192.7,156.8 194.1,162.8 195.6,163.9 197.0,162.8 198.4,162.8 199.8,162.8 201.3,156.8 202.7,163.9 204.1,155.8 205.6,160.8 207.0,169.9 208.4,173.9 209.8,182.0 211.3,187.0 212.7,184.0 214.1,188.0 215.6,184.0 217.0,178.0 218.4,177.0 219.9,182.0 221.3,182.0 222.7,181.0 224.2,180.0 225.6,173.9 227.0,174.9 228.4,177.0 229.9,173.9 231.3,174.9 232.7,182.0 234.2,184.0 235.6,194.1 237.0,191.1 238.4,190.1 239.9,186.0 241.3,184.0 242.7,181.0 244.2,181.0 245.6,187.0 247.0,190.1 248.5,189.1 249.9,196.1 251.3,198.1 252.8,195.1 254.2,200.1 255.6,198.1 257.0,202.2 258.5,196.1 259.9,189.1 261.3,193.1 262.8,198.1 264.2,195.1 265.6,196.1 267.1,201.2 268.5,209.2 269.9,208.2 271.3,206.2 272.8,205.2 274.2,210.2 275.6,212.2 277.1,213.2 278.5,224.3 279.9,215.3 281.4,212.2 282.8,214.3 284.2,217.3 285.6,214.3 287.1,215.3 288.5,213.2 289.9,221.3 291.4,219.3 292.8,219.3 294.2,223.3 295.6,221.3 297.1,224.3 298.5,226.4 299.9,235.4 301.4,241.5 302.8,235.4 304.2,235.4 305.7,240.5 307.1,235.4 308.5,233.4 309.9,234.4 311.4,230.4 312.8,234.4 314.2,235.4 315.7,237.4 317.1,238.4 318.5,243.5 320.0,239.5 321.4,245.5 322.8,246.5 324.2,245.5 325.7,246.5 327.1,244.5 328.5,247.5 330.0,250.5 331.4,247.5 332.8,244.5 334.3,244.5 335.7,242.5 337.1,244.5 338.6,248.5 340.0,249.5 341.4,246.5 342.8,250.5 344.3,251.6 345.7,246.5 347.1,245.5 348.6,246.5 350.0,246.5 351.4,243.5 352.9,246.5 354.3,251.6 355.7,252.6 357.1,253.6 358.6,250.5 360.0,245.5 361.4,245.5 362.9,244.5 364.3,243.5 365.7,239.5 367.1,241.5 368.6,242.5 370.0,241.5 371.4,241.5 372.9,239.5 374.3,239.5 375.7,240.5 377.2,238.4 378.6,236.4 380.0,235.4 381.4,236.4 382.9,235.4 384.3,229.4 385.7,234.4 387.2,233.4 388.6,236.4 390.0,239.5 391.5,235.4 392.9,234.4 394.3,237.4 395.8,235.4 397.2,233.4 398.6,231.4 400.0,228.4 401.5,232.4 402.9,232.4 404.3,232.4 405.8,241.5 407.2,232.4 408.6,232.4 410.1,232.4 411.5,229.4 412.9,228.4 414.3,226.4 415.8,225.3 417.2,237.4 418.6,237.4 420.1,230.4 421.5,232.4 422.9,226.4 424.4,224.3 425.8,229.4 427.2,233.4 428.6,232.4 430.1,233.4 431.5,232.4 432.9,234.4 434.4,233.4 435.8,235.4 437.2,232.4 438.6,232.4 440.1,231.4 441.5,235.4 442.9,237.4 444.4,237.4 445.8,234.4 447.2,232.4 448.7,230.4 450.1,232.4 451.5,227.4 452.9,226.4 454.4,227.4 455.8,228.4 457.2,225.3 458.7,225.3 460.1,225.3 461.5,229.4 463.0,230.4 464.4,229.4 465.8,231.4 467.2,233.4 468.7,239.5 470.1,239.5 471.5,233.4 473.0,230.4 474.4,228.4 475.8,232.4 477.3,227.4 478.7,221.3 480.1,223.3 481.6,225.3 483.0,226.4 484.4,224.3 485.8,225.3 487.3,227.4 488.7,222.3 490.1,216.3 491.6,213.2 493.0,208.2 494.4,211.2 495.9,208.2 497.3,218.3 498.7,222.3 500.1,221.3 501.6,227.4 503.0,225.3 504.4,221.3 505.9,217.3 507.3,216.3 508.7,214.3 510.1,195.1 511.6,191.1 513.0,187.0 514.4,180.0 515.9,189.1 517.3,190.1 518.7,191.1 520.2,208.2 521.6,209.2 523.0,213.2 524.5,215.3 525.9,214.3 527.3,207.2 528.7,202.2 530.2,203.2 531.6,204.2 533.0,203.2 534.5,207.2 535.9,205.2 537.3,210.2 538.8,214.3 540.2,211.2 541.6,208.2 543.0,211.2 544.5,211.2 545.9,209.2 547.3,199.1 548.8,201.2 550.2,199.1 551.6,196.1 553.0,188.0 554.5,187.0 555.9,190.1 557.3,192.1 558.8,193.1 560.2,190.1 561.6,193.1 563.1,197.1 564.5,198.1 565.9,201.2 567.4,203.2 568.8,214.3 570.2,211.2 571.6,208.2 573.1,202.2 574.5,200.1 575.9,199.1 577.4,201.2 578.8,199.1 580.2,199.1 581.6,198.1 583.1,200.1 584.5,204.2 585.9,206.2 587.4,202.2 588.8,201.2 590.2,200.1 591.7,193.1 593.1,197.1 594.5,197.1 596.0,199.1 597.4,203.2 598.8,211.2 600.2,211.2 601.7,213.2 603.1,210.2 604.5,210.2 606.0,208.2 607.4,209.2 608.8,201.2 610.2,198.1 611.7,203.2 613.1,193.1 614.5,196.1 616.0,194.1 617.4,199.1 618.8,196.1 620.3,195.1 621.7,189.1 623.1,178.0 624.5,180.0 626.0,181.0 627.4,179.0 628.8,173.9 630.3,173.9 631.7,181.0 633.1,181.0 634.6,174.9 636.0,172.9 637.4,186.0 638.9,189.1 640.3,174.9 641.7,181.0 643.1,176.0 644.6,177.0 646.0,171.9 647.4,174.9 648.9,172.9 650.3,167.9 651.7,166.9 653.1,178.0 654.6,177.0 656.0,173.9 657.4,182.0 658.9,196.1 660.3,190.1 661.7,193.1 663.2,183.0 664.6,178.0 666.0,177.0 667.5,183.0 668.9,183.0 670.3,185.0 671.7,183.0 673.2,186.0 674.6,185.0 676.0,194.1 677.5,188.0 678.9,189.1 680.3,188.0 681.8,187.0 683.2,182.0 684.6,188.0 686.0,193.1 687.5,195.1 688.9,205.2 690.3,207.2 691.8,211.2 693.2,215.3 694.6,209.2 696.0,208.2 697.5,207.2 698.9,197.1 700.3,203.2 701.8,215.3 703.2,208.2 704.6,208.2 706.1,207.2 707.5,213.2 708.9,219.3 710.4,207.2 711.8,206.2 713.2,207.2 714.6,207.2 716.1,202.2 717.5,201.2 718.9,202.2 720.4,209.2 721.8,211.2 723.2,210.2 724.6,202.2 726.1,205.2 727.5,218.3 728.9,215.3 730.4,216.3 731.8,217.3 733.2,212.2 734.7,204.2 736.1,206.2 737.5,211.2 739.0,212.2 740.4,207.2 741.8,205.2 743.2,204.2 744.7,208.2 746.1,205.2 747.5,203.2 749.0,213.2 750.4,213.2 751.8,212.2 753.2,216.3 754.7,216.3 756.1,219.3 757.5,215.3 759.0,219.3 760.4,221.3 761.8,216.3 763.3,212.2 764.7,219.3 766.1,212.2 767.5,204.2 769.0,208.2 770.4,218.3 771.8,221.3 773.3,217.3 774.7,227.4 776.1,224.3 777.6,219.3 779.0,226.4 780.4,221.3 781.9,223.3 783.3,223.3 784.7,222.3 786.1,217.3 787.6,214.3 789.0,209.2 790.4,214.3 791.9,216.3 793.3,215.3 794.7,219.3 796.1,214.3 797.6,214.3 799.0,214.3 800.4,216.3 801.9,213.2 803.3,214.3 804.7,219.3 806.2,220.3 807.6,204.2 809.0,204.2 810.5,214.3 811.9,208.2 813.3,208.2 814.7,208.2 816.2,195.1 817.6,205.2 819.0,214.3 820.5,206.2 821.9,196.1 823.3,194.1 824.8,201.2 826.2,198.1 827.6,202.2 829.0,197.1 830.5,194.1 831.9,196.1 833.3,189.1 834.8,187.0 836.2,192.1 837.6,201.2 839.0,189.1 840.5,177.0 841.9,180.0 843.3,184.0 844.8,183.0 846.2,178.0 847.6,185.0 849.1,167.9 850.5,172.9 851.9,182.0 853.4,177.0 854.8,171.9 856.2,179.0 857.6,188.0 859.1,185.0 860.5,177.0 861.9,179.0 863.4,187.0 864.8,182.0 866.2,182.0 867.6,184.0 869.1,181.0 870.5,167.9 871.9,160.8 873.4,160.8 874.8,156.8 876.2,157.8 877.7,160.8 879.1,168.9 880.5,179.0 882.0,174.9 883.4,171.9 884.8,181.0 886.2,174.9 887.7,170.9 889.1,168.9 890.5,168.9 892.0,174.9 893.4,163.9 894.8,156.8 896.2,151.8 897.7,157.8 899.1,156.8 900.5,159.8 902.0,159.8 903.4,155.8 904.8,162.8 906.3,168.9 907.7,170.9 909.1,164.9 910.5,163.9 912.0,172.9 913.4,186.0 914.8,202.2 916.3,227.4 917.7,239.5 919.1,243.5 920.6,255.6 922.0,270.7 923.4,277.8 924.9,287.8 926.3,288.8 927.7,288.8 929.1,291.9 930.6,293.9 932.0,295.9"/>
  <circle cx="108.3" cy="96.3" r="4" fill="#dc2626"/><text x="118.3" y="86.3" font-size="12" font-weight="600" fill="#991b1b">peak 210 instances</text>
  <text x="503.0" y="356" text-anchor="middle" font-size="12" fill="#6b7280">hours since telemetry start</text>
</svg>
