<svg xmlns="http://www.w3.org/2000/svg" width="960" height="360" viewBox="0 0 960 360" role="img" aria-labelledby="title desc">
  <title id="title">CPU usage (%) / platform + databases</title>
  <desc id="desc">Line chart for SekaiCTF 2026 telemetry over one weekend.</desc>
  <rect width="100%" height="100%" fill="#ffffff"/>
  <rect x="74" y="56" width="858" height="252" fill="#f9fafb" stroke="#d1d5db"/>
  <text x="74" y="30" font-size="20" font-weight="700" fill="#111827">CPU usage (%) / platform + databases</text>
  <line x1="74" y1="308.0" x2="932" y2="308.0" stroke="#e5e7eb" stroke-width="1"/><text x="62" y="312.0" text-anchor="end" font-size="12" fill="#4b5563">0</text><line x1="74" y1="257.6" x2="932" y2="257.6" stroke="#e5e7eb" stroke-width="1"/><text x="62" y="261.6" text-anchor="end" font-size="12" fill="#4b5563">60</text><line x1="74" y1="207.2" x2="932" y2="207.2" stroke="#e5e7eb" stroke-width="1"/><text x="62" y="211.2" text-anchor="end" font-size="12" fill="#4b5563">120</text><line x1="74" y1="156.8" x2="932" y2="156.8" stroke="#e5e7eb" stroke-width="1"/><text x="62" y="160.8" text-anchor="end" font-size="12" fill="#4b5563">180</text><line x1="74" y1="106.4" x2="932" y2="106.4" stroke="#e5e7eb" stroke-width="1"/><text x="62" y="110.4" text-anchor="end" font-size="12" fill="#4b5563">240</text><line x1="74" y1="56.0" x2="932" y2="56.0" stroke="#e5e7eb" stroke-width="1"/><text x="62" y="60.0" text-anchor="end" font-size="12" fill="#4b5563">300</text><line x1="74.0" y1="56" x2="74.0" y2="308" stroke="#f3f4f6" stroke-width="1"/><text x="74.0" y="342" text-anchor="middle" font-size="12" fill="#4b5563">0h</text><line x1="279.9" y1="56" x2="279.9" y2="308" stroke="#f3f4f6" stroke-width="1"/><text x="279.9" y="342" text-anchor="middle" font-size="12" fill="#4b5563">12h</text><line x1="485.8" y1="56" x2="485.8" y2="308" stroke="#f3f4f6" stroke-width="1"/><text x="485.8" y="342" text-anchor="middle" font-size="12" fill="#4b5563">24h</text><line x1="691.8" y1="56" x2="691.8" y2="308" stroke="#f3f4f6" stroke-width="1"/><text x="691.8" y="342" text-anchor="middle" font-size="12" fill="#4b5563">36h</text><line x1="897.7" y1="56" x2="897.7" y2="308" stroke="#f3f4f6" stroke-width="1"/><text x="897.7" y="342" text-anchor="middle" font-size="12" fill="#4b5563">48h</text>
  <line x1="91.2" y1="56" x2="91.2" y2="308" stroke="#f97316" stroke-width="1.5" stroke-dasharray="5 5"/><text x="95.2" y="46" font-size="12" fill="#9a3412">CTF start</text><line x1="511.6" y1="56" x2="511.6" y2="308" stroke="#f97316" stroke-width="1.5" stroke-dasharray="5 5"/><text x="515.6" y="46" font-size="12" fill="#9a3412">wave 2</text><line x1="914.8" y1="56" x2="914.8" y2="308" stroke="#f97316" stroke-width="1.5" stroke-dasharray="5 5"/><text x="918.8" y="46" font-size="12" fill="#9a3412">CTF end</text>
  <polyline fill="none" stroke="#16a34a" stroke-width="2.25" stroke-linejoin="round" stroke-linecap="round" points="74.0,274.6 74.3,279.0 74.6,284.6 74.9,276.0 75.1,285.0 75.4,275.9 75.7,289.9 76.0,284.5 76.3,284.1 76.6,273.6 76.9,277.5 77.1,277.8 77.4,278.8 77.7,281.7 78.0,275.0 78.3,279.7 78.6,282.3 78.9,270.1 79.1,282.7 79.4,279.7 79.7,278.6 80.0,276.2 80.3,277.0 80.6,274.7 80.9,275.2 81.2,276.8 81.4,287.4 81.7,279.0 82.0,284.1 82.3,278.5 82.6,268.7 82.9,274.5 83.2,274.1 83.4,266.8 83.7,270.5 84.0,268.0 84.3,263.4 84.6,271.1 84.9,269.3 85.2,266.8 85.4,266.3 85.7,264.6 86.0,265.0 86.3,257.8 86.6,257.8 86.9,260.5 87.2,260.5 87.4,268.7 87.7,271.5 88.0,267.0 88.3,237.8 88.6,271.0 88.9,268.7 89.2,260.0 89.4,249.8 89.7,242.5 90.0,252.6 90.3,223.4 90.6,248.9 90.9,203.5 91.2,161.8 91.4,131.2 91.7,98.8 92.0,93.7 92.3,82.0 92.6,114.5 92.9,114.8 93.2,126.5 93.4,117.7 93.7,123.6 94.0,123.0 94.3,114.7 94.6,139.2 94.9,106.4 95.2,90.4 95.5,100.4 95.7,118.3 96.0,112.9 96.3,116.4 96.6,116.1 96.9,129.8 97.2,126.3 97.5,104.1 97.7,107.1 98.0,101.1 98.3,123.6 98.6,113.6 98.9,124.6 99.2,100.4 99.5,108.8 99.7,124.0 100.0,133.2 100.3,113.0 100.6,122.2 100.9,114.3 101.2,96.5 101.5,112.2 101.7,126.3 102.0,124.3 102.3,110.1 102.6,143.8 102.9,130.8 103.2,123.9 103.5,122.3 103.7,123.5 104.0,143.5 104.3,135.0 104.6,136.7 104.9,147.3 105.2,149.2 105.5,130.6 105.7,117.0 106.0,133.5 106.3,129.1 106.6,134.5 106.9,121.9 107.2,117.7 107.5,126.6 107.7,124.6 108.0,116.0 108.3,110.6 108.6,117.8 108.9,125.6 109.2,123.9 109.5,132.0 109.8,132.4 110.0,138.0 110.3,123.7 110.6,81.5 110.9,114.1 111.2,118.7 111.5,125.9 111.8,104.6 112.0,138.7 112.3,126.3 112.6,132.8 112.9,110.5 113.2,108.8 113.5,115.4 113.8,127.7 114.0,135.2 114.3,147.0 114.6,155.3 114.9,122.9 115.2,139.7 115.5,112.1 115.8,125.8 116.0,112.4 116.3,129.8 116.6,144.1 116.9,116.0 117.2,130.6 117.5,135.5 117.8,140.9 118.0,136.1 118.3,148.9 118.6,109.5 118.9,113.2 119.2,128.0 119.5,100.5 119.8,116.3 120.0,137.8 120.3,151.9 120.6,144.1 120.9,102.5 121.2,145.8 121.5,143.1 121.8,134.0 122.0,158.3 122.3,135.5 122.6,145.5 122.9,148.9 123.2,148.4 123.5,169.7 123.8,146.8 124.0,151.6 124.3,142.6 124.6,137.6 124.9,150.1 125.2,132.6 125.5,153.4 125.8,166.6 126.1,135.7 126.3,142.1 126.6,138.7 126.9,132.1 127.2,145.5 127.5,124.8 127.8,114.3 128.1,127.7 128.3,142.9 128.6,126.1 128.9,152.5 129.2,141.6 129.5,158.0 129.8,145.0 130.1,140.7 130.3,153.2 130.6,128.5 130.9,127.2 131.2,138.3 131.5,134.8 131.8,148.7 132.1,122.4 132.3,133.3 132.6,143.9 132.9,141.3 133.2,134.2 133.5,152.3 133.8,148.7 134.1,153.8 134.3,137.3 134.6,147.2 134.9,152.0 135.2,153.6 135.5,172.1 135.8,167.3 136.1,135.2 136.3,152.1 136.6,132.2 136.9,133.8 137.2,152.6 137.5,137.1 137.8,129.8 138.1,137.7 138.3,161.8 138.6,151.3 138.9,159.7 139.2,133.7 139.5,149.7 139.8,151.8 140.1,143.4 140.4,150.2 140.6,131.3 140.9,160.7 141.2,136.4 141.5,149.9 141.8,146.1 142.1,178.0 142.4,160.8 142.6,147.6 142.9,141.2 143.2,137.8 143.5,140.6 143.8,129.3 144.1,146.1 144.4,155.7 144.6,139.9 144.9,152.9 145.2,147.4 145.5,155.6 145.8,138.7 146.1,146.8 146.4,137.5 146.6,156.6 146.9,160.8 147.2,154.4 147.5,133.5 147.8,122.2 148.1,157.5 148.4,167.6 148.6,152.7 148.9,150.3 149.2,159.7 149.5,141.3 149.8,143.1 150.1,163.7 150.4,163.4 150.6,180.0 150.9,164.6 151.2,164.6 151.5,169.1 151.8,152.9 152.1,165.7 152.4,158.3 152.7,148.3 152.9,174.9 153.2,144.5 153.5,168.7 153.8,169.5 154.1,150.2 154.4,159.1 154.7,143.8 154.9,159.0 155.2,172.3 155.5,162.0 155.8,172.2 156.1,157.2 156.4,172.4 156.7,163.8 156.9,157.9 157.2,154.5 157.5,159.3 157.8,155.2 158.1,165.0 158.4,158.0 158.7,145.3 158.9,145.4 159.2,146.4 159.5,163.0 159.8,171.2 160.1,158.8 160.4,137.2 160.7,177.9 160.9,154.9 161.2,157.6 161.5,146.6 161.8,170.7 162.1,160.5 162.4,139.7 162.7,143.8 162.9,152.4 163.2,160.3 163.5,158.8 163.8,142.3 164.1,150.2 164.4,168.2 164.7,139.5 164.9,132.6 165.2,147.3 165.5,138.7 165.8,162.2 166.1,135.0 166.4,134.0 166.7,141.8 166.9,158.6 167.2,130.7 167.5,149.6 167.8,146.6 168.1,149.7 168.4,157.2 168.7,166.3 169.0,172.3 169.2,157.9 169.5,155.3 169.8,159.2 170.1,156.8 170.4,156.3 170.7,148.0 171.0,134.0 171.2,156.0 171.5,149.0 171.8,134.8 172.1,115.8 172.4,173.0 172.7,170.7 173.0,162.9 173.2,159.7 173.5,155.5 173.8,173.2 174.1,152.2 174.4,161.3 174.7,168.0 175.0,158.4 175.2,149.7 175.5,139.1 175.8,165.1 176.1,151.4 176.4,179.0 176.7,170.4 177.0,173.9 177.2,146.6 177.5,159.8 177.8,135.0 178.1,167.0 178.4,156.6 178.7,131.3 179.0,130.7 179.2,157.1 179.5,144.5 179.8,159.5 180.1,146.8 180.4,143.8 180.7,138.0 181.0,145.4 181.2,136.1 181.5,150.9 181.8,152.5 182.1,162.2 182.4,174.1 182.7,140.9 183.0,140.8 183.3,141.4 183.5,169.9 183.8,170.6 184.1,150.9 184.4,160.7 184.7,141.7 185.0,157.6 185.3,161.8 185.5,148.8 185.8,138.2 186.1,128.1 186.4,139.2 186.7,145.2 187.0,149.0 187.3,157.9 187.5,124.9 187.8,174.2 188.1,155.3 188.4,152.2 188.7,162.6 189.0,174.4 189.3,173.7 189.5,159.0 189.8,137.7 190.1,142.4 190.4,151.3 190.7,145.3 191.0,149.3 191.3,140.2 191.5,127.3 191.8,134.4 192.1,120.2 192.4,148.0 192.7,131.1 193.0,154.1 193.3,142.9 193.5,151.9 193.8,157.5 194.1,166.3 194.4,145.6 194.7,161.5 195.0,128.7 195.3,143.5 195.6,140.8 195.8,137.4 196.1,156.7 196.4,137.1 196.7,147.7 197.0,156.1 197.3,109.9 197.6,163.6 197.8,148.7 198.1,180.1 198.4,147.9 198.7,150.3 199.0,164.6 199.3,161.6 199.6,168.9 199.8,166.8 200.1,146.0 200.4,170.0 200.7,151.3 201.0,135.5 201.3,143.9 201.6,142.4 201.8,138.3 202.1,159.6 202.4,153.9 202.7,156.1 203.0,150.3 203.3,152.9 203.6,144.9 203.8,154.4 204.1,170.1 204.4,162.9 204.7,155.4 205.0,144.7 205.3,168.3 205.6,147.3 205.8,156.0 206.1,113.0 206.4,119.8 206.7,124.6 207.0,140.4 207.3,148.7 207.6,155.2 207.8,134.0 208.1,141.7 208.4,140.6 208.7,123.8 209.0,155.0 209.3,149.7 209.6,144.3 209.8,128.5 210.1,153.2 210.4,135.7 210.7,133.6 211.0,120.5 211.3,150.8 211.6,154.3 211.9,143.7 212.1,149.0 212.4,162.9 212.7,150.8 213.0,145.8 213.3,137.6 213.6,172.7 213.9,147.4 214.1,151.1 214.4,142.7 214.7,135.0 215.0,160.3 215.3,158.5 215.6,144.6 215.9,156.4 216.1,169.6 216.4,180.7 216.7,139.3 217.0,153.9 217.3,155.3 217.6,176.9 217.9,139.9 218.1,156.8 218.4,178.5 218.7,164.5 219.0,176.5 219.3,144.4 219.6,149.7 219.9,153.9 220.1,162.2 220.4,137.1 220.7,133.4 221.0,144.9 221.3,158.9 221.6,155.5 221.9,140.4 222.1,157.8 222.4,159.1 222.7,132.4 223.0,146.6 223.3,161.1 223.6,143.8 223.9,163.8 224.2,129.8 224.4,157.3 224.7,150.4 225.0,142.0 225.3,153.6 225.6,157.3 225.9,167.8 226.2,170.1 226.4,160.0 226.7,184.0 227.0,155.4 227.3,158.5 227.6,136.9 227.9,140.8 228.2,157.1 228.4,155.5 228.7,148.0 229.0,145.6 229.3,146.7 229.6,176.7 229.9,163.4 230.2,153.2 230.4,153.5 230.7,163.4 231.0,175.9 231.3,137.9 231.6,150.8 231.9,157.1 232.2,143.4 232.4,176.2 232.7,181.1 233.0,171.4 233.3,174.7 233.6,149.7 233.9,141.8 234.2,148.3 234.4,163.3 234.7,172.1 235.0,169.3 235.3,197.3 235.6,185.8 235.9,175.0 236.2,175.9 236.4,157.6 236.7,173.9 237.0,150.1 237.3,158.5 237.6,181.0 237.9,162.1 238.2,177.0 238.4,175.4 238.7,166.5 239.0,187.0 239.3,183.3 239.6,188.6 239.9,161.6 240.2,162.8 240.5,180.0 240.7,171.3 241.0,167.1 241.3,168.6 241.6,173.1 241.9,145.4 242.2,166.5 242.5,139.0 242.7,178.3 243.0,165.5 243.3,161.2 243.6,133.8 243.9,155.3 244.2,167.2 244.5,162.2 244.7,183.5 245.0,192.9 245.3,164.2 245.6,170.4 245.9,170.3 246.2,171.4 246.5,148.7 246.7,179.4 247.0,169.5 247.3,192.4 247.6,155.0 247.9,161.1 248.2,163.1 248.5,155.2 248.7,143.7 249.0,180.3 249.3,164.9 249.6,169.7 249.9,185.4 250.2,168.9 250.5,187.2 250.7,173.3 251.0,163.9 251.3,151.7 251.6,167.0 251.9,160.4 252.2,190.3 252.5,190.1 252.8,164.9 253.0,172.4 253.3,178.2 253.6,183.1 253.9,174.2 254.2,179.0 254.5,200.4 254.8,167.0 255.0,183.4 255.3,183.1 255.6,177.7 255.9,197.4 256.2,164.1 256.5,170.9 256.8,157.6 257.0,182.8 257.3,177.1 257.6,173.5 257.9,190.5 258.2,196.9 258.5,164.0 258.8,151.0 259.0,184.9 259.3,174.8 259.6,169.0 259.9,189.7 260.2,154.6 260.5,176.3 260.8,181.2 261.0,164.4 261.3,184.7 261.6,166.6 261.9,151.9 262.2,169.1 262.5,166.3 262.8,159.7 263.0,163.0 263.3,152.4 263.6,169.8 263.9,174.8 264.2,166.9 264.5,151.2 264.8,175.9 265.0,178.7 265.3,189.0 265.6,177.2 265.9,179.6 266.2,175.8 266.5,155.2 266.8,184.2 267.1,184.4 267.3,182.8 267.6,188.7 267.9,177.0 268.2,180.7 268.5,172.2 268.8,187.6 269.1,176.3 269.3,200.4 269.6,171.6 269.9,169.2 270.2,199.1 270.5,176.0 270.8,173.9 271.1,203.8 271.3,213.4 271.6,210.2 271.9,183.9 272.2,174.0 272.5,188.2 272.8,170.2 273.1,178.6 273.3,170.2 273.6,169.9 273.9,182.3 274.2,166.7 274.5,193.4 274.8,180.2 275.1,165.2 275.3,169.9 275.6,200.7 275.9,185.5 276.2,184.9 276.5,179.8 276.8,175.1 277.1,176.0 277.3,163.4 277.6,189.3 277.9,177.4 278.2,180.2 278.5,194.7 278.8,161.0 279.1,183.7 279.3,194.0 279.6,164.2 279.9,168.9 280.2,171.1 280.5,167.0 280.8,184.4 281.1,202.5 281.4,186.5 281.6,193.4 281.9,194.4 282.2,193.1 282.5,178.5 282.8,192.0 283.1,187.5 283.4,202.9 283.6,187.1 283.9,160.2 284.2,197.5 284.5,157.5 284.8,163.1 285.1,180.6 285.4,172.5 285.6,180.3 285.9,187.8 286.2,195.4 286.5,179.1 286.8,184.9 287.1,189.1 287.4,174.4 287.6,177.7 287.9,182.0 288.2,191.1 288.5,175.1 288.8,191.7 289.1,193.8 289.4,191.7 289.6,181.6 289.9,166.5 290.2,166.2 290.5,173.0 290.8,197.7 291.1,189.6 291.4,173.4 291.6,178.5 291.9,202.4 292.2,157.7 292.5,208.1 292.8,158.8 293.1,174.5 293.4,194.3 293.6,192.8 293.9,174.3 294.2,176.0 294.5,154.5 294.8,195.4 295.1,185.6 295.4,169.7 295.6,193.8 295.9,189.3 296.2,198.5 296.5,193.0 296.8,192.6 297.1,182.6 297.4,212.5 297.7,178.4 297.9,174.9 298.2,200.7 298.5,179.3 298.8,165.0 299.1,194.9 299.4,174.9 299.7,199.9 299.9,178.1 300.2,202.3 300.5,187.0 300.8,182.8 301.1,180.8 301.4,169.5 301.7,175.8 301.9,204.9 302.2,193.0 302.5,175.5 302.8,198.9 303.1,196.0 303.4,199.7 303.7,188.6 303.9,189.2 304.2,197.6 304.5,181.7 304.8,149.2 305.1,170.0 305.4,152.9 305.7,198.6 305.9,180.1 306.2,170.2 306.5,221.6 306.8,186.1 307.1,199.1 307.4,213.4 307.7,176.3 307.9,170.5 308.2,202.2 308.5,191.8 308.8,184.8 309.1,173.6 309.4,202.5 309.7,199.6 309.9,216.3 310.2,195.4 310.5,197.8 310.8,199.3 311.1,194.5 311.4,180.5 311.7,201.4 312.0,179.6 312.2,188.0 312.5,184.2 312.8,172.2 313.1,191.9 313.4,190.2 313.7,192.2 314.0,213.5 314.2,196.3 314.5,192.8 314.8,189.1 315.1,181.0 315.4,187.5 315.7,201.3 316.0,207.6 316.2,186.8 316.5,192.9 316.8,220.6 317.1,215.7 317.4,183.9 317.7,207.3 318.0,211.5 318.2,232.7 318.5,198.7 318.8,201.9 319.1,197.8 319.4,225.9 319.7,206.1 320.0,217.9 320.2,200.4 320.5,219.5 320.8,221.0 321.1,186.1 321.4,188.1 321.7,186.7 322.0,180.1 322.2,171.2 322.5,179.7 322.8,190.4 323.1,190.1 323.4,185.1 323.7,213.8 324.0,178.0 324.2,175.1 324.5,183.7 324.8,205.7 325.1,172.3 325.4,195.8 325.7,187.9 326.0,201.7 326.3,214.8 326.5,207.5 326.8,193.1 327.1,199.6 327.4,184.3 327.7,182.1 328.0,219.5 328.3,210.2 328.5,184.8 328.8,191.3 329.1,177.0 329.4,205.5 329.7,165.4 330.0,194.9 330.3,191.7 330.5,187.6 330.8,219.5 331.1,200.6 331.4,191.0 331.7,194.2 332.0,187.3 332.3,193.8 332.5,190.3 332.8,162.4 333.1,193.7 333.4,197.0 333.7,197.5 334.0,207.0 334.3,224.1 334.5,203.7 334.8,203.8 335.1,184.5 335.4,184.7 335.7,201.2 336.0,185.6 336.3,211.8 336.5,210.2 336.8,200.6 337.1,195.9 337.4,207.3 337.7,210.5 338.0,189.8 338.3,188.3 338.6,213.0 338.8,201.2 339.1,203.7 339.4,192.7 339.7,199.7 340.0,196.0 340.3,191.0 340.6,200.7 340.8,201.1 341.1,222.9 341.4,203.5 341.7,227.4 342.0,213.2 342.3,193.3 342.6,180.7 342.8,189.7 343.1,186.7 343.4,174.6 343.7,197.5 344.0,179.8 344.3,195.4 344.6,199.1 344.8,214.1 345.1,207.5 345.4,205.9 345.7,186.7 346.0,187.0 346.3,211.1 346.6,184.7 346.8,205.2 347.1,175.8 347.4,173.1 347.7,188.6 348.0,172.1 348.3,195.4 348.6,200.6 348.8,190.5 349.1,199.1 349.4,203.7 349.7,184.7 350.0,207.2 350.3,187.5 350.6,176.9 350.8,197.9 351.1,173.2 351.4,185.9 351.7,195.7 352.0,181.2 352.3,199.1 352.6,187.0 352.9,202.3 353.1,188.6 353.4,183.9 353.7,191.7 354.0,196.8 354.3,172.1 354.6,188.6 354.9,173.6 355.1,199.9 355.4,182.3 355.7,198.7 356.0,209.5 356.3,200.2 356.6,194.6 356.9,204.0 357.1,185.7 357.4,208.1 357.7,193.7 358.0,196.1 358.3,182.6 358.6,200.6 358.9,202.8 359.1,201.7 359.4,207.2 359.7,188.7 360.0,203.1 360.3,184.5 360.6,178.9 360.9,200.0 361.1,194.7 361.4,198.3 361.7,220.4 362.0,204.7 362.3,196.7 362.6,222.2 362.9,198.0 363.1,213.1 363.4,207.5 363.7,207.0 364.0,199.1 364.3,194.9 364.6,195.5 364.9,193.2 365.1,190.0 365.4,193.1 365.7,192.2 366.0,211.8 366.3,201.6 366.6,202.7 366.9,198.2 367.1,193.3 367.4,217.1 367.7,198.3 368.0,194.6 368.3,185.4 368.6,192.2 368.9,191.8 369.2,194.4 369.4,192.4 369.7,190.1 370.0,171.8 370.3,198.6 370.6,190.1 370.9,198.1 371.2,203.4 371.4,197.4 371.7,199.2 372.0,189.2 372.3,221.9 372.6,197.1 372.9,211.5 373.2,190.8 373.4,212.6 373.7,194.7 374.0,206.4 374.3,201.3 374.6,162.0 374.9,182.7 375.2,213.8 375.4,173.0 375.7,195.4 376.0,212.2 376.3,220.6 376.6,211.1 376.9,196.4 377.2,201.1 377.4,202.7 377.7,206.4 378.0,196.4 378.3,195.8 378.6,205.1 378.9,191.7 379.2,195.8 379.4,170.6 379.7,160.4 380.0,208.0 380.3,198.4 380.6,204.4 380.9,190.6 381.2,198.6 381.4,176.5 381.7,181.8 382.0,189.1 382.3,202.9 382.6,203.1 382.9,199.1 383.2,200.3 383.5,183.9 383.7,182.4 384.0,181.2 384.3,189.4 384.6,204.8 384.9,201.5 385.2,210.1 385.5,187.4 385.7,202.8 386.0,210.8 386.3,206.6 386.6,198.6 386.9,190.8 387.2,197.1 387.5,197.9 387.7,193.2 388.0,201.2 388.3,181.4 388.6,185.2 388.9,196.0 389.2,200.9 389.5,189.0 389.7,176.8 390.0,193.8 390.3,201.2 390.6,194.4 390.9,187.2 391.2,172.9 391.5,196.2 391.7,183.5 392.0,177.3 392.3,173.0 392.6,175.6 392.9,189.2 393.2,193.4 393.5,200.7 393.7,198.2 394.0,194.2 394.3,189.5 394.6,156.7 394.9,194.7 395.2,199.3 395.5,199.8 395.8,189.1 396.0,164.6 396.3,101.2 396.6,175.5 396.9,163.6 397.2,154.3 397.5,174.9 397.8,138.7 398.0,155.5 398.3,172.2 398.6,167.6 398.9,166.6 399.2,164.2 399.5,221.3 399.8,173.4 400.0,197.0 400.3,186.6 400.6,190.7 400.9,192.6 401.2,183.6 401.5,203.6 401.8,183.6 402.0,190.9 402.3,175.4 402.6,196.8 402.9,183.3 403.2,197.6 403.5,175.3 403.8,167.4 404.0,172.8 404.3,190.1 404.6,185.6 404.9,195.2 405.2,185.9 405.5,182.6 405.8,191.8 406.0,214.1 406.3,196.1 406.6,199.6 406.9,202.9 407.2,205.0 407.5,195.9 407.8,200.0 408.0,178.2 408.3,188.0 408.6,188.7 408.9,201.5 409.2,211.2 409.5,180.5 409.8,189.0 410.1,179.5 410.3,188.7 410.6,189.7 410.9,205.9 411.2,192.1 411.5,196.7 411.8,193.9 412.1,180.1 412.3,202.7 412.6,186.1 412.9,192.5 413.2,187.3 413.5,182.1 413.8,189.6 414.1,170.7 414.3,177.9 414.6,211.7 414.9,183.7 415.2,186.5 415.5,173.8 415.8,200.6 416.1,194.6 416.3,197.1 416.6,158.6 416.9,183.9 417.2,189.2 417.5,191.8 417.8,187.2 418.1,196.0 418.3,185.5 418.6,200.2 418.9,145.0 419.2,196.4 419.5,200.8 419.8,183.3 420.1,171.2 420.3,197.5 420.6,166.5 420.9,182.3 421.2,168.9 421.5,173.3 421.8,180.3 422.1,165.9 422.3,185.8 422.6,196.4 422.9,179.1 423.2,193.8 423.5,191.0 423.8,199.2 424.1,189.3 424.4,162.3 424.6,172.4 424.9,193.2 425.2,187.8 425.5,175.3 425.8,197.8 426.1,176.2 426.4,177.6 426.6,186.0 426.9,184.6 427.2,192.8 427.5,187.5 427.8,186.2 428.1,199.0 428.4,173.8 428.6,175.1 428.9,190.4 429.2,109.9 429.5,194.4 429.8,189.1 430.1,201.7 430.4,197.4 430.6,203.2 430.9,183.5 431.2,168.6 431.5,180.5 431.8,218.0 432.1,210.6 432.4,213.7 432.6,185.9 432.9,176.0 433.2,197.7 433.5,186.9 433.8,181.1 434.1,187.5 434.4,180.5 434.6,176.4 434.9,190.1 435.2,193.9 435.5,185.2 435.8,175.6 436.1,203.2 436.4,194.9 436.6,189.9 436.9,192.4 437.2,188.9 437.5,190.6 437.8,200.7 438.1,180.4 438.4,189.8 438.6,200.5 438.9,206.4 439.2,218.0 439.5,211.4 439.8,191.9 440.1,180.6 440.4,219.6 440.7,200.6 440.9,211.7 441.2,200.1 441.5,218.9 441.8,190.9 442.1,206.3 442.4,210.0 442.7,216.1 442.9,186.2 443.2,214.9 443.5,119.3 443.8,218.5 444.1,193.5 444.4,207.8 444.7,205.1 444.9,232.8 445.2,200.1 445.5,220.7 445.8,204.5 446.1,191.1 446.4,183.8 446.7,213.7 446.9,215.3 447.2,197.7 447.5,177.0 447.8,204.0 448.1,166.3 448.4,200.6 448.7,188.0 448.9,181.2 449.2,190.2 449.5,164.9 449.8,183.5 450.1,187.8 450.4,185.9 450.7,175.2 450.9,181.7 451.2,188.9 451.5,182.3 451.8,194.3 452.1,188.7 452.4,213.2 452.7,184.9 452.9,178.2 453.2,176.8 453.5,176.5 453.8,193.2 454.1,204.8 454.4,191.3 454.7,195.4 455.0,158.5 455.2,190.8 455.5,172.3 455.8,192.5 456.1,168.3 456.4,184.4 456.7,177.9 457.0,190.5 457.2,188.8 457.5,182.5 457.8,164.7 458.1,193.3 458.4,202.7 458.7,175.1 459.0,184.3 459.2,177.3 459.5,189.1 459.8,179.9 460.1,196.4 460.4,206.5 460.7,213.2 461.0,182.8 461.2,186.6 461.5,189.6 461.8,183.8 462.1,205.9 462.4,177.9 462.7,175.9 463.0,196.8 463.2,190.4 463.5,176.8 463.8,185.1 464.1,178.7 464.4,185.7 464.7,176.4 465.0,201.4 465.2,181.4 465.5,187.0 465.8,160.2 466.1,187.7 466.4,167.3 466.7,196.4 467.0,153.6 467.2,176.0 467.5,181.4 467.8,194.9 468.1,186.5 468.4,205.7 468.7,168.9 469.0,171.5 469.3,169.4 469.5,184.7 469.8,170.7 470.1,208.6 470.4,178.6 470.7,194.3 471.0,147.4 471.3,177.3 471.5,171.2 471.8,169.7 472.1,186.4 472.4,166.7 472.7,183.8 473.0,191.7 473.3,186.2 473.5,195.6 473.8,173.3 474.1,216.9 474.4,198.5 474.7,190.2 475.0,208.9 475.3,207.8 475.5,201.2 475.8,190.8 476.1,189.4 476.4,192.9 476.7,136.3 477.0,205.9 477.3,183.3 477.5,172.7 477.8,168.6 478.1,180.6 478.4,172.0 478.7,165.7 479.0,132.0 479.3,195.8 479.5,190.4 479.8,188.8 480.1,190.0 480.4,187.0 480.7,195.5 481.0,203.0 481.3,176.2 481.6,214.1 481.8,195.4 482.1,200.3 482.4,204.2 482.7,171.5 483.0,184.2 483.3,210.9 483.6,203.6 483.8,194.2 484.1,206.7 484.4,211.4 484.7,183.4 485.0,209.4 485.3,205.1 485.6,174.7 485.8,184.9 486.1,190.0 486.4,185.3 486.7,197.2 487.0,182.2 487.3,210.4 487.6,189.0 487.8,197.2 488.1,180.2 488.4,186.2 488.7,198.0 489.0,203.3 489.3,198.9 489.6,182.9 489.8,190.9 490.1,168.8 490.4,200.1 490.7,183.1 491.0,175.8 491.3,208.2 491.6,179.1 491.8,196.6 492.1,174.3 492.4,190.1 492.7,197.3 493.0,191.7 493.3,173.6 493.6,204.3 493.8,194.3 494.1,179.3 494.4,187.4 494.7,201.8 495.0,198.2 495.3,209.9 495.6,170.0 495.9,191.2 496.1,188.1 496.4,183.3 496.7,173.1 497.0,189.8 497.3,194.1 497.6,177.5 497.9,172.3 498.1,184.8 498.4,168.6 498.7,202.2 499.0,182.1 499.3,197.2 499.6,195.0 499.9,153.7 500.1,200.6 500.4,185.2 500.7,186.0 501.0,181.0 501.3,194.3 501.6,208.6 501.9,173.6 502.1,199.0 502.4,193.7 502.7,195.1 503.0,196.3 503.3,179.6 503.6,163.4 503.9,137.7 504.1,134.0 504.4,161.5 504.7,159.3 505.0,151.9 505.3,140.5 505.6,151.8 505.9,168.6 506.1,142.9 506.4,157.4 506.7,139.2 507.0,135.7 507.3,130.2 507.6,155.7 507.9,123.0 508.1,149.7 508.4,114.7 508.7,113.2 509.0,141.9 509.3,135.5 509.6,138.0 509.9,134.1 510.1,159.7 510.4,144.2 510.7,165.1 511.0,141.0 511.3,154.3 511.6,155.8 511.9,153.8 512.2,153.3 512.4,133.9 512.7,150.7 513.0,147.6 513.3,128.2 513.6,167.0 513.9,123.4 514.2,151.6 514.4,161.6 514.7,164.3 515.0,179.9 515.3,159.8 515.6,153.8 515.9,181.2 516.2,133.6 516.4,165.2 516.7,153.5 517.0,168.9 517.3,157.1 517.6,145.1 517.9,152.3 518.2,165.5 518.4,155.0 518.7,151.2 519.0,164.3 519.3,168.5 519.6,136.6 519.9,118.2 520.2,175.2 520.4,125.6 520.7,149.7 521.0,135.6 521.3,121.9 521.6,163.4 521.9,165.5 522.2,143.0 522.4,140.5 522.7,166.0 523.0,131.5 523.3,159.7 523.6,171.5 523.9,170.2 524.2,164.4 524.5,157.6 524.7,156.8 525.0,153.9 525.3,146.9 525.6,179.9 525.9,149.8 526.2,179.3 526.5,153.4 526.7,157.6 527.0,128.4 527.3,175.2 527.6,160.0 527.9,160.2 528.2,160.4 528.5,164.9 528.7,149.7 529.0,146.6 529.3,178.1 529.6,151.8 529.9,174.8 530.2,167.6 530.5,167.4 530.7,136.8 531.0,180.9 531.3,173.8 531.6,157.6 531.9,168.8 532.2,173.6 532.5,151.0 532.7,188.4 533.0,157.0 533.3,162.8 533.6,138.7 533.9,140.2 534.2,157.0 534.5,148.8 534.7,178.6 535.0,93.9 535.3,154.4 535.6,129.7 535.9,145.5 536.2,169.2 536.5,169.5 536.7,154.8 537.0,156.4 537.3,171.3 537.6,155.0 537.9,183.1 538.2,180.2 538.5,169.8 538.8,187.4 539.0,166.0 539.3,190.3 539.6,156.0 539.9,159.9 540.2,139.8 540.5,160.7 540.8,141.3 541.0,161.1 541.3,143.7 541.6,148.9 541.9,126.3 542.2,163.6 542.5,162.1 542.8,174.3 543.0,159.9 543.3,141.3 543.6,167.0 543.9,159.7 544.2,189.4 544.5,168.6 544.8,146.3 545.0,157.6 545.3,165.6 545.6,168.3 545.9,140.9 546.2,163.1 546.5,128.7 546.8,162.8 547.0,154.4 547.3,145.0 547.6,151.9 547.9,160.0 548.2,138.9 548.5,168.1 548.8,177.0 549.0,190.4 549.3,181.2 549.6,164.0 549.9,177.2 550.2,181.5 550.5,158.9 550.8,180.6 551.0,187.9 551.3,194.8 551.6,147.8 551.9,175.1 552.2,173.3 552.5,168.1 552.8,141.3 553.0,117.7 553.3,155.1 553.6,146.9 553.9,175.8 554.2,170.8 554.5,181.0 554.8,150.4 555.1,168.2 555.3,144.1 555.6,179.7 555.9,185.9 556.2,147.0 556.5,172.9 556.8,143.0 557.1,149.7 557.3,171.8 557.6,181.1 557.9,165.1 558.2,148.8 558.5,176.4 558.8,164.3 559.1,173.6 559.3,192.2 559.6,150.5 559.9,185.4 560.2,175.3 560.5,187.3 560.8,153.4 561.1,170.0 561.3,150.1 561.6,174.8 561.9,175.8 562.2,192.4 562.5,169.4 562.8,177.4 563.1,189.1 563.3,190.7 563.6,159.5 563.9,197.0 564.2,168.4 564.5,159.2 564.8,146.0 565.1,165.4 565.3,167.2 565.6,165.4 565.9,157.8 566.2,175.8 566.5,170.6 566.8,144.0 567.1,155.4 567.4,147.7 567.6,151.3 567.9,152.2 568.2,140.5 568.5,129.5 568.8,168.6 569.1,148.5 569.4,166.0 569.6,125.3 569.9,157.7 570.2,132.4 570.5,158.0 570.8,157.1 571.1,135.8 571.4,156.0 571.6,148.1 571.9,151.3 572.2,145.9 572.5,182.3 572.8,148.9 573.1,170.8 573.4,182.5 573.6,176.1 573.9,139.0 574.2,187.0 574.5,150.9 574.8,162.3 575.1,134.9 575.4,148.1 575.6,186.5 575.9,147.0 576.2,163.0 576.5,172.1 576.8,162.2 577.1,175.9 577.4,162.8 577.6,154.1 577.9,170.0 578.2,164.4 578.5,139.0 578.8,154.9 579.1,152.3 579.4,138.2 579.6,167.6 579.9,163.8 580.2,164.0 580.5,157.0 580.8,152.2 581.1,198.1 581.4,193.6 581.6,179.7 581.9,178.0 582.2,167.0 582.5,157.8 582.8,170.6 583.1,143.4 583.4,168.4 583.7,156.8 583.9,188.6 584.2,145.0 584.5,145.2 584.8,175.6 585.1,151.9 585.4,152.3 585.7,172.2 585.9,180.3 586.2,145.7 586.5,149.2 586.8,143.0 587.1,136.1 587.4,139.8 587.7,135.5 587.9,145.5 588.2,102.4 588.5,153.1 588.8,163.8 589.1,151.2 589.4,161.0 589.7,173.4 589.9,142.7 590.2,147.7 590.5,173.9 590.8,138.6 591.1,175.3 591.4,178.9 591.7,197.9 591.9,169.4 592.2,141.4 592.5,169.0 592.8,159.2 593.1,152.0 593.4,177.5 593.7,190.1 593.9,176.0 594.2,170.6 594.5,154.0 594.8,188.4 595.1,170.2 595.4,162.1 595.7,169.8 596.0,176.7 596.2,134.0 596.5,159.4 596.8,180.7 597.1,153.2 597.4,166.0 597.7,168.7 598.0,152.1 598.2,141.0 598.5,159.2 598.8,163.5 599.1,184.9 599.4,185.5 599.7,180.4 600.0,169.3 600.2,179.1 600.5,168.3 600.8,184.4 601.1,165.8 601.4,136.5 601.7,163.8 602.0,178.8 602.2,156.9 602.5,186.9 602.8,187.1 603.1,150.6 603.4,149.0 603.7,171.8 604.0,132.2 604.2,170.4 604.5,185.9 604.8,166.2 605.1,150.7 605.4,145.8 605.7,161.7 606.0,160.9 606.2,141.3 606.5,155.3 606.8,173.4 607.1,181.7 607.4,148.1 607.7,147.6 608.0,168.7 608.2,175.7 608.5,178.1 608.8,148.2 609.1,174.5 609.4,149.4 609.7,164.9 610.0,152.4 610.2,144.5 610.5,140.2 610.8,176.5 611.1,173.9 611.4,173.0 611.7,138.6 612.0,149.0 612.3,149.3 612.5,154.2 612.8,166.0 613.1,153.1 613.4,161.1 613.7,148.6 614.0,152.9 614.3,156.5 614.5,178.1 614.8,170.3 615.1,169.1 615.4,144.0 615.7,142.8 616.0,172.8 616.3,141.0 616.5,115.5 616.8,156.8 617.1,159.5 617.4,177.9 617.7,132.4 618.0,162.4 618.3,178.6 618.5,162.0 618.8,184.9 619.1,179.3 619.4,133.1 619.7,147.0 620.0,151.8 620.3,179.3 620.5,152.1 620.8,163.4 621.1,176.8 621.4,176.8 621.7,165.6 622.0,142.4 622.3,154.4 622.5,160.1 622.8,149.2 623.1,155.7 623.4,186.5 623.7,159.6 624.0,154.6 624.3,145.3 624.5,180.7 624.8,142.6 625.1,185.8 625.4,173.2 625.7,135.5 626.0,167.0 626.3,156.0 626.6,137.4 626.8,145.1 627.1,126.4 627.4,127.1 627.7,109.4 628.0,96.4 628.3,165.8 628.6,158.6 628.8,151.6 629.1,168.3 629.4,109.2 629.7,150.4 630.0,164.5 630.3,147.6 630.6,161.3 630.8,128.8 631.1,184.5 631.4,171.0 631.7,159.7 632.0,156.5 632.3,135.0 632.6,171.1 632.8,109.9 633.1,191.3 633.4,154.0 633.7,144.5 634.0,150.9 634.3,164.4 634.6,159.8 634.8,136.6 635.1,141.9 635.4,189.3 635.7,181.8 636.0,177.5 636.3,181.2 636.6,162.2 636.8,172.3 637.1,197.1 637.4,169.5 637.7,162.4 638.0,171.2 638.3,171.3 638.6,111.6 638.9,153.0 639.1,185.7 639.4,158.7 639.7,171.4 640.0,184.5 640.3,186.1 640.6,197.7 640.9,185.3 641.1,177.0 641.4,134.5 641.7,144.3 642.0,178.9 642.3,152.3 642.6,166.7 642.9,173.7 643.1,131.9 643.4,171.2 643.7,149.7 644.0,160.8 644.3,182.0 644.6,154.5 644.9,155.0 645.1,165.2 645.4,180.5 645.7,167.6 646.0,150.6 646.3,166.0 646.6,175.2 646.9,173.3 647.1,133.6 647.4,174.4 647.7,157.1 648.0,173.9 648.3,154.2 648.6,174.9 648.9,176.0 649.1,156.4 649.4,170.1 649.7,124.2 650.0,157.7 650.3,169.7 650.6,187.3 650.9,170.8 651.1,157.7 651.4,175.7 651.7,160.2 652.0,181.7 652.3,178.5 652.6,167.0 652.9,193.9 653.1,165.8 653.4,154.2 653.7,133.5 654.0,126.0 654.3,156.5 654.6,141.0 654.9,144.9 655.2,146.5 655.4,166.5 655.7,171.6 656.0,111.9 656.3,186.6 656.6,146.0 656.9,171.2 657.2,162.3 657.4,173.3 657.7,122.2 658.0,151.8 658.3,178.8 658.6,154.6 658.9,157.1 659.2,186.9 659.4,163.1 659.7,164.6 660.0,171.2 660.3,166.0 660.6,201.4 660.9,181.8 661.2,184.5 661.4,177.7 661.7,182.0 662.0,156.5 662.3,150.5 662.6,158.1 662.9,153.9 663.2,172.6 663.4,163.9 663.7,176.5 664.0,161.9 664.3,165.8 664.6,169.7 664.9,191.8 665.2,173.4 665.4,153.7 665.7,172.6 666.0,150.3 666.3,171.0 666.6,186.6 666.9,165.6 667.2,173.2 667.5,195.2 667.7,189.9 668.0,179.3 668.3,174.4 668.6,173.5 668.9,179.0 669.2,175.3 669.5,168.6 669.7,171.6 670.0,174.3 670.3,160.2 670.6,170.0 670.9,171.5 671.2,201.2 671.5,183.7 671.7,189.9 672.0,183.3 672.3,179.1 672.6,190.9 672.9,188.0 673.2,200.1 673.5,191.6 673.7,201.7 674.0,177.8 674.3,177.5 674.6,199.5 674.9,179.6 675.2,181.2 675.5,200.7 675.7,149.3 676.0,159.4 676.3,138.2 676.6,174.9 676.9,184.6 677.2,158.2 677.5,157.0 677.7,177.5 678.0,181.2 678.3,173.7 678.6,162.7 678.9,164.4 679.2,182.2 679.5,178.6 679.7,178.6 680.0,182.7 680.3,190.4 680.6,166.8 680.9,180.6 681.2,182.1 681.5,147.1 681.8,174.9 682.0,169.0 682.3,168.5 682.6,159.9 682.9,178.6 683.2,147.2 683.5,205.0 683.8,208.0 684.0,186.5 684.3,193.4 684.6,197.9 684.9,197.8 685.2,163.5 685.5,181.0 685.8,194.5 686.0,167.2 686.3,164.5 686.6,171.5 686.9,213.2 687.2,179.6 687.5,179.0 687.8,187.8 688.0,187.3 688.3,186.9 688.6,168.1 688.9,156.7 689.2,196.9 689.5,198.3 689.8,204.6 690.0,156.9 690.3,212.9 690.6,200.4 690.9,173.8 691.2,187.3 691.5,166.1 691.8,188.5 692.0,190.9 692.3,186.5 692.6,201.9 692.9,186.8 693.2,201.7 693.5,189.9 693.8,193.0 694.0,161.4 694.3,205.4 694.6,206.0 694.9,204.3 695.2,198.2 695.5,200.8 695.8,214.8 696.0,203.3 696.3,194.9 696.6,154.8 696.9,188.6 697.2,167.4 697.5,175.0 697.8,200.5 698.1,169.8 698.3,169.0 698.6,191.7 698.9,177.7 699.2,203.2 699.5,184.6 699.8,181.3 700.1,202.3 700.3,196.9 700.6,188.9 700.9,211.0 701.2,209.6 701.5,213.0 701.8,209.6 702.1,190.1 702.3,170.8 702.6,178.5 702.9,180.6 703.2,198.8 703.5,187.5 703.8,201.6 704.1,173.3 704.3,214.3 704.6,189.6 704.9,188.1 705.2,199.3 705.5,210.8 705.8,218.0 706.1,210.6 706.3,205.7 706.6,202.6 706.9,182.8 707.2,204.4 707.5,181.9 707.8,204.3 708.1,201.8 708.3,184.9 708.6,214.5 708.9,205.9 709.2,225.9 709.5,226.6 709.8,204.0 710.1,198.3 710.4,189.1 710.6,197.3 710.9,196.5 711.2,179.8 711.5,186.4 711.8,189.0 712.1,211.6 712.4,196.6 712.6,213.8 712.9,213.4 713.2,209.5 713.5,193.4 713.8,199.8 714.1,212.9 714.4,174.7 714.6,188.0 714.9,210.2 715.2,210.6 715.5,181.5 715.8,199.0 716.1,175.3 716.4,189.5 716.6,206.0 716.9,219.8 717.2,176.5 717.5,195.0 717.8,199.6 718.1,222.0 718.4,228.0 718.6,207.3 718.9,222.3 719.2,228.1 719.5,195.5 719.8,225.7 720.1,186.7 720.4,193.8 720.6,175.5 720.9,189.9 721.2,206.4 721.5,170.2 721.8,212.0 722.1,189.2 722.4,198.6 722.6,214.9 722.9,200.8 723.2,222.4 723.5,202.7 723.8,204.3 724.1,202.3 724.4,184.9 724.6,200.4 724.9,188.0 725.2,206.3 725.5,189.6 725.8,212.8 726.1,171.2 726.4,184.2 726.7,222.5 726.9,188.5 727.2,200.1 727.5,202.7 727.8,195.9 728.1,180.9 728.4,193.0 728.7,215.3 728.9,196.9 729.2,214.3 729.5,220.3 729.8,219.4 730.1,217.2 730.4,209.8 730.7,184.4 730.9,220.0 731.2,207.3 731.5,217.4 731.8,209.0 732.1,216.7 732.4,213.2 732.7,198.4 732.9,231.2 733.2,198.0 733.5,236.9 733.8,220.1 734.1,211.1 734.4,216.1 734.7,189.1 734.9,200.1 735.2,183.3 735.5,205.4 735.8,224.3 736.1,217.3 736.4,204.7 736.7,196.0 736.9,197.0 737.2,198.3 737.5,195.6 737.8,200.5 738.1,206.9 738.4,217.7 738.7,197.5 739.0,224.3 739.2,181.7 739.5,202.9 739.8,214.8 740.1,176.0 740.4,216.3 740.7,219.2 741.0,195.7 741.2,188.1 741.5,198.9 741.8,204.8 742.1,183.1 742.4,222.2 742.7,207.9 743.0,238.6 743.2,210.1 743.5,242.6 743.8,225.9 744.1,215.1 744.4,214.3 744.7,202.2 745.0,204.8 745.2,206.7 745.5,213.2 745.8,193.8 746.1,184.5 746.4,229.2 746.7,226.6 747.0,212.7 747.2,218.5 747.5,217.1 747.8,192.0 748.1,219.6 748.4,234.2 748.7,194.9 749.0,211.7 749.2,226.1 749.5,213.6 749.8,221.7 750.1,209.4 750.4,203.7 750.7,197.9 751.0,205.7 751.2,220.2 751.5,216.8 751.8,226.3 752.1,224.4 752.4,181.2 752.7,214.1 753.0,211.7 753.2,202.5 753.5,213.8 753.8,195.0 754.1,216.2 754.4,206.1 754.7,207.3 755.0,209.4 755.3,212.0 755.5,185.9 755.8,205.4 756.1,182.3 756.4,188.1 756.7,193.4 757.0,199.9 757.3,193.9 757.5,222.7 757.8,203.0 758.1,232.6 758.4,229.0 758.7,231.4 759.0,205.7 759.3,229.4 759.5,214.4 759.8,211.7 760.1,226.9 760.4,216.4 760.7,217.8 761.0,225.3 761.3,195.7 761.5,221.1 761.8,187.1 762.1,209.2 762.4,199.1 762.7,192.6 763.0,176.0 763.3,203.1 763.5,212.2 763.8,201.8 764.1,155.0 764.4,221.1 764.7,227.4 765.0,213.4 765.3,219.0 765.5,200.7 765.8,187.3 766.1,194.8 766.4,188.9 766.7,200.1 767.0,201.0 767.3,187.6 767.5,189.4 767.8,227.7 768.1,213.9 768.4,201.2 768.7,213.9 769.0,219.3 769.3,202.7 769.6,204.3 769.8,187.1 770.1,171.1 770.4,212.9 770.7,198.6 771.0,222.9 771.3,185.2 771.6,224.8 771.8,206.4 772.1,207.4 772.4,203.5 772.7,216.5 773.0,201.8 773.3,211.2 773.6,214.8 773.8,185.4 774.1,206.4 774.4,229.5 774.7,216.3 775.0,211.6 775.3,221.5 775.6,228.7 775.8,209.6 776.1,204.8 776.4,180.7 776.7,199.6 777.0,204.8 777.3,218.5 777.6,213.3 777.8,209.6 778.1,209.0 778.4,204.3 778.7,215.9 779.0,214.8 779.3,216.0 779.6,219.5 779.8,237.4 780.1,224.3 780.4,198.5 780.7,167.6 781.0,190.7 781.3,190.6 781.6,232.7 781.9,210.4 782.1,225.8 782.4,200.5 782.7,223.7 783.0,194.6 783.3,202.4 783.6,205.5 783.9,200.2 784.1,217.2 784.4,224.0 784.7,193.8 785.0,213.9 785.3,223.6 785.6,215.8 785.9,187.6 786.1,187.7 786.4,189.9 786.7,209.2 787.0,206.4 787.3,212.2 787.6,208.3 787.9,210.5 788.1,198.0 788.4,201.7 788.7,209.4 789.0,205.0 789.3,223.3 789.6,200.2 789.9,225.2 790.1,196.6 790.4,209.7 790.7,179.1 791.0,183.6 791.3,177.0 791.6,200.1 791.9,194.1 792.1,196.2 792.4,203.3 792.7,213.4 793.0,210.2 793.3,204.3 793.6,209.2 793.9,207.0 794.1,188.6 794.4,169.7 794.7,183.8 795.0,199.2 795.3,180.7 795.6,193.8 795.9,180.1 796.1,193.8 796.4,205.1 796.7,225.8 797.0,190.1 797.3,195.8 797.6,189.3 797.9,213.2 798.2,213.8 798.4,206.0 798.7,200.5 799.0,211.7 799.3,216.5 799.6,207.5 799.9,195.0 800.2,210.1 800.4,216.2 800.7,194.4 801.0,208.1 801.3,203.5 801.6,178.0 801.9,227.5 802.2,199.0 802.4,211.5 802.7,217.3 803.0,215.4 803.3,217.9 803.6,204.1 803.9,190.4 804.2,141.8 804.4,190.2 804.7,220.3 805.0,216.4 805.3,205.6 805.6,220.3 805.9,204.9 806.2,194.6 806.4,210.6 806.7,197.0 807.0,202.1 807.3,217.3 807.6,205.5 807.9,186.5 808.2,158.1 808.4,200.7 808.7,211.5 809.0,217.8 809.3,204.0 809.6,191.2 809.9,216.0 810.2,206.5 810.5,216.2 810.7,190.6 811.0,197.4 811.3,195.7 811.6,187.2 811.9,185.3 812.2,189.0 812.5,200.7 812.7,203.4 813.0,191.2 813.3,198.1 813.6,184.5 813.9,198.4 814.2,198.0 814.5,202.9 814.7,190.7 815.0,187.2 815.3,170.2 815.6,187.3 815.9,180.4 816.2,205.7 816.5,183.1 816.7,181.3 817.0,185.9 817.3,220.4 817.6,207.2 817.9,215.4 818.2,209.9 818.5,216.9 818.7,205.5 819.0,196.7 819.3,207.7 819.6,195.0 819.9,192.7 820.2,198.5 820.5,197.6 820.7,212.8 821.0,189.8 821.3,210.1 821.6,187.2 821.9,194.6 822.2,169.3 822.5,197.9 822.7,169.9 823.0,170.7 823.3,195.1 823.6,168.8 823.9,194.3 824.2,196.2 824.5,199.3 824.8,203.9 825.0,200.1 825.3,196.9 825.6,201.7 825.9,195.3 826.2,192.6 826.5,197.0 826.8,190.1 827.0,184.7 827.3,227.4 827.6,199.2 827.9,209.6 828.2,227.2 828.5,197.6 828.8,214.7 829.0,212.7 829.3,182.3 829.6,160.0 829.9,177.0 830.2,178.1 830.5,198.5 830.8,213.9 831.0,199.3 831.3,184.4 831.6,203.8 831.9,190.3 832.2,190.4 832.5,213.4 832.8,214.7 833.0,188.6 833.3,197.2 833.6,199.3 833.9,217.6 834.2,185.9 834.5,211.1 834.8,197.0 835.0,199.4 835.3,212.7 835.6,209.0 835.9,205.9 836.2,180.7 836.5,183.0 836.8,196.1 837.0,179.5 837.3,188.1 837.6,168.0 837.9,178.8 838.2,207.4 838.5,198.0 838.8,185.1 839.0,194.6 839.3,182.1 839.6,174.2 839.9,209.6 840.2,177.1 840.5,165.4 840.8,165.8 841.1,193.0 841.3,176.4 841.6,193.4 841.9,173.4 842.2,213.7 842.5,184.9 842.8,198.1 843.1,188.0 843.3,202.7 843.6,198.4 843.9,188.6 844.2,181.9 844.5,176.5 844.8,193.8 845.1,216.0 845.3,192.6 845.6,192.2 845.9,189.5 846.2,184.9 846.5,190.4 846.8,175.8 847.1,200.6 847.3,193.4 847.6,191.7 847.9,191.7 848.2,199.5 848.5,185.1 848.8,165.1 849.1,166.0 849.3,160.3 849.6,182.3 849.9,186.4 850.2,191.2 850.5,172.1 850.8,176.4 851.1,199.2 851.3,191.2 851.6,174.4 851.9,153.5 852.2,176.1 852.5,188.8 852.8,193.7 853.1,202.5 853.4,186.4 853.6,199.6 853.9,215.9 854.2,180.2 854.5,185.7 854.8,186.1 855.1,184.3 855.4,170.2 855.6,186.4 855.9,186.0 856.2,190.7 856.5,169.9 856.8,213.6 857.1,185.9 857.4,195.9 857.6,215.0 857.9,176.8 858.2,201.0 858.5,182.8 858.8,188.4 859.1,165.7 859.4,174.0 859.6,166.0 859.9,163.9 860.2,192.2 860.5,127.2 860.8,185.9 861.1,159.7 861.4,161.8 861.6,172.3 861.9,184.6 862.2,177.8 862.5,197.9 862.8,221.0 863.1,166.4 863.4,200.1 863.6,166.5 863.9,199.6 864.2,191.7 864.5,155.5 864.8,190.0 865.1,179.2 865.4,200.1 865.6,185.1 865.9,194.9 866.2,175.5 866.5,192.0 866.8,195.2 867.1,194.5 867.4,174.1 867.6,179.9 867.9,174.0 868.2,160.1 868.5,156.9 868.8,176.8 869.1,167.7 869.4,179.1 869.7,180.1 869.9,175.8 870.2,167.6 870.5,199.1 870.8,179.3 871.1,164.4 871.4,152.1 871.7,163.3 871.9,134.1 872.2,165.3 872.5,171.3 872.8,157.3 873.1,149.7 873.4,190.5 873.7,184.5 873.9,176.2 874.2,211.0 874.5,167.7 874.8,183.3 875.1,170.1 875.4,170.9 875.7,151.0 875.9,168.8 876.2,175.5 876.5,171.4 876.8,163.7 877.1,164.9 877.4,159.7 877.7,195.9 877.9,191.2 878.2,175.6 878.5,173.0 878.8,196.8 879.1,187.5 879.4,180.2 879.7,158.5 879.9,178.2 880.2,198.9 880.5,182.8 880.8,190.8 881.1,158.3 881.4,174.3 881.7,163.8 882.0,184.3 882.2,181.2 882.5,170.9 882.8,160.7 883.1,160.1 883.4,165.1 883.7,152.3 884.0,176.8 884.2,148.6 884.5,183.8 884.8,187.5 885.1,164.7 885.4,154.9 885.7,172.3 886.0,176.6 886.2,175.7 886.5,178.0 886.8,172.9 887.1,175.4 887.4,179.9 887.7,197.1 888.0,205.2 888.2,202.1 888.5,158.7 888.8,181.1 889.1,153.3 889.4,166.5 889.7,159.2 890.0,169.3 890.2,171.5 890.5,150.5 890.8,181.0 891.1,180.3 891.4,129.7 891.7,170.6 892.0,166.9 892.2,157.2 892.5,191.3 892.8,203.7 893.1,198.4 893.4,182.7 893.7,155.9 894.0,188.4 894.2,197.5 894.5,184.5 894.8,173.3 895.1,176.6 895.4,197.5 895.7,164.5 896.0,173.5 896.2,175.8 896.5,166.5 896.8,161.5 897.1,160.9 897.4,165.2 897.7,168.5 898.0,136.5 898.3,160.4 898.5,181.8 898.8,180.3 899.1,194.7 899.4,159.4 899.7,169.2 900.0,176.1 900.3,176.1 900.5,167.0 900.8,155.6 901.1,166.4 901.4,151.7 901.7,147.4 902.0,144.9 902.3,176.6 902.5,170.9 902.8,148.2 903.1,140.8 903.4,125.1 903.7,148.1 904.0,153.8 904.3,153.3 904.5,165.1 904.8,172.7 905.1,188.6 905.4,182.8 905.7,170.2 906.0,155.5 906.3,154.1 906.5,174.3 906.8,150.0 907.1,156.5 907.4,163.1 907.7,138.8 908.0,151.4 908.3,164.1 908.5,123.3 908.8,163.2 909.1,170.2 909.4,147.1 909.7,149.5 910.0,146.3 910.3,122.4 910.5,161.4 910.8,165.6 911.1,167.1 911.4,160.7 911.7,145.6 912.0,179.1 912.3,185.7 912.6,156.0 912.8,114.5 913.1,111.1 913.4,145.7 913.7,130.8 914.0,132.2 914.3,107.8 914.6,133.7 914.8,119.3 915.1,136.0 915.4,132.5 915.7,165.6 916.0,146.6 916.3,183.8 916.6,168.0 916.8,176.1 917.1,188.0 917.4,200.0 917.7,211.9 918.0,223.8 918.3,184.9 918.6,182.4 918.8,180.8 919.1,174.0 919.4,187.8 919.7,188.1 920.0,199.6 920.3,208.6 920.6,207.9 920.8,194.8 921.1,208.6 921.4,209.2 921.7,218.0 922.0,217.1 922.3,198.2 922.6,225.2 922.8,240.3 923.1,232.1 923.4,244.7 923.7,221.3 924.0,254.5 924.3,239.5 924.6,235.2 924.9,228.9 925.1,239.4 925.4,241.6 925.7,242.1 926.0,259.6 926.3,272.5 926.6,228.1 926.9,249.3 927.1,246.3 927.4,240.6 927.7,228.2 928.0,244.5 928.3,212.9 928.6,217.5 928.9,262.4 929.1,249.1 929.4,237.6 929.7,248.0 930.0,242.7 930.3,253.6 930.6,241.3 930.9,252.4 931.1,244.8 931.4,247.5 931.7,241.7 932.0,242.2"/>
  <circle cx="110.6" cy="81.5" r="4" fill="#dc2626"/><text x="120.6" y="72.0" font-size="12" font-weight="600" fill="#991b1b">peak 269.6%</text>
  <text x="503.0" y="356" text-anchor="middle" font-size="12" fill="#6b7280">hours since telemetry start</text>
</svg>
