<!-- Extracted from https://blog.es3n1n.eu/posts/sekaictf-2026-infra-writeup/ -->
<svg height="280" width="860" xmlns="http://www.w3.org/2000/svg" viewBox="0 0 860 280" class="chart-svg" role="img" aria-label="HTTP requests per second" data-astro-cid-2e3474k5=""><style><![CDATA[:root{--accent:#0066cc;--bg:250,250,245;--text:30,30,30;--gray:120,120,110;--gray-light:235,235,230;--border:180,180,170}@media (prefers-color-scheme:dark){:root{--bg:18,18,18;--text:204,204,204;--gray:136,136,136;--gray-light:40,40,40;--border:68,68,68;--accent:#6db3f2}}.chart[data-astro-cid-2e3474k5]{margin:1.5em 0}.chart-title[data-astro-cid-2e3474k5]{color:rgb(var(--gray));margin-bottom:.3em}.chart-step[data-astro-cid-2e3474k5]{opacity:.7}.chart-svg[data-astro-cid-2e3474k5]{width:100%;height:auto;display:block;border:1px solid rgb(var(--border));background:rgb(var(--bg))}.grid[data-astro-cid-2e3474k5]{stroke:rgb(var(--border));vector-effect:non-scaling-stroke;opacity:.5}.axis[data-astro-cid-2e3474k5]{fill:rgb(var(--gray));font-family:inherit;font-size:12px}.area[data-astro-cid-2e3474k5]{opacity:.12}.line[data-astro-cid-2e3474k5]{stroke-width:1.6;stroke-linejoin:round;stroke-linecap:round;vector-effect:non-scaling-stroke}.event[data-astro-cid-2e3474k5]{stroke:rgb(var(--text));stroke-dasharray:3 3;vector-effect:non-scaling-stroke;opacity:.55}.event-label[data-astro-cid-2e3474k5],.peak-label[data-astro-cid-2e3474k5],.spike-label[data-astro-cid-2e3474k5]{fill:rgb(var(--text));font-family:inherit;font-size:12px;font-weight:600}]]></style> <g data-astro-cid-2e3474k5=""> <line class="grid" x1="48" x2="844" y1="254" y2="254" data-astro-cid-2e3474k5=""></line> <text class="axis" x="41" y="254" dy="0.32em" text-anchor="end" data-astro-cid-2e3474k5=""> 0 </text> </g><g data-astro-cid-2e3474k5=""> <line class="grid" x1="48" x2="844" y1="216.00000000000003" y2="216.00000000000003" data-astro-cid-2e3474k5=""></line> <text class="axis" x="41" y="216.00000000000003" dy="0.32em" text-anchor="end" data-astro-cid-2e3474k5=""> 500 </text> </g><g data-astro-cid-2e3474k5=""> <line class="grid" x1="48" x2="844" y1="178" y2="178" data-astro-cid-2e3474k5=""></line> <text class="axis" x="41" y="178" dy="0.32em" text-anchor="end" data-astro-cid-2e3474k5=""> 1000 </text> </g><g data-astro-cid-2e3474k5=""> <line class="grid" x1="48" x2="844" y1="140" y2="140" data-astro-cid-2e3474k5=""></line> <text class="axis" x="41" y="140" dy="0.32em" text-anchor="end" data-astro-cid-2e3474k5=""> 1500 </text> </g><g data-astro-cid-2e3474k5=""> <line class="grid" x1="48" x2="844" y1="102" y2="102" data-astro-cid-2e3474k5=""></line> <text class="axis" x="41" y="102" dy="0.32em" text-anchor="end" data-astro-cid-2e3474k5=""> 2000 </text> </g><g data-astro-cid-2e3474k5=""> <line class="grid" x1="48" x2="844" y1="63.999999999999986" y2="63.999999999999986" data-astro-cid-2e3474k5=""></line> <text class="axis" x="41" y="63.999999999999986" dy="0.32em" text-anchor="end" data-astro-cid-2e3474k5=""> 2500 </text> </g><g data-astro-cid-2e3474k5=""> <line class="grid" x1="48" x2="844" y1="26" y2="26" data-astro-cid-2e3474k5=""></line> <text class="axis" x="41" y="26" dy="0.32em" text-anchor="end" data-astro-cid-2e3474k5=""> 3000 </text> </g> <text class="axis" x="318.64000000000004" y="272" text-anchor="middle" data-astro-cid-2e3474k5=""> 06-28 </text><text class="axis" x="700.7199999999999" y="272" text-anchor="middle" data-astro-cid-2e3474k5=""> 06-29 </text> <path d="M50.653,253.924L57.287,253.848L65.247,253.696L66.573,253.468L67.9,252.024L69.227,242.448L70.553,250.884L71.88,250.58L73.207,242.448L74.533,250.884L75.86,245.716L77.187,244.652L78.513,250.58L79.84,214.252L81.167,213.264L82.493,244.348L83.82,245.792L85.147,246.02L86.473,242.524L87.8,242.828L89.127,241.004L90.453,249.896L91.78,250.96L93.107,243.816L94.433,242.524L95.76,245.564L97.087,239.636L98.413,164.472L99.74,244.5L101.067,135.592L102.393,119.1L103.72,91.284L105.047,102.152L106.373,167.588L107.7,223.144L109.027,223.068L110.353,190.008L111.68,183.7L113.007,170.552L114.333,181.116L115.66,194.948L116.987,186.588L118.313,186.892L119.64,215.468L120.967,228.768L122.293,222.688L123.62,223.98L124.947,217.824L126.273,176.328L127.6,198.596L128.927,196.24L130.253,175.644L131.58,170.096L132.907,167.588L134.233,172.148L135.56,215.316L136.887,214.404L138.213,214.936L139.54,210.148L140.867,216.38L142.193,214.936L143.52,214.708L144.847,212.504L146.173,198.52L147.5,197.152L148.827,202.168L150.153,221.776L151.48,190.084L152.807,142.964L154.133,136.504L155.46,155.124L156.787,199.66L158.113,157.252L159.44,138.024L160.767,97.896L162.093,107.32L163.42,124.344L164.747,158.772L166.073,179.216L167.4,157.48L168.727,138.404L170.053,182.56L171.38,178.076L172.707,133.616L174.033,112.26L175.36,132.4L176.687,138.252L178.013,150.184L179.34,187.044L180.667,230.82L181.993,229.984L183.32,224.74L184.647,221.548L185.973,234.24L187.3,216.152L188.627,190.312L189.953,198.976L191.28,206.652L192.607,160.824L193.933,163.56L195.26,193.884L196.587,144.788L197.913,216.76L199.24,196.924L200.567,141.824L201.893,190.692L203.22,220.408L204.547,173.668L205.873,145.396L207.2,181.724L208.527,163.94L209.853,178.836L211.18,198.52L212.507,184.688L213.833,181.192L215.16,167.36L216.487,194.872L217.813,169.26L219.14,223.296L220.467,236.596L221.793,240.016L223.12,225.728L224.447,247.388L225.773,242.904L227.1,243.36L228.427,247.236L229.753,249.288L231.08,250.58L232.407,251.264L233.733,251.416L235.06,252.784L236.387,251.872L237.713,253.544L239.04,253.696L240.367,253.696L241.693,253.62L243.02,181.952L244.347,183.396L245.673,162.04L247,178.228L248.327,253.848L249.653,253.772L250.98,208.628L252.307,208.4L253.633,187.652L254.96,184.764L256.287,185.828L257.613,188.716L258.94,187.12L260.267,251.644L261.593,147.068L262.92,131.412L264.247,129.664L265.573,130.424L266.9,126.472L268.227,130.88L269.553,236.976L270.88,253.62L272.207,253.544L273.533,253.544L274.86,253.696L276.187,243.436L277.513,223.6L278.84,240.624L280.167,252.936L281.493,236.748L282.82,218.356L284.147,237.204L285.473,226.944L286.8,242.6L288.127,225.88L289.453,240.168L290.78,212.428L292.107,215.848L293.433,240.244L294.76,235.152L296.087,221.396L297.413,213.796L298.74,217.9L300.067,220.788L301.393,215.012L302.72,215.772L304.047,217.824L305.373,213.188L306.7,215.62L308.027,216.684L309.353,215.468L310.68,211.82L312.007,216.684L313.333,215.468L314.66,213.036L315.987,213.112L317.313,213.644L318.64,212.732L319.967,216.76L321.293,213.416L322.62,209.616L323.947,213.644L325.273,214.1L326.6,214.328L327.927,212.428L329.253,211.744L330.58,215.924L331.907,211.896L333.233,209.692L334.56,209.388L335.887,209.388L337.213,209.692L338.54,200.344L339.867,181.192L341.193,194.34L342.52,199.812L343.847,203.384L345.173,141.9L346.5,209.692L347.827,198.368L349.153,209.16L350.48,205.056L351.807,207.868L353.133,206.044L354.46,211.82L355.787,243.284L357.113,253.24L358.44,253.62L359.767,251.34L361.093,251.948L362.42,216.076L363.747,214.176L365.073,218.736L366.4,218.584L367.727,218.508L369.053,205.056L370.38,207.64L371.707,219.192L373.033,216.988L374.36,217.368L375.687,218.812L377.013,219.572L378.34,219.42L379.667,219.8L380.993,219.876L382.32,219.572L383.647,221.776L384.973,218.888L386.3,220.408L387.627,222.46L388.953,221.016L390.28,220.332L391.607,219.116L392.933,220.484L394.26,220.256L395.587,221.7L396.913,219.42L398.24,217.52L399.567,221.548L400.893,220.408L402.22,222.004L403.547,222.308L404.873,223.068L406.2,221.092L407.527,220.408L408.853,221.852L410.18,221.852L411.507,222.764L412.833,224.056L414.16,223.448L415.487,223.068L416.813,222.764L418.14,224.132L419.467,223.676L420.793,224.36L422.12,222.156L423.447,218.812L424.773,219.952L426.1,219.648L427.427,218.736L428.753,216.608L430.08,232.568L431.407,253.924L432.733,253.848L434.06,253.696L435.387,253.848L436.713,253.924L438.04,253.848L439.367,253.924L440.693,253.924L442.02,253.924L443.347,238.876L444.673,93.108L446,101.848L447.327,89.764L448.653,83.76L449.98,87.408L451.307,101.696L452.633,244.12L453.96,250.808L455.287,242.6L456.613,238.876L457.94,222.004L459.267,220.864L460.593,163.484L461.92,195.1L463.247,223.752L464.573,221.7L465.9,224.056L467.227,222.46L468.553,220.788L469.88,222.156L471.207,221.396L472.533,220.484L473.86,219.648L475.187,220.94L476.513,213.036L477.84,186.664L479.167,218.584L480.493,219.648L481.82,219.876L483.147,169.868L484.473,162.876L485.8,220.56L487.127,202.776L488.453,176.024L489.78,173.668L491.107,216.152L492.433,216.532L493.76,221.168L495.087,206.576L496.413,217.596L497.74,221.32L499.067,218.204L500.393,209.388L501.72,178.38L503.047,139.392L504.373,118.948L505.7,115.452L507.027,112.032L508.353,101.468L509.68,96.756L511.007,102.38L512.333,194.112L513.66,181.344L514.987,71.296L516.313,77.452L517.64,85.584L518.967,102.988L520.293,163.56L521.62,143.648L522.947,110.36L524.273,79.732L525.6,125.028L526.927,104.128L528.253,105.876L529.58,102.076L530.907,97.592L532.233,129.436L533.56,91.74L534.887,75.4L536.213,66.508L537.54,92.196L538.867,88.016L540.193,103.976L541.52,172.072L542.847,95.996L544.173,62.404L545.5,105.04L546.827,166.98L548.153,149.728L549.48,85.812L550.807,149.12L552.133,152.16L553.46,168.12L554.787,129.588L556.113,149.804L557.44,141.444L558.767,143.268L560.093,181.496L561.42,167.74L562.747,167.968L564.073,125.94L565.4,103.52L566.727,132.096L568.053,120.012L569.38,151.02L570.707,146.384L572.033,133.464L573.36,161.28L574.687,167.436L576.013,158.772L577.34,149.12L578.667,148.816L579.993,160.064L581.32,140.76L582.647,137.644L583.973,153.832L585.3,131.944L586.627,189.704L587.953,214.708L589.28,216.532L590.607,234.24L591.933,237.584L593.26,216L594.587,166.068L595.913,141.368L597.24,144.712L598.567,124.116L599.893,104.508L601.22,78.668L602.547,164.7L603.873,225.348L605.2,214.252L606.527,170.78L607.853,156.948L609.18,231.2L610.507,184.384L611.833,114.54L613.16,185.372L614.487,202.092L615.813,213.036L617.14,194.416L618.467,145.32L619.793,247.92L621.12,252.48L622.447,252.556L623.773,252.632L625.1,252.404L626.427,252.556L627.753,252.632L629.08,252.632L630.407,252.404L631.733,252.556L633.06,252.024L634.387,252.632L635.713,252.632L637.04,252.556L638.367,250.428L639.693,249.06L641.02,252.632L642.347,237.584L643.673,251.948L645,252.784L646.327,253.924L647.653,253.924L648.98,253.924L650.307,253.924L651.633,253.924L652.96,253.696L654.287,252.708L655.613,252.784L656.94,252.784L658.267,252.784L659.593,252.708L660.92,252.708L662.247,250.732L663.573,251.34L664.9,252.404L666.227,252.556L667.553,247.312L668.88,236.14L670.207,227.4L671.533,228.084L672.86,225.804L674.187,224.36L675.513,227.856L676.84,227.932L678.167,232.72L679.493,249.212L680.82,253.62L682.147,253.62L683.473,253.696L684.8,253.772L686.127,253.24L687.453,251.188L688.78,253.924L690.107,253.924L691.433,253.924L692.76,253.924L694.087,253.924L695.413,254L696.74,253.924L698.067,253.848L699.393,252.556L700.72,250.884L702.047,253.848L703.373,253.772L704.7,253.924L706.027,251.492L707.353,253.924L708.68,253.848L710.007,253.848L711.333,253.924L712.66,253.924L713.987,253.924L715.313,254L716.64,253.924L717.967,254L719.293,254L720.62,253.924L721.947,253.924L723.273,254L724.6,254L725.927,253.924L727.253,253.924L728.58,254L729.907,253.848L731.233,250.124L732.56,253.924L733.887,253.924L735.213,253.924L736.54,254L737.867,253.924L739.193,253.924L740.52,250.808L741.847,253.848L743.173,253.924L744.5,253.848L745.827,250.124L747.153,218.204L748.48,214.784L749.807,215.316L751.133,214.936L752.46,214.1L753.787,214.708L755.113,215.316L756.44,215.62L757.767,215.924L759.093,215.544L760.42,214.936L761.747,216.228L763.073,219.572L764.4,221.396L765.727,220.94L767.053,220.028L768.38,221.168L769.707,221.472L771.033,222.232L772.36,222.46L773.687,222.004L775.013,222.308L776.34,221.776L777.667,222.536L778.993,222.232L780.32,223.372L781.647,223.6L782.973,223.524L784.3,222.308L785.627,222.004L786.953,222.308L788.28,222.84L789.607,221.852L790.933,222.612L792.26,221.7L793.587,222.232L794.913,222.688L796.24,223.372L797.567,223.068L798.893,222.84L800.22,223.6L801.547,224.588L802.873,224.436L804.2,223.752L805.527,224.512L806.853,224.436L808.18,223.144L809.507,224.664L810.833,222.536L812.16,223.22L813.487,220.56L814.813,222.156L816.14,223.144L817.467,225.044L818.793,222.764L820.12,225.272L821.447,224.284L822.773,223.904L824.1,223.752L825.427,223.296L826.753,223.068L828.08,222.308L829.407,236.824L830.733,253.848L832.06,253.848L833.387,253.848L834.713,253.772L836.04,254L837.367,254L838.693,249.44L840.02,251.416L841.347,254L842.673,253.848L844,253.468L844,254L842.673,254L841.347,254L840.02,254L838.693,254L837.367,254L836.04,254L834.713,254L833.387,254L832.06,254L830.733,254L829.407,254L828.08,254L826.753,254L825.427,254L824.1,254L822.773,254L821.447,254L820.12,254L818.793,254L817.467,254L816.14,254L814.813,254L813.487,254L812.16,254L810.833,254L809.507,254L808.18,254L806.853,254L805.527,254L804.2,254L802.873,254L801.547,254L800.22,254L798.893,254L797.567,254L796.24,254L794.913,254L793.587,254L792.26,254L790.933,254L789.607,254L788.28,254L786.953,254L785.627,254L784.3,254L782.973,254L781.647,254L780.32,254L778.993,254L777.667,254L776.34,254L775.013,254L773.687,254L772.36,254L771.033,254L769.707,254L768.38,254L767.053,254L765.727,254L764.4,254L763.073,254L761.747,254L760.42,254L759.093,254L757.767,254L756.44,254L755.113,254L753.787,254L752.46,254L751.133,254L749.807,254L748.48,254L747.153,254L745.827,254L744.5,254L743.173,254L741.847,254L740.52,254L739.193,254L737.867,254L736.54,254L735.213,254L733.887,254L732.56,254L731.233,254L729.907,254L728.58,254L727.253,254L725.927,254L724.6,254L723.273,254L721.947,254L720.62,254L719.293,254L717.967,254L716.64,254L715.313,254L713.987,254L712.66,254L711.333,254L710.007,254L708.68,254L707.353,254L706.027,254L704.7,254L703.373,254L702.047,254L700.72,254L699.393,254L698.067,254L696.74,254L695.413,254L694.087,254L692.76,254L691.433,254L690.107,254L688.78,254L687.453,254L686.127,254L684.8,254L683.473,254L682.147,254L680.82,254L679.493,254L678.167,254L676.84,254L675.513,254L674.187,254L672.86,254L671.533,254L670.207,254L668.88,254L667.553,254L666.227,254L664.9,254L663.573,254L662.247,254L660.92,254L659.593,254L658.267,254L656.94,254L655.613,254L654.287,254L652.96,254L651.633,254L650.307,254L648.98,254L647.653,254L646.327,254L645,254L643.673,254L642.347,254L641.02,254L639.693,254L638.367,254L637.04,254L635.713,254L634.387,254L633.06,254L631.733,254L630.407,254L629.08,254L627.753,254L626.427,254L625.1,254L623.773,254L622.447,254L621.12,254L619.793,254L618.467,254L617.14,254L615.813,254L614.487,254L613.16,254L611.833,254L610.507,254L609.18,254L607.853,254L606.527,254L605.2,254L603.873,254L602.547,254L601.22,254L599.893,254L598.567,254L597.24,254L595.913,254L594.587,254L593.26,254L591.933,254L590.607,254L589.28,254L587.953,254L586.627,254L585.3,254L583.973,254L582.647,254L581.32,254L579.993,254L578.667,254L577.34,254L576.013,254L574.687,254L573.36,254L572.033,254L570.707,254L569.38,254L568.053,254L566.727,254L565.4,254L564.073,254L562.747,254L561.42,254L560.093,254L558.767,254L557.44,254L556.113,254L554.787,254L553.46,254L552.133,254L550.807,254L549.48,254L548.153,254L546.827,254L545.5,254L544.173,254L542.847,254L541.52,254L540.193,254L538.867,254L537.54,254L536.213,254L534.887,254L533.56,254L532.233,254L530.907,254L529.58,254L528.253,254L526.927,254L525.6,254L524.273,254L522.947,254L521.62,254L520.293,254L518.967,254L517.64,254L516.313,254L514.987,254L513.66,254L512.333,254L511.007,254L509.68,254L508.353,254L507.027,254L505.7,254L504.373,254L503.047,254L501.72,254L500.393,254L499.067,254L497.74,254L496.413,254L495.087,254L493.76,254L492.433,254L491.107,254L489.78,254L488.453,254L487.127,254L485.8,254L484.473,254L483.147,254L481.82,254L480.493,254L479.167,254L477.84,254L476.513,254L475.187,254L473.86,254L472.533,254L471.207,254L469.88,254L468.553,254L467.227,254L465.9,254L464.573,254L463.247,254L461.92,254L460.593,254L459.267,254L457.94,254L456.613,254L455.287,254L453.96,254L452.633,254L451.307,254L449.98,254L448.653,254L447.327,254L446,254L444.673,254L443.347,254L442.02,254L440.693,254L439.367,254L438.04,254L436.713,254L435.387,254L434.06,254L432.733,254L431.407,254L430.08,254L428.753,254L427.427,254L426.1,254L424.773,254L423.447,254L422.12,254L420.793,254L419.467,254L418.14,254L416.813,254L415.487,254L414.16,254L412.833,254L411.507,254L410.18,254L408.853,254L407.527,254L406.2,254L404.873,254L403.547,254L402.22,254L400.893,254L399.567,254L398.24,254L396.913,254L395.587,254L394.26,254L392.933,254L391.607,254L390.28,254L388.953,254L387.627,254L386.3,254L384.973,254L383.647,254L382.32,254L380.993,254L379.667,254L378.34,254L377.013,254L375.687,254L374.36,254L373.033,254L371.707,254L370.38,254L369.053,254L367.727,254L366.4,254L365.073,254L363.747,254L362.42,254L361.093,254L359.767,254L358.44,254L357.113,254L355.787,254L354.46,254L353.133,254L351.807,254L350.48,254L349.153,254L347.827,254L346.5,254L345.173,254L343.847,254L342.52,254L341.193,254L339.867,254L338.54,254L337.213,254L335.887,254L334.56,254L333.233,254L331.907,254L330.58,254L329.253,254L327.927,254L326.6,254L325.273,254L323.947,254L322.62,254L321.293,254L319.967,254L318.64,254L317.313,254L315.987,254L314.66,254L313.333,254L312.007,254L310.68,254L309.353,254L308.027,254L306.7,254L305.373,254L304.047,254L302.72,254L301.393,254L300.067,254L298.74,254L297.413,254L296.087,254L294.76,254L293.433,254L292.107,254L290.78,254L289.453,254L288.127,254L286.8,254L285.473,254L284.147,254L282.82,254L281.493,254L280.167,254L278.84,254L277.513,254L276.187,254L274.86,254L273.533,254L272.207,254L270.88,254L269.553,254L268.227,254L266.9,254L265.573,254L264.247,254L262.92,254L261.593,254L260.267,254L258.94,254L257.613,254L256.287,254L254.96,254L253.633,254L252.307,254L250.98,254L249.653,254L248.327,254L247,254L245.673,254L244.347,254L243.02,254L241.693,254L240.367,254L239.04,254L237.713,254L236.387,254L235.06,254L233.733,254L232.407,254L231.08,254L229.753,254L228.427,254L227.1,254L225.773,254L224.447,254L223.12,254L221.793,254L220.467,254L219.14,254L217.813,254L216.487,254L215.16,254L213.833,254L212.507,254L211.18,254L209.853,254L208.527,254L207.2,254L205.873,254L204.547,254L203.22,254L201.893,254L200.567,254L199.24,254L197.913,254L196.587,254L195.26,254L193.933,254L192.607,254L191.28,254L189.953,254L188.627,254L187.3,254L185.973,254L184.647,254L183.32,254L181.993,254L180.667,254L179.34,254L178.013,254L176.687,254L175.36,254L174.033,254L172.707,254L171.38,254L170.053,254L168.727,254L167.4,254L166.073,254L164.747,254L163.42,254L162.093,254L160.767,254L159.44,254L158.113,254L156.787,254L155.46,254L154.133,254L152.807,254L151.48,254L150.153,254L148.827,254L147.5,254L146.173,254L144.847,254L143.52,254L142.193,254L140.867,254L139.54,254L138.213,254L136.887,254L135.56,254L134.233,254L132.907,254L131.58,254L130.253,254L128.927,254L127.6,254L126.273,254L124.947,254L123.62,254L122.293,254L120.967,254L119.64,254L118.313,254L116.987,254L115.66,254L114.333,254L113.007,254L111.68,254L110.353,254L109.027,254L107.7,254L106.373,254L105.047,254L103.72,254L102.393,254L101.067,254L99.74,254L98.413,254L97.087,254L95.76,254L94.433,254L93.107,254L91.78,254L90.453,254L89.127,254L87.8,254L86.473,254L85.147,254L83.82,254L82.493,254L81.167,254L79.84,254L78.513,254L77.187,254L75.86,254L74.533,254L73.207,254L71.88,254L70.553,254L69.227,254L67.9,254L66.573,254L65.247,254L57.287,254L50.653,254Z" class="area" fill="var(--accent)" data-astro-cid-2e3474k5=""></path> <path d="M50.653,253.924L57.287,253.848L65.247,253.696L66.573,253.468L67.9,252.024L69.227,242.448L70.553,250.884L71.88,250.58L73.207,242.448L74.533,250.884L75.86,245.716L77.187,244.652L78.513,250.58L79.84,214.252L81.167,213.264L82.493,244.348L83.82,245.792L85.147,246.02L86.473,242.524L87.8,242.828L89.127,241.004L90.453,249.896L91.78,250.96L93.107,243.816L94.433,242.524L95.76,245.564L97.087,239.636L98.413,164.472L99.74,244.5L101.067,135.592L102.393,119.1L103.72,91.284L105.047,102.152L106.373,167.588L107.7,223.144L109.027,223.068L110.353,190.008L111.68,183.7L113.007,170.552L114.333,181.116L115.66,194.948L116.987,186.588L118.313,186.892L119.64,215.468L120.967,228.768L122.293,222.688L123.62,223.98L124.947,217.824L126.273,176.328L127.6,198.596L128.927,196.24L130.253,175.644L131.58,170.096L132.907,167.588L134.233,172.148L135.56,215.316L136.887,214.404L138.213,214.936L139.54,210.148L140.867,216.38L142.193,214.936L143.52,214.708L144.847,212.504L146.173,198.52L147.5,197.152L148.827,202.168L150.153,221.776L151.48,190.084L152.807,142.964L154.133,136.504L155.46,155.124L156.787,199.66L158.113,157.252L159.44,138.024L160.767,97.896L162.093,107.32L163.42,124.344L164.747,158.772L166.073,179.216L167.4,157.48L168.727,138.404L170.053,182.56L171.38,178.076L172.707,133.616L174.033,112.26L175.36,132.4L176.687,138.252L178.013,150.184L179.34,187.044L180.667,230.82L181.993,229.984L183.32,224.74L184.647,221.548L185.973,234.24L187.3,216.152L188.627,190.312L189.953,198.976L191.28,206.652L192.607,160.824L193.933,163.56L195.26,193.884L196.587,144.788L197.913,216.76L199.24,196.924L200.567,141.824L201.893,190.692L203.22,220.408L204.547,173.668L205.873,145.396L207.2,181.724L208.527,163.94L209.853,178.836L211.18,198.52L212.507,184.688L213.833,181.192L215.16,167.36L216.487,194.872L217.813,169.26L219.14,223.296L220.467,236.596L221.793,240.016L223.12,225.728L224.447,247.388L225.773,242.904L227.1,243.36L228.427,247.236L229.753,249.288L231.08,250.58L232.407,251.264L233.733,251.416L235.06,252.784L236.387,251.872L237.713,253.544L239.04,253.696L240.367,253.696L241.693,253.62L243.02,181.952L244.347,183.396L245.673,162.04L247,178.228L248.327,253.848L249.653,253.772L250.98,208.628L252.307,208.4L253.633,187.652L254.96,184.764L256.287,185.828L257.613,188.716L258.94,187.12L260.267,251.644L261.593,147.068L262.92,131.412L264.247,129.664L265.573,130.424L266.9,126.472L268.227,130.88L269.553,236.976L270.88,253.62L272.207,253.544L273.533,253.544L274.86,253.696L276.187,243.436L277.513,223.6L278.84,240.624L280.167,252.936L281.493,236.748L282.82,218.356L284.147,237.204L285.473,226.944L286.8,242.6L288.127,225.88L289.453,240.168L290.78,212.428L292.107,215.848L293.433,240.244L294.76,235.152L296.087,221.396L297.413,213.796L298.74,217.9L300.067,220.788L301.393,215.012L302.72,215.772L304.047,217.824L305.373,213.188L306.7,215.62L308.027,216.684L309.353,215.468L310.68,211.82L312.007,216.684L313.333,215.468L314.66,213.036L315.987,213.112L317.313,213.644L318.64,212.732L319.967,216.76L321.293,213.416L322.62,209.616L323.947,213.644L325.273,214.1L326.6,214.328L327.927,212.428L329.253,211.744L330.58,215.924L331.907,211.896L333.233,209.692L334.56,209.388L335.887,209.388L337.213,209.692L338.54,200.344L339.867,181.192L341.193,194.34L342.52,199.812L343.847,203.384L345.173,141.9L346.5,209.692L347.827,198.368L349.153,209.16L350.48,205.056L351.807,207.868L353.133,206.044L354.46,211.82L355.787,243.284L357.113,253.24L358.44,253.62L359.767,251.34L361.093,251.948L362.42,216.076L363.747,214.176L365.073,218.736L366.4,218.584L367.727,218.508L369.053,205.056L370.38,207.64L371.707,219.192L373.033,216.988L374.36,217.368L375.687,218.812L377.013,219.572L378.34,219.42L379.667,219.8L380.993,219.876L382.32,219.572L383.647,221.776L384.973,218.888L386.3,220.408L387.627,222.46L388.953,221.016L390.28,220.332L391.607,219.116L392.933,220.484L394.26,220.256L395.587,221.7L396.913,219.42L398.24,217.52L399.567,221.548L400.893,220.408L402.22,222.004L403.547,222.308L404.873,223.068L406.2,221.092L407.527,220.408L408.853,221.852L410.18,221.852L411.507,222.764L412.833,224.056L414.16,223.448L415.487,223.068L416.813,222.764L418.14,224.132L419.467,223.676L420.793,224.36L422.12,222.156L423.447,218.812L424.773,219.952L426.1,219.648L427.427,218.736L428.753,216.608L430.08,232.568L431.407,253.924L432.733,253.848L434.06,253.696L435.387,253.848L436.713,253.924L438.04,253.848L439.367,253.924L440.693,253.924L442.02,253.924L443.347,238.876L444.673,93.108L446,101.848L447.327,89.764L448.653,83.76L449.98,87.408L451.307,101.696L452.633,244.12L453.96,250.808L455.287,242.6L456.613,238.876L457.94,222.004L459.267,220.864L460.593,163.484L461.92,195.1L463.247,223.752L464.573,221.7L465.9,224.056L467.227,222.46L468.553,220.788L469.88,222.156L471.207,221.396L472.533,220.484L473.86,219.648L475.187,220.94L476.513,213.036L477.84,186.664L479.167,218.584L480.493,219.648L481.82,219.876L483.147,169.868L484.473,162.876L485.8,220.56L487.127,202.776L488.453,176.024L489.78,173.668L491.107,216.152L492.433,216.532L493.76,221.168L495.087,206.576L496.413,217.596L497.74,221.32L499.067,218.204L500.393,209.388L501.72,178.38L503.047,139.392L504.373,118.948L505.7,115.452L507.027,112.032L508.353,101.468L509.68,96.756L511.007,102.38L512.333,194.112L513.66,181.344L514.987,71.296L516.313,77.452L517.64,85.584L518.967,102.988L520.293,163.56L521.62,143.648L522.947,110.36L524.273,79.732L525.6,125.028L526.927,104.128L528.253,105.876L529.58,102.076L530.907,97.592L532.233,129.436L533.56,91.74L534.887,75.4L536.213,66.508L537.54,92.196L538.867,88.016L540.193,103.976L541.52,172.072L542.847,95.996L544.173,62.404L545.5,105.04L546.827,166.98L548.153,149.728L549.48,85.812L550.807,149.12L552.133,152.16L553.46,168.12L554.787,129.588L556.113,149.804L557.44,141.444L558.767,143.268L560.093,181.496L561.42,167.74L562.747,167.968L564.073,125.94L565.4,103.52L566.727,132.096L568.053,120.012L569.38,151.02L570.707,146.384L572.033,133.464L573.36,161.28L574.687,167.436L576.013,158.772L577.34,149.12L578.667,148.816L579.993,160.064L581.32,140.76L582.647,137.644L583.973,153.832L585.3,131.944L586.627,189.704L587.953,214.708L589.28,216.532L590.607,234.24L591.933,237.584L593.26,216L594.587,166.068L595.913,141.368L597.24,144.712L598.567,124.116L599.893,104.508L601.22,78.668L602.547,164.7L603.873,225.348L605.2,214.252L606.527,170.78L607.853,156.948L609.18,231.2L610.507,184.384L611.833,114.54L613.16,185.372L614.487,202.092L615.813,213.036L617.14,194.416L618.467,145.32L619.793,247.92L621.12,252.48L622.447,252.556L623.773,252.632L625.1,252.404L626.427,252.556L627.753,252.632L629.08,252.632L630.407,252.404L631.733,252.556L633.06,252.024L634.387,252.632L635.713,252.632L637.04,252.556L638.367,250.428L639.693,249.06L641.02,252.632L642.347,237.584L643.673,251.948L645,252.784L646.327,253.924L647.653,253.924L648.98,253.924L650.307,253.924L651.633,253.924L652.96,253.696L654.287,252.708L655.613,252.784L656.94,252.784L658.267,252.784L659.593,252.708L660.92,252.708L662.247,250.732L663.573,251.34L664.9,252.404L666.227,252.556L667.553,247.312L668.88,236.14L670.207,227.4L671.533,228.084L672.86,225.804L674.187,224.36L675.513,227.856L676.84,227.932L678.167,232.72L679.493,249.212L680.82,253.62L682.147,253.62L683.473,253.696L684.8,253.772L686.127,253.24L687.453,251.188L688.78,253.924L690.107,253.924L691.433,253.924L692.76,253.924L694.087,253.924L695.413,254L696.74,253.924L698.067,253.848L699.393,252.556L700.72,250.884L702.047,253.848L703.373,253.772L704.7,253.924L706.027,251.492L707.353,253.924L708.68,253.848L710.007,253.848L711.333,253.924L712.66,253.924L713.987,253.924L715.313,254L716.64,253.924L717.967,254L719.293,254L720.62,253.924L721.947,253.924L723.273,254L724.6,254L725.927,253.924L727.253,253.924L728.58,254L729.907,253.848L731.233,250.124L732.56,253.924L733.887,253.924L735.213,253.924L736.54,254L737.867,253.924L739.193,253.924L740.52,250.808L741.847,253.848L743.173,253.924L744.5,253.848L745.827,250.124L747.153,218.204L748.48,214.784L749.807,215.316L751.133,214.936L752.46,214.1L753.787,214.708L755.113,215.316L756.44,215.62L757.767,215.924L759.093,215.544L760.42,214.936L761.747,216.228L763.073,219.572L764.4,221.396L765.727,220.94L767.053,220.028L768.38,221.168L769.707,221.472L771.033,222.232L772.36,222.46L773.687,222.004L775.013,222.308L776.34,221.776L777.667,222.536L778.993,222.232L780.32,223.372L781.647,223.6L782.973,223.524L784.3,222.308L785.627,222.004L786.953,222.308L788.28,222.84L789.607,221.852L790.933,222.612L792.26,221.7L793.587,222.232L794.913,222.688L796.24,223.372L797.567,223.068L798.893,222.84L800.22,223.6L801.547,224.588L802.873,224.436L804.2,223.752L805.527,224.512L806.853,224.436L808.18,223.144L809.507,224.664L810.833,222.536L812.16,223.22L813.487,220.56L814.813,222.156L816.14,223.144L817.467,225.044L818.793,222.764L820.12,225.272L821.447,224.284L822.773,223.904L824.1,223.752L825.427,223.296L826.753,223.068L828.08,222.308L829.407,236.824L830.733,253.848L832.06,253.848L833.387,253.848L834.713,253.772L836.04,254L837.367,254L838.693,249.44L840.02,251.416L841.347,254L842.673,253.848L844,253.468" class="line" fill="none" stroke="var(--accent)" data-astro-cid-2e3474k5=""></path> <g data-astro-cid-2e3474k5=""> <line class="event" x1="63.92" x2="63.92" y1="26" y2="254" data-astro-cid-2e3474k5=""></line> <text class="event-label" x="68.92" y="37" text-anchor="start" data-astro-cid-2e3474k5=""> CTF start </text> </g><g data-astro-cid-2e3474k5=""> <line class="event" x1="453.96" x2="453.96" y1="26" y2="254" data-astro-cid-2e3474k5=""></line> <text class="event-label" x="448.96" y="37" text-anchor="end" data-astro-cid-2e3474k5=""> wave 2 </text> </g><g data-astro-cid-2e3474k5=""> <line class="event" x1="828.08" x2="828.08" y1="26" y2="254" data-astro-cid-2e3474k5=""></line> <text class="event-label" x="823.08" y="37" text-anchor="end" data-astro-cid-2e3474k5=""> CTF end </text> </g> <g data-astro-cid-2e3474k5=""> <circle class="peak" cx="544.1733333333333" cy="62.40399999999999" r="3.5" fill="var(--accent)" data-astro-cid-2e3474k5=""></circle> <text class="peak-label" x="537.1733333333333" y="62.40399999999999" dy="0.32em" text-anchor="end" data-astro-cid-2e3474k5=""> peak 2,521/s </text> </g>   </svg>
