<svg xmlns="http://www.w3.org/2000/svg" width="960" height="360" viewBox="0 0 960 360" role="img" aria-labelledby="title desc">
  <title id="title">HTTP requests per second</title>
  <desc id="desc">Line chart for SekaiCTF 2026 telemetry over one weekend.</desc>
  <rect width="100%" height="100%" fill="#ffffff"/>
  <rect x="74" y="56" width="858" height="252" fill="#f9fafb" stroke="#d1d5db"/>
  <text x="74" y="30" font-size="20" font-weight="700" fill="#111827">HTTP requests per second</text>
  <line x1="74" y1="308.0" x2="932" y2="308.0" stroke="#e5e7eb" stroke-width="1"/><text x="62" y="312.0" text-anchor="end" font-size="12" fill="#4b5563">0</text><line x1="74" y1="257.6" x2="932" y2="257.6" stroke="#e5e7eb" stroke-width="1"/><text x="62" y="261.6" text-anchor="end" font-size="12" fill="#4b5563">600</text><line x1="74" y1="207.2" x2="932" y2="207.2" stroke="#e5e7eb" stroke-width="1"/><text x="62" y="211.2" text-anchor="end" font-size="12" fill="#4b5563">1200</text><line x1="74" y1="156.8" x2="932" y2="156.8" stroke="#e5e7eb" stroke-width="1"/><text x="62" y="160.8" text-anchor="end" font-size="12" fill="#4b5563">1800</text><line x1="74" y1="106.4" x2="932" y2="106.4" stroke="#e5e7eb" stroke-width="1"/><text x="62" y="110.4" text-anchor="end" font-size="12" fill="#4b5563">2400</text><line x1="74" y1="56.0" x2="932" y2="56.0" stroke="#e5e7eb" stroke-width="1"/><text x="62" y="60.0" text-anchor="end" font-size="12" fill="#4b5563">3000</text><line x1="74.0" y1="56" x2="74.0" y2="308" stroke="#f3f4f6" stroke-width="1"/><text x="74.0" y="342" text-anchor="middle" font-size="12" fill="#4b5563">0h</text><line x1="279.9" y1="56" x2="279.9" y2="308" stroke="#f3f4f6" stroke-width="1"/><text x="279.9" y="342" text-anchor="middle" font-size="12" fill="#4b5563">12h</text><line x1="485.8" y1="56" x2="485.8" y2="308" stroke="#f3f4f6" stroke-width="1"/><text x="485.8" y="342" text-anchor="middle" font-size="12" fill="#4b5563">24h</text><line x1="691.8" y1="56" x2="691.8" y2="308" stroke="#f3f4f6" stroke-width="1"/><text x="691.8" y="342" text-anchor="middle" font-size="12" fill="#4b5563">36h</text><line x1="897.7" y1="56" x2="897.7" y2="308" stroke="#f3f4f6" stroke-width="1"/><text x="897.7" y="342" text-anchor="middle" font-size="12" fill="#4b5563">48h</text>
  <line x1="91.2" y1="56" x2="91.2" y2="308" stroke="#f97316" stroke-width="1.5" stroke-dasharray="5 5"/><text x="95.2" y="46" font-size="12" fill="#9a3412">CTF start</text><line x1="511.6" y1="56" x2="511.6" y2="308" stroke="#f97316" stroke-width="1.5" stroke-dasharray="5 5"/><text x="515.6" y="46" font-size="12" fill="#9a3412">wave 2</text><line x1="914.8" y1="56" x2="914.8" y2="308" stroke="#f97316" stroke-width="1.5" stroke-dasharray="5 5"/><text x="918.8" y="46" font-size="12" fill="#9a3412">CTF end</text>
  <polyline fill="none" stroke="#db2777" stroke-width="2.25" stroke-linejoin="round" stroke-linecap="round" points="76.9,307.9 84.0,307.8 92.6,307.7 94.0,307.4 95.5,305.8 96.9,295.2 98.3,304.6 99.7,304.2 101.2,295.2 102.6,304.6 104.0,298.8 105.5,297.7 106.9,304.2 108.3,264.1 109.8,263.0 111.2,297.3 112.6,298.9 114.0,299.2 115.5,295.3 116.9,295.7 118.3,293.6 119.8,303.5 121.2,304.6 122.6,296.7 124.0,295.3 125.5,298.7 126.9,292.1 128.3,209.0 129.8,297.5 131.2,177.1 132.6,158.9 134.1,128.2 135.5,140.2 136.9,212.5 138.3,273.9 139.8,273.8 141.2,237.3 142.6,230.3 144.1,215.8 145.5,227.4 146.9,242.7 148.4,233.5 149.8,233.8 151.2,265.4 152.7,280.1 154.1,273.4 155.5,274.8 156.9,268.0 158.4,222.2 159.8,246.8 161.2,244.2 162.7,221.4 164.1,215.3 165.5,212.5 166.9,217.5 168.4,265.2 169.8,264.2 171.2,264.8 172.7,259.5 174.1,266.4 175.5,264.8 177.0,264.6 178.4,262.1 179.8,246.7 181.2,245.2 182.7,250.7 184.1,272.4 185.5,237.4 187.0,185.3 188.4,178.1 189.8,198.7 191.3,247.9 192.7,201.1 194.1,179.8 195.6,135.5 197.0,145.9 198.4,164.7 199.8,202.7 201.3,225.3 202.7,201.3 204.1,180.2 205.6,229.0 207.0,224.1 208.4,174.9 209.8,151.3 211.3,173.6 212.7,180.1 214.1,193.3 215.6,234.0 217.0,282.4 218.4,281.5 219.9,275.7 221.3,272.1 222.7,286.2 224.2,266.2 225.6,237.6 227.0,247.2 228.4,255.7 229.9,205.0 231.3,208.0 232.7,241.6 234.2,187.3 235.6,266.8 237.0,244.9 238.4,184.0 239.9,238.0 241.3,270.9 242.7,219.2 244.2,188.0 245.6,228.1 247.0,208.5 248.5,224.9 249.9,246.7 251.3,231.4 252.8,227.5 254.2,212.2 255.6,242.6 257.0,214.3 258.5,274.1 259.9,288.8 261.3,292.5 262.8,276.8 264.2,300.7 265.6,295.7 267.1,296.2 268.5,300.5 269.9,302.8 271.3,304.2 272.8,305.0 274.2,305.1 275.6,306.7 277.1,305.6 278.5,307.5 279.9,307.7 281.4,307.7 282.8,307.6 284.2,228.4 285.6,230.0 287.1,206.4 288.5,224.3 289.9,307.8 291.4,307.7 292.8,257.9 294.2,257.6 295.6,234.7 297.1,231.5 298.5,232.7 299.9,235.8 301.4,234.1 302.8,305.4 304.2,189.8 305.7,172.5 307.1,170.6 308.5,171.4 309.9,167.0 311.4,171.9 312.8,289.2 314.2,307.6 315.7,307.5 317.1,307.5 318.5,307.7 320.0,296.3 321.4,274.4 322.8,293.2 324.2,306.8 325.7,288.9 327.1,268.6 328.5,289.4 330.0,278.1 331.4,295.4 332.8,276.9 334.3,292.7 335.7,262.1 337.1,265.8 338.6,292.8 340.0,287.2 341.4,272.0 342.8,263.6 344.3,268.1 345.7,271.3 347.1,264.9 348.6,265.7 350.0,268.0 351.4,262.9 352.9,265.6 354.3,266.8 355.7,265.4 357.1,261.4 358.6,266.8 360.0,265.4 361.4,262.7 362.9,262.8 364.3,263.4 365.7,262.4 367.1,266.8 368.6,263.1 370.0,258.9 371.4,263.4 372.9,263.9 374.3,264.2 375.7,262.1 377.2,261.3 378.6,265.9 380.0,261.5 381.4,259.0 382.9,258.7 384.3,258.7 385.7,259.0 387.2,248.7 388.6,227.5 390.0,242.1 391.5,248.1 392.9,252.1 394.3,184.1 395.8,259.0 397.2,246.5 398.6,258.4 400.0,253.9 401.5,257.0 402.9,255.0 404.3,261.4 405.8,296.2 407.2,307.2 408.6,307.6 410.1,305.1 411.5,305.7 412.9,266.1 414.3,264.0 415.8,269.0 417.2,268.9 418.6,268.8 420.1,253.9 421.5,256.8 422.9,269.5 424.4,267.1 425.8,267.5 427.2,269.1 428.6,269.9 430.1,269.8 431.5,270.2 432.9,270.3 434.4,269.9 435.8,272.4 437.2,269.2 438.6,270.9 440.1,273.1 441.5,271.5 442.9,270.8 444.4,269.4 445.8,271.0 447.2,270.7 448.7,272.3 450.1,269.8 451.5,267.7 452.9,272.1 454.4,270.9 455.8,272.6 457.2,273.0 458.7,273.8 460.1,271.6 461.5,270.9 463.0,272.5 464.4,272.5 465.8,273.5 467.2,274.9 468.7,274.2 470.1,273.8 471.5,273.5 473.0,275.0 474.4,274.5 475.8,275.2 477.3,272.8 478.7,269.1 480.1,270.4 481.6,270.0 483.0,269.0 484.4,266.7 485.8,284.3 487.3,307.9 488.7,307.8 490.1,307.7 491.6,307.8 493.0,307.9 494.4,307.8 495.9,307.9 497.3,307.9 498.7,307.9 500.1,291.3 501.6,130.2 503.0,139.8 504.4,126.5 505.9,119.8 507.3,123.9 508.7,139.7 510.1,297.1 511.6,304.5 513.0,295.4 514.4,291.3 515.9,272.6 517.3,271.4 518.7,208.0 520.2,242.9 521.6,274.6 523.0,272.3 524.5,274.9 525.9,273.1 527.3,271.3 528.7,272.8 530.2,272.0 531.6,271.0 533.0,270.0 534.5,271.5 535.9,262.7 537.3,233.6 538.8,268.9 540.2,270.0 541.6,270.3 543.0,215.0 544.5,207.3 545.9,271.0 547.3,251.4 548.8,221.8 550.2,219.2 551.6,266.2 553.0,266.6 554.5,271.7 555.9,255.6 557.3,267.8 558.8,271.9 560.2,268.4 561.6,258.7 563.1,224.4 564.5,181.3 565.9,158.7 567.4,154.9 568.8,151.1 570.2,139.4 571.6,134.2 573.1,140.4 574.5,241.8 575.9,227.7 577.4,106.1 578.8,112.9 580.2,121.9 581.6,141.1 583.1,208.0 584.5,186.0 585.9,149.2 587.4,115.4 588.8,165.5 590.2,142.4 591.7,144.3 593.1,140.1 594.5,135.1 596.0,170.3 597.4,128.7 598.8,110.6 600.2,100.8 601.7,129.2 603.1,124.5 604.5,142.2 606.0,217.4 607.4,133.4 608.8,96.2 610.2,143.4 611.7,211.8 613.1,192.8 614.5,122.1 616.0,192.1 617.4,195.4 618.8,213.1 620.3,170.5 621.7,192.8 623.1,183.6 624.5,185.6 626.0,227.9 627.4,212.7 628.8,212.9 630.3,166.5 631.7,141.7 633.1,173.3 634.6,159.9 636.0,194.2 637.4,189.1 638.9,174.8 640.3,205.5 641.7,212.3 643.1,202.7 644.6,192.1 646.0,191.7 647.4,204.2 648.9,182.8 650.3,179.4 651.7,197.3 653.1,173.1 654.6,236.9 656.0,264.6 657.4,266.6 658.9,286.2 660.3,289.9 661.7,266.0 663.2,210.8 664.6,183.5 666.0,187.2 667.5,164.4 668.9,142.8 670.3,114.2 671.7,209.3 673.2,276.3 674.6,264.1 676.0,216.0 677.5,200.7 678.9,282.8 680.3,231.1 681.8,153.9 683.2,232.1 684.6,250.6 686.0,262.7 687.5,242.1 688.9,187.9 690.3,301.3 691.8,306.3 693.2,306.4 694.6,306.5 696.0,306.2 697.5,306.4 698.9,306.5 700.3,306.5 701.8,306.2 703.2,306.4 704.6,305.8 706.1,306.5 707.5,306.5 708.9,306.4 710.4,304.1 711.8,302.5 713.2,306.5 714.6,289.9 716.1,305.7 717.5,306.7 718.9,307.9 720.4,307.9 721.8,307.9 723.2,307.9 724.6,307.9 726.1,307.7 727.5,306.6 728.9,306.7 730.4,306.7 731.8,306.7 733.2,306.6 734.7,306.6 736.1,304.4 737.5,305.1 739.0,306.2 740.4,306.4 741.8,300.6 743.2,288.3 744.7,278.6 746.1,279.4 747.5,276.8 749.0,275.2 750.4,279.1 751.8,279.2 753.2,284.5 754.7,302.7 756.1,307.6 757.5,307.6 759.0,307.7 760.4,307.7 761.8,307.2 763.3,304.9 764.7,307.9 766.1,307.9 767.5,307.9 769.0,307.9 770.4,307.9 771.8,308.0 773.3,307.9 774.7,307.8 776.1,306.4 777.6,304.6 779.0,307.8 780.4,307.7 781.9,307.9 783.3,305.2 784.7,307.9 786.1,307.8 787.6,307.8 789.0,307.9 790.4,307.9 791.9,307.9 793.3,308.0 794.7,307.9 796.1,308.0 797.6,308.0 799.0,307.9 800.4,307.9 801.9,308.0 803.3,308.0 804.7,307.9 806.2,307.9 807.6,308.0 809.0,307.8 810.5,303.7 811.9,307.9 813.3,307.9 814.7,307.9 816.2,308.0 817.6,307.9 819.0,307.9 820.5,304.5 821.9,307.8 823.3,307.9 824.8,307.8 826.2,303.7 827.6,268.4 829.0,264.7 830.5,265.2 831.9,264.8 833.3,263.9 834.8,264.6 836.2,265.2 837.6,265.6 839.0,265.9 840.5,265.5 841.9,264.8 843.3,266.3 844.8,269.9 846.2,272.0 847.6,271.5 849.1,270.5 850.5,271.7 851.9,272.0 853.4,272.9 854.8,273.1 856.2,272.6 857.6,273.0 859.1,272.4 860.5,273.2 861.9,272.9 863.4,274.1 864.8,274.4 866.2,274.3 867.6,273.0 869.1,272.6 870.5,273.0 871.9,273.6 873.4,272.5 874.8,273.3 876.2,272.3 877.7,272.9 879.1,273.4 880.5,274.1 882.0,273.8 883.4,273.6 884.8,274.4 886.2,275.5 887.7,275.3 889.1,274.6 890.5,275.4 892.0,275.3 893.4,273.9 894.8,275.6 896.2,273.2 897.7,274.0 899.1,271.0 900.5,272.8 902.0,273.9 903.4,276.0 904.8,273.5 906.3,276.2 907.7,275.2 909.1,274.7 910.5,274.6 912.0,274.1 913.4,273.8 914.8,273.0 916.3,289.0 917.7,307.8 919.1,307.8 920.6,307.8 922.0,307.7 923.4,308.0 924.9,308.0 926.3,303.0 927.7,305.1 929.1,308.0 930.6,307.8 932.0,307.4"/>
  <circle cx="608.8" cy="96.2" r="4" fill="#dc2626"/><text x="618.8" y="86.2" font-size="12" font-weight="600" fill="#991b1b">peak 2,521/s</text>
  <text x="503.0" y="356" text-anchor="middle" font-size="12" fill="#6b7280">hours since telemetry start</text>
</svg>
