<svg xmlns="http://www.w3.org/2000/svg" width="960" height="360" viewBox="0 0 960 360" role="img" aria-labelledby="title desc">
  <title id="title">instancer cluster nodes</title>
  <desc id="desc">Line chart for SekaiCTF 2026 telemetry over one weekend.</desc>
  <rect width="100%" height="100%" fill="#ffffff"/>
  <rect x="74" y="56" width="858" height="252" fill="#f9fafb" stroke="#d1d5db"/>
  <text x="74" y="30" font-size="20" font-weight="700" fill="#111827">instancer cluster nodes</text>
  <line x1="74" y1="308.0" x2="932" y2="308.0" stroke="#e5e7eb" stroke-width="1"/><text x="62" y="312.0" text-anchor="end" font-size="12" fill="#4b5563">0</text><line x1="74" y1="257.6" x2="932" y2="257.6" stroke="#e5e7eb" stroke-width="1"/><text x="62" y="261.6" text-anchor="end" font-size="12" fill="#4b5563">10</text><line x1="74" y1="207.2" x2="932" y2="207.2" stroke="#e5e7eb" stroke-width="1"/><text x="62" y="211.2" text-anchor="end" font-size="12" fill="#4b5563">20</text><line x1="74" y1="156.8" x2="932" y2="156.8" stroke="#e5e7eb" stroke-width="1"/><text x="62" y="160.8" text-anchor="end" font-size="12" fill="#4b5563">30</text><line x1="74" y1="106.4" x2="932" y2="106.4" stroke="#e5e7eb" stroke-width="1"/><text x="62" y="110.4" text-anchor="end" font-size="12" fill="#4b5563">40</text><line x1="74" y1="56.0" x2="932" y2="56.0" stroke="#e5e7eb" stroke-width="1"/><text x="62" y="60.0" text-anchor="end" font-size="12" fill="#4b5563">50</text><line x1="74.0" y1="56" x2="74.0" y2="308" stroke="#f3f4f6" stroke-width="1"/><text x="74.0" y="342" text-anchor="middle" font-size="12" fill="#4b5563">0h</text><line x1="279.9" y1="56" x2="279.9" y2="308" stroke="#f3f4f6" stroke-width="1"/><text x="279.9" y="342" text-anchor="middle" font-size="12" fill="#4b5563">12h</text><line x1="485.8" y1="56" x2="485.8" y2="308" stroke="#f3f4f6" stroke-width="1"/><text x="485.8" y="342" text-anchor="middle" font-size="12" fill="#4b5563">24h</text><line x1="691.8" y1="56" x2="691.8" y2="308" stroke="#f3f4f6" stroke-width="1"/><text x="691.8" y="342" text-anchor="middle" font-size="12" fill="#4b5563">36h</text><line x1="897.7" y1="56" x2="897.7" y2="308" stroke="#f3f4f6" stroke-width="1"/><text x="897.7" y="342" text-anchor="middle" font-size="12" fill="#4b5563">48h</text>
  <line x1="91.2" y1="56" x2="91.2" y2="308" stroke="#f97316" stroke-width="1.5" stroke-dasharray="5 5"/><text x="95.2" y="46" font-size="12" fill="#9a3412">CTF start</text><line x1="511.6" y1="56" x2="511.6" y2="308" stroke="#f97316" stroke-width="1.5" stroke-dasharray="5 5"/><text x="515.6" y="46" font-size="12" fill="#9a3412">wave 2</text><line x1="914.8" y1="56" x2="914.8" y2="308" stroke="#f97316" stroke-width="1.5" stroke-dasharray="5 5"/><text x="918.8" y="46" font-size="12" fill="#9a3412">CTF end</text>
  <polyline fill="none" stroke="#0f766e" stroke-width="2.25" stroke-linejoin="round" stroke-linecap="round" points="75.4,297.9 76.9,297.9 78.3,297.9 79.7,297.9 81.2,297.9 82.6,297.9 84.0,297.9 85.4,297.9 86.9,297.9 88.3,297.9 89.7,297.9 91.2,297.9 92.6,292.9 94.0,257.6 95.5,237.4 96.9,237.4 98.3,237.4 99.7,187.0 101.2,111.4 102.6,111.4 104.0,111.4 105.5,151.8 106.9,146.7 108.3,136.6 109.8,136.6 111.2,141.7 112.6,131.6 114.0,141.7 115.5,146.7 116.9,146.7 118.3,146.7 119.8,141.7 121.2,141.7 122.6,146.7 124.0,151.8 125.5,156.8 126.9,151.8 128.3,146.7 129.8,146.7 131.2,146.7 132.6,146.7 134.1,146.7 135.5,146.7 136.9,156.8 138.3,166.9 139.8,166.9 141.2,166.9 142.6,171.9 144.1,177.0 145.5,177.0 146.9,177.0 148.4,182.0 149.8,182.0 151.2,187.0 152.7,192.1 154.1,197.1 155.5,192.1 156.9,192.1 158.4,192.1 159.8,197.1 161.2,202.2 162.7,202.2 164.1,202.2 165.5,197.1 166.9,202.2 168.4,202.2 169.8,202.2 171.2,197.1 172.7,197.1 174.1,202.2 175.5,207.2 177.0,207.2 178.4,212.2 179.8,212.2 181.2,202.2 182.7,202.2 184.1,202.2 185.5,202.2 187.0,197.1 188.4,197.1 189.8,197.1 191.3,192.1 192.7,187.0 194.1,187.0 195.6,187.0 197.0,187.0 198.4,187.0 199.8,187.0 201.3,192.1 202.7,192.1 204.1,187.0 205.6,187.0 207.0,187.0 208.4,192.1 209.8,192.1 211.3,202.2 212.7,202.2 214.1,212.2 215.6,217.3 217.0,212.2 218.4,212.2 219.9,207.2 221.3,207.2 222.7,207.2 224.2,207.2 225.6,212.2 227.0,212.2 228.4,212.2 229.9,212.2 231.3,212.2 232.7,212.2 234.2,212.2 235.6,212.2 237.0,217.3 238.4,222.3 239.9,227.4 241.3,217.3 242.7,217.3 244.2,217.3 245.6,222.3 247.0,227.4 248.5,227.4 249.9,227.4 251.3,222.3 252.8,222.3 254.2,227.4 255.6,227.4 257.0,232.4 258.5,232.4 259.9,242.5 261.3,232.4 262.8,232.4 264.2,232.4 265.6,232.4 267.1,237.4 268.5,237.4 269.9,237.4 271.3,232.4 272.8,232.4 274.2,232.4 275.6,237.4 277.1,242.5 278.5,242.5 279.9,242.5 281.4,242.5 282.8,242.5 284.2,242.5 285.6,242.5 287.1,242.5 288.5,237.4 289.9,237.4 291.4,237.4 292.8,242.5 294.2,242.5 295.6,242.5 297.1,242.5 298.5,242.5 299.9,242.5 301.4,252.6 302.8,252.6 304.2,257.6 305.7,257.6 307.1,252.6 308.5,252.6 309.9,252.6 311.4,252.6 312.8,247.5 314.2,247.5 315.7,247.5 317.1,252.6 318.5,252.6 320.0,262.6 321.4,262.6 322.8,262.6 324.2,262.6 325.7,262.6 327.1,267.7 328.5,267.7 330.0,267.7 331.4,267.7 332.8,257.6 334.3,257.6 335.7,257.6 337.1,262.6 338.6,262.6 340.0,262.6 341.4,262.6 342.8,267.7 344.3,272.7 345.7,267.7 347.1,262.6 348.6,262.6 350.0,262.6 351.4,267.7 352.9,267.7 354.3,267.7 355.7,267.7 357.1,267.7 358.6,267.7 360.0,267.7 361.4,262.6 362.9,262.6 364.3,262.6 365.7,257.6 367.1,262.6 368.6,262.6 370.0,262.6 371.4,262.6 372.9,247.5 374.3,247.5 375.7,247.5 377.2,252.6 378.6,252.6 380.0,252.6 381.4,252.6 382.9,252.6 384.3,252.6 385.7,257.6 387.2,252.6 388.6,252.6 390.0,257.6 391.5,257.6 392.9,252.6 394.3,257.6 395.8,257.6 397.2,252.6 398.6,252.6 400.0,252.6 401.5,252.6 402.9,252.6 404.3,247.5 405.8,252.6 407.2,252.6 408.6,252.6 410.1,252.6 411.5,252.6 412.9,247.5 414.3,247.5 415.8,247.5 417.2,247.5 418.6,247.5 420.1,247.5 421.5,252.6 422.9,252.6 424.4,247.5 425.8,247.5 427.2,247.5 428.6,247.5 430.1,247.5 431.5,247.5 432.9,252.6 434.4,252.6 435.8,252.6 437.2,257.6 438.6,257.6 440.1,252.6 441.5,252.6 442.9,252.6 444.4,262.6 445.8,262.6 447.2,262.6 448.7,262.6 450.1,262.6 451.5,257.6 452.9,252.6 454.4,247.5 455.8,247.5 457.2,247.5 458.7,237.4 460.1,242.5 461.5,247.5 463.0,247.5 464.4,252.6 465.8,252.6 467.2,252.6 468.7,257.6 470.1,257.6 471.5,262.6 473.0,252.6 474.4,257.6 475.8,257.6 477.3,252.6 478.7,257.6 480.1,252.6 481.6,252.6 483.0,247.5 484.4,247.5 485.8,247.5 487.3,252.6 488.7,247.5 490.1,242.5 491.6,237.4 493.0,237.4 494.4,232.4 495.9,232.4 497.3,232.4 498.7,237.4 500.1,237.4 501.6,247.5 503.0,247.5 504.4,247.5 505.9,252.6 507.3,247.5 508.7,247.5 510.1,242.5 511.6,242.5 513.0,242.5 514.4,247.5 515.9,247.5 517.3,232.4 518.7,232.4 520.2,232.4 521.6,237.4 523.0,252.6 524.5,252.6 525.9,252.6 527.3,252.6 528.7,252.6 530.2,252.6 531.6,252.6 533.0,252.6 534.5,252.6 535.9,262.6 537.3,262.6 538.8,262.6 540.2,262.6 541.6,262.6 543.0,262.6 544.5,262.6 545.9,262.6 547.3,262.6 548.8,262.6 550.2,257.6 551.6,257.6 553.0,247.5 554.5,247.5 555.9,247.5 557.3,242.5 558.8,242.5 560.2,242.5 561.6,242.5 563.1,247.5 564.5,247.5 565.9,247.5 567.4,252.6 568.8,252.6 570.2,252.6 571.6,252.6 573.1,257.6 574.5,257.6 575.9,257.6 577.4,257.6 578.8,257.6 580.2,257.6 581.6,252.6 583.1,252.6 584.5,252.6 585.9,257.6 587.4,257.6 588.8,257.6 590.2,252.6 591.7,252.6 593.1,247.5 594.5,247.5 596.0,247.5 597.4,252.6 598.8,252.6 600.2,252.6 601.7,252.6 603.1,257.6 604.5,257.6 606.0,257.6 607.4,257.6 608.8,257.6 610.2,257.6 611.7,257.6 613.1,257.6 614.5,257.6 616.0,257.6 617.4,252.6 618.8,252.6 620.3,252.6 621.7,252.6 623.1,247.5 624.5,247.5 626.0,247.5 627.4,247.5 628.8,242.5 630.3,242.5 631.7,247.5 633.1,247.5 634.6,252.6 636.0,257.6 637.4,257.6 638.9,257.6 640.3,257.6 641.7,262.6 643.1,257.6 644.6,252.6 646.0,252.6 647.4,247.5 648.9,247.5 650.3,247.5 651.7,247.5 653.1,247.5 654.6,247.5 656.0,247.5 657.4,247.5 658.9,252.6 660.3,252.6 661.7,252.6 663.2,252.6 664.6,257.6 666.0,257.6 667.5,257.6 668.9,262.6 670.3,262.6 671.7,257.6 673.2,257.6 674.6,257.6 676.0,257.6 677.5,257.6 678.9,257.6 680.3,257.6 681.8,257.6 683.2,252.6 684.6,252.6 686.0,252.6 687.5,262.6 688.9,262.6 690.3,262.6 691.8,262.6 693.2,262.6 694.6,272.7 696.0,272.7 697.5,272.7 698.9,262.6 700.3,262.6 701.8,262.6 703.2,267.7 704.6,272.7 706.1,272.7 707.5,267.7 708.9,267.7 710.4,272.7 711.8,272.7 713.2,272.7 714.6,272.7 716.1,272.7 717.5,277.8 718.9,277.8 720.4,272.7 721.8,272.7 723.2,272.7 724.6,272.7 726.1,272.7 727.5,272.7 728.9,272.7 730.4,272.7 731.8,272.7 733.2,272.7 734.7,272.7 736.1,272.7 737.5,272.7 739.0,267.7 740.4,262.6 741.8,267.7 743.2,267.7 744.7,267.7 746.1,267.7 747.5,267.7 749.0,267.7 750.4,267.7 751.8,272.7 753.2,277.8 754.7,277.8 756.1,277.8 757.5,282.8 759.0,277.8 760.4,277.8 761.8,277.8 763.3,277.8 764.7,277.8 766.1,277.8 767.5,277.8 769.0,277.8 770.4,277.8 771.8,277.8 773.3,277.8 774.7,277.8 776.1,277.8 777.6,272.7 779.0,277.8 780.4,272.7 781.9,272.7 783.3,272.7 784.7,272.7 786.1,272.7 787.6,277.8 789.0,277.8 790.4,267.7 791.9,267.7 793.3,267.7 794.7,272.7 796.1,272.7 797.6,272.7 799.0,277.8 800.4,277.8 801.9,277.8 803.3,277.8 804.7,277.8 806.2,272.7 807.6,272.7 809.0,272.7 810.5,272.7 811.9,272.7 813.3,272.7 814.7,272.7 816.2,272.7 817.6,272.7 819.0,267.7 820.5,262.6 821.9,262.6 823.3,262.6 824.8,262.6 826.2,262.6 827.6,267.7 829.0,267.7 830.5,267.7 831.9,262.6 833.3,262.6 834.8,262.6 836.2,262.6 837.6,262.6 839.0,262.6 840.5,257.6 841.9,252.6 843.3,252.6 844.8,252.6 846.2,252.6 847.6,247.5 849.1,247.5 850.5,247.5 851.9,242.5 853.4,242.5 854.8,242.5 856.2,252.6 857.6,257.6 859.1,257.6 860.5,257.6 861.9,257.6 863.4,257.6 864.8,257.6 866.2,262.6 867.6,257.6 869.1,252.6 870.5,252.6 871.9,252.6 873.4,257.6 874.8,247.5 876.2,247.5 877.7,247.5 879.1,247.5 880.5,247.5 882.0,252.6 883.4,257.6 884.8,257.6 886.2,257.6 887.7,257.6 889.1,247.5 890.5,247.5 892.0,247.5 893.4,252.6 894.8,252.6 896.2,247.5 897.7,247.5 899.1,242.5 900.5,247.5 902.0,247.5 903.4,247.5 904.8,247.5 906.3,247.5 907.7,247.5 909.1,252.6 910.5,252.6 912.0,252.6 913.4,242.5 914.8,247.5 916.3,247.5 917.7,257.6 919.1,257.6 920.6,257.6 922.0,262.6 923.4,267.7 924.9,277.8 926.3,277.8 927.7,277.8 929.1,282.8 930.6,287.8 932.0,292.9"/>
  <circle cx="101.2" cy="111.4" r="4" fill="#dc2626"/><text x="111.2" y="101.4" font-size="12" font-weight="600" fill="#991b1b">peak 39 nodes</text>
  <text x="503.0" y="356" text-anchor="middle" font-size="12" fill="#6b7280">hours since telemetry start</text>
</svg>
