<svg height="280" width="860" xmlns="http://www.w3.org/2000/svg" viewBox="0 0 860 280" class="chart-svg" role="img" aria-label="instancer cluster nodes">

  <style>
    .grid {
      stroke: #b4b4aa;
      vector-effect: non-scaling-stroke;
      opacity: 0.5;
    }
    .axis {
      fill: #78786e;
      font-family: monospace;
      font-size: 12px;
    }
    .area {
      opacity: 0.12;
    }
    .line {
      stroke-width: 1.6;
      stroke-linejoin: round;
      stroke-linecap: round;
      vector-effect: non-scaling-stroke;
    }
    .event {
      stroke: #1e1e1e;
      stroke-dasharray: 3 3;
      vector-effect: non-scaling-stroke;
      opacity: 0.55;
    }
    .event-label,
    .peak-label,
    .spike-label {
      fill: #1e1e1e;
      font-family: monospace;
      font-size: 12px;
      font-weight: 600;
    }
  </style>
  <title>instancer cluster nodes</title>
  <rect x="0.5" y="0.5" width="859" height="279" fill="#fafaf5" stroke="#b4b4aa"/>

 <g>
 <line class="grid" x1="48" x2="844" y1="254" y2="254"></line>
 <text class="axis" x="41" y="254" dy="0.32em" text-anchor="end">0</text>
 </g><g>
 <line class="grid" x1="48" x2="844" y1="208.4" y2="208.4"></line>
 <text class="axis" x="41" y="208.4" dy="0.32em" text-anchor="end">10</text>
 </g><g>
 <line class="grid" x1="48" x2="844" y1="162.8" y2="162.8"></line>
 <text class="axis" x="41" y="162.8" dy="0.32em" text-anchor="end">20</text>
 </g><g>
 <line class="grid" x1="48" x2="844" y1="117.2" y2="117.2"></line>
 <text class="axis" x="41" y="117.2" dy="0.32em" text-anchor="end">30</text>
 </g><g>
 <line class="grid" x1="48" x2="844" y1="71.6" y2="71.6"></line>
 <text class="axis" x="41" y="71.6" dy="0.32em" text-anchor="end">40</text>
 </g><g>
 <line class="grid" x1="48" x2="844" y1="26" y2="26"></line>
 <text class="axis" x="41" y="26" dy="0.32em" text-anchor="end">50</text>
 </g>
 <text class="axis" x="318.64000000000004" y="272" text-anchor="middle">06-28</text><text class="axis" x="700.7199999999999" y="272" text-anchor="middle">06-29</text>
 <path d="M49.327,244.88L50.653,244.88L51.98,244.88L53.307,244.88L54.633,244.88L55.96,244.88L57.287,244.88L58.613,244.88L59.94,244.88L61.267,244.88L62.593,244.88L63.92,244.88L65.247,240.32L66.573,208.4L67.9,190.16L69.227,190.16L70.553,190.16L71.88,144.56L73.207,76.16L74.533,76.16L75.86,76.16L77.187,112.64L78.513,108.08L79.84,98.96L81.167,98.96L82.493,103.52L83.82,94.4L85.147,103.52L86.473,108.08L87.8,108.08L89.127,108.08L90.453,103.52L91.78,103.52L93.107,108.08L94.433,112.64L95.76,117.2L97.087,112.64L98.413,108.08L99.74,108.08L101.067,108.08L102.393,108.08L103.72,108.08L105.047,108.08L106.373,117.2L107.7,126.32L109.027,126.32L110.353,126.32L111.68,130.88L113.007,135.44L114.333,135.44L115.66,135.44L116.987,140L118.313,140L119.64,144.56L120.967,149.12L122.293,153.68L123.62,149.12L124.947,149.12L126.273,149.12L127.6,153.68L128.927,158.24L130.253,158.24L131.58,158.24L132.907,153.68L134.233,158.24L135.56,158.24L136.887,158.24L138.213,153.68L139.54,153.68L140.867,158.24L142.193,162.8L143.52,162.8L144.847,167.36L146.173,167.36L147.5,158.24L148.827,158.24L150.153,158.24L151.48,158.24L152.807,153.68L154.133,153.68L155.46,153.68L156.787,149.12L158.113,144.56L159.44,144.56L160.767,144.56L162.093,144.56L163.42,144.56L164.747,144.56L166.073,149.12L167.4,149.12L168.727,144.56L170.053,144.56L171.38,144.56L172.707,149.12L174.033,149.12L175.36,158.24L176.687,158.24L178.013,167.36L179.34,171.92L180.667,167.36L181.993,167.36L183.32,162.8L184.647,162.8L185.973,162.8L187.3,162.8L188.627,167.36L189.953,167.36L191.28,167.36L192.607,167.36L193.933,167.36L195.26,167.36L196.587,167.36L197.913,167.36L199.24,171.92L200.567,176.48L201.893,181.04L203.22,171.92L204.547,171.92L205.873,171.92L207.2,176.48L208.527,181.04L209.853,181.04L211.18,181.04L212.507,176.48L213.833,176.48L215.16,181.04L216.487,181.04L217.813,185.6L219.14,185.6L220.467,194.72L221.793,185.6L223.12,185.6L224.447,185.6L225.773,185.6L227.1,190.16L228.427,190.16L229.753,190.16L231.08,185.6L232.407,185.6L233.733,185.6L235.06,190.16L236.387,194.72L237.713,194.72L239.04,194.72L240.367,194.72L241.693,194.72L243.02,194.72L244.347,194.72L245.673,194.72L247,190.16L248.327,190.16L249.653,190.16L250.98,194.72L252.307,194.72L253.633,194.72L254.96,194.72L256.287,194.72L257.613,194.72L258.94,203.84L260.267,203.84L261.593,208.4L262.92,208.4L264.247,203.84L265.573,203.84L266.9,203.84L268.227,203.84L269.553,199.28L270.88,199.28L272.207,199.28L273.533,203.84L274.86,203.84L276.187,212.96L277.513,212.96L278.84,212.96L280.167,212.96L281.493,212.96L282.82,217.52L284.147,217.52L285.473,217.52L286.8,217.52L288.127,208.4L289.453,208.4L290.78,208.4L292.107,212.96L293.433,212.96L294.76,212.96L296.087,212.96L297.413,217.52L298.74,222.08L300.067,217.52L301.393,212.96L302.72,212.96L304.047,212.96L305.373,217.52L306.7,217.52L308.027,217.52L309.353,217.52L310.68,217.52L312.007,217.52L313.333,217.52L314.66,212.96L315.987,212.96L317.313,212.96L318.64,208.4L319.967,212.96L321.293,212.96L322.62,212.96L323.947,212.96L325.273,199.28L326.6,199.28L327.927,199.28L329.253,203.84L330.58,203.84L331.907,203.84L333.233,203.84L334.56,203.84L335.887,203.84L337.213,208.4L338.54,203.84L339.867,203.84L341.193,208.4L342.52,208.4L343.847,203.84L345.173,208.4L346.5,208.4L347.827,203.84L349.153,203.84L350.48,203.84L351.807,203.84L353.133,203.84L354.46,199.28L355.787,203.84L357.113,203.84L358.44,203.84L359.767,203.84L361.093,203.84L362.42,199.28L363.747,199.28L365.073,199.28L366.4,199.28L367.727,199.28L369.053,199.28L370.38,203.84L371.707,203.84L373.033,199.28L374.36,199.28L375.687,199.28L377.013,199.28L378.34,199.28L379.667,199.28L380.993,203.84L382.32,203.84L383.647,203.84L384.973,208.4L386.3,208.4L387.627,203.84L388.953,203.84L390.28,203.84L391.607,212.96L392.933,212.96L394.26,212.96L395.587,212.96L396.913,212.96L398.24,208.4L399.567,203.84L400.893,199.28L402.22,199.28L403.547,199.28L404.873,190.16L406.2,194.72L407.527,199.28L408.853,199.28L410.18,203.84L411.507,203.84L412.833,203.84L414.16,208.4L415.487,208.4L416.813,212.96L418.14,203.84L419.467,208.4L420.793,208.4L422.12,203.84L423.447,208.4L424.773,203.84L426.1,203.84L427.427,199.28L428.753,199.28L430.08,199.28L431.407,203.84L432.733,199.28L434.06,194.72L435.387,190.16L436.713,190.16L438.04,185.6L439.367,185.6L440.693,185.6L442.02,190.16L443.347,190.16L444.673,199.28L446,199.28L447.327,199.28L448.653,203.84L449.98,199.28L451.307,199.28L452.633,194.72L453.96,194.72L455.287,194.72L456.613,199.28L457.94,199.28L459.267,185.6L460.593,185.6L461.92,185.6L463.247,190.16L464.573,203.84L465.9,203.84L467.227,203.84L468.553,203.84L469.88,203.84L471.207,203.84L472.533,203.84L473.86,203.84L475.187,203.84L476.513,212.96L477.84,212.96L479.167,212.96L480.493,212.96L481.82,212.96L483.147,212.96L484.473,212.96L485.8,212.96L487.127,212.96L488.453,212.96L489.78,208.4L491.107,208.4L492.433,199.28L493.76,199.28L495.087,199.28L496.413,194.72L497.74,194.72L499.067,194.72L500.393,194.72L501.72,199.28L503.047,199.28L504.373,199.28L505.7,203.84L507.027,203.84L508.353,203.84L509.68,203.84L511.007,208.4L512.333,208.4L513.66,208.4L514.987,208.4L516.313,208.4L517.64,208.4L518.967,203.84L520.293,203.84L521.62,203.84L522.947,208.4L524.273,208.4L525.6,208.4L526.927,203.84L528.253,203.84L529.58,199.28L530.907,199.28L532.233,199.28L533.56,203.84L534.887,203.84L536.213,203.84L537.54,203.84L538.867,208.4L540.193,208.4L541.52,208.4L542.847,208.4L544.173,208.4L545.5,208.4L546.827,208.4L548.153,208.4L549.48,208.4L550.807,208.4L552.133,203.84L553.46,203.84L554.787,203.84L556.113,203.84L557.44,199.28L558.767,199.28L560.093,199.28L561.42,199.28L562.747,194.72L564.073,194.72L565.4,199.28L566.727,199.28L568.053,203.84L569.38,208.4L570.707,208.4L572.033,208.4L573.36,208.4L574.687,212.96L576.013,208.4L577.34,203.84L578.667,203.84L579.993,199.28L581.32,199.28L582.647,199.28L583.973,199.28L585.3,199.28L586.627,199.28L587.953,199.28L589.28,199.28L590.607,203.84L591.933,203.84L593.26,203.84L594.587,203.84L595.913,208.4L597.24,208.4L598.567,208.4L599.893,212.96L601.22,212.96L602.547,208.4L603.873,208.4L605.2,208.4L606.527,208.4L607.853,208.4L609.18,208.4L610.507,208.4L611.833,208.4L613.16,203.84L614.487,203.84L615.813,203.84L617.14,212.96L618.467,212.96L619.793,212.96L621.12,212.96L622.447,212.96L623.773,222.08L625.1,222.08L626.427,222.08L627.753,212.96L629.08,212.96L630.407,212.96L631.733,217.52L633.06,222.08L634.387,222.08L635.713,217.52L637.04,217.52L638.367,222.08L639.693,222.08L641.02,222.08L642.347,222.08L643.673,222.08L645,226.64L646.327,226.64L647.653,222.08L648.98,222.08L650.307,222.08L651.633,222.08L652.96,222.08L654.287,222.08L655.613,222.08L656.94,222.08L658.267,222.08L659.593,222.08L660.92,222.08L662.247,222.08L663.573,222.08L664.9,217.52L666.227,212.96L667.553,217.52L668.88,217.52L670.207,217.52L671.533,217.52L672.86,217.52L674.187,217.52L675.513,217.52L676.84,222.08L678.167,226.64L679.493,226.64L680.82,226.64L682.147,231.2L683.473,226.64L684.8,226.64L686.127,226.64L687.453,226.64L688.78,226.64L690.107,226.64L691.433,226.64L692.76,226.64L694.087,226.64L695.413,226.64L696.74,226.64L698.067,226.64L699.393,226.64L700.72,222.08L702.047,226.64L703.373,222.08L704.7,222.08L706.027,222.08L707.353,222.08L708.68,222.08L710.007,226.64L711.333,226.64L712.66,217.52L713.987,217.52L715.313,217.52L716.64,222.08L717.967,222.08L719.293,222.08L720.62,226.64L721.947,226.64L723.273,226.64L724.6,226.64L725.927,226.64L727.253,222.08L728.58,222.08L729.907,222.08L731.233,222.08L732.56,222.08L733.887,222.08L735.213,222.08L736.54,222.08L737.867,222.08L739.193,217.52L740.52,212.96L741.847,212.96L743.173,212.96L744.5,212.96L745.827,212.96L747.153,217.52L748.48,217.52L749.807,217.52L751.133,212.96L752.46,212.96L753.787,212.96L755.113,212.96L756.44,212.96L757.767,212.96L759.093,208.4L760.42,203.84L761.747,203.84L763.073,203.84L764.4,203.84L765.727,199.28L767.053,199.28L768.38,199.28L769.707,194.72L771.033,194.72L772.36,194.72L773.687,203.84L775.013,208.4L776.34,208.4L777.667,208.4L778.993,208.4L780.32,208.4L781.647,208.4L782.973,212.96L784.3,208.4L785.627,203.84L786.953,203.84L788.28,203.84L789.607,208.4L790.933,199.28L792.26,199.28L793.587,199.28L794.913,199.28L796.24,199.28L797.567,203.84L798.893,208.4L800.22,208.4L801.547,208.4L802.873,208.4L804.2,199.28L805.527,199.28L806.853,199.28L808.18,203.84L809.507,203.84L810.833,199.28L812.16,199.28L813.487,194.72L814.813,199.28L816.14,199.28L817.467,199.28L818.793,199.28L820.12,199.28L821.447,199.28L822.773,203.84L824.1,203.84L825.427,203.84L826.753,194.72L828.08,199.28L829.407,199.28L830.733,208.4L832.06,208.4L833.387,208.4L834.713,212.96L836.04,217.52L837.367,226.64L838.693,226.64L840.02,226.64L841.347,231.2L842.673,235.76L844,240.32L844,254L842.673,254L841.347,254L840.02,254L838.693,254L837.367,254L836.04,254L834.713,254L833.387,254L832.06,254L830.733,254L829.407,254L828.08,254L826.753,254L825.427,254L824.1,254L822.773,254L821.447,254L820.12,254L818.793,254L817.467,254L816.14,254L814.813,254L813.487,254L812.16,254L810.833,254L809.507,254L808.18,254L806.853,254L805.527,254L804.2,254L802.873,254L801.547,254L800.22,254L798.893,254L797.567,254L796.24,254L794.913,254L793.587,254L792.26,254L790.933,254L789.607,254L788.28,254L786.953,254L785.627,254L784.3,254L782.973,254L781.647,254L780.32,254L778.993,254L777.667,254L776.34,254L775.013,254L773.687,254L772.36,254L771.033,254L769.707,254L768.38,254L767.053,254L765.727,254L764.4,254L763.073,254L761.747,254L760.42,254L759.093,254L757.767,254L756.44,254L755.113,254L753.787,254L752.46,254L751.133,254L749.807,254L748.48,254L747.153,254L745.827,254L744.5,254L743.173,254L741.847,254L740.52,254L739.193,254L737.867,254L736.54,254L735.213,254L733.887,254L732.56,254L731.233,254L729.907,254L728.58,254L727.253,254L725.927,254L724.6,254L723.273,254L721.947,254L720.62,254L719.293,254L717.967,254L716.64,254L715.313,254L713.987,254L712.66,254L711.333,254L710.007,254L708.68,254L707.353,254L706.027,254L704.7,254L703.373,254L702.047,254L700.72,254L699.393,254L698.067,254L696.74,254L695.413,254L694.087,254L692.76,254L691.433,254L690.107,254L688.78,254L687.453,254L686.127,254L684.8,254L683.473,254L682.147,254L680.82,254L679.493,254L678.167,254L676.84,254L675.513,254L674.187,254L672.86,254L671.533,254L670.207,254L668.88,254L667.553,254L666.227,254L664.9,254L663.573,254L662.247,254L660.92,254L659.593,254L658.267,254L656.94,254L655.613,254L654.287,254L652.96,254L651.633,254L650.307,254L648.98,254L647.653,254L646.327,254L645,254L643.673,254L642.347,254L641.02,254L639.693,254L638.367,254L637.04,254L635.713,254L634.387,254L633.06,254L631.733,254L630.407,254L629.08,254L627.753,254L626.427,254L625.1,254L623.773,254L622.447,254L621.12,254L619.793,254L618.467,254L617.14,254L615.813,254L614.487,254L613.16,254L611.833,254L610.507,254L609.18,254L607.853,254L606.527,254L605.2,254L603.873,254L602.547,254L601.22,254L599.893,254L598.567,254L597.24,254L595.913,254L594.587,254L593.26,254L591.933,254L590.607,254L589.28,254L587.953,254L586.627,254L585.3,254L583.973,254L582.647,254L581.32,254L579.993,254L578.667,254L577.34,254L576.013,254L574.687,254L573.36,254L572.033,254L570.707,254L569.38,254L568.053,254L566.727,254L565.4,254L564.073,254L562.747,254L561.42,254L560.093,254L558.767,254L557.44,254L556.113,254L554.787,254L553.46,254L552.133,254L550.807,254L549.48,254L548.153,254L546.827,254L545.5,254L544.173,254L542.847,254L541.52,254L540.193,254L538.867,254L537.54,254L536.213,254L534.887,254L533.56,254L532.233,254L530.907,254L529.58,254L528.253,254L526.927,254L525.6,254L524.273,254L522.947,254L521.62,254L520.293,254L518.967,254L517.64,254L516.313,254L514.987,254L513.66,254L512.333,254L511.007,254L509.68,254L508.353,254L507.027,254L505.7,254L504.373,254L503.047,254L501.72,254L500.393,254L499.067,254L497.74,254L496.413,254L495.087,254L493.76,254L492.433,254L491.107,254L489.78,254L488.453,254L487.127,254L485.8,254L484.473,254L483.147,254L481.82,254L480.493,254L479.167,254L477.84,254L476.513,254L475.187,254L473.86,254L472.533,254L471.207,254L469.88,254L468.553,254L467.227,254L465.9,254L464.573,254L463.247,254L461.92,254L460.593,254L459.267,254L457.94,254L456.613,254L455.287,254L453.96,254L452.633,254L451.307,254L449.98,254L448.653,254L447.327,254L446,254L444.673,254L443.347,254L442.02,254L440.693,254L439.367,254L438.04,254L436.713,254L435.387,254L434.06,254L432.733,254L431.407,254L430.08,254L428.753,254L427.427,254L426.1,254L424.773,254L423.447,254L422.12,254L420.793,254L419.467,254L418.14,254L416.813,254L415.487,254L414.16,254L412.833,254L411.507,254L410.18,254L408.853,254L407.527,254L406.2,254L404.873,254L403.547,254L402.22,254L400.893,254L399.567,254L398.24,254L396.913,254L395.587,254L394.26,254L392.933,254L391.607,254L390.28,254L388.953,254L387.627,254L386.3,254L384.973,254L383.647,254L382.32,254L380.993,254L379.667,254L378.34,254L377.013,254L375.687,254L374.36,254L373.033,254L371.707,254L370.38,254L369.053,254L367.727,254L366.4,254L365.073,254L363.747,254L362.42,254L361.093,254L359.767,254L358.44,254L357.113,254L355.787,254L354.46,254L353.133,254L351.807,254L350.48,254L349.153,254L347.827,254L346.5,254L345.173,254L343.847,254L342.52,254L341.193,254L339.867,254L338.54,254L337.213,254L335.887,254L334.56,254L333.233,254L331.907,254L330.58,254L329.253,254L327.927,254L326.6,254L325.273,254L323.947,254L322.62,254L321.293,254L319.967,254L318.64,254L317.313,254L315.987,254L314.66,254L313.333,254L312.007,254L310.68,254L309.353,254L308.027,254L306.7,254L305.373,254L304.047,254L302.72,254L301.393,254L300.067,254L298.74,254L297.413,254L296.087,254L294.76,254L293.433,254L292.107,254L290.78,254L289.453,254L288.127,254L286.8,254L285.473,254L284.147,254L282.82,254L281.493,254L280.167,254L278.84,254L277.513,254L276.187,254L274.86,254L273.533,254L272.207,254L270.88,254L269.553,254L268.227,254L266.9,254L265.573,254L264.247,254L262.92,254L261.593,254L260.267,254L258.94,254L257.613,254L256.287,254L254.96,254L253.633,254L252.307,254L250.98,254L249.653,254L248.327,254L247,254L245.673,254L244.347,254L243.02,254L241.693,254L240.367,254L239.04,254L237.713,254L236.387,254L235.06,254L233.733,254L232.407,254L231.08,254L229.753,254L228.427,254L227.1,254L225.773,254L224.447,254L223.12,254L221.793,254L220.467,254L219.14,254L217.813,254L216.487,254L215.16,254L213.833,254L212.507,254L211.18,254L209.853,254L208.527,254L207.2,254L205.873,254L204.547,254L203.22,254L201.893,254L200.567,254L199.24,254L197.913,254L196.587,254L195.26,254L193.933,254L192.607,254L191.28,254L189.953,254L188.627,254L187.3,254L185.973,254L184.647,254L183.32,254L181.993,254L180.667,254L179.34,254L178.013,254L176.687,254L175.36,254L174.033,254L172.707,254L171.38,254L170.053,254L168.727,254L167.4,254L166.073,254L164.747,254L163.42,254L162.093,254L160.767,254L159.44,254L158.113,254L156.787,254L155.46,254L154.133,254L152.807,254L151.48,254L150.153,254L148.827,254L147.5,254L146.173,254L144.847,254L143.52,254L142.193,254L140.867,254L139.54,254L138.213,254L136.887,254L135.56,254L134.233,254L132.907,254L131.58,254L130.253,254L128.927,254L127.6,254L126.273,254L124.947,254L123.62,254L122.293,254L120.967,254L119.64,254L118.313,254L116.987,254L115.66,254L114.333,254L113.007,254L111.68,254L110.353,254L109.027,254L107.7,254L106.373,254L105.047,254L103.72,254L102.393,254L101.067,254L99.74,254L98.413,254L97.087,254L95.76,254L94.433,254L93.107,254L91.78,254L90.453,254L89.127,254L87.8,254L86.473,254L85.147,254L83.82,254L82.493,254L81.167,254L79.84,254L78.513,254L77.187,254L75.86,254L74.533,254L73.207,254L71.88,254L70.553,254L69.227,254L67.9,254L66.573,254L65.247,254L63.92,254L62.593,254L61.267,254L59.94,254L58.613,254L57.287,254L55.96,254L54.633,254L53.307,254L51.98,254L50.653,254L49.327,254Z" class="area" fill="#0066cc"></path>
 <path d="M49.327,244.88L50.653,244.88L51.98,244.88L53.307,244.88L54.633,244.88L55.96,244.88L57.287,244.88L58.613,244.88L59.94,244.88L61.267,244.88L62.593,244.88L63.92,244.88L65.247,240.32L66.573,208.4L67.9,190.16L69.227,190.16L70.553,190.16L71.88,144.56L73.207,76.16L74.533,76.16L75.86,76.16L77.187,112.64L78.513,108.08L79.84,98.96L81.167,98.96L82.493,103.52L83.82,94.4L85.147,103.52L86.473,108.08L87.8,108.08L89.127,108.08L90.453,103.52L91.78,103.52L93.107,108.08L94.433,112.64L95.76,117.2L97.087,112.64L98.413,108.08L99.74,108.08L101.067,108.08L102.393,108.08L103.72,108.08L105.047,108.08L106.373,117.2L107.7,126.32L109.027,126.32L110.353,126.32L111.68,130.88L113.007,135.44L114.333,135.44L115.66,135.44L116.987,140L118.313,140L119.64,144.56L120.967,149.12L122.293,153.68L123.62,149.12L124.947,149.12L126.273,149.12L127.6,153.68L128.927,158.24L130.253,158.24L131.58,158.24L132.907,153.68L134.233,158.24L135.56,158.24L136.887,158.24L138.213,153.68L139.54,153.68L140.867,158.24L142.193,162.8L143.52,162.8L144.847,167.36L146.173,167.36L147.5,158.24L148.827,158.24L150.153,158.24L151.48,158.24L152.807,153.68L154.133,153.68L155.46,153.68L156.787,149.12L158.113,144.56L159.44,144.56L160.767,144.56L162.093,144.56L163.42,144.56L164.747,144.56L166.073,149.12L167.4,149.12L168.727,144.56L170.053,144.56L171.38,144.56L172.707,149.12L174.033,149.12L175.36,158.24L176.687,158.24L178.013,167.36L179.34,171.92L180.667,167.36L181.993,167.36L183.32,162.8L184.647,162.8L185.973,162.8L187.3,162.8L188.627,167.36L189.953,167.36L191.28,167.36L192.607,167.36L193.933,167.36L195.26,167.36L196.587,167.36L197.913,167.36L199.24,171.92L200.567,176.48L201.893,181.04L203.22,171.92L204.547,171.92L205.873,171.92L207.2,176.48L208.527,181.04L209.853,181.04L211.18,181.04L212.507,176.48L213.833,176.48L215.16,181.04L216.487,181.04L217.813,185.6L219.14,185.6L220.467,194.72L221.793,185.6L223.12,185.6L224.447,185.6L225.773,185.6L227.1,190.16L228.427,190.16L229.753,190.16L231.08,185.6L232.407,185.6L233.733,185.6L235.06,190.16L236.387,194.72L237.713,194.72L239.04,194.72L240.367,194.72L241.693,194.72L243.02,194.72L244.347,194.72L245.673,194.72L247,190.16L248.327,190.16L249.653,190.16L250.98,194.72L252.307,194.72L253.633,194.72L254.96,194.72L256.287,194.72L257.613,194.72L258.94,203.84L260.267,203.84L261.593,208.4L262.92,208.4L264.247,203.84L265.573,203.84L266.9,203.84L268.227,203.84L269.553,199.28L270.88,199.28L272.207,199.28L273.533,203.84L274.86,203.84L276.187,212.96L277.513,212.96L278.84,212.96L280.167,212.96L281.493,212.96L282.82,217.52L284.147,217.52L285.473,217.52L286.8,217.52L288.127,208.4L289.453,208.4L290.78,208.4L292.107,212.96L293.433,212.96L294.76,212.96L296.087,212.96L297.413,217.52L298.74,222.08L300.067,217.52L301.393,212.96L302.72,212.96L304.047,212.96L305.373,217.52L306.7,217.52L308.027,217.52L309.353,217.52L310.68,217.52L312.007,217.52L313.333,217.52L314.66,212.96L315.987,212.96L317.313,212.96L318.64,208.4L319.967,212.96L321.293,212.96L322.62,212.96L323.947,212.96L325.273,199.28L326.6,199.28L327.927,199.28L329.253,203.84L330.58,203.84L331.907,203.84L333.233,203.84L334.56,203.84L335.887,203.84L337.213,208.4L338.54,203.84L339.867,203.84L341.193,208.4L342.52,208.4L343.847,203.84L345.173,208.4L346.5,208.4L347.827,203.84L349.153,203.84L350.48,203.84L351.807,203.84L353.133,203.84L354.46,199.28L355.787,203.84L357.113,203.84L358.44,203.84L359.767,203.84L361.093,203.84L362.42,199.28L363.747,199.28L365.073,199.28L366.4,199.28L367.727,199.28L369.053,199.28L370.38,203.84L371.707,203.84L373.033,199.28L374.36,199.28L375.687,199.28L377.013,199.28L378.34,199.28L379.667,199.28L380.993,203.84L382.32,203.84L383.647,203.84L384.973,208.4L386.3,208.4L387.627,203.84L388.953,203.84L390.28,203.84L391.607,212.96L392.933,212.96L394.26,212.96L395.587,212.96L396.913,212.96L398.24,208.4L399.567,203.84L400.893,199.28L402.22,199.28L403.547,199.28L404.873,190.16L406.2,194.72L407.527,199.28L408.853,199.28L410.18,203.84L411.507,203.84L412.833,203.84L414.16,208.4L415.487,208.4L416.813,212.96L418.14,203.84L419.467,208.4L420.793,208.4L422.12,203.84L423.447,208.4L424.773,203.84L426.1,203.84L427.427,199.28L428.753,199.28L430.08,199.28L431.407,203.84L432.733,199.28L434.06,194.72L435.387,190.16L436.713,190.16L438.04,185.6L439.367,185.6L440.693,185.6L442.02,190.16L443.347,190.16L444.673,199.28L446,199.28L447.327,199.28L448.653,203.84L449.98,199.28L451.307,199.28L452.633,194.72L453.96,194.72L455.287,194.72L456.613,199.28L457.94,199.28L459.267,185.6L460.593,185.6L461.92,185.6L463.247,190.16L464.573,203.84L465.9,203.84L467.227,203.84L468.553,203.84L469.88,203.84L471.207,203.84L472.533,203.84L473.86,203.84L475.187,203.84L476.513,212.96L477.84,212.96L479.167,212.96L480.493,212.96L481.82,212.96L483.147,212.96L484.473,212.96L485.8,212.96L487.127,212.96L488.453,212.96L489.78,208.4L491.107,208.4L492.433,199.28L493.76,199.28L495.087,199.28L496.413,194.72L497.74,194.72L499.067,194.72L500.393,194.72L501.72,199.28L503.047,199.28L504.373,199.28L505.7,203.84L507.027,203.84L508.353,203.84L509.68,203.84L511.007,208.4L512.333,208.4L513.66,208.4L514.987,208.4L516.313,208.4L517.64,208.4L518.967,203.84L520.293,203.84L521.62,203.84L522.947,208.4L524.273,208.4L525.6,208.4L526.927,203.84L528.253,203.84L529.58,199.28L530.907,199.28L532.233,199.28L533.56,203.84L534.887,203.84L536.213,203.84L537.54,203.84L538.867,208.4L540.193,208.4L541.52,208.4L542.847,208.4L544.173,208.4L545.5,208.4L546.827,208.4L548.153,208.4L549.48,208.4L550.807,208.4L552.133,203.84L553.46,203.84L554.787,203.84L556.113,203.84L557.44,199.28L558.767,199.28L560.093,199.28L561.42,199.28L562.747,194.72L564.073,194.72L565.4,199.28L566.727,199.28L568.053,203.84L569.38,208.4L570.707,208.4L572.033,208.4L573.36,208.4L574.687,212.96L576.013,208.4L577.34,203.84L578.667,203.84L579.993,199.28L581.32,199.28L582.647,199.28L583.973,199.28L585.3,199.28L586.627,199.28L587.953,199.28L589.28,199.28L590.607,203.84L591.933,203.84L593.26,203.84L594.587,203.84L595.913,208.4L597.24,208.4L598.567,208.4L599.893,212.96L601.22,212.96L602.547,208.4L603.873,208.4L605.2,208.4L606.527,208.4L607.853,208.4L609.18,208.4L610.507,208.4L611.833,208.4L613.16,203.84L614.487,203.84L615.813,203.84L617.14,212.96L618.467,212.96L619.793,212.96L621.12,212.96L622.447,212.96L623.773,222.08L625.1,222.08L626.427,222.08L627.753,212.96L629.08,212.96L630.407,212.96L631.733,217.52L633.06,222.08L634.387,222.08L635.713,217.52L637.04,217.52L638.367,222.08L639.693,222.08L641.02,222.08L642.347,222.08L643.673,222.08L645,226.64L646.327,226.64L647.653,222.08L648.98,222.08L650.307,222.08L651.633,222.08L652.96,222.08L654.287,222.08L655.613,222.08L656.94,222.08L658.267,222.08L659.593,222.08L660.92,222.08L662.247,222.08L663.573,222.08L664.9,217.52L666.227,212.96L667.553,217.52L668.88,217.52L670.207,217.52L671.533,217.52L672.86,217.52L674.187,217.52L675.513,217.52L676.84,222.08L678.167,226.64L679.493,226.64L680.82,226.64L682.147,231.2L683.473,226.64L684.8,226.64L686.127,226.64L687.453,226.64L688.78,226.64L690.107,226.64L691.433,226.64L692.76,226.64L694.087,226.64L695.413,226.64L696.74,226.64L698.067,226.64L699.393,226.64L700.72,222.08L702.047,226.64L703.373,222.08L704.7,222.08L706.027,222.08L707.353,222.08L708.68,222.08L710.007,226.64L711.333,226.64L712.66,217.52L713.987,217.52L715.313,217.52L716.64,222.08L717.967,222.08L719.293,222.08L720.62,226.64L721.947,226.64L723.273,226.64L724.6,226.64L725.927,226.64L727.253,222.08L728.58,222.08L729.907,222.08L731.233,222.08L732.56,222.08L733.887,222.08L735.213,222.08L736.54,222.08L737.867,222.08L739.193,217.52L740.52,212.96L741.847,212.96L743.173,212.96L744.5,212.96L745.827,212.96L747.153,217.52L748.48,217.52L749.807,217.52L751.133,212.96L752.46,212.96L753.787,212.96L755.113,212.96L756.44,212.96L757.767,212.96L759.093,208.4L760.42,203.84L761.747,203.84L763.073,203.84L764.4,203.84L765.727,199.28L767.053,199.28L768.38,199.28L769.707,194.72L771.033,194.72L772.36,194.72L773.687,203.84L775.013,208.4L776.34,208.4L777.667,208.4L778.993,208.4L780.32,208.4L781.647,208.4L782.973,212.96L784.3,208.4L785.627,203.84L786.953,203.84L788.28,203.84L789.607,208.4L790.933,199.28L792.26,199.28L793.587,199.28L794.913,199.28L796.24,199.28L797.567,203.84L798.893,208.4L800.22,208.4L801.547,208.4L802.873,208.4L804.2,199.28L805.527,199.28L806.853,199.28L808.18,203.84L809.507,203.84L810.833,199.28L812.16,199.28L813.487,194.72L814.813,199.28L816.14,199.28L817.467,199.28L818.793,199.28L820.12,199.28L821.447,199.28L822.773,203.84L824.1,203.84L825.427,203.84L826.753,194.72L828.08,199.28L829.407,199.28L830.733,208.4L832.06,208.4L833.387,208.4L834.713,212.96L836.04,217.52L837.367,226.64L838.693,226.64L840.02,226.64L841.347,231.2L842.673,235.76L844,240.32" class="line" fill="none" stroke="#0066cc"></path>
 <g>
 <line class="event" x1="63.92" x2="63.92" y1="26" y2="254"></line>
 <text class="event-label" x="68.92" y="37" text-anchor="start">CTF start</text>
 </g><g>
 <line class="event" x1="453.96" x2="453.96" y1="26" y2="254"></line>
 <text class="event-label" x="448.96" y="37" text-anchor="end">wave 2</text>
 </g><g>
 <line class="event" x1="828.08" x2="828.08" y1="26" y2="254"></line>
 <text class="event-label" x="823.08" y="37" text-anchor="end">CTF end</text>
 </g>
 <g>
 <circle class="peak" cx="73.20666666666668" cy="76.16" r="3.5" fill="#0066cc"></circle>
 <text class="peak-label" x="80.20666666666668" y="76.16" dy="0.32em" text-anchor="start">peak 39 nodes</text>
 </g>
</svg>
