<svg xmlns="http://www.w3.org/2000/svg" fill="none" viewBox="0 0 509 202"><g filter="url(#a)"><path fill="#fff" fill-rule="evenodd" d="M301.199 13c0 9.83 7.881 17.82 17.669 17.997l.331.003c-9.941 0-18 8.059-18 18 0-9.941-8.059-18-18-18 9.941 0 18-8.059 18-18Zm183 25c0 8.731 6.994 15.83 15.685 15.997l.315.003c-8.837 0-16 7.163-16 16 0-8.837-7.164-16-16-16 8.836 0 16-7.163 16-16Zm-40-22c0 3.542.657 6.93 1.857 10.05 8.915.646 16.078 7.609 17.034 16.434a27.914 27.914 0 0 0 8.646 1.512l.463.004a27.96 27.96 0 0 0-9.026 1.487c-.496 9.432-8.056 16.99-17.486 17.487A27.934 27.934 0 0 0 444.199 72c0-3.19-.534-6.254-1.516-9.11-8.825-.955-15.789-8.118-16.435-17.032A27.928 27.928 0 0 0 416.199 44c3.582 0 7.006-.672 10.154-1.898 1.074-8.3 7.648-14.873 15.947-15.948A27.918 27.918 0 0 0 444.199 16Zm16.904 30.286-.204.087a28.102 28.102 0 0 0-14.415 14.53c7.687-.826 13.792-6.931 14.619-14.617Zm-32.749.483.036.253c1.072 6.984 6.521 12.524 13.458 13.733a28.104 28.104 0 0 0-13.494-13.986Zm18.615-18.614.102.213a28.112 28.112 0 0 0 13.882 13.282c-1.222-7.02-6.882-12.518-13.984-13.495Zm-5.631.188-.078.016a16.521 16.521 0 0 0-12.719 12.779 28.1 28.1 0 0 0 12.797-12.795ZM335.199 8c0 7.627 6.099 13.83 13.687 13.997l.313.003c-7.732 0-14 6.268-14 14 0-7.732-6.268-14-14-14 7.732 0 14-6.268 14-14Zm74 7c0 7.628 6.099 13.83 13.687 13.997l.313.003c-7.732 0-14 6.268-14 14 0-7.732-6.268-14-14-14 7.732 0 14-6.268 14-14Zm-165 29c0 7.627 6.099 13.83 13.687 13.997l.313.003c-7.732 0-14 6.268-14 14 0-7.732-6.268-14-14-14 7.732 0 14-6.268 14-14Z" clip-rule="evenodd"/><path fill="#fff" d="M360.713 89.99c24.01-19.336 36.786-36.465 31.987-45.885-8.651-16.977-71.113-2.487-139.513 32.365a560.964 560.964 0 0 0-15.879 8.411 398.45 398.45 0 0 1 18.16-8.44c58.752-25.546 112.377-32.46 119.776-15.445 3.131 7.2-2.519 17.534-14.531 28.994Zm-62.08 40.512a398.816 398.816 0 0 1-16.372 7.558c-58.751 25.546-112.376 32.461-119.775 15.446-3.195-7.348 2.753-17.957 15.274-29.698-24.509 19.59-37.611 36.985-32.76 46.506 8.65 16.977 71.112 2.487 139.512-32.365a564.044 564.044 0 0 0 14.121-7.447Z"/><path fill="#fff" fill-rule="evenodd" d="M269.199 23c6.241 0 12.32.697 18.162 2.018a74.138 74.138 0 0 0-1.662-.018c-42.25 0-76.5 34.25-76.5 76.5s34.25 76.5 76.5 76.5c11.595 0 22.587-2.58 32.435-7.196C304.475 180.978 287.54 187 269.199 187c-45.288 0-82-36.713-82-82s36.712-82 82-82Z" clip-rule="evenodd"/><path fill="#fff" fill-rule="evenodd" d="M272.57 41.897c38.312 31.122 56.742 54.6 55.292 70.433-1.451 15.833-9.241 27.782-23.37 35.846 4.941-8.196 6.698-16.654 5.272-25.376-1.426-8.722-14.609-15.915-39.551-21.579l-11.169 54.404a23.967 23.967 0 0 1 1.155 7.375c0 13.255-10.745 24-24 24s-24-10.745-24-24 10.745-24 24-24a23.894 23.894 0 0 1 14.903 5.187l21.468-102.29Z" clip-rule="evenodd"/><path fill="#fff" d="M498 90h-13v48h13V90Z"/><path fill="#fff" d="M498 90h-13v48h13V90ZM53 90v47.047h12.74v-35.539h12c2.197 0 4.037 3.177 4.037 5.549 0 2.372-1.84 5.546-4.037 5.546h-6.758v11.116c0 5.63 5.034 13.328 10.795 13.328H92.9v-10.784h-6.517c-1.203 0-4.607-.972-4.607-3.438 7.827-2.334 11.74-7.59 11.74-15.768 0-10.109-5.259-15.795-15.777-17.057H53Z"/><path fill="#fff" d="M53 90v47.047h12.74v-35.539h12c2.197 0 4.037 3.177 4.037 5.549 0 2.372-1.84 5.546-4.037 5.546h-6.758v11.116c0 5.63 5.034 13.328 10.795 13.328H92.9v-10.784h-6.517c-1.203 0-4.607-.972-4.607-3.438 7.827-2.334 11.74-7.59 11.74-15.768 0-10.109-5.259-15.795-15.777-17.057H53ZM8 90v47.047h12.74v-35.539h12c2.197 0 4.037 3.177 4.037 5.549 0 2.372-1.84 5.546-4.037 5.546h-6.758v10.21l10.795.012c7.827-2.334 11.74-7.59 11.74-15.768 0-10.109-5.259-15.795-15.777-17.057H8Z"/><path fill="#fff" d="M8 90v47.047h12.74v-35.539h12c2.197 0 4.037 3.177 4.037 5.549 0 2.372-1.84 5.546-4.037 5.546h-6.758v10.21l10.795.012c7.827-2.334 11.74-7.59 11.74-15.768 0-10.109-5.259-15.795-15.777-17.057H8Zm114-1c13.807 0 25 11.193 25 25s-11.193 25-25 25-25-11.193-25-25 11.193-25 25-25Zm0 12c-7.18 0-13 5.82-13 13s5.82 13 13 13 13-5.82 13-13-5.82-13-13-13Z"/><path fill="#fff" d="M122 89c13.807 0 25 11.193 25 25s-11.193 25-25 25-25-11.193-25-25 11.193-25 25-25Zm0 12c-7.18 0-13 5.82-13 13s5.82 13 13 13 13-5.82 13-13-5.82-13-13-13Zm34.595-11h12.604v31.667c0 9.974-9.051 17.333-19 17.333v-12.288c3.174 0 6.396-.055 6.396-5.045V90Z"/><path fill="#fff" d="M156.595 90h12.604v31.667c0 9.974-9.051 17.333-19 17.333v-12.288c3.174 0 6.396-.055 6.396-5.045V90ZM176 90h26.924v11.81h-13.986v6.983h12.9v9.766h-12.9v7.397h13.986v11.729H176V90Z"/><path fill="#fff" d="M176 90h26.924v11.81h-13.986v6.983h12.9v9.766h-12.9v7.397h13.986v11.729H176V90Zm182 0h26.924v11.81h-13.986v6.983h12.9v9.766h-12.9v7.397h13.986v11.729H358V90Z"/><path fill="#fff" d="M358 90h26.924v11.81h-13.986v6.983h12.9v9.766h-12.9v7.397h13.986v11.729H358V90Zm-112 0v12.165c-4.836-.11-8.836-.165-12-.165-6.627 0-12 5.373-12 12s5.373 12 12 12h12v12h-13c-13.255 0-24-10.745-24-24s10.745-24 24-24h13Z"/><path fill="#fff" d="M246 90v12.165c-4.836-.11-8.836-.165-12-.165-6.627 0-12 5.373-12 12s5.373 12 12 12h12v12h-13c-13.255 0-24-10.745-24-24s10.745-24 24-24h13Zm5 0h30.843v10.913h-8.98v36.84h-12.53v-36.84H251V90Z"/><path fill="#fff" d="M251 90h30.843v10.913h-8.98v36.84h-12.53v-36.84H251V90Zm98.59 1v10.901h-23.656c-1.696 0-3.241 2.368-3.241 4.019 0 1.652.943 3.477 3.241 3.477h15.447c3.786 0 10.937 4.63 10.937 14.533 0 9.903-6.001 13.761-10.937 13.761h-29.282v-10.405h25.179c1.262 0 2.848-1.4 2.848-3.356s-1.488-3.543-2.848-3.543h-11.344c-6.641 0-16.211-4.634-15.928-14.467.283-9.832 7.853-14.92 15.928-14.92h23.656Z"/><path fill="#fff" d="M349.59 91v10.901h-23.656c-1.696 0-3.241 2.368-3.241 4.019 0 1.652.943 3.477 3.241 3.477h15.447c3.786 0 10.937 4.63 10.937 14.533 0 9.903-6.001 13.761-10.937 13.761h-29.282v-10.405h25.179c1.262 0 2.848-1.4 2.848-3.356s-1.488-3.543-2.848-3.543h-11.344c-6.641 0-16.211-4.634-15.928-14.467.283-9.832 7.853-14.92 15.928-14.92h23.656Zm110.112-1h-11.947L429 139h13.876l10.624-28.78L464.46 139H478l-18.298-49Z"/><path fill="#fff" d="M459.702 90h-11.947L429 139h13.876l10.624-28.78L464.46 139H478l-18.298-49ZM404 90v13.355L411 90h13l-10.781 20.568L425 138h-13l-5.926-13.8-2.074 3.956V138h-13V90h13Z"/><path fill="#fff" d="M404 90v13.355L411 90h13l-10.781 20.568L425 138h-13l-5.926-13.8-2.074 3.956V138h-13V90h13ZM22.544 59.6c0-.912-.736-1.648-1.648-1.648-.848 0-1.568.688-1.616 1.552H8v2.08h10.416c-.464 4.944-3.472 8.224-8.592 9.232v2.064c5.76-.72 10.464-4.352 11.008-11.664h.064c.912 0 1.648-.736 1.648-1.616Zm-.864 0a.782.782 0 0 1-.784.768.779.779 0 0 1-.768-.768c0-.432.352-.784.768-.784.432 0 .784.352.784.784Zm18.992 12.8V59.664h-12.96V72.4h12.96Zm-2.208-2.048H29.92v-8.624h8.544v8.624Zm22.048-9.344v-2.416h-1.376v2.416h1.376Zm-2.048 0v-2.416h-1.376v2.416h1.376Zm-4.016.976v-2.096a70.87 70.87 0 0 0-7.04-.608v2.048c2.048.064 4.928.384 7.04.656Zm6.352-.32h-2.32c-.672 6.416-3.968 8.768-10.832 9.008v2.144c7.616-.112 12.496-3.056 13.152-11.152Zm-6.496 4.976v-2.096c-2.096-.32-4.912-.544-7.056-.608V66c2 .048 4.88.336 7.056.64Zm24.752 5.76v-1.936h-5.28v-6.88h4.448v-1.936H67.44v1.936h4.176v6.88H66.64V72.4h12.416Zm19.968-12.592v-.336h-10.64c-.544 2.288-1.84 3.968-3.408 4.976v2.272c2.304-.864 4.144-2.88 5.088-5.184h6.544c-.64 5.584-3.76 8.736-9.264 9.376v2.048c7.152-.56 11.408-4.944 11.68-13.152Zm18.256 8.112v-2.288c-3.008-.864-6.128-1.552-9.36-2.224V58.8h-2.288v14.304h2.288v-7.472c2.976.624 6.112 1.376 9.36 2.288Zm20.096-6.672h-9.696v-2.496h-2.224v2.496h-2.352v2.08h2.352v5.92c0 2.288.976 3.488 4.032 3.488h7.68v-2.08h-7.44c-1.536 0-2.048-.656-2.048-1.776v-5.552h6.912c-.672 1.536-2.144 2.592-3.44 3.104v2.032c3.216-.672 5.808-3.216 6.224-7.216Zm19.392 7.84v-7.68h-6.912v-2.624h-2.24v2.624h-4.176v2.032h4.176c-.08 3.68-1.952 6.016-4.176 7.296v2.224c3.328-1.216 6.112-4.304 6.4-9.52h4.624v5.488c0 1.264-.464 1.792-1.792 1.792h-2.56v2.064h3.024c2.544 0 3.632-1.152 3.632-3.696Zm19.776-10.144h-2.528c-1.472 2.944-4.592 5.408-11.024 6.624v2.112c2.352-.352 4.72-.96 6.864-1.952v7.584h2.32v-8.928c1.888-1.312 3.424-3.072 4.368-5.44ZM17.996 161.816v-5.76h-5.184v-1.968h-1.68v1.968H8v1.524h3.132c-.06 2.76-1.464 4.512-3.132 5.472v1.668c2.496-.912 4.584-3.228 4.8-7.14h3.468v4.116c0 .948-.348 1.344-1.344 1.344h-1.92v1.548h2.268c1.908 0 2.724-.864 2.724-2.772Zm15.152-5.7v-1.56h-8.952v1.56h8.952Zm.72 1.716v-.228H23.476v1.5h8.364c-.768 2.484-3.06 3.804-6.78 4.044v1.548c5.772-.156 8.484-2.82 8.808-6.864Zm15.176-3v-.204h-9.732v1.56h7.884c-.336 3.708-2.58 6.168-6.432 6.924v1.548c4.596-.576 8.28-3.612 8.28-9.828Zm16.196 2.772h-1.632c-.18 2.424-1.044 4.416-2.916 5.016v-8.208h-1.62v10.296c3.984-.36 5.928-2.844 6.168-7.104Zm-7.608-.036v-3.144h-1.62v3.264c0 3.384-.816 4.524-1.644 5.364v1.896c1.848-1.128 3.264-2.844 3.264-7.38Zm23.096 7.236v-1.776c-1.176-.72-2.472-1.824-3.204-3.54.84-1.344 1.44-2.952 1.656-4.824H70.9v1.56h6.228c-.996 3.6-3.984 6-6.816 6.828v1.632c2.1-.528 4.38-1.752 6.108-3.696.924 1.632 2.4 3.048 4.308 3.816Zm15.188-8.724v-1.536h-9.168v1.536h9.168Zm.732 3.18v-1.512H85.956v1.512h5.184c-.264 2.076-1.656 3.492-4.056 3.888v1.584c3.06-.408 5.448-2.028 5.892-5.472h3.672Zm15.86.432v-1.584h-10.356v1.584h10.356Zm15.548-3.936v-1.812h-1.032v1.812h1.032Zm-1.536 0v-1.812h-1.032v1.812h1.032Zm-3.012.732v-1.572a53.153 53.153 0 0 0-5.28-.456v1.536c1.536.048 3.696.288 5.28.492Zm4.764-.24h-1.74c-.504 4.812-2.976 6.576-8.124 6.756v1.608c5.712-.084 9.372-2.292 9.864-8.364Zm-4.872 3.732v-1.572c-1.572-.24-3.684-.408-5.292-.456v1.548c1.5.036 3.66.252 5.292.48Zm10.688-5.436.216 6.732h1.308l.204-6.732h-1.728Zm.036 7.764V164h1.656v-1.692h-1.656Zm184.899-8.476v-.204h-9.732v1.56h7.884c-.336 3.708-2.58 6.168-6.432 6.924v1.548c4.596-.576 8.28-3.612 8.28-9.828Zm13.14.744h-1.8c-.9 1.848-2.964 3.48-7.14 4.332v1.488c1.608-.264 3.12-.696 4.452-1.308v4.908h1.632v-5.844c1.296-.9 2.292-2.076 2.856-3.576Zm14.556 4.116v-1.584h-10.356v1.584h10.356Zm15.012-.072v-1.5h-3.804v-1.86c1.524-.156 2.832-.732 3.228-1.968h-2.016c-.444.348-1.308.528-2.688.528h-4.596v1.476h4.368v1.824h-5.304v1.5h5.256c-.276 2.088-1.608 3.3-4.032 3.636v1.524c2.736-.252 5.436-1.644 5.748-5.16h3.84Zm14.004-2.796-6.408.192-.264-1.548h-1.56l.264 1.596-1.836.06v1.464l2.076-.072 1.068 6.396h1.608l-1.104-6.456 4.272-.156c-.408 1.212-1.272 2.112-2.556 2.544v1.524c2.328-.636 4.164-2.364 4.44-5.544Zm13.248 1.404v-3.84h-1.728v3.864c0 3.78-2.268 4.656-6.108 4.848v1.572c5.34-.18 7.836-1.956 7.836-6.444Zm-7.332 2.424v-6.264h-1.716v6.264h1.716Zm16.716-3.588v-1.728a44.972 44.972 0 0 0-5.184-.696v1.668c1.62.108 3.48.384 5.184.756Zm4.56-.732h-1.764c-.576 4.944-3.504 6.252-7.836 6.6v1.632c5.592-.216 9.048-2.436 9.6-8.232Zm15.504-.912v-1.788h-1.008v.972h-.432v-.972h-1.02v.972h-6.3c-.396 1.716-1.368 2.976-2.544 3.732v1.704c1.728-.648 3.108-2.16 3.804-3.888h4.812c-.504 4.188-2.832 6.552-6.948 7.032v1.536c5.184-.408 8.352-3.504 8.736-9.3h.9Zm5.664 2.556c-.804 0-1.464.648-1.464 1.464s.648 1.464 1.464 1.464c.804 0 1.464-.648 1.464-1.464s-.66-1.464-1.464-1.464Zm16.368 6.852v-1.908c-1.836-1.836-2.448-4.596-2.448-7.788v-.708h-1.728v.66c0 5.04 1.464 8.184 4.176 9.744Zm-6.54-9.756v-.648h-1.728v.708c0 3.192-.6 5.964-2.436 7.788v1.908c2.7-1.56 4.164-4.692 4.164-9.756Zm17.16 4.392c-.264-1.704-.588-3.324-1.032-4.908h-1.704c.432 1.548.852 3.516 1.044 4.908h1.692Zm3.972-4.728v-.132h-1.788v.144c-.048 4.74-1.524 7.404-6.288 8.376v1.62c5.448-.948 7.992-3.876 8.076-10.008Zm-7.596 4.872a42.61 42.61 0 0 0-1.068-4.932h-1.728c.432 1.428.888 3.552 1.08 4.932h1.716Zm22.764 3.156v-1.656a30.289 30.289 0 0 0-4.032-1.188v1.56c1.296.348 2.736.792 4.032 1.284Zm-.852-5.736v-1.488h-3.984v-1.584h-1.644v1.584h-3.708v1.512h6.996a15.338 15.338 0 0 1-3.012 2.148c-1.428.792-3.024 1.404-4.764 1.872v1.56a24.194 24.194 0 0 0 4.572-1.608v3.972h1.608v-4.884c1.452-.888 2.796-1.932 3.936-3.084Zm14.364-.468v-1.668c-2.7-.276-5.964-.36-8.808-.372v1.644c3-.024 5.688.096 8.808.396Zm-.516 3.756v-1.632c-2.748-.348-5.58-.432-7.98-.444v1.572c2.628.012 5.268.192 7.98.504Zm1.02 4.308v-1.692c-3.216-.492-6.564-.72-9.816-.756v1.656c3.156.024 6.636.288 9.816.792Zm14.736-9.768v-.252h-7.98c-.408 1.716-1.38 2.976-2.556 3.732v1.704c1.728-.648 3.108-2.16 3.816-3.888h4.908c-.48 4.188-2.82 6.552-6.948 7.032v1.536c5.364-.42 8.556-3.708 8.76-9.864Z"/><path stroke="#fff" stroke-linejoin="round" stroke-width="4" d="M301.199 13c0 9.83 7.881 17.82 17.669 17.997l.331.003c-9.941 0-18 8.059-18 18 0-9.941-8.059-18-18-18 9.941 0 18-8.059 18-18Zm183 25c0 8.731 6.994 15.83 15.685 15.997l.315.003c-8.837 0-16 7.163-16 16 0-8.837-7.164-16-16-16 8.836 0 16-7.163 16-16Zm-40-22c0 3.542.657 6.93 1.857 10.05 8.915.646 16.078 7.609 17.034 16.434a27.914 27.914 0 0 0 8.646 1.512l.463.004a27.96 27.96 0 0 0-9.026 1.487c-.496 9.432-8.056 16.99-17.486 17.487A27.934 27.934 0 0 0 444.199 72c0-3.19-.534-6.254-1.516-9.11-8.825-.955-15.789-8.118-16.435-17.032A27.928 27.928 0 0 0 416.199 44c3.582 0 7.006-.672 10.154-1.898 1.074-8.3 7.648-14.873 15.947-15.948A27.918 27.918 0 0 0 444.199 16Zm16.904 30.286-.204.087a28.102 28.102 0 0 0-14.415 14.53c7.687-.826 13.792-6.931 14.619-14.617Zm-32.749.483.036.253c1.072 6.984 6.521 12.524 13.458 13.733a28.104 28.104 0 0 0-13.494-13.986Zm18.615-18.614.102.213a28.112 28.112 0 0 0 13.882 13.282c-1.222-7.02-6.882-12.518-13.984-13.495Zm-5.631.188-.078.016a16.521 16.521 0 0 0-12.719 12.779 28.1 28.1 0 0 0 12.797-12.795ZM335.199 8c0 7.627 6.099 13.83 13.687 13.997l.313.003c-7.732 0-14 6.268-14 14 0-7.732-6.268-14-14-14 7.732 0 14-6.268 14-14Zm74 7c0 7.628 6.099 13.83 13.687 13.997l.313.003c-7.732 0-14 6.268-14 14 0-7.732-6.268-14-14-14 7.732 0 14-6.268 14-14Zm-165 29c0 7.627 6.099 13.83 13.687 13.997l.313.003c-7.732 0-14 6.268-14 14 0-7.732-6.268-14-14-14 7.732 0 14-6.268 14-14Z" clip-rule="evenodd"/><path stroke="#fff" stroke-linejoin="round" stroke-width="4" d="M360.713 89.99c24.01-19.336 36.786-36.465 31.987-45.885-8.651-16.977-71.113-2.487-139.513 32.365a560.964 560.964 0 0 0-15.879 8.411 398.45 398.45 0 0 1 18.16-8.44c58.752-25.546 112.377-32.46 119.776-15.445 3.131 7.2-2.519 17.534-14.531 28.994Zm-62.08 40.512a398.816 398.816 0 0 1-16.372 7.558c-58.751 25.546-112.376 32.461-119.775 15.446-3.195-7.348 2.753-17.957 15.274-29.698-24.509 19.59-37.611 36.985-32.76 46.506 8.65 16.977 71.112 2.487 139.512-32.365a564.044 564.044 0 0 0 14.121-7.447Z"/><path stroke="#fff" stroke-linejoin="round" stroke-width="4" d="M269.199 23c6.241 0 12.32.697 18.162 2.018a74.138 74.138 0 0 0-1.662-.018c-42.25 0-76.5 34.25-76.5 76.5s34.25 76.5 76.5 76.5c11.595 0 22.587-2.58 32.435-7.196C304.475 180.978 287.54 187 269.199 187c-45.288 0-82-36.713-82-82s36.712-82 82-82Z" clip-rule="evenodd"/><path stroke="#fff" stroke-linejoin="round" stroke-width="4" d="M272.57 41.897c38.312 31.122 56.742 54.6 55.292 70.433-1.451 15.833-9.241 27.782-23.37 35.846 4.941-8.196 6.698-16.654 5.272-25.376-1.426-8.722-14.609-15.915-39.551-21.579l-11.169 54.404a23.967 23.967 0 0 1 1.155 7.375c0 13.255-10.745 24-24 24s-24-10.745-24-24 10.745-24 24-24a23.894 23.894 0 0 1 14.903 5.187l21.468-102.29Z" clip-rule="evenodd"/><path stroke="#fff" stroke-linejoin="round" stroke-width="4" d="M498 90h-13v48h13V90Z"/><path stroke="#fff" stroke-linejoin="round" stroke-width="4" d="M498 90h-13v48h13V90ZM53 90v47.047h12.74v-35.539h12c2.197 0 4.037 3.177 4.037 5.549 0 2.372-1.84 5.546-4.037 5.546h-6.758v11.116c0 5.63 5.034 13.328 10.795 13.328H92.9v-10.784h-6.517c-1.203 0-4.607-.972-4.607-3.438 7.827-2.334 11.74-7.59 11.74-15.768 0-10.109-5.259-15.795-15.777-17.057H53Z"/><path stroke="#fff" stroke-linejoin="round" stroke-width="4" d="M53 90v47.047h12.74v-35.539h12c2.197 0 4.037 3.177 4.037 5.549 0 2.372-1.84 5.546-4.037 5.546h-6.758v11.116c0 5.63 5.034 13.328 10.795 13.328H92.9v-10.784h-6.517c-1.203 0-4.607-.972-4.607-3.438 7.827-2.334 11.74-7.59 11.74-15.768 0-10.109-5.259-15.795-15.777-17.057H53ZM8 90v47.047h12.74v-35.539h12c2.197 0 4.037 3.177 4.037 5.549 0 2.372-1.84 5.546-4.037 5.546h-6.758v10.21l10.795.012c7.827-2.334 11.74-7.59 11.74-15.768 0-10.109-5.259-15.795-15.777-17.057H8Z"/><path stroke="#fff" stroke-linejoin="round" stroke-width="4" d="M8 90v47.047h12.74v-35.539h12c2.197 0 4.037 3.177 4.037 5.549 0 2.372-1.84 5.546-4.037 5.546h-6.758v10.21l10.795.012c7.827-2.334 11.74-7.59 11.74-15.768 0-10.109-5.259-15.795-15.777-17.057H8Zm114-1c13.807 0 25 11.193 25 25s-11.193 25-25 25-25-11.193-25-25 11.193-25 25-25Zm0 12c-7.18 0-13 5.82-13 13s5.82 13 13 13 13-5.82 13-13-5.82-13-13-13Z"/><path stroke="#fff" stroke-linejoin="round" stroke-width="4" d="M122 89c13.807 0 25 11.193 25 25s-11.193 25-25 25-25-11.193-25-25 11.193-25 25-25Zm0 12c-7.18 0-13 5.82-13 13s5.82 13 13 13 13-5.82 13-13-5.82-13-13-13Zm34.595-11h12.604v31.667c0 9.974-9.051 17.333-19 17.333v-12.288c3.174 0 6.396-.055 6.396-5.045V90Z"/><path stroke="#fff" stroke-linejoin="round" stroke-width="4" d="M156.595 90h12.604v31.667c0 9.974-9.051 17.333-19 17.333v-12.288c3.174 0 6.396-.055 6.396-5.045V90ZM176 90h26.924v11.81h-13.986v6.983h12.9v9.766h-12.9v7.397h13.986v11.729H176V90Z"/><path stroke="#fff" stroke-linejoin="round" stroke-width="4" d="M176 90h26.924v11.81h-13.986v6.983h12.9v9.766h-12.9v7.397h13.986v11.729H176V90Zm182 0h26.924v11.81h-13.986v6.983h12.9v9.766h-12.9v7.397h13.986v11.729H358V90Z"/><path stroke="#fff" stroke-linejoin="round" stroke-width="4" d="M358 90h26.924v11.81h-13.986v6.983h12.9v9.766h-12.9v7.397h13.986v11.729H358V90Zm-112 0v12.165c-4.836-.11-8.836-.165-12-.165-6.627 0-12 5.373-12 12s5.373 12 12 12h12v12h-13c-13.255 0-24-10.745-24-24s10.745-24 24-24h13Z"/><path stroke="#fff" stroke-linejoin="round" stroke-width="4" d="M246 90v12.165c-4.836-.11-8.836-.165-12-.165-6.627 0-12 5.373-12 12s5.373 12 12 12h12v12h-13c-13.255 0-24-10.745-24-24s10.745-24 24-24h13Zm5 0h30.843v10.913h-8.98v36.84h-12.53v-36.84H251V90Z"/><path stroke="#fff" stroke-linejoin="round" stroke-width="4" d="M251 90h30.843v10.913h-8.98v36.84h-12.53v-36.84H251V90Zm98.59 1v10.901h-23.656c-1.696 0-3.241 2.368-3.241 4.019 0 1.652.943 3.477 3.241 3.477h15.447c3.786 0 10.937 4.63 10.937 14.533 0 9.903-6.001 13.761-10.937 13.761h-29.282v-10.405h25.179c1.262 0 2.848-1.4 2.848-3.356s-1.488-3.543-2.848-3.543h-11.344c-6.641 0-16.211-4.634-15.928-14.467.283-9.832 7.853-14.92 15.928-14.92h23.656Z"/><path stroke="#fff" stroke-linejoin="round" stroke-width="4" d="M349.59 91v10.901h-23.656c-1.696 0-3.241 2.368-3.241 4.019 0 1.652.943 3.477 3.241 3.477h15.447c3.786 0 10.937 4.63 10.937 14.533 0 9.903-6.001 13.761-10.937 13.761h-29.282v-10.405h25.179c1.262 0 2.848-1.4 2.848-3.356s-1.488-3.543-2.848-3.543h-11.344c-6.641 0-16.211-4.634-15.928-14.467.283-9.832 7.853-14.92 15.928-14.92h23.656Zm110.112-1h-11.947L429 139h13.876l10.624-28.78L464.46 139H478l-18.298-49Z"/><path stroke="#fff" stroke-linejoin="round" stroke-width="4" d="M459.702 90h-11.947L429 139h13.876l10.624-28.78L464.46 139H478l-18.298-49ZM404 90v13.355L411 90h13l-10.781 20.568L425 138h-13l-5.926-13.8-2.074 3.956V138h-13V90h13Z"/><path stroke="#fff" stroke-linejoin="round" stroke-width="4" d="M404 90v13.355L411 90h13l-10.781 20.568L425 138h-13l-5.926-13.8-2.074 3.956V138h-13V90h13ZM22.544 59.6c0-.912-.736-1.648-1.648-1.648-.848 0-1.568.688-1.616 1.552H8v2.08h10.416c-.464 4.944-3.472 8.224-8.592 9.232v2.064c5.76-.72 10.464-4.352 11.008-11.664h.064c.912 0 1.648-.736 1.648-1.616Zm-.864 0a.782.782 0 0 1-.784.768.779.779 0 0 1-.768-.768c0-.432.352-.784.768-.784.432 0 .784.352.784.784Zm18.992 12.8V59.664h-12.96V72.4h12.96Zm-2.208-2.048H29.92v-8.624h8.544v8.624Zm22.048-9.344v-2.416h-1.376v2.416h1.376Zm-2.048 0v-2.416h-1.376v2.416h1.376Zm-4.016.976v-2.096a70.87 70.87 0 0 0-7.04-.608v2.048c2.048.064 4.928.384 7.04.656Zm6.352-.32h-2.32c-.672 6.416-3.968 8.768-10.832 9.008v2.144c7.616-.112 12.496-3.056 13.152-11.152Zm-6.496 4.976v-2.096c-2.096-.32-4.912-.544-7.056-.608V66c2 .048 4.88.336 7.056.64Zm24.752 5.76v-1.936h-5.28v-6.88h4.448v-1.936H67.44v1.936h4.176v6.88H66.64V72.4h12.416Zm19.968-12.592v-.336h-10.64c-.544 2.288-1.84 3.968-3.408 4.976v2.272c2.304-.864 4.144-2.88 5.088-5.184h6.544c-.64 5.584-3.76 8.736-9.264 9.376v2.048c7.152-.56 11.408-4.944 11.68-13.152Zm18.256 8.112v-2.288c-3.008-.864-6.128-1.552-9.36-2.224V58.8h-2.288v14.304h2.288v-7.472c2.976.624 6.112 1.376 9.36 2.288Zm20.096-6.672h-9.696v-2.496h-2.224v2.496h-2.352v2.08h2.352v5.92c0 2.288.976 3.488 4.032 3.488h7.68v-2.08h-7.44c-1.536 0-2.048-.656-2.048-1.776v-5.552h6.912c-.672 1.536-2.144 2.592-3.44 3.104v2.032c3.216-.672 5.808-3.216 6.224-7.216Zm19.392 7.84v-7.68h-6.912v-2.624h-2.24v2.624h-4.176v2.032h4.176c-.08 3.68-1.952 6.016-4.176 7.296v2.224c3.328-1.216 6.112-4.304 6.4-9.52h4.624v5.488c0 1.264-.464 1.792-1.792 1.792h-2.56v2.064h3.024c2.544 0 3.632-1.152 3.632-3.696Zm19.776-10.144h-2.528c-1.472 2.944-4.592 5.408-11.024 6.624v2.112c2.352-.352 4.72-.96 6.864-1.952v7.584h2.32v-8.928c1.888-1.312 3.424-3.072 4.368-5.44ZM17.996 161.816v-5.76h-5.184v-1.968h-1.68v1.968H8v1.524h3.132c-.06 2.76-1.464 4.512-3.132 5.472v1.668c2.496-.912 4.584-3.228 4.8-7.14h3.468v4.116c0 .948-.348 1.344-1.344 1.344h-1.92v1.548h2.268c1.908 0 2.724-.864 2.724-2.772Zm15.152-5.7v-1.56h-8.952v1.56h8.952Zm.72 1.716v-.228H23.476v1.5h8.364c-.768 2.484-3.06 3.804-6.78 4.044v1.548c5.772-.156 8.484-2.82 8.808-6.864Zm15.176-3v-.204h-9.732v1.56h7.884c-.336 3.708-2.58 6.168-6.432 6.924v1.548c4.596-.576 8.28-3.612 8.28-9.828Zm16.196 2.772h-1.632c-.18 2.424-1.044 4.416-2.916 5.016v-8.208h-1.62v10.296c3.984-.36 5.928-2.844 6.168-7.104Zm-7.608-.036v-3.144h-1.62v3.264c0 3.384-.816 4.524-1.644 5.364v1.896c1.848-1.128 3.264-2.844 3.264-7.38Zm23.096 7.236v-1.776c-1.176-.72-2.472-1.824-3.204-3.54.84-1.344 1.44-2.952 1.656-4.824H70.9v1.56h6.228c-.996 3.6-3.984 6-6.816 6.828v1.632c2.1-.528 4.38-1.752 6.108-3.696.924 1.632 2.4 3.048 4.308 3.816Zm15.188-8.724v-1.536h-9.168v1.536h9.168Zm.732 3.18v-1.512H85.956v1.512h5.184c-.264 2.076-1.656 3.492-4.056 3.888v1.584c3.06-.408 5.448-2.028 5.892-5.472h3.672Zm15.86.432v-1.584h-10.356v1.584h10.356Zm15.548-3.936v-1.812h-1.032v1.812h1.032Zm-1.536 0v-1.812h-1.032v1.812h1.032Zm-3.012.732v-1.572a53.153 53.153 0 0 0-5.28-.456v1.536c1.536.048 3.696.288 5.28.492Zm4.764-.24h-1.74c-.504 4.812-2.976 6.576-8.124 6.756v1.608c5.712-.084 9.372-2.292 9.864-8.364Zm-4.872 3.732v-1.572c-1.572-.24-3.684-.408-5.292-.456v1.548c1.5.036 3.66.252 5.292.48Zm10.688-5.436.216 6.732h1.308l.204-6.732h-1.728Zm.036 7.764V164h1.656v-1.692h-1.656Zm184.899-8.476v-.204h-9.732v1.56h7.884c-.336 3.708-2.58 6.168-6.432 6.924v1.548c4.596-.576 8.28-3.612 8.28-9.828Zm13.14.744h-1.8c-.9 1.848-2.964 3.48-7.14 4.332v1.488c1.608-.264 3.12-.696 4.452-1.308v4.908h1.632v-5.844c1.296-.9 2.292-2.076 2.856-3.576Zm14.556 4.116v-1.584h-10.356v1.584h10.356Zm15.012-.072v-1.5h-3.804v-1.86c1.524-.156 2.832-.732 3.228-1.968h-2.016c-.444.348-1.308.528-2.688.528h-4.596v1.476h4.368v1.824h-5.304v1.5h5.256c-.276 2.088-1.608 3.3-4.032 3.636v1.524c2.736-.252 5.436-1.644 5.748-5.16h3.84Zm14.004-2.796-6.408.192-.264-1.548h-1.56l.264 1.596-1.836.06v1.464l2.076-.072 1.068 6.396h1.608l-1.104-6.456 4.272-.156c-.408 1.212-1.272 2.112-2.556 2.544v1.524c2.328-.636 4.164-2.364 4.44-5.544Zm13.248 1.404v-3.84h-1.728v3.864c0 3.78-2.268 4.656-6.108 4.848v1.572c5.34-.18 7.836-1.956 7.836-6.444Zm-7.332 2.424v-6.264h-1.716v6.264h1.716Zm16.716-3.588v-1.728a44.972 44.972 0 0 0-5.184-.696v1.668c1.62.108 3.48.384 5.184.756Zm4.56-.732h-1.764c-.576 4.944-3.504 6.252-7.836 6.6v1.632c5.592-.216 9.048-2.436 9.6-8.232Zm15.504-.912v-1.788h-1.008v.972h-.432v-.972h-1.02v.972h-6.3c-.396 1.716-1.368 2.976-2.544 3.732v1.704c1.728-.648 3.108-2.16 3.804-3.888h4.812c-.504 4.188-2.832 6.552-6.948 7.032v1.536c5.184-.408 8.352-3.504 8.736-9.3h.9Zm5.664 2.556c-.804 0-1.464.648-1.464 1.464s.648 1.464 1.464 1.464c.804 0 1.464-.648 1.464-1.464s-.66-1.464-1.464-1.464Zm16.368 6.852v-1.908c-1.836-1.836-2.448-4.596-2.448-7.788v-.708h-1.728v.66c0 5.04 1.464 8.184 4.176 9.744Zm-6.54-9.756v-.648h-1.728v.708c0 3.192-.6 5.964-2.436 7.788v1.908c2.7-1.56 4.164-4.692 4.164-9.756Zm17.16 4.392c-.264-1.704-.588-3.324-1.032-4.908h-1.704c.432 1.548.852 3.516 1.044 4.908h1.692Zm3.972-4.728v-.132h-1.788v.144c-.048 4.74-1.524 7.404-6.288 8.376v1.62c5.448-.948 7.992-3.876 8.076-10.008Zm-7.596 4.872a42.61 42.61 0 0 0-1.068-4.932h-1.728c.432 1.428.888 3.552 1.08 4.932h1.716Zm22.764 3.156v-1.656a30.289 30.289 0 0 0-4.032-1.188v1.56c1.296.348 2.736.792 4.032 1.284Zm-.852-5.736v-1.488h-3.984v-1.584h-1.644v1.584h-3.708v1.512h6.996a15.338 15.338 0 0 1-3.012 2.148c-1.428.792-3.024 1.404-4.764 1.872v1.56a24.194 24.194 0 0 0 4.572-1.608v3.972h1.608v-4.884c1.452-.888 2.796-1.932 3.936-3.084Zm14.364-.468v-1.668c-2.7-.276-5.964-.36-8.808-.372v1.644c3-.024 5.688.096 8.808.396Zm-.516 3.756v-1.632c-2.748-.348-5.58-.432-7.98-.444v1.572c2.628.012 5.268.192 7.98.504Zm1.02 4.308v-1.692c-3.216-.492-6.564-.72-9.816-.756v1.656c3.156.024 6.636.288 9.816.792Zm14.736-9.768v-.252h-7.98c-.408 1.716-1.38 2.976-2.556 3.732v1.704c1.728-.648 3.108-2.16 3.816-3.888h4.908c-.48 4.188-2.82 6.552-6.948 7.032v1.536c5.364-.42 8.556-3.708 8.76-9.864Z"/></g><path fill="url(#b)" fill-rule="evenodd" d="M301.199 13c0 9.83 7.881 17.82 17.669 17.997l.331.003c-9.941 0-18 8.059-18 18 0-9.941-8.059-18-18-18 9.941 0 18-8.059 18-18Z" clip-rule="evenodd"/><path fill="url(#c)" fill-rule="evenodd" d="M484.199 38c0 8.731 6.994 15.83 15.685 15.997l.315.003c-8.837 0-16 7.163-16 16 0-8.837-7.164-16-16-16 8.836 0 16-7.163 16-16Z" clip-rule="evenodd"/><path fill="url(#d)" fill-rule="evenodd" d="M444.199 16c0 3.542.657 6.93 1.857 10.05 8.915.646 16.078 7.609 17.034 16.434a27.914 27.914 0 0 0 8.646 1.512l.463.004a27.96 27.96 0 0 0-9.026 1.487c-.496 9.432-8.056 16.99-17.486 17.487A27.934 27.934 0 0 0 444.199 72c0-3.19-.533-6.254-1.516-9.11-8.825-.955-15.789-8.118-16.435-17.032A27.928 27.928 0 0 0 416.199 44c3.582 0 7.006-.672 10.154-1.898 1.074-8.3 7.648-14.873 15.947-15.948A27.918 27.918 0 0 0 444.199 16Zm16.904 30.286-.204.087a28.102 28.102 0 0 0-14.415 14.53c7.687-.826 13.792-6.931 14.619-14.617Zm-32.749.483.036.253c1.072 6.984 6.521 12.524 13.458 13.733a28.104 28.104 0 0 0-13.494-13.986Zm18.615-18.614.102.213a28.112 28.112 0 0 0 13.882 13.282c-1.222-7.02-6.882-12.518-13.984-13.495Zm-5.631.188-.078.016a16.521 16.521 0 0 0-12.719 12.779 28.1 28.1 0 0 0 12.797-12.795Z" clip-rule="evenodd"/><path fill="url(#e)" fill-rule="evenodd" d="M335.199 8c0 7.627 6.099 13.83 13.687 13.997l.313.003c-7.732 0-14 6.268-14 14 0-7.732-6.268-14-14-14 7.732 0 14-6.268 14-14Z" clip-rule="evenodd"/><path fill="url(#f)" fill-rule="evenodd" d="M409.199 15c0 7.628 6.099 13.83 13.687 13.997l.313.003c-7.732 0-14 6.268-14 14 0-7.732-6.268-14-14-14 7.732 0 14-6.268 14-14Z" clip-rule="evenodd"/><path fill="url(#g)" fill-rule="evenodd" d="M244.199 44c0 7.627 6.099 13.83 13.687 13.997l.313.003c-7.732 0-14 6.268-14 14 0-7.732-6.268-14-14-14 7.732 0 14-6.268 14-14Z" clip-rule="evenodd"/><path fill="url(#h)" fill-rule="evenodd" d="M360.713 89.99c24.01-19.336 36.786-36.465 31.987-45.885-8.651-16.977-71.113-2.487-139.513 32.365a560.964 560.964 0 0 0-15.879 8.411 398.45 398.45 0 0 1 18.16-8.44c58.752-25.546 112.377-32.46 119.776-15.445 3.131 7.2-2.519 17.534-14.531 28.994Zm-62.08 40.512a398.816 398.816 0 0 1-16.372 7.558c-58.751 25.546-112.376 32.461-119.775 15.446-3.195-7.348 2.753-17.957 15.274-29.698-24.509 19.59-37.611 36.985-32.76 46.506 8.65 16.977 71.112 2.487 139.512-32.365a564.044 564.044 0 0 0 14.121-7.447Z" clip-rule="evenodd"/><path fill="url(#i)" fill-rule="evenodd" d="M269.199 23c6.241 0 12.32.697 18.162 2.018a74.138 74.138 0 0 0-1.662-.018c-42.25 0-76.5 34.25-76.5 76.5s34.25 76.5 76.5 76.5c11.595 0 22.587-2.58 32.435-7.196C304.475 180.978 287.54 187 269.199 187c-45.288 0-82-36.713-82-82s36.712-82 82-82Z" clip-rule="evenodd"/><path fill="url(#j)" stroke="#fff" stroke-width=".1" d="m272.602 41.858-.064-.052-.017.08-21.451 102.211a23.954 23.954 0 0 0-14.871-5.147c-13.283 0-24.05 10.768-24.05 24.05s10.767 24.05 24.05 24.05c13.282 0 24.05-10.768 24.05-24.05a24.05 24.05 0 0 0-1.153-7.378l11.156-54.341c12.444 2.829 21.954 6.038 28.531 9.627 6.588 3.594 10.223 7.562 10.932 11.9 1.424 8.709-.331 17.156-5.266 25.342l-.099.165.167-.095c14.143-8.073 21.943-20.036 23.395-35.886.727-7.936-3.529-17.777-12.746-29.518-9.218-11.743-23.407-25.396-42.564-40.958Z"/><mask id="k" width="13" height="48" x="485" y="90" maskUnits="userSpaceOnUse" style="mask-type:alpha"><path fill="#fff" d="M498 90h-13v48h13V90Z"/></mask><g mask="url(#k)"><path fill="url(#l)" d="M498 90h-13v48h13V90Z"/><path fill="url(#m)" d="M490 90h-5v48h5V90Z"/></g><mask id="n" width="41" height="48" x="53" y="90" maskUnits="userSpaceOnUse" style="mask-type:alpha"><path fill="#fff" d="M53 90v47.047h12.74v-35.539h12c2.197 0 4.037 3.177 4.037 5.549 0 2.372-1.84 5.546-4.037 5.546h-6.758v11.116c0 5.63 5.034 13.328 10.795 13.328H92.9v-10.784h-6.517c-1.203 0-4.607-.972-4.607-3.438 7.827-2.334 11.74-7.59 11.74-15.768 0-10.109-5.259-15.795-15.777-17.057H53Z"/></mask><g mask="url(#n)"><path fill="url(#o)" d="M53 90v47.047h12.74v-35.539h12c2.197 0 4.037 3.177 4.037 5.549 0 2.372-1.84 5.546-4.037 5.546h-6.758v11.116c0 5.63 5.034 13.328 10.795 13.328H92.9v-10.784h-6.517c-1.203 0-4.607-.972-4.607-3.438 7.827-2.334 11.74-7.59 11.74-15.768 0-10.109-5.259-15.795-15.777-17.057H53Z"/><path fill="url(#p)" fill-rule="evenodd" d="M53 94.175h24.736c4.415 0 12.007 3.735 12.007 12.592 0 5.904-2.68 9.865-8.041 11.883v4.163h12.891V89.154H53v5.02Z" clip-rule="evenodd"/><path fill="url(#q)" fill-rule="evenodd" d="M74.898 112.603v9.706c0 5.669 5.234 10.888 8.748 10.888h10.947v6.31H69.565v-26.904h5.333Z" clip-rule="evenodd"/><path fill="url(#r)" d="M57.199 101.603h-8v40h8v-40Z"/></g><mask id="s" width="41" height="48" x="8" y="90" maskUnits="userSpaceOnUse" style="mask-type:alpha"><path fill="#fff" d="M8 90v47.047h12.74v-35.539h12c2.197 0 4.037 3.177 4.037 5.549 0 2.372-1.84 5.546-4.037 5.546h-6.758v10.21l10.795.012c7.827-2.334 11.74-7.59 11.74-15.768 0-10.109-5.259-15.795-15.777-17.057H8Z"/></mask><g mask="url(#s)"><path fill="url(#t)" d="M8 90v47.047h12.74v-35.539h12c2.197 0 4.037 3.177 4.037 5.549 0 2.372-1.84 5.546-4.037 5.546h-6.758v10.21l10.795.012c7.827-2.334 11.74-7.59 11.74-15.768 0-10.109-5.259-15.795-15.777-17.057H8Z"/><path fill="url(#u)" fill-rule="evenodd" d="M8 94.175h24.736c4.415 0 12.007 3.735 12.007 12.592 0 8.856-4.72 11.883-8.041 11.883h-10.72v4.163h23.611V89.154H8v5.02Z" clip-rule="evenodd"/><path fill="url(#v)" d="M12.199 101.603h-8v40h8v-40Z"/></g><mask id="w" width="50" height="50" x="97" y="89" maskUnits="userSpaceOnUse" style="mask-type:alpha"><path fill="#fff" d="M122 89c13.807 0 25 11.193 25 25s-11.193 25-25 25-25-11.193-25-25 11.193-25 25-25Zm0 12c-7.18 0-13 5.82-13 13s5.82 13 13 13 13-5.82 13-13-5.82-13-13-13Z"/></mask><g mask="url(#w)"><path fill="url(#x)" d="M122 89c13.807 0 25 11.193 25 25s-11.193 25-25 25-25-11.193-25-25 11.193-25 25-25Zm0 12c-7.18 0-13 5.82-13 13s5.82 13 13 13 13-5.82 13-13-5.82-13-13-13Z"/><path fill="url(#y)" fill-rule="evenodd" d="M122 97v4c-7.18 0-13 5.82-13 13s5.82 13 13 13v4c-9.389 0-17-7.611-17-17s7.611-17 17-17Z" clip-rule="evenodd"/><path fill="url(#z)" fill-rule="evenodd" d="M122 89c13.807 0 25 11.193 25 25s-11.193 25-25 25v-5c11.046 0 20-8.954 20-20s-8.954-20-20-20v-5Z" clip-rule="evenodd"/></g><mask id="A" width="20" height="49" x="150" y="90" maskUnits="userSpaceOnUse" style="mask-type:alpha"><path fill="#fff" d="M156.595 90h12.604v31.667c0 9.974-9.051 17.333-19 17.333v-12.288c3.174 0 6.396-.055 6.396-5.045V90Z"/></mask><g mask="url(#A)"><path fill="url(#B)" d="M156.595 90h12.604v31.667c0 9.974-9.051 17.333-19 17.333v-12.288c3.174 0 6.396-.055 6.396-5.045V90Z"/><path fill="url(#C)" fill-rule="evenodd" d="M161.199 90v32.639c0 6.65-4.881 9.361-11 9.361V90h11Z" clip-rule="evenodd"/></g><mask id="D" width="27" height="48" x="176" y="90" maskUnits="userSpaceOnUse" style="mask-type:alpha"><path fill="#fff" d="M176 90h26.924v11.81h-13.986v6.983h12.9v9.766h-12.9v7.397h13.986v11.729H176V90Z"/></mask><g mask="url(#D)"><path fill="url(#E)" d="M176 90h26.924v11.81h-13.986v6.983h12.9v9.766h-12.9v7.397h13.986v11.729H176V90Z"/><path fill="url(#F)" fill-rule="evenodd" d="M176 89.784h26.91v5H176v-5Z" clip-rule="evenodd"/><path fill="url(#G)" fill-rule="evenodd" d="M176 101.784h5.91V132.7h21l.014 5.084H176v-36Z" clip-rule="evenodd"/></g><mask id="H" width="27" height="48" x="358" y="90" maskUnits="userSpaceOnUse" style="mask-type:alpha"><path fill="#fff" d="M358 90h26.924v11.81h-13.986v6.983h12.9v9.766h-12.9v7.397h13.986v11.729H358V90Z"/></mask><g mask="url(#H)"><path fill="url(#I)" d="M358 90h26.924v11.81h-13.986v6.983h12.9v9.766h-12.9v7.397h13.986v11.729H358V90Z"/><path fill="url(#J)" fill-rule="evenodd" d="M358 132.784h26.91v5H358v-5Z" clip-rule="evenodd"/><path fill="url(#K)" fill-rule="evenodd" d="M358 125.784h5.91V94.867h21l.014-5.083H358v36Z" clip-rule="evenodd"/></g><mask id="L" width="37" height="48" x="209" y="90" maskUnits="userSpaceOnUse" style="mask-type:alpha"><path fill="#fff" d="M246 90v12.165c-4.836-.11-8.836-.165-12-.165-6.627 0-12 5.373-12 12s5.373 12 12 12h12v12h-13c-13.255 0-24-10.745-24-24s10.745-24 24-24h13Z"/></mask><g mask="url(#L)"><path fill="url(#M)" d="M246 90v12.165c-4.836-.11-8.836-.165-12-.165-6.627 0-12 5.373-12 12s5.373 12 12 12h12v12h-13c-13.255 0-24-10.745-24-24s10.745-24 24-24h13Z"/><path fill="url(#N)" fill-rule="evenodd" d="M246 90v5h-13c-10.493 0-19 8.507-19 19s8.507 19 19 19h13v5h-13c-13.255 0-24-10.745-24-24s10.745-24 24-24h13Z" clip-rule="evenodd"/></g><mask id="O" width="31" height="48" x="251" y="90" maskUnits="userSpaceOnUse" style="mask-type:alpha"><path fill="#fff" d="M251 90h30.843v10.913h-8.98v36.84h-12.53v-36.84H251V90Z"/></mask><g mask="url(#O)"><path fill="url(#P)" d="M251 90h30.843v10.913h-8.98v36.84h-12.53v-36.84H251V90Z"/><path fill="url(#Q)" fill-rule="evenodd" d="M250.981 90h30.862l.019 4.753H251L250.981 90Z" clip-rule="evenodd"/><path fill="url(#R)" fill-rule="evenodd" d="M267.862 100.901h5.5v37h-5.5v-37Z" clip-rule="evenodd"/></g><mask id="S" width="43" height="47" x="310" y="91" maskUnits="userSpaceOnUse" style="mask-type:alpha"><path fill="#fff" d="M349.59 91v10.901h-23.656c-1.696 0-3.241 2.368-3.241 4.019 0 1.652.943 3.477 3.241 3.477h15.447c3.786 0 10.937 4.63 10.937 14.533 0 9.903-6.001 13.761-10.937 13.761h-29.282v-10.405h25.179c1.262 0 2.848-1.4 2.848-3.356s-1.488-3.543-2.848-3.543h-11.344c-6.641 0-16.211-4.634-15.928-14.467.283-9.832 7.853-14.92 15.928-14.92h23.656Z"/></mask><g mask="url(#S)"><path fill="url(#T)" d="M349.59 91v10.901h-23.656c-1.696 0-3.241 2.368-3.241 4.019 0 1.652.943 3.477 3.241 3.477h15.447c3.786 0 10.937 4.63 10.937 14.533 0 9.903-6.001 13.761-10.937 13.761h-29.282v-10.405h25.179c1.262 0 2.848-1.4 2.848-3.356s-1.488-3.543-2.848-3.543h-11.344c-6.641 0-16.211-4.634-15.928-14.467.283-9.832 7.853-14.92 15.928-14.92h23.656Z"/><path fill="url(#U)" fill-rule="evenodd" d="M350.662 95.13h-25.981c-4.549 0-9.783 3.706-9.783 10.753 0 7.048 5.985 10.401 9.783 10.401h13.033c4.534 0 6.722 4.694 6.722 7.521 0 2.828-1.867 7.573-6.722 7.573h-29.079V87.944h42.027v7.185Z" clip-rule="evenodd"/></g><mask id="V" width="49" height="49" x="429" y="90" maskUnits="userSpaceOnUse" style="mask-type:alpha"><path fill="#fff" d="M459.702 90h-11.947L429 139h13.876l10.624-28.78L464.46 139H478l-18.298-49Z"/></mask><g mask="url(#V)"><path fill="url(#W)" d="M459.702 90h-11.947L429 139h13.876l10.624-28.78L464.46 139H478l-18.298-49Z"/><path fill="url(#X)" fill-rule="evenodd" d="M466 94.39h-14.457L434.537 139H425V88h41v6.39Z" clip-rule="evenodd"/><path fill="url(#Y)" fill-rule="evenodd" d="m455.726 104.226 11.976 30.18H482V142h-40.071l13.797-37.774Z" clip-rule="evenodd"/></g><mask id="Z" width="34" height="48" x="391" y="90" maskUnits="userSpaceOnUse" style="mask-type:alpha"><path fill="#fff" d="M404 90v13.355L411 90h13l-10.781 20.568L425 138h-13l-5.926-13.8-2.074 3.956V138h-13V90h13Z"/></mask><g mask="url(#Z)"><path fill="url(#aa)" d="M404 90v13.355L411 90h13l-10.781 20.568L425 138h-13l-5.926-13.8-2.074 3.956V138h-13V90h13Z"/><path fill="url(#ab)" fill-rule="evenodd" d="M417.148 90 404 115.083v-11.728L411 90h6.148Z" clip-rule="evenodd"/><path fill="url(#ac)" fill-rule="evenodd" d="M413.219 110.569 425 138h-5.51l-9.299-21.653 3.028-5.778Z" clip-rule="evenodd"/><path fill="url(#ad)" d="M396 90h-5v48h5V90Z"/></g><path fill="#005286" d="M22.544 59.6c0-.912-.736-1.648-1.648-1.648-.848 0-1.568.688-1.616 1.552H8v2.08h10.416c-.464 4.944-3.472 8.224-8.592 9.232v2.064c5.76-.72 10.464-4.352 11.008-11.664h.064c.912 0 1.648-.736 1.648-1.616Zm-.864 0a.782.782 0 0 1-.784.768.779.779 0 0 1-.768-.768c0-.432.352-.784.768-.784.432 0 .784.352.784.784Zm18.992 12.8V59.664h-12.96V72.4h12.96Zm-2.208-2.048H29.92v-8.624h8.544v8.624Zm22.048-9.344v-2.416h-1.376v2.416h1.376Zm-2.048 0v-2.416h-1.376v2.416h1.376Zm-4.016.976v-2.096a70.87 70.87 0 0 0-7.04-.608v2.048c2.048.064 4.928.384 7.04.656Zm6.352-.32h-2.32c-.672 6.416-3.968 8.768-10.832 9.008v2.144c7.616-.112 12.496-3.056 13.152-11.152Zm-6.496 4.976v-2.096c-2.096-.32-4.912-.544-7.056-.608V66c2 .048 4.88.336 7.056.64Zm24.752 5.76v-1.936h-5.28v-6.88h4.448v-1.936H67.44v1.936h4.176v6.88H66.64V72.4h12.416Zm19.968-12.592v-.336h-10.64c-.544 2.288-1.84 3.968-3.408 4.976v2.272c2.304-.864 4.144-2.88 5.088-5.184h6.544c-.64 5.584-3.76 8.736-9.264 9.376v2.048c7.152-.56 11.408-4.944 11.68-13.152Zm18.256 8.112v-2.288c-3.008-.864-6.128-1.552-9.36-2.224V58.8h-2.288v14.304h2.288v-7.472c2.976.624 6.112 1.376 9.36 2.288Zm20.096-6.672h-9.696v-2.496h-2.224v2.496h-2.352v2.08h2.352v5.92c0 2.288.976 3.488 4.032 3.488h7.68v-2.08h-7.44c-1.536 0-2.048-.656-2.048-1.776v-5.552h6.912c-.672 1.536-2.144 2.592-3.44 3.104v2.032c3.216-.672 5.808-3.216 6.224-7.216Zm19.392 7.84v-7.68h-6.912v-2.624h-2.24v2.624h-4.176v2.032h4.176c-.08 3.68-1.952 6.016-4.176 7.296v2.224c3.328-1.216 6.112-4.304 6.4-9.52h4.624v5.488c0 1.264-.464 1.792-1.792 1.792h-2.56v2.064h3.024c2.544 0 3.632-1.152 3.632-3.696Zm19.776-10.144h-2.528c-1.472 2.944-4.592 5.408-11.024 6.624v2.112c2.352-.352 4.72-.96 6.864-1.952v7.584h2.32v-8.928c1.888-1.312 3.424-3.072 4.368-5.44ZM17.996 161.816v-5.76h-5.184v-1.968h-1.68v1.968H8v1.524h3.132c-.06 2.76-1.464 4.512-3.132 5.472v1.668c2.496-.912 4.584-3.228 4.8-7.14h3.468v4.116c0 .948-.348 1.344-1.344 1.344h-1.92v1.548h2.268c1.908 0 2.724-.864 2.724-2.772Zm15.152-5.7v-1.56h-8.952v1.56h8.952Zm.72 1.716v-.228H23.476v1.5h8.364c-.768 2.484-3.06 3.804-6.78 4.044v1.548c5.772-.156 8.484-2.82 8.808-6.864Zm15.176-3v-.204h-9.732v1.56h7.884c-.336 3.708-2.58 6.168-6.432 6.924v1.548c4.596-.576 8.28-3.612 8.28-9.828Zm16.196 2.772h-1.632c-.18 2.424-1.044 4.416-2.916 5.016v-8.208h-1.62v10.296c3.984-.36 5.928-2.844 6.168-7.104Zm-7.608-.036v-3.144h-1.62v3.264c0 3.384-.816 4.524-1.644 5.364v1.896c1.848-1.128 3.264-2.844 3.264-7.38Zm23.096 7.236v-1.776c-1.176-.72-2.472-1.824-3.204-3.54.84-1.344 1.44-2.952 1.656-4.824H70.9v1.56h6.228c-.996 3.6-3.984 6-6.816 6.828v1.632c2.1-.528 4.38-1.752 6.108-3.696.924 1.632 2.4 3.048 4.308 3.816Zm15.188-8.724v-1.536h-9.168v1.536h9.168Zm.732 3.18v-1.512H85.956v1.512h5.184c-.264 2.076-1.656 3.492-4.056 3.888v1.584c3.06-.408 5.448-2.028 5.892-5.472h3.672Zm15.86.432v-1.584h-10.356v1.584h10.356Zm15.548-3.936v-1.812h-1.032v1.812h1.032Zm-1.536 0v-1.812h-1.032v1.812h1.032Zm-3.012.732v-1.572a53.153 53.153 0 0 0-5.28-.456v1.536c1.536.048 3.696.288 5.28.492Zm4.764-.24h-1.74c-.504 4.812-2.976 6.576-8.124 6.756v1.608c5.712-.084 9.372-2.292 9.864-8.364Zm-4.872 3.732v-1.572c-1.572-.24-3.684-.408-5.292-.456v1.548c1.5.036 3.66.252 5.292.48Zm10.688-5.436.216 6.732h1.308l.204-6.732h-1.728Zm.036 7.764V164h1.656v-1.692h-1.656Zm184.899-8.476v-.204h-9.732v1.56h7.884c-.336 3.708-2.58 6.168-6.432 6.924v1.548c4.596-.576 8.28-3.612 8.28-9.828Zm13.14.744h-1.8c-.9 1.848-2.964 3.48-7.14 4.332v1.488c1.608-.264 3.12-.696 4.452-1.308v4.908h1.632v-5.844c1.296-.9 2.292-2.076 2.856-3.576Zm14.556 4.116v-1.584h-10.356v1.584h10.356Zm15.012-.072v-1.5h-3.804v-1.86c1.524-.156 2.832-.732 3.228-1.968h-2.016c-.444.348-1.308.528-2.688.528h-4.596v1.476h4.368v1.824h-5.304v1.5h5.256c-.276 2.088-1.608 3.3-4.032 3.636v1.524c2.736-.252 5.436-1.644 5.748-5.16h3.84Zm14.004-2.796-6.408.192-.264-1.548h-1.56l.264 1.596-1.836.06v1.464l2.076-.072 1.068 6.396h1.608l-1.104-6.456 4.272-.156c-.408 1.212-1.272 2.112-2.556 2.544v1.524c2.328-.636 4.164-2.364 4.44-5.544Zm13.248 1.404v-3.84h-1.728v3.864c0 3.78-2.268 4.656-6.108 4.848v1.572c5.34-.18 7.836-1.956 7.836-6.444Zm-7.332 2.424v-6.264h-1.716v6.264h1.716Zm16.716-3.588v-1.728a44.972 44.972 0 0 0-5.184-.696v1.668c1.62.108 3.48.384 5.184.756Zm4.56-.732h-1.764c-.576 4.944-3.504 6.252-7.836 6.6v1.632c5.592-.216 9.048-2.436 9.6-8.232Zm15.504-.912v-1.788h-1.008v.972h-.432v-.972h-1.02v.972h-6.3c-.396 1.716-1.368 2.976-2.544 3.732v1.704c1.728-.648 3.108-2.16 3.804-3.888h4.812c-.504 4.188-2.832 6.552-6.948 7.032v1.536c5.184-.408 8.352-3.504 8.736-9.3h.9Zm5.664 2.556c-.804 0-1.464.648-1.464 1.464s.648 1.464 1.464 1.464c.804 0 1.464-.648 1.464-1.464s-.66-1.464-1.464-1.464Zm16.368 6.852v-1.908c-1.836-1.836-2.448-4.596-2.448-7.788v-.708h-1.728v.66c0 5.04 1.464 8.184 4.176 9.744Zm-6.54-9.756v-.648h-1.728v.708c0 3.192-.6 5.964-2.436 7.788v1.908c2.7-1.56 4.164-4.692 4.164-9.756Zm17.16 4.392c-.264-1.704-.588-3.324-1.032-4.908h-1.704c.432 1.548.852 3.516 1.044 4.908h1.692Zm3.972-4.728v-.132h-1.788v.144c-.048 4.74-1.524 7.404-6.288 8.376v1.62c5.448-.948 7.992-3.876 8.076-10.008Zm-7.596 4.872a42.61 42.61 0 0 0-1.068-4.932h-1.728c.432 1.428.888 3.552 1.08 4.932h1.716Zm22.764 3.156v-1.656a30.289 30.289 0 0 0-4.032-1.188v1.56c1.296.348 2.736.792 4.032 1.284Zm-.852-5.736v-1.488h-3.984v-1.584h-1.644v1.584h-3.708v1.512h6.996a15.338 15.338 0 0 1-3.012 2.148c-1.428.792-3.024 1.404-4.764 1.872v1.56a24.194 24.194 0 0 0 4.572-1.608v3.972h1.608v-4.884c1.452-.888 2.796-1.932 3.936-3.084Zm14.364-.468v-1.668c-2.7-.276-5.964-.36-8.808-.372v1.644c3-.024 5.688.096 8.808.396Zm-.516 3.756v-1.632c-2.748-.348-5.58-.432-7.98-.444v1.572c2.628.012 5.268.192 7.98.504Zm1.02 4.308v-1.692c-3.216-.492-6.564-.72-9.816-.756v1.656c3.156.024 6.636.288 9.816.792Zm14.736-9.768v-.252h-7.98c-.408 1.716-1.38 2.976-2.556 3.732v1.704c1.728-.648 3.108-2.16 3.816-3.888h4.908c-.48 4.188-2.82 6.552-6.948 7.032v1.536c5.364-.42 8.556-3.708 8.76-9.864Z"/><defs><linearGradient id="b" x1="301.199" x2="301.199" y1="13" y2="49" gradientUnits="userSpaceOnUse"><stop stop-color="#FFD626"/><stop offset="1" stop-color="#FFA300"/></linearGradient><linearGradient id="c" x1="484.199" x2="484.199" y1="38" y2="70" gradientUnits="userSpaceOnUse"><stop stop-color="#00E5EA"/><stop offset="1" stop-color="#00B5CC"/></linearGradient><linearGradient id="d" x1="444.199" x2="444.199" y1="16" y2="72" gradientUnits="userSpaceOnUse"><stop stop-color="#FFD626"/><stop offset="1" stop-color="#FFA300"/></linearGradient><linearGradient id="e" x1="335.199" x2="335.199" y1="8" y2="36" gradientUnits="userSpaceOnUse"><stop stop-color="#00E5EA"/><stop offset="1" stop-color="#00B5CC"/></linearGradient><linearGradient id="f" x1="409.199" x2="409.199" y1="15" y2="43" gradientUnits="userSpaceOnUse"><stop stop-color="#FF84A4"/><stop offset="1" stop-color="#FF0083"/></linearGradient><linearGradient id="g" x1="244.199" x2="244.199" y1="44" y2="72" gradientUnits="userSpaceOnUse"><stop stop-color="#FF84A4"/><stop offset="1" stop-color="#FF0083"/></linearGradient><linearGradient id="h" x1="268.85" x2="268.85" y1="37" y2="177.419" gradientUnits="userSpaceOnUse"><stop stop-color="#FF84A4"/><stop offset="1" stop-color="#FF0083"/></linearGradient><linearGradient id="i" x1="252.666" x2="252.666" y1="23" y2="187" gradientUnits="userSpaceOnUse"><stop stop-color="#00E5EA"/><stop offset="1" stop-color="#00B5CC"/></linearGradient><linearGradient id="j" x1="270.07" x2="270.07" y1="41.897" y2="187" gradientUnits="userSpaceOnUse"><stop stop-color="#59EFF1"/><stop offset=".681" stop-color="#00B5CC"/><stop offset="1" stop-color="#00C9D9"/></linearGradient><linearGradient id="l" x1="491.5" x2="491.5" y1="90" y2="138" gradientUnits="userSpaceOnUse"><stop stop-color="#0069A5"/><stop offset="1" stop-color="#003D6B"/></linearGradient><linearGradient id="m" x1="487.5" x2="487.5" y1="90" y2="138" gradientUnits="userSpaceOnUse"><stop stop-color="#FF84A4"/><stop offset="1" stop-color="#FF0083"/></linearGradient><linearGradient id="o" x1="73.259" x2="73.259" y1="90" y2="137.047" gradientUnits="userSpaceOnUse"><stop stop-color="#0069A5"/><stop offset="1" stop-color="#003D6B"/></linearGradient><linearGradient id="p" x1="73.796" x2="73.796" y1="89.154" y2="122.813" gradientUnits="userSpaceOnUse"><stop stop-color="#00E5EA"/><stop offset="1" stop-color="#00B5CC"/></linearGradient><linearGradient id="q" x1="82.079" x2="82.079" y1="112.603" y2="139.507" gradientUnits="userSpaceOnUse"><stop stop-color="#FFD626"/><stop offset="1" stop-color="#FFA300"/></linearGradient><linearGradient id="r" x1="53.359" x2="52.359" y1="101.603" y2="141.582" gradientUnits="userSpaceOnUse"><stop stop-color="#FF84A4"/><stop offset="1" stop-color="#FF0083"/></linearGradient><linearGradient id="t" x1="28.259" x2="28.259" y1="90" y2="137.047" gradientUnits="userSpaceOnUse"><stop stop-color="#0069A5"/><stop offset="1" stop-color="#003D6B"/></linearGradient><linearGradient id="u" x1="28.797" x2="28.797" y1="89.154" y2="136.527" gradientUnits="userSpaceOnUse"><stop stop-color="#FFD626"/><stop offset="1" stop-color="#FFA300"/></linearGradient><linearGradient id="v" x1="8.199" x2="8.199" y1="89.805" y2="141.603" gradientUnits="userSpaceOnUse"><stop stop-color="#FF84A4"/><stop offset="1" stop-color="#FF0083"/></linearGradient><linearGradient id="x" x1="122" x2="122" y1="89" y2="139" gradientUnits="userSpaceOnUse"><stop stop-color="#0069A5"/><stop offset="1" stop-color="#003D6B"/></linearGradient><linearGradient id="y" x1="113.5" x2="113.5" y1="97" y2="131" gradientUnits="userSpaceOnUse"><stop stop-color="#FFD626"/><stop offset="1" stop-color="#FFA300"/></linearGradient><linearGradient id="z" x1="135" x2="134.5" y1="89" y2="139" gradientUnits="userSpaceOnUse"><stop stop-color="#FF84A4"/><stop offset="1" stop-color="#FF0083"/></linearGradient><linearGradient id="B" x1="159.699" x2="159.699" y1="90" y2="139" gradientUnits="userSpaceOnUse"><stop stop-color="#0069A5"/><stop offset="1" stop-color="#003D6B"/></linearGradient><linearGradient id="C" x1="155.699" x2="155.699" y1="90" y2="132" gradientUnits="userSpaceOnUse"><stop stop-color="#00E5EA"/><stop offset="1" stop-color="#00B5CC"/></linearGradient><linearGradient id="E" x1="189.462" x2="189.462" y1="90" y2="137.685" gradientUnits="userSpaceOnUse"><stop stop-color="#0069A5"/><stop offset="1" stop-color="#003D6B"/></linearGradient><linearGradient id="F" x1="189.455" x2="189.455" y1="89.784" y2="94.784" gradientUnits="userSpaceOnUse"><stop stop-color="#FFD626"/><stop offset="1" stop-color="#FFA300"/></linearGradient><linearGradient id="G" x1="189.462" x2="189.462" y1="101.784" y2="137.784" gradientUnits="userSpaceOnUse"><stop stop-color="#FF84A4"/><stop offset="1" stop-color="#FF0083"/></linearGradient><linearGradient id="I" x1="371.462" x2="371.462" y1="90" y2="137.685" gradientUnits="userSpaceOnUse"><stop stop-color="#0069A5"/><stop offset="1" stop-color="#003D6B"/></linearGradient><linearGradient id="J" x1="371.455" x2="371.455" y1="89.732" y2="137.784" gradientUnits="userSpaceOnUse"><stop stop-color="#FF84A4"/><stop offset="1" stop-color="#FF0083"/></linearGradient><linearGradient id="K" x1="377.43" x2="377.43" y1="89.784" y2="137.149" gradientUnits="userSpaceOnUse"><stop stop-color="#00E5EA"/><stop offset="1" stop-color="#00B5CC"/></linearGradient><linearGradient id="M" x1="227.5" x2="227.5" y1="90" y2="138" gradientUnits="userSpaceOnUse"><stop stop-color="#0069A5"/><stop offset="1" stop-color="#003D6B"/></linearGradient><linearGradient id="N" x1="227.5" x2="227.5" y1="90" y2="138" gradientUnits="userSpaceOnUse"><stop stop-color="#FFD626"/><stop offset="1" stop-color="#FFA300"/></linearGradient><linearGradient id="P" x1="266.422" x2="266.422" y1="90" y2="137.753" gradientUnits="userSpaceOnUse"><stop stop-color="#0069A5"/><stop offset="1" stop-color="#003D6B"/></linearGradient><linearGradient id="Q" x1="266.422" x2="266.422" y1="90" y2="137.905" gradientUnits="userSpaceOnUse"><stop stop-color="#FF84A4"/><stop offset="1" stop-color="#FF0083"/></linearGradient><linearGradient id="R" x1="270.612" x2="270.612" y1="100.901" y2="137.901" gradientUnits="userSpaceOnUse"><stop stop-color="#FFD626"/><stop offset="1" stop-color="#FFA300"/></linearGradient><linearGradient id="T" x1="331.159" x2="331.159" y1="91" y2="137.691" gradientUnits="userSpaceOnUse"><stop stop-color="#0069A5"/><stop offset="1" stop-color="#003D6B"/></linearGradient><linearGradient id="U" x1="329.648" x2="329.648" y1="87.944" y2="131.378" gradientUnits="userSpaceOnUse"><stop stop-color="#FFD626"/><stop offset="1" stop-color="#FFA300"/></linearGradient><linearGradient id="W" x1="453.5" x2="453.5" y1="90" y2="139" gradientUnits="userSpaceOnUse"><stop stop-color="#0069A5"/><stop offset="1" stop-color="#003D6B"/></linearGradient><linearGradient id="X" x1="445.5" x2="445.5" y1="88" y2="139" gradientUnits="userSpaceOnUse"><stop stop-color="#FFD626"/><stop offset="1" stop-color="#FFA300"/></linearGradient><linearGradient id="Y" x1="461.965" x2="461.965" y1="104.226" y2="142" gradientUnits="userSpaceOnUse"><stop stop-color="#00E5EA"/><stop offset="1" stop-color="#00B5CC"/></linearGradient><linearGradient id="aa" x1="408" x2="408" y1="90" y2="138" gradientUnits="userSpaceOnUse"><stop stop-color="#0069A5"/><stop offset="1" stop-color="#003D6B"/></linearGradient><linearGradient id="ab" x1="410.574" x2="410.574" y1="90" y2="115.083" gradientUnits="userSpaceOnUse"><stop stop-color="#FF84A4"/><stop offset="1" stop-color="#FF0083"/></linearGradient><linearGradient id="ac" x1="417.595" x2="417.595" y1="110.569" y2="138" gradientUnits="userSpaceOnUse"><stop stop-color="#00E5EA"/><stop offset="1" stop-color="#00B5CC"/></linearGradient><linearGradient id="ad" x1="393.5" x2="393.5" y1="90" y2="138" gradientUnits="userSpaceOnUse"><stop stop-color="#FFD626"/><stop offset="1" stop-color="#FFA300"/></linearGradient><filter id="a" width="506.199" height="193" x="1" y="1" color-interpolation-filters="sRGB" filterUnits="userSpaceOnUse"><feFlood flood-opacity="0" result="BackgroundImageFix"/><feColorMatrix in="SourceAlpha" result="hardAlpha" values="0 0 0 0 0 0 0 0 0 0 0 0 0 0 0 0 0 0 127 0"/><feOffset/><feGaussianBlur stdDeviation="2.5"/><feComposite in2="hardAlpha" operator="out"/><feColorMatrix values="0 0 0 0 1 0 0 0 0 1 0 0 0 0 1 0 0 0 1 0"/><feBlend in2="BackgroundImageFix" result="effect1_dropShadow_2_2"/><feBlend in="SourceGraphic" in2="effect1_dropShadow_2_2" result="shape"/></filter></defs></svg>