<svg xmlns="http://www.w3.org/2000/svg" xmlns:xlink="http://www.w3.org/1999/xlink" viewBox="0 0 317.09 317.09"><defs><style>.cls-1{fill:none;}.cls-2{clip-path:url(#clip-path);}.cls-3{clip-path:url(#clip-path-3);}.cls-4{fill:url(#linear-gradient);}.cls-5{fill:url(#linear-gradient-2);}.cls-6{fill:url(#linear-gradient-3);}</style><clipPath id="clip-path"><rect class="cls-1" x="-549.1" width="317.09" height="317.09"/></clipPath><clipPath id="clip-path-3"><rect class="cls-1" x="-549.19" y="449.05" width="317.09" height="317.09"/></clipPath><linearGradient id="linear-gradient" x1="-1114.17" y1="4312.73" x2="-1114.17" y2="4002.5" gradientTransform="matrix(1, 0, 0.15, -0.99, 526.85, 4270.19)" gradientUnits="userSpaceOnUse"><stop offset="0" stop-color="#00e5ea"/><stop offset="1" stop-color="#00b5cc"/></linearGradient><linearGradient id="linear-gradient-2" x1="1304.27" y1="3113.95" x2="1303.7" y2="2946.14" gradientTransform="matrix(1, 0, 0, -1, -1109.25, 3123.51)" xlink:href="#linear-gradient"/><linearGradient id="linear-gradient-3" x1="126.09" y1="20.15" x2="126.09" y2="110.17" gradientUnits="userSpaceOnUse"><stop offset="0" stop-color="#0069a5"/><stop offset="1" stop-color="#003d6b"/></linearGradient><image id="image" width="1920" height="1080" /></defs><g id="Project_SEKAI_Square_Small" data-name="Project SEKAI Square Small"><rect class="cls-1" width="317.09" height="317.09"/><polygon class="cls-4" points="46.02 5.17 58.74 5.17 12.72 311.97 0 311.97 46.02 5.17"/><path class="cls-5" d="M209.68,24.34C212.81,3.48,120.18,5.15,70.17,5.15L51.63,128.73c47.84-2.79,142.7-2.89,139.41,19-1.63,10.87-7.93,10.46-8.74,15.89-2.18,14.54,101.72,8,116.37,6.49l-31.4-61.59,49.82-62.09c-25.06,2.61-118.28,7.1-116.32-5.94C201.81,33.53,208.45,32.54,209.68,24.34Z"/><path class="cls-6" d="M135.63,17.14,120.19,84.36c-4.13-3.77-10.45-6.17-17.53-6.15-12.42.05-22.47,7.53-22.44,16.72s10.13,16.6,22.55,16.56c10.76,0,19.72-5.65,21.91-13.12h0l0-.07c.1-.37.17-.74.25-1.12l9.27-41.29q24.45,5.46,25.88,14a23.83,23.83,0,0,1-3.39,16.59q13.82-8,15.19-23.47T135.63,17.14Z"/></g></svg>