<svg xmlns="http://www.w3.org/2000/svg" fill="none" viewBox="0 0 280 201"><g filter="url(#a)"><mask id="b" width="256" height="185" x="12.348" y="4" fill="#000" maskUnits="userSpaceOnUse"><path fill="#fff" d="M12.348 4h256v185h-256z"/><path fill-rule="evenodd" d="M219.886 20.997c-7.588-.167-13.687-6.37-13.687-13.997 0 7.732-6.268 14-14 14 7.732 0 14 6.268 14 14 0-7.732 6.268-14 14-14l-.313-.003Zm-30.018 9c-9.788-.176-17.669-8.166-17.669-17.997 0 9.941-8.059 18-18 18 9.941 0 18 8.059 18 18 0-9.941 8.059-18 18-18l-.331-.003ZM115.199 43c0 7.627 6.099 13.83 13.687 13.997l.313.003c-7.732 0-14 6.268-14 14 0-7.732-6.268-14-14-14 7.732 0 14-6.268 14-14Zm-22.302 99.725A23.889 23.889 0 0 1 107.2 138a23.894 23.894 0 0 1 14.903 5.187l15.366-73.215a399.711 399.711 0 0 0-10.725 4.7l-.641.294a563.03 563.03 0 0 1 11.505-5.655l5.963-28.414c7.304 5.933 13.884 11.587 19.743 16.965 51.826-21.39 93.762-28.151 100.735-14.467 6.179 12.128-16.772 37.032-55.323 62.975 27.316-19.053 42.717-37.797 37.673-48.864-6.022-13.214-39.426-11.613-81.222 2.08 23.601 22.005 34.83 39.253 33.686 51.744-1.451 15.833-9.241 27.782-23.37 35.846 4.6-7.63 6.44-15.488 5.522-23.573a552.064 552.064 0 0 1-25.153 13.637 554.531 554.531 0 0 1-24.675 11.823l-1.142 5.562A23.967 23.967 0 0 1 131.2 162c0 3.516-.756 6.855-2.115 9.864 8.566 3.317 17.878 5.136 27.615 5.136 11.595 0 22.587-2.58 32.435-7.196C175.475 179.978 158.54 186 140.199 186c-7.476 0-14.719-1-21.601-2.875A23.888 23.888 0 0 1 107.199 186c-11.427 0-20.989-7.986-23.409-18.68-35.683 11.219-62.043 12.881-67.442 2.285-5.395-10.588 11.415-30.915 41.424-53.17-17.571 14.812-26.497 28.475-22.485 37.28 4.177 9.165 21.525 11.203 45.71 7.023C66.876 146.007 58.199 126.017 58.199 104c0-45.287 36.712-82 82-82 6.241 0 12.32.697 18.162 2.018a74.138 74.138 0 0 0-1.662-.018c-42.25 0-76.5 34.25-76.5 76.5 0 15.608 4.674 30.124 12.698 42.225Zm38.87 3.508a390.421 390.421 0 0 0 23.175-9.684 386.5 386.5 0 0 0 26.059-13.064 38.109 38.109 0 0 0-.237-1.685c-1.426-8.722-14.609-15.915-39.551-21.579l-9.446 46.012Z" clip-rule="evenodd"/></mask><path fill="#fff" fill-rule="evenodd" d="M219.886 20.997c-7.588-.167-13.687-6.37-13.687-13.997 0 7.732-6.268 14-14 14 7.732 0 14 6.268 14 14 0-7.732 6.268-14 14-14l-.313-.003Zm-30.018 9c-9.788-.176-17.669-8.166-17.669-17.997 0 9.941-8.059 18-18 18 9.941 0 18 8.059 18 18 0-9.941 8.059-18 18-18l-.331-.003ZM115.199 43c0 7.627 6.099 13.83 13.687 13.997l.313.003c-7.732 0-14 6.268-14 14 0-7.732-6.268-14-14-14 7.732 0 14-6.268 14-14Zm-22.302 99.725A23.889 23.889 0 0 1 107.2 138a23.894 23.894 0 0 1 14.903 5.187l15.366-73.215a399.711 399.711 0 0 0-10.725 4.7l-.641.294a563.03 563.03 0 0 1 11.505-5.655l5.963-28.414c7.304 5.933 13.884 11.587 19.743 16.965 51.826-21.39 93.762-28.151 100.735-14.467 6.179 12.128-16.772 37.032-55.323 62.975 27.316-19.053 42.717-37.797 37.673-48.864-6.022-13.214-39.426-11.613-81.222 2.08 23.601 22.005 34.83 39.253 33.686 51.744-1.451 15.833-9.241 27.782-23.37 35.846 4.6-7.63 6.44-15.488 5.522-23.573a552.064 552.064 0 0 1-25.153 13.637 554.531 554.531 0 0 1-24.675 11.823l-1.142 5.562A23.967 23.967 0 0 1 131.2 162c0 3.516-.756 6.855-2.115 9.864 8.566 3.317 17.878 5.136 27.615 5.136 11.595 0 22.587-2.58 32.435-7.196C175.475 179.978 158.54 186 140.199 186c-7.476 0-14.719-1-21.601-2.875A23.888 23.888 0 0 1 107.199 186c-11.427 0-20.989-7.986-23.409-18.68-35.683 11.219-62.043 12.881-67.442 2.285-5.395-10.588 11.415-30.915 41.424-53.17-17.571 14.812-26.497 28.475-22.485 37.28 4.177 9.165 21.525 11.203 45.71 7.023C66.876 146.007 58.199 126.017 58.199 104c0-45.287 36.712-82 82-82 6.241 0 12.32.697 18.162 2.018a74.138 74.138 0 0 0-1.662-.018c-42.25 0-76.5 34.25-76.5 76.5 0 15.608 4.674 30.124 12.698 42.225Zm38.87 3.508a390.421 390.421 0 0 0 23.175-9.684 386.5 386.5 0 0 0 26.059-13.064 38.109 38.109 0 0 0-.237-1.685c-1.426-8.722-14.609-15.915-39.551-21.579l-9.446 46.012Z" clip-rule="evenodd"/><path fill="#fff" d="M209.199 7a3 3 0 1 0-6 0h6Zm10.687 13.997-.066 2.999h.033l.033-3ZM192.199 18a3 3 0 1 0 0 6v-6Zm11 17a3 3 0 1 0 6 0h-6Zm17-14v3a3 3 0 0 0 .033-6l-.033 3Zm-45-9a3 3 0 1 0-6 0h6Zm14.669 17.997-.054 3h.027l.027-3ZM154.199 27a3 3 0 1 0 0 6v-6Zm15 21a3 3 0 1 0 6 0h-6Zm21-18v3a3 3 0 0 0 .027-6l-.027 3Zm-61.313 26.997-.066 2.999h.033l.033-3ZM118.199 43a3 3 0 1 0-6 0h6Zm11 14v3a3 3 0 0 0 .033-6l-.033 3Zm-17 14a3 3 0 1 0 6 0h-6Zm-11-17a3 3 0 1 0 0 6v-6Zm-8.302 88.725-2.5 1.658a3.002 3.002 0 0 0 4.29.749l-1.79-2.407Zm29.205.462-1.864 2.35a3 3 0 0 0 4.8-1.734l-2.936-.616Zm15.366-73.215 2.936.616a3 3 0 0 0-4.099-3.382l1.163 2.766Zm-10.725 4.7-1.244-2.73-.006.002 1.25 2.727Zm-.641.294-1.354-2.678a3 3 0 0 0 2.604 5.405l-1.25-2.727Zm11.505-5.655 1.292 2.707a3 3 0 0 0 1.644-2.091l-2.936-.617Zm5.963-28.414 1.892-2.329a3.001 3.001 0 0 0-4.828 1.713l2.936.616Zm19.743 16.965-2.029 2.21a3 3 0 0 0 3.173.563l-1.144-2.773Zm100.735-14.467 2.673-1.362-2.673 1.362Zm-55.323 62.975-1.716-2.461a3 3 0 0 0 3.391 4.95l-1.675-2.489Zm37.673-48.864 2.73-1.244-2.73 1.244Zm-81.222 2.08-.934-2.852a3.002 3.002 0 0 0-1.112 5.045l2.046-2.194Zm33.686 51.744 2.987.273-2.987-.273Zm-23.37 35.846-2.569-1.549a3 3 0 0 0 4.056 4.155l-1.487-2.606Zm5.522-23.573 2.981-.339a3.002 3.002 0 0 0-4.48-2.26l1.499 2.599Zm-25.153 13.637-1.362-2.673 1.362 2.673Zm-24.675 11.823-1.228-2.737a3.001 3.001 0 0 0-1.711 2.133l2.939.604Zm-1.142 5.562-2.938-.604a2.99 2.99 0 0 0 .083 1.525l2.855-.921Zm-.96 17.239-2.734-1.234a3.001 3.001 0 0 0 1.651 4.032l1.083-2.798Zm60.05-2.06 1.792 2.405a2.999 2.999 0 0 0-3.066-5.122l1.274 2.717Zm-70.536 13.321.789-2.894a3.003 3.003 0 0 0-2.216.255l1.427 2.639ZM83.79 167.32l2.926-.663a3 3 0 0 0-3.825-2.199l.9 2.862Zm-67.442 2.285 2.673-1.362-2.673 1.362Zm41.424-53.17 1.934 2.294a3 3 0 0 0-3.72-4.703l1.786 2.409Zm-22.485 37.28 2.73-1.245-2.73 1.245Zm45.71 7.023.51 2.956a3 3 0 0 0 1.656-5.032l-2.166 2.076Zm77.364-136.72-.067 3a3 3 0 0 0 .728-5.926l-.661 2.926Zm-26.594 122.215-2.939-.603a3 3 0 0 0 4.004 3.407l-1.065-2.804Zm23.175-9.684 1.244 2.73-1.244-2.73Zm26.059-13.064 1.447 2.628a2.998 2.998 0 0 0 1.532-2.976l-2.979.348Zm-.237-1.685 2.961-.484-2.961.484Zm-39.551-21.579.665-2.925a3.001 3.001 0 0 0-3.603 2.322l2.938.603ZM203.199 7c0 9.262 7.407 16.794 16.621 16.996l.132-5.999c-5.961-.13-10.753-5.004-10.753-10.997h-6Zm-11 17c9.389 0 17-7.611 17-17h-6c0 6.075-4.925 11-11 11v6Zm17 11c0-9.389-7.611-17-17-17v6c6.075 0 11 4.925 11 11h6Zm11-17c-9.389 0-17 7.611-17 17h6c0-6.075 4.925-11 11-11v-6Zm-.346 5.996.313.004.066-6-.313-.003-.066 6ZM169.199 12c0 11.47 9.194 20.79 20.615 20.996l.108-5.999c-8.156-.146-14.723-6.805-14.723-14.997h-6Zm-15 21c11.598 0 21-9.402 21-21h-6c0 8.284-6.716 15-15 15v6Zm21 15c0-11.598-9.402-21-21-21v6c8.284 0 15 6.716 15 15h6Zm15-21c-11.598 0-21 9.402-21 21h6c0-8.284 6.715-15 15-15v-6Zm-.358 5.997.331.003.054-6-.331-.003-.054 6Zm-60.889 21c-5.961-.13-10.753-5.004-10.753-10.997h-6c0 9.262 7.407 16.794 16.621 16.996l.132-5.999Zm.28.003-.313-.003-.066 6 .313.003.066-6Zm-11.033 17c0-6.075 4.925-11 11-11v-6c-9.389 0-17 7.611-17 17h6Zm-17-11c6.075 0 11 4.925 11 11h6c0-9.389-7.611-17-17-17v6Zm11-17c0 6.075-4.925 11-11 11v6c9.389 0 17-7.611 17-17h-6ZM94.687 145.132A20.892 20.892 0 0 1 107.199 141v-6a26.892 26.892 0 0 0-16.091 5.317l3.579 4.815ZM107.199 141c4.93 0 9.456 1.695 13.039 4.537l3.728-4.701A26.895 26.895 0 0 0 107.199 135v6Zm17.839 2.803 15.366-73.215-5.872-1.233-15.366 73.216 5.872 1.232Zm11.267-76.597a401.464 401.464 0 0 0-10.806 4.736l2.488 5.46a395.972 395.972 0 0 1 10.645-4.665l-2.327-5.53Zm-10.812 4.738-.642.294 2.501 5.455.641-.294-2.5-5.455Zm1.962 5.699a561.684 561.684 0 0 1 11.444-5.625l-2.584-5.415a564.968 564.968 0 0 0-11.567 5.685l2.707 5.355Zm13.088-7.716 5.963-28.414-5.872-1.232-5.963 28.413 5.872 1.233Zm1.136-26.702c7.264 5.902 13.798 11.517 19.605 16.847l4.057-4.42c-5.91-5.425-12.537-11.12-19.879-17.084l-3.783 4.657Zm22.778 17.41c25.787-10.643 48.98-17.587 66.485-20.192 8.772-1.305 15.936-1.492 21.218-.61 5.364.897 8.115 2.766 9.215 4.924l5.346-2.724c-2.386-4.683-7.492-7.101-13.572-8.117-6.162-1.03-14.028-.756-23.09.592-18.162 2.703-41.851 9.834-67.891 20.58l2.289 5.547Zm96.918-15.878c.973 1.91 1.012 4.726-.705 8.775-1.705 4.022-4.964 8.802-9.75 14.175-9.551 10.723-24.7 23.274-43.87 36.174l3.35 4.978c19.381-13.043 34.983-25.915 45-37.162 4.999-5.612 8.729-10.953 10.794-15.823 2.053-4.842 2.643-9.687.527-13.84l-5.346 2.723Zm-50.933 64.074c13.782-9.613 24.725-19.259 31.614-28.035 3.443-4.386 5.972-8.678 7.281-12.747 1.315-4.091 1.45-8.148-.209-11.787l-5.46 2.488c.863 1.894.964 4.33-.043 7.462-1.014 3.154-3.097 6.814-6.288 10.879-6.379 8.126-16.794 17.379-30.328 26.818l3.433 4.922Zm38.686-52.57c-1.984-4.352-6.081-7.146-11.163-8.786-5.085-1.64-11.513-2.254-18.859-2.018-14.716.473-33.814 4.381-54.864 11.277l1.868 5.702c20.746-6.796 39.248-10.534 53.188-10.982 6.982-.224 12.647.384 16.825 1.732 4.181 1.348 6.518 3.31 7.545 5.564l5.46-2.488ZM163.13 61.78c11.711 10.92 20.226 20.545 25.654 28.883 5.464 8.393 7.572 15.132 7.09 20.394l5.975.547c.662-7.228-2.271-15.359-8.036-24.214-5.8-8.91-14.701-18.911-26.591-29.998l-4.092 4.389Zm32.744 49.277c-1.358 14.831-8.567 25.923-21.869 33.515l2.974 5.211c14.957-8.537 23.328-21.343 24.87-38.179l-5.975-.547Zm-17.813 37.669c4.907-8.139 6.934-16.655 5.934-25.461l-5.962.677c.837 7.366-.818 14.566-5.11 21.686l5.138 3.098Zm1.454-27.721a548.994 548.994 0 0 1-25.016 13.563l2.724 5.346a554.685 554.685 0 0 0 25.29-13.712l-2.998-5.197Zm-25.016 13.563a551.223 551.223 0 0 1-24.541 11.759l2.456 5.474a556.152 556.152 0 0 0 24.809-11.887l-2.724-5.346Zm-26.252 13.892-1.141 5.562 5.877 1.207 1.142-5.562-5.878-1.207Zm-1.058 7.087a20.97 20.97 0 0 1 1.01 6.454h6c0-2.89-.455-5.679-1.3-8.296l-5.71 1.842Zm1.01 6.454a20.91 20.91 0 0 1-1.849 8.63l5.469 2.469a26.918 26.918 0 0 0 2.38-11.099h-6Zm-.198 12.662c8.906 3.448 18.585 5.338 28.698 5.338v-6c-9.361 0-18.306-1.748-26.531-4.933l-2.167 5.595ZM156.699 180c12.044 0 23.471-2.68 33.708-7.48l-2.547-5.433c-9.457 4.434-20.015 6.913-31.161 6.913v6Zm30.643-12.602C174.183 177.2 157.873 183 140.199 183v6c19.009 0 36.568-6.244 50.727-16.791l-3.584-4.811ZM140.199 183a79.088 79.088 0 0 1-20.812-2.769l-1.577 5.789a85.126 85.126 0 0 0 22.389 2.98v-6Zm-23.028-2.514a20.886 20.886 0 0 1-9.972 2.514v6a26.89 26.89 0 0 0 12.826-3.236l-2.854-5.278ZM107.199 183c-9.995 0-18.365-6.985-20.483-16.343l-5.852 1.325C83.587 180.014 94.34 189 107.2 189v-6Zm-24.308-18.542c-17.724 5.572-32.952 8.71-44.304 9.188-5.686.239-10.226-.198-13.564-1.219-3.331-1.019-5.15-2.513-6.002-4.184l-5.346 2.724c1.848 3.627 5.348 5.899 9.593 7.197 4.239 1.297 9.531 1.73 15.57 1.476 12.099-.509 27.892-3.812 45.852-9.459l-1.8-5.723Zm-63.87 3.785c-.85-1.67-.99-4.017.14-7.308 1.134-3.297 3.445-7.223 6.974-11.677 7.048-8.895 18.52-19.36 33.424-30.413l-3.574-4.819c-15.104 11.201-27.042 22.027-34.553 31.506-3.75 4.733-6.505 9.265-7.944 13.453-1.442 4.194-1.66 8.358.187 11.982l5.346-2.724Zm36.818-54.101c-8.906 7.506-15.795 14.862-19.957 21.611-4.094 6.639-5.965 13.412-3.325 19.206l5.46-2.489c-1.372-3.01-.787-7.471 2.972-13.568 3.692-5.986 10.05-12.868 18.717-20.173l-3.867-4.587Zm-23.282 40.817c2.747 6.027 9.49 9.068 17.655 10.241 8.32 1.196 19.051.61 31.296-1.506l-1.022-5.912c-11.94 2.063-21.976 2.549-29.42 1.479-7.6-1.092-11.62-3.653-13.05-6.791l-5.459 2.489Zm50.606 3.703C69.555 144.467 61.199 125.213 61.199 104h-6c0 22.821 8.997 43.547 23.632 58.814l4.332-4.152ZM61.199 104c0-43.63 35.37-79 79-79v-6c-46.945 0-85 38.056-85 85h6Zm79-79a79.27 79.27 0 0 1 17.5 1.944l1.323-5.852A85.268 85.268 0 0 0 140.199 19v6Zm18.229-3.981a77.263 77.263 0 0 0-1.729-.019v6c.534 0 1.065.006 1.595.017l.134-5.998ZM156.699 21c-43.907 0-79.5 35.593-79.5 79.5h6c0-40.593 32.907-73.5 73.5-73.5v-6Zm-79.5 79.5c0 16.215 4.858 31.305 13.198 43.883l5-3.316C87.69 129.442 83.2 115.5 83.2 100.5h-6Zm55.633 48.537a392.921 392.921 0 0 0 23.354-9.758l-2.488-5.46a386.84 386.84 0 0 1-22.996 9.609l2.13 5.609Zm23.354-9.758a389.224 389.224 0 0 0 26.262-13.166l-2.894-5.256a383.303 383.303 0 0 1-25.856 12.962l2.488 5.46Zm27.794-16.142a39.247 39.247 0 0 0-.255-1.821l-5.921.968c.084.518.157 1.035.217 1.549l5.959-.696Zm-.255-1.821c-.941-5.755-5.631-10.349-12.481-14.086-6.946-3.789-16.787-7.077-29.366-9.934l-1.329 5.851c12.362 2.807 21.584 5.947 27.821 9.35 6.334 3.456 8.949 6.82 9.434 9.787l5.921-.968Zm-45.45-21.698-9.447 46.012 5.878 1.206 9.446-46.011-5.877-1.207Z" mask="url(#b)"/></g><path fill="url(#c)" fill-rule="evenodd" d="M172.199 12c0 9.83 7.881 17.82 17.669 17.997l.331.003c-9.941 0-18 8.059-18 18 0-9.941-8.059-18-18-18 9.941 0 18-8.059 18-18Z" clip-rule="evenodd"/><path fill="url(#d)" fill-rule="evenodd" d="M206.199 7c0 7.627 6.099 13.83 13.687 13.997l.313.003c-7.732 0-14 6.268-14 14 0-7.732-6.268-14-14-14 7.732 0 14-6.268 14-14Z" clip-rule="evenodd"/><path fill="url(#e)" fill-rule="evenodd" d="M115.199 43c0 7.627 6.099 13.83 13.687 13.997l.313.003c-7.732 0-14 6.268-14 14 0-7.732-6.268-14-14-14 7.732 0 14-6.268 14-14Z" clip-rule="evenodd"/><path fill="url(#f)" fill-rule="evenodd" d="M35.287 153.715c7.787 17.087 61.358 9.401 119.655-17.166 11.245-5.125 21.844-10.578 31.573-16.164a546.694 546.694 0 0 1-30.654 16.855c-68.4 34.852-130.862 49.342-139.513 32.365-5.395-10.588 11.415-30.915 41.424-53.17-17.571 14.812-26.497 28.475-22.485 37.28Zm90.815-78.75c67.785-34.276 129.362-48.417 137.946-31.57 6.179 12.128-16.772 37.032-55.323 62.975 27.316-19.053 42.717-37.797 37.673-48.864-7.787-17.087-61.358-9.402-119.655 17.165l-.641.294Z" clip-rule="evenodd"/><path fill="url(#g)" fill-rule="evenodd" d="M140.199 22c6.241 0 12.32.697 18.162 2.018a74.138 74.138 0 0 0-1.662-.018c-42.25 0-76.5 34.25-76.5 76.5s34.25 76.5 76.5 76.5c11.595 0 22.587-2.58 32.435-7.196C175.475 179.978 158.54 186 140.199 186c-45.288 0-82-36.713-82-82s36.712-82 82-82Z" clip-rule="evenodd"/><path fill="url(#h)" fill-rule="evenodd" d="M143.57 40.897c38.312 31.122 56.742 54.6 55.292 70.433-1.451 15.833-9.241 27.782-23.37 35.846 4.941-8.196 6.698-16.654 5.272-25.376-1.426-8.722-14.609-15.915-39.551-21.579l-11.169 54.404a23.967 23.967 0 0 1 1.155 7.375c0 13.255-10.745 24-24 24s-24-10.745-24-24 10.745-24 24-24a23.894 23.894 0 0 1 14.903 5.187l21.468-102.29Z" clip-rule="evenodd"/><defs><linearGradient id="c" x1="172.199" x2="172.199" y1="12" y2="48" gradientUnits="userSpaceOnUse"><stop stop-color="#FFD626"/><stop offset="1" stop-color="#FFA300"/></linearGradient><linearGradient id="d" x1="206.199" x2="206.199" y1="7" y2="35" gradientUnits="userSpaceOnUse"><stop stop-color="#00E5EA"/><stop offset="1" stop-color="#00B5CC"/></linearGradient><linearGradient id="e" x1="115.199" x2="115.199" y1="43" y2="71" gradientUnits="userSpaceOnUse"><stop stop-color="#FF84A4"/><stop offset="1" stop-color="#FF0083"/></linearGradient><linearGradient id="f" x1="124.537" x2="155.861" y1="75.763" y2="137.24" gradientUnits="userSpaceOnUse"><stop stop-color="#FF84A4"/><stop offset="1" stop-color="#FF0083"/></linearGradient><linearGradient id="g" x1="123.666" x2="123.666" y1="22" y2="186" gradientUnits="userSpaceOnUse"><stop stop-color="#00E5EA"/><stop offset="1" stop-color="#00B5CC"/></linearGradient><linearGradient id="h" x1="141.07" x2="141.07" y1="40.897" y2="186" gradientUnits="userSpaceOnUse"><stop stop-color="#59EFF1"/><stop offset=".681" stop-color="#00B5CC"/><stop offset="1" stop-color="#00C9D9"/></linearGradient><filter id="a" width="263.7" height="193" x="8.348" y="0" color-interpolation-filters="sRGB" filterUnits="userSpaceOnUse"><feFlood flood-opacity="0" result="BackgroundImageFix"/><feColorMatrix in="SourceAlpha" result="hardAlpha" values="0 0 0 0 0 0 0 0 0 0 0 0 0 0 0 0 0 0 127 0"/><feOffset/><feGaussianBlur stdDeviation="2"/><feComposite in2="hardAlpha" operator="out"/><feColorMatrix values="0 0 0 0 1 0 0 0 0 1 0 0 0 0 1 0 0 0 1 0"/><feBlend in2="BackgroundImageFix" result="effect1_dropShadow_2_250"/><feBlend in="SourceGraphic" in2="effect1_dropShadow_2_250" result="shape"/></filter></defs></svg>